<?xml version="1.0" standalone="no"?><!DOCTYPE svg PUBLIC "-//W3C//DTD SVG 1.1//EN" "http://www.w3.org/Graphics/SVG/1.1/DTD/svg11.dtd"><svg t="1591666865063" class="icon" viewBox="0 0 1024 1024" version="1.1" xmlns="http://www.w3.org/2000/svg" p-id="5866" xmlns:xlink="http://www.w3.org/1999/xlink" width="64" height="64"><defs><style type="text/css"></style></defs><path d="M876.9 0H146.3C65.4 0.2 0 65.9 0 146.7v730.6c0 81 65.7 146.7 146.7 146.7h730.6c81 0 146.7-65.7 146.7-146.7V146.7C1024 65.7 958.3 0 877.3 0h-0.4zM76.5 146.7c0.2-38.7 31.5-70.1 70.3-70.3h730.6c39 0 70.6 31.6 70.6 70.6v613.5c-94.4-104.9-229.2-164.2-370.2-162.9-180.4 0-347.2 95.1-498.2 295-1.6-5.1-2.7-10.4-3.1-15.8V146.7z m800.8 800.8H146.7c-4 0.4-8 0.4-12 0 137.1-187 285.2-277.7 441.2-273.4 145.9-2.5 282.4 71.6 359.7 195.4l10.4 15.7c-3.9 35.3-33.5 62.1-69 62.4l0.3-0.1z" fill="#919AAA" p-id="5867"></path><path d="M674.8 495.4c81 0 146.7-65.7 146.7-146.7S755.8 202 674.8 202c-81 0-146.7 65.7-146.7 146.7 0 81.1 65.6 146.7 146.7 146.7z m0-217.3c39 0 70.6 31.6 70.6 70.6s-31.6 70.6-70.6 70.6c-39 0-70.6-31.6-70.6-70.6 0-39 31.6-70.6 70.6-70.6z" fill="#919AAA" p-id="5868"></path></svg>