<?xml version="1.0" standalone="no"?><!DOCTYPE svg PUBLIC "-//W3C//DTD SVG 1.1//EN" "http://www.w3.org/Graphics/SVG/1.1/DTD/svg11.dtd"><svg t="1589937206991" class="icon" viewBox="0 0 1024 1024" version="1.1" xmlns="http://www.w3.org/2000/svg" p-id="3014" xmlns:xlink="http://www.w3.org/1999/xlink" width="32" height="32"><defs><style type="text/css"></style></defs><path d="M317.711874 695.53218c20.997943 20.997943 54.994612 20.997943 75.992555 0l588.742322-588.742322c20.997943-21.097933 20.997943-55.194593 0-76.192536-20.997943-20.897953-54.994612-20.897953-75.992555 0l-588.642332 588.742322c-21.097933 20.997943-21.097933 55.094602-0.09999 76.192536z" fill="#CCCCCC" p-id="3015"></path><path d="M970.047966 431.15808c-29.5971 0-53.69474 23.997649-53.69474 53.69474v431.45773h-808.62078v-808.72077h431.45773c29.697091 0 53.69474-24.097639 53.69474-53.79473 0-29.5971-23.897659-53.69474-53.59475-53.79473h-485.652421c-29.39712-0.09999-53.494759 23.597688-53.594749 53.094798v917.310133c-0.09999 29.49711 23.597688 53.494759 53.094798 53.594749h917.310132c29.49711 0 53.494759-23.797669 53.49476-53.294779V484.95281c-0.09999-29.697091-24.197629-53.79473-53.89472-53.79473z" fill="#CCCCCC" p-id="3016"></path></svg>