<?xml version="1.0" standalone="no"?><!DOCTYPE svg PUBLIC "-//W3C//DTD SVG 1.1//EN" "http://www.w3.org/Graphics/SVG/1.1/DTD/svg11.dtd"><svg t="1590982676398" class="icon" viewBox="0 0 1024 1024" version="1.1" xmlns="http://www.w3.org/2000/svg" p-id="4367" xmlns:xlink="http://www.w3.org/1999/xlink" width="64" height="64"><defs><style type="text/css"></style></defs><path d="M511.999985 959.999972c-247.399993 0-447.999987-200.599994-447.999987-447.999987s200.599994-447.999987 447.999987-447.999987 447.999987 200.599994 447.999987 447.999987c0.1 247.399993-200.399994 447.999987-447.799987 447.999987h-0.2m0-959.999972C229.199993 0 0 229.299993 0 512.099985s229.299993 511.999985 512.099985 511.899985c282.699992 0 511.899985-229.299993 511.899985-511.999985C1023.19997 229.599993 794.399977 0.8 511.999985 0" fill="#F7A197" p-id="4368"></path><path d="M546.299984 622.999982c8.5-4.2 12.8-17.099999 12.8-34.199999V277.399992c1.2-12.7-3.5-25.299999-12.8-34.199999-10.4-5.9-22.199999-8.8-34.099999-8.5-29.899999 0-42.599999 12.8-42.599999 38.399999v315.699991c0 25.599999 12.8 38.399999 42.599999 38.399999 11.5 3.1 23.799999 1.6 34.099999-4.2m0.1 80.999997c21.599999 18.899999 23.899999 51.699998 5 73.299998-18.899999 21.599999-51.699998 23.899999-73.299998 5-21.599999-18.899999-23.899999-51.699998-5-73.299998 9.9-11.3 24.099999-17.799999 39.099999-17.799999 12.6-0.3 24.899999 4.3 34.199999 12.799999" fill="#F7A197" p-id="4369"></path></svg>