<?xml version="1.0" standalone="no"?><!DOCTYPE svg PUBLIC "-//W3C//DTD SVG 1.1//EN" "http://www.w3.org/Graphics/SVG/1.1/DTD/svg11.dtd"><svg t="1591088099263" class="icon" viewBox="0 0 1024 1024" version="1.1" xmlns="http://www.w3.org/2000/svg" p-id="4623" xmlns:xlink="http://www.w3.org/1999/xlink" width="200" height="200"><defs><style type="text/css"></style></defs><path d="M168.8 958.354v-113.3h-103.8c-35.9 0-64.9-29.1-65-65v-713.7c0.1-35.9 29.3-65 65.2-65h893.8c35.7 0.4 64.6 29.3 65 65v713.7c0 35.9-29.1 65-65 65h-401.7l-291.6 169c-9.7 5.6-20.7 8.5-31.9 8.5-35.6 0.2-64.7-28.5-65-64.2z m84-433.9c0 21.4 17.3 38.8 38.7 38.9h440.6c21.3-0.3 38.6-17.5 39-38.9 0-21.5-17.5-38.9-39-38.9h-440.5c-21.4 0-38.8 17.3-38.8 38.9 0-0.1 0-0.1 0 0z m0-201.6c0 21.4 17.3 38.8 38.7 38.9h440.6c21.4-0.1 38.8-17.4 39-38.9 0-21.5-17.5-39-39-39h-440.5c-21.5 0-38.8 17.4-38.8 38.9v0.1z" fill="#FFFFFF" p-id="4624"></path></svg>