<?xml version="1.0" standalone="no"?><!DOCTYPE svg PUBLIC "-//W3C//DTD SVG 1.1//EN" "http://www.w3.org/Graphics/SVG/1.1/DTD/svg11.dtd"><svg t="1591317738290" class="icon" viewBox="0 0 1024 1024" version="1.1" xmlns="http://www.w3.org/2000/svg" p-id="6163" xmlns:xlink="http://www.w3.org/1999/xlink" width="48" height="48"><defs><style type="text/css"></style></defs><path d="M925.2 146.4H614.5V1024h318.2c50.5 0 91.4-40.9 91.4-91.4V245c-0.2-54.5-44.4-98.6-98.9-98.6z" fill="#FFFFFF" opacity=".5" p-id="6164"></path><path d="M508.4 0H106.1C47.5 0 0 47.5 0 106.1v811.8c0 58.6 47.5 106.1 106.1 106.1H614.4V106.1C614.4 47.6 566.9 0.1 508.4 0zM211.4 323.7c-0.1 25-20.3 45.2-45.3 45.2h-3.9c-25 0-45.3-20.2-45.3-45.2v-3.9c0-25 20.3-45.3 45.3-45.3h3.9c25 0 45.3 20.3 45.3 45.3v3.9z m-47.2-112c-26.1 0-47.3-21.2-47.3-47.3s21.2-47.3 47.3-47.3 47.3 21.2 47.3 47.3c0 26-21.1 47.2-47.1 47.3h-0.2z m157.3 0c-26.1 0-47.3-21.2-47.3-47.3s21.2-47.3 47.3-47.3 47.3 21.2 47.3 47.3c0 26-21.1 47.2-47.1 47.3h-0.2z" fill="#FFFFFF" p-id="6165"></path></svg>