<?xml version="1.0" standalone="no"?><!DOCTYPE svg PUBLIC "-//W3C//DTD SVG 1.1//EN" "http://www.w3.org/Graphics/SVG/1.1/DTD/svg11.dtd"><svg t="1590542093974" class="icon" viewBox="0 0 1024 1024" version="1.1" xmlns="http://www.w3.org/2000/svg" p-id="4398" xmlns:xlink="http://www.w3.org/1999/xlink" width="32" height="32"><defs><style type="text/css"></style></defs><path d="M854.211985 1023.800004h-686.287937c-92.398376-1.199979-166.897066-75.798668-167.897048-168.197044v-687.387917c0.999982-92.398376 75.498673-166.997065 167.897048-168.197043h686.387935c92.398376 1.199979 166.997065 75.798668 167.897048 168.197043v687.587914c-0.999982 92.398376-75.498673 167.197061-167.897048 168.197043v-0.099998h-0.099998z m-686.287937-976.282839c-66.298835 0.599989-119.897892 54.299046-120.397883 120.697878v687.587914c0.499991 66.298835 54.099049 120.097889 120.397883 120.697878h686.287937c66.298835-0.599989 119.897892-54.299046 120.397883-120.697878v-687.587914c-0.499991-66.298835-54.099049-120.097889-120.397883-120.697878h-686.287937z" fill="#F04531" p-id="4399"></path><path d="M295.721802 409.6108c-62.498901 0-113.098012-50.699109-113.098012-113.098012s50.699109-113.098012 113.098012-113.098012 113.098012 50.599111 113.098012 112.998014c-0.299995 62.398903-50.799107 112.798017-113.098012 113.19801z m0-178.996854c-36.39936 0-65.798843 29.399483-65.798844 65.798844s29.399483 65.798843 65.798844 65.798843 65.798843-29.399483 65.798843-65.798843c0.299995-36.099365-28.899492-65.498849-64.998857-65.798844h-0.799986z m-270.195251 529.390695c-5.799898-0.099998-11.099805-2.799951-14.599743-7.299872-9.899826-5.599902-13.199768-18.19968-7.599866-27.89951 0.999982-1.799968 2.399958-3.499938 3.999929-4.899914l160.597177-178.796857c29.199487-32.39943 78.298624-37.099348 113.098012-10.999806l160.597177 116.897945c16.49971 10.499815 38.299327 7.39987 51.1991-7.299872l204.396407-233.595894c16.999701-18.299678 40.699285-28.799494 65.798844-29.199486 25.899545 0.099998 50.199118 12.299784 65.798843 32.899421l189.396671 237.195831c8.399852 9.899826 7.299872 24.599568-2.599955 32.99942-9.899826 8.399852-24.599568 7.299872-32.999419-2.599955-0.399993-0.399993-0.599989-0.799986-0.999983-1.299977l-193.296602-237.495825c-7.599866-8.299854-17.999684-13.599761-29.199487-14.599743-10.79981-0.299995-21.199627 3.599937-29.199487 10.999806l-204.496405 233.695892c-29.199487 32.39943-78.298624 37.099348-113.098012 10.999807l-160.697175-116.897945c-16.099717-9.899826-36.599357-8.399852-51.1991 3.599937l-160.697175 178.896855c-3.599937 10.999807-10.999807 14.599743-14.599744 14.599743l0.399993 0.099999z" fill="#F04531" p-id="4400"></path><path d="M890.711343 727.505212c-6.79988-0.099998-13.299766-2.699953-18.299678-7.299872l-40.199294-51.1991c-8.599849-9.699829-7.699865-24.399571 1.999965-32.99942 9.699829-8.599849 24.399571-7.699865 32.99942 1.999965 0.499991 0.599989 0.999982 1.199979 1.399975 1.799968l40.199294 51.1991c8.099858 9.899826 6.699882 24.399571-3.199944 32.499429-0.099998 0.099998-0.299995 0.299995-0.499991 0.399993-3.99993 2.899949-9.09984 4.099928-14.399747 3.599937z m-291.894869 25.59955c-5.799898-0.099998-11.099805-2.799951-14.599743-7.299872-10.099822-7.799863-11.899791-22.399606-3.99993-32.39943 0.099998-0.099998 0.299995-0.299995 0.399993-0.499992l131.497688-145.997433c13.399764-13.799757 31.899439-21.799617 51.1991-21.899615 19.699654 1.69997 37.999332 10.79981 51.1991 25.59955l14.599744 14.599743c7.699865 10.399817 5.599902 24.999561-4.699918 32.799424-9.899826 7.299872-23.699583 5.799898-31.699442-3.499939l-14.599744-14.599743c-2.899949-5.199909-8.699847-8.099858-14.599743-7.299872-3.599937 0-7.299872 0-14.599744 7.299872l-131.697685 145.897435c-3.899931 7.299872-11.299801 7.299872-18.399676 7.299872z" fill="#F04531" p-id="4401"></path></svg>