<?xml version="1.0" standalone="no"?><!DOCTYPE svg PUBLIC "-//W3C//DTD SVG 1.1//EN" "http://www.w3.org/Graphics/SVG/1.1/DTD/svg11.dtd"><svg t="1589854423501" class="icon" viewBox="0 0 1024 1024" version="1.1" xmlns="http://www.w3.org/2000/svg" p-id="2698" xmlns:xlink="http://www.w3.org/1999/xlink" width="32" height="32"><defs><style type="text/css"></style></defs><path d="M444.934 468.5h131.1V616h-131.1V468.5z" fill="#F04531" p-id="2699"></path><path d="M967.034 0h-910.2C25.434 0.1 0.134 25.5 0.034 56.8v910.3c0.1 31.4 25.5 56.7 56.8 56.8h910.3c31.4-0.1 56.7-25.5 56.8-56.8V56.8c0-31.3-25.4-56.7-56.9-56.8z m-673.6 831h-66.2V313.6h66.2V831z m-8.2-611.1l60-26.6c31.2 38 59 79 82.7 122.2l-58.1 30c-23.8-44.7-52.2-86.8-84.6-125.6z m94.8 186.4h260.9V678h-260.9V406.3z m416.7 339.2c0 53.8-29.6 80.5-88.7 80.5h-69.6l-16.4-60.8 73 1.3c23.6 0 35.5-12.8 35.5-38.4V297.6h-258.3v-62.7h324.2v510.7l0.3-0.1z" fill="#F04531" p-id="2700"></path></svg>