<?xml version="1.0" standalone="no"?><!DOCTYPE svg PUBLIC "-//W3C//DTD SVG 1.1//EN" "http://www.w3.org/Graphics/SVG/1.1/DTD/svg11.dtd"><svg t="1591150635998" class="icon" viewBox="0 0 1024 1024" version="1.1" xmlns="http://www.w3.org/2000/svg" p-id="4542" xmlns:xlink="http://www.w3.org/1999/xlink" width="32" height="32"><defs><style type="text/css"></style></defs><path d="M934.527177 535.24099c-2.094681-6.383791-6.383791-31.918956-10.672901-38.203001-65.832846-176.352231-199.792714-206.176505-301.733879-201.887395-38.203 2.094681-76.505747 12.767582-106.230274 27.629846 146.627703 4.28911 263.530879 123.286967 263.530878 272.009352S656.134035 866.699396 507.41165 866.699396 235.402299 743.512176 235.402299 594.690045c0-34.013637 6.383791-63.738165 16.956945-95.657121v-2.094681c97.751802-242.284824 471.802065-363.377362 569.553867-369.761154 55.259692-4.28911 42.49211-36.108319 42.49211-36.108318-31.918956-114.708747-133.860121-84.98422-133.860121-84.98422-384.623417 140.243912-635.386713 0-635.386713 0s16.956945 157.300604 189.119813 212.560296l-4.28911 8.478473s-16.956945 12.767582-31.918956 25.535164C144.034288 331.159166 82.390805 454.446133 82.390805 594.690045c0 237.995714 191.214494 429.309955 429.309955 429.309955 235.901033 0 429.309955-191.214494 429.309955-429.309955-0.099747-19.151373-2.194428-40.397428-6.483538-59.449055z" fill="#D81E06" p-id="4543"></path><path d="M515.890123 722.166374l112.614066-108.424702c10.672901-10.672901 10.672901-25.535165 0-36.108319L528.657705 477.786869c-10.672901-10.672901-25.535165-10.672901-36.108319 0L375.646211 588.306254 515.890123 722.166374z" fill="#D81E06" p-id="4544"></path></svg>