<?xml version="1.0" standalone="no"?><!DOCTYPE svg PUBLIC "-//W3C//DTD SVG 1.1//EN" "http://www.w3.org/Graphics/SVG/1.1/DTD/svg11.dtd"><svg t="1589418940017" class="icon" viewBox="0 0 1024 1024" version="1.1" xmlns="http://www.w3.org/2000/svg" p-id="2685" width="32" height="32" xmlns:xlink="http://www.w3.org/1999/xlink"><defs><style type="text/css"></style></defs><path d="M893.5 561.6c-20.5-16.6-50.6-13.4-67.1 7.1l-0.9 1.2L715.1 712V162c-1.8-28-25-49.9-53.1-50-27.1 0.3-48.8 22.5-48.5 49.5V862.3c-0.1 20.9 12.9 39.7 32.5 46.8 5.1 1.9 10.5 2.8 15.9 2.8 14.9-0.1 29-7 38.1-18.9l201.5-261.8c16.7-21.5 13.1-52.4-8-69.6zM377.9 114.8c-19.6-6.9-41.4-0.4-54 16.1L122.4 392.8c-16.5 21.6-13 52.4 8.1 69.6 20.5 16.6 50.6 13.4 67.1-7.1l0.9-1.2L308.9 312v550c1.8 28 25 49.9 53.1 50 27.1-0.3 48.8-22.5 48.5-49.5V161.7c0.1-21-12.9-39.8-32.6-46.9z" fill="#F04531" p-id="2686"></path></svg>