<?xml version="1.0" standalone="no"?><!DOCTYPE svg PUBLIC "-//W3C//DTD SVG 1.1//EN" "http://www.w3.org/Graphics/SVG/1.1/DTD/svg11.dtd"><svg t="1590733338723" class="icon" viewBox="0 0 1024 1024" version="1.1" xmlns="http://www.w3.org/2000/svg" p-id="4494" xmlns:xlink="http://www.w3.org/1999/xlink" width="32" height="32"><defs><style type="text/css"></style></defs><path d="M218.583 958.224c-64.5 0-116.9-52.3-116.9-116.9v-658.7c0-64.5 52.3-116.9 116.9-116.9 64.5 0 116.9 52.3 116.9 116.9v658.8c-0.1 64.5-52.4 116.8-116.9 116.8z m0-856.3c-44.6 0-80.8 36.2-80.8 80.8v658.8c-0.1 44.6 36.1 80.8 80.7 80.9 44.6 0.1 80.8-36.1 80.9-80.7v-659.1c0-44.6-36.2-80.7-80.8-80.7z" fill="#999999" p-id="4495"></path><path d="M414.283 958.224c-64.5 0-116.9-52.3-116.9-116.9v-658.7c0.1-64.5 52.5-116.8 117-116.7 64.4 0.1 116.6 52.3 116.7 116.7v658.8c0 64.5-52.3 116.8-116.8 116.8z m0-856.3c-44.6 0-80.8 36.2-80.8 80.8v658.8c0 44.6 36.2 80.8 80.8 80.8s80.8-36.2 80.8-80.8v-658.9c0-44.6-36.2-80.7-80.8-80.7z" fill="#999999" p-id="4496"></path><path d="M609.983 958.224c-64.6 0-116.9-52.3-116.9-116.9v-658.7c0-64.6 52.3-116.9 116.9-116.9s116.9 52.3 116.9 116.9v658.8c-0.1 64.5-52.4 116.8-116.9 116.8z m0-856.3c-44.5 0.1-80.6 36.2-80.6 80.8v658.8c0 44.6 36.2 80.8 80.8 80.8 44.6 0 80.8-36.2 80.8-80.8v-658.9c-0.1-44.6-36.3-80.8-81-80.7z" fill="#999999" p-id="4497"></path><path d="M805.683 958.224c-64.6 0-116.9-52.3-116.9-116.9v-658.7c0-64.6 52.3-116.9 116.9-116.9s116.9 52.3 116.9 116.9v658.8c0 64.5-52.3 116.8-116.9 116.8z m0-856.3c-44.6 0-80.8 36.2-80.8 80.8v658.8c0 44.6 36.2 80.8 80.8 80.8 44.6 0 80.8-36.2 80.8-80.8v-658.9c0-44.6-36.2-80.7-80.8-80.7zM119.883 270.524h-101c-6.6 0.3-12.9-3-16.3-8.7-3.4-5.7-3.4-12.8 0-18.5 3.4-5.7 9.7-9 16.3-8.7h101.1c9.9-0.4 18.4 7.2 18.8 17.2 0.4 9.9-7.2 18.4-17.2 18.8-0.6 0-1.1 0-1.7-0.1zM119.883 789.524h-101c-6.6 0.3-12.9-3-16.3-8.7-3.4-5.7-3.4-12.8 0-18.5 3.4-5.7 9.7-9 16.3-8.7h101.1c9.9-0.5 18.4 7.2 18.8 17.2 0.5 9.9-7.2 18.4-17.2 18.8-0.6-0.1-1.1-0.1-1.7-0.1z" fill="#999999" p-id="4498"></path><path d="M1005.183 270.524h-101c-9.9-0.4-17.6-8.9-17.2-18.8 0.4-9.3 7.9-16.8 17.2-17.2h101c9.9-0.4 18.4 7.2 18.8 17.2 0.4 9.9-7.2 18.4-17.2 18.8-0.5 0.1-1.1 0.1-1.6 0zM1005.183 789.524h-101c-9.9-0.5-17.6-8.9-17.2-18.8 0.4-9.3 7.9-16.8 17.2-17.2h101c9.9-0.5 18.4 7.2 18.8 17.2 0.5 9.9-7.2 18.4-17.2 18.8h-1.6z" fill="#999999" p-id="4499"></path></svg>