<?xml version="1.0" standalone="no"?><!DOCTYPE svg PUBLIC "-//W3C//DTD SVG 1.1//EN" "http://www.w3.org/Graphics/SVG/1.1/DTD/svg11.dtd"><svg t="1589335875949" class="icon" viewBox="0 0 1024 1024" version="1.1" xmlns="http://www.w3.org/2000/svg" p-id="3153" xmlns:xlink="http://www.w3.org/1999/xlink" width="32" height="32"><defs><style type="text/css"></style></defs><path d="M276.382 159c-51.9 0.1-94 42.2-94.1 94.1v470.5c0.1 51.9 42.2 94 94.1 94.1h470.5c51.9-0.1 94-42.2 94.1-94.1V253.1c-0.1-51.9-42.2-94-94.1-94.1h-470.5z m0-47h470.5c77.9 0 141.1 63.2 141.1 141.1v470.5c0 77.9-63.2 141.1-141.1 141.1h-470.5c-77.9 0-141.1-63.2-141.1-141.1V253.1c-0.1-77.9 63.1-141.1 141.1-141.1z" fill="#101D37" p-id="3154"></path><path d="M346.882 300.2c-13-0.5-23.2-11.3-22.7-24.3 0.4-12.4 10.3-22.3 22.7-22.7h329.3c13 0.5 23.2 11.3 22.7 24.3-0.4 12.4-10.3 22.3-22.7 22.7h-329.3z m-188.2 282.2c-13-0.5-23.2-11.3-22.7-24.3 0.4-12.4 10.3-22.3 22.7-22.7h705.7c13-0.5 23.9 9.7 24.3 22.7 0.5 13-9.7 23.9-22.7 24.3H158.682zM229.282 676.6c0 26 21.1 47 47 47 26 0 47-21.1 47-47 0-26-21.1-47-47-47-25.9-0.1-47 21-47 47zM699.782 676.6c0 26 21.1 47 47 47s47-21.1 47-47-21.1-47-47-47c-25.9-0.1-47 21-47 47zM252.782 817.7c11.4-1.6 21.9 6.3 23.5 17.6 0.3 1.9 0.3 3.9 0 5.9v47.1c1.6 11.4-6.3 21.9-17.7 23.5-1.9 0.3-3.9 0.3-5.9 0-11.4 1.6-21.9-6.3-23.5-17.6-0.3-1.9-0.3-3.9 0-5.9v-47.1c-1.6-11.4 6.3-21.9 17.7-23.5 2-0.3 4-0.3 5.9 0zM770.382 817.7c11.4-1.6 21.9 6.3 23.5 17.6 0.3 1.9 0.3 3.9 0 5.9v47.1c1.6 11.4-6.3 21.9-17.7 23.5-1.9 0.3-3.9 0.3-5.9 0-11.4 1.6-21.9-6.3-23.5-17.7-0.3-1.9-0.3-3.9 0-5.8v-47.1c-1.6-11.4 6.3-21.9 17.7-23.5 2-0.3 3.9-0.3 5.9 0z" fill="#101D37" p-id="3155"></path></svg>