<?xml version="1.0" standalone="no"?><!DOCTYPE svg PUBLIC "-//W3C//DTD SVG 1.1//EN" "http://www.w3.org/Graphics/SVG/1.1/DTD/svg11.dtd"><svg t="1591317672124" class="icon" viewBox="0 0 1024 1024" version="1.1" xmlns="http://www.w3.org/2000/svg" p-id="5798" xmlns:xlink="http://www.w3.org/1999/xlink" width="48" height="48"><defs><style type="text/css"></style></defs><path d="M61.00834 245l84.5-179.5c13-28.5 41.4-46.8 72.6-46.8h596.5c31.9 0.1 60.7 19.2 73.3 48.6l81.4 183.6 41.4 95.4c17.3 38.1 17.6 81.9 0.8 120.2-41.3 92.1-149.5 133.4-241.7 92.1-29.7-13.3-55.2-34.2-74.1-60.7-7-9.8-20.7-12-30.5-5-1.9 1.4-3.6 3-5 5-58.3 82.1-172.2 101.3-254.3 42.9-16.6-11.8-31.1-26.3-42.9-42.9-7-9.8-20.7-12-30.5-5-1.9 1.4-3.6 3.1-5 5-58.7 82.2-172.8 101.3-255 42.7-26-18.6-46.7-43.6-60-72.7-17.4-39.5-16.6-84.6 2.1-123.5l46.4-99.4z" fill="#FFFFFF" p-id="5799"></path><path d="M349.80834 547.1c0-0.6-0.6-0.6 0 0z" fill="#FFFFFF" p-id="5800"></path><path d="M349.80834 547.1c0-0.6-0.6-0.6 0 0z" fill="#FFFFFF" p-id="5801"></path><path d="M176.40834 632c52.9 0.1 104.1-18.2 144.9-51.9 9.1-7.4 22.1-7.4 31.1 0 84.2 69.2 205.5 69.2 289.7 0 9.1-7.4 22.1-7.4 31.1 0 65.6 53.8 155.6 66.9 233.7 33.9v317.9c-0.2 40.7-33.4 73.6-74.1 73.4h-670.9c-40.7 0.2-73.9-32.6-74.1-73.3V614.1c28 11.9 58.1 18 88.6 17.9z m469.8 310.6c0.1 12.6 10.4 22.9 23 22.8h46.1c12.7 0.1 23-10.1 23.1-22.8v-233c-0.1-12.7-10.4-22.9-23.1-22.8h-46c-12.7-0.1-23 10.1-23.1 22.8v233z" fill="#FFFFFF" opacity=".5" p-id="5802"></path></svg>