<?xml version="1.0" standalone="no"?><!DOCTYPE svg PUBLIC "-//W3C//DTD SVG 1.1//EN" "http://www.w3.org/Graphics/SVG/1.1/DTD/svg11.dtd"><svg t="1591250187227" class="icon" viewBox="0 0 1024 1024" version="1.1" xmlns="http://www.w3.org/2000/svg" p-id="5693" xmlns:xlink="http://www.w3.org/1999/xlink" width="32" height="32"><defs><style type="text/css"></style></defs><path d="M589.832 1002.928l308.6-178.2c48.1-27.8 77.8-79.2 77.8-134.7v-356.4c0-55.6-29.7-106.9-77.8-134.7l-308.7-178c-48.1-27.8-107.4-27.8-155.6 0l-308.6 178.1c-48.1 27.8-77.8 79.2-77.8 134.8v356.4c0 55.6 29.7 106.9 77.8 134.7l308.7 178.2c48.1 27.8 107.4 27.8 155.6 0v-0.2z m-114.5-71.3l-308.6-178.2c-22.7-13.1-36.6-37.2-36.6-63.4v-356.4c0-26.2 14-50.3 36.6-63.4l308.6-178.2c22.6-13.1 50.5-13.1 73.2 0l308.7 178.2c22.7 13.1 36.6 37.2 36.6 63.4v356.4c0 26.2-14 50.3-36.6 63.4l-308.7 178.2c-22.7 13.2-50.6 13.5-73.2 0z" fill="#101D37" p-id="5694"></path><path d="M743.132 512.928c-1.3-128.2-106.3-231.2-234.5-229.9-128.3 1.3-231.2 106.3-229.9 234.5 1.3 127.3 104.8 229.9 232.2 229.9 128.9-0.6 232.8-105.6 232.2-234.5z m-91.5 0c-1.3 77.7-65.3 139.5-143 138.2-77.7-1.3-139.5-65.3-138.2-143 1.3-76.6 63.8-138.1 140.5-138.2 78.3 0.7 141.3 64.7 140.7 143z" fill="#101D37" p-id="5695"></path></svg>