<?xml version="1.0" standalone="no"?><!DOCTYPE svg PUBLIC "-//W3C//DTD SVG 1.1//EN" "http://www.w3.org/Graphics/SVG/1.1/DTD/svg11.dtd"><svg t="1590733408555" class="icon" viewBox="0 0 1024 1024" version="1.1" xmlns="http://www.w3.org/2000/svg" p-id="6217" xmlns:xlink="http://www.w3.org/1999/xlink" width="32" height="32"><defs><style type="text/css"></style></defs><path d="M43.5 876.119c-1.9 0-3.8-0.4-5.6-1.1-7.1-3.1-10.3-11.3-7.2-18.4l32-73.9c3.1-7.1 11.3-10.4 18.4-7.3 7.1 3.1 10.4 11.3 7.3 18.4l-32 73.9c-2.2 5.2-7.3 8.5-12.9 8.4z m214 0c-1.2 0-2.4-0.2-3.6-0.4-7.5-2-12-9.8-10-17.3l21-77.8c2-7.5 9.7-12 17.2-10s12 9.7 10 17.2l-21 77.8c-1.7 6.1-7.2 10.4-13.5 10.5h-0.1z m225.6 0c-6.9-0.1-12.7-5.1-13.9-11.8l-13.2-79.5c-1.3-7.6 3.9-14.9 11.5-16.2 7.6-1.3 14.9 3.9 16.2 11.5l13.2 79.5c1.2 7.6-3.9 14.8-11.5 16.2-0.7 0.2-1.4 0.3-2.1 0.3h-0.2z m214.7 0c-6 0-11.4-3.8-13.3-9.6l-25.6-76.5c-2.9-7.2 0.6-15.4 7.9-18.3 7.2-2.9 15.4 0.6 18.3 7.9 0.2 0.5 0.4 1 0.5 1.5l25.7 76.5c2.5 7.4-1.5 15.3-8.8 17.9-1.5 0.5-3 0.7-4.5 0.8l-0.2-0.2z m311.9 67.2h-171.4c-7.8 0-14-6.3-14.1-14.1v-76c0-3.7 1.5-7.3 4.1-10 2.6-2.6 6.2-4.1 10-4.1h171.7c3.7 0 7.3 1.5 10 4.1 2.6 2.6 4.1 6.2 4.1 10v76c0.1 7.8-6.2 14.1-14 14.2h-0.1l-0.3-0.1z m-157.5-28.1h143.5v-47.9h-143.3l-0.2 47.9z m-105.4-197h-732.7c-3.7 0-7.3-1.5-10-4.1-2.6-2.6-4.1-6.2-4.1-10v-75.3c0-7.8 6.3-14 14.1-14.1h732.7c7.8 0 14 6.3 14.1 14.1v75.3c0 3.7-1.5 7.3-4.1 10-2.6 2.6-6.1 4.1-9.8 4.2l-0.2-0.1z m-718.7-28.2h704.6v-47.2h-704.6v47.2z" fill="#999999" p-id="6218"></path><path d="M978.6 867.319h-108.2c-7.8 0-14-6.3-14.1-14.1v-431.1c0-54.2-21.5-106.2-59.7-144.6-37.7-38.7-89.4-60.6-143.5-60.7-112.3 0.1-203.3 91-203.5 203.3v101.3c0 3.7-1.5 7.3-4.1 10-2.6 2.6-6.2 4.1-10 4.1h-108.1c-7.8 0-14-6.3-14.1-14.1v-101.2c-0.2-187.4 151.5-339.4 338.8-339.6 137.7-0.2 261.9 83 314.2 210.4 17.2 41.8 26.1 86.7 26 131.9v430.4c0 3.7-1.5 7.3-4.1 10-2.5 2.5-6 3.9-9.6 4z m-94.1-28.1h80v-416.5c0.1-41.6-8-82.8-23.9-121.2-47.3-115.4-159.2-191.3-284-192.6-82.7-0.7-162.3 31.2-221.6 88.9-60 58.4-93.7 138.7-93.4 222.4v87.2h80.2v-87.2c0.2-127.8 103.8-231.3 231.6-231.6 61.6 0 120.5 25 163.4 69.1 43.5 43.6 67.9 102.8 67.9 164.4l-0.2 417.1z" fill="#999999" p-id="6219"></path><path d="M747 642.519h-732.7c-6.8 0-12.7-4.9-13.9-11.6-1.2-6.8 2.8-13.4 9.3-15.6l309.7-107.2c1.5-0.5 3.1-0.8 4.7-0.8h113.4c1.6 0 3.2 0.3 4.7 0.8l309.7 107.4c6.5 2.3 10.4 8.8 9.3 15.6-1.6 6.5-7.4 11.3-14.2 11.4z m-649.1-28.3h565.8l-228.6-79.3h-108.6l-228.6 79.3z" fill="#999999" p-id="6220"></path></svg>