<?xml version="1.0" standalone="no"?><!DOCTYPE svg PUBLIC "-//W3C//DTD SVG 1.1//EN" "http://www.w3.org/Graphics/SVG/1.1/DTD/svg11.dtd"><svg t="1590733354852" class="icon" viewBox="0 0 1024 1024" version="1.1" xmlns="http://www.w3.org/2000/svg" p-id="4761" xmlns:xlink="http://www.w3.org/1999/xlink" width="32" height="32"><defs><style type="text/css"></style></defs><path d="M941.4 955.2H82.6C37 955.2 0.1 918.2 0 872.6V151.3c0-45.6 37-82.5 82.6-82.6h858.9c45.6 0 82.5 37 82.6 82.6v721.3c-0.1 45.6-37.1 82.6-82.7 82.6zM82.6 101.8c-27.3 0.1-49.4 22.2-49.5 49.5v721.3c0.1 27.3 22.2 49.4 49.5 49.5h858.9c27.3-0.1 49.4-22.2 49.5-49.5V151.3c-0.1-27.3-22.2-49.4-49.5-49.5H82.6z" fill="#999999" p-id="4762"></path><path d="M836.8 955.2H187.2V322.1c0-45.6 37-82.5 82.6-82.6h484.6c45.6 0 82.5 37 82.6 82.6v633.1h-0.2z m-616.8-33h583.6v-600c-0.1-27.3-22.2-49.4-49.5-49.5H269.7c-27.3 0.1-49.4 22.2-49.5 49.5v600h-0.2z" fill="#999999" p-id="4763"></path><path d="M495.5 256h33.1v677.1h-33.1V256z m445.9 231.2h-60.6c-9.1 0.6-16.9-6.2-17.5-15.3-0.6-9.1 6.2-16.9 15.3-17.5H941.4c9.1 0.6 15.9 8.4 15.3 17.5-0.5 8.2-7 14.8-15.3 15.3z m0 82.6h-60.6c-9.1-0.6-15.9-8.4-15.3-17.5 0.5-8.2 7.1-14.8 15.3-15.3h60.6c9.1 0.6 15.9 8.4 15.3 17.5-0.5 8.2-7 14.7-15.3 15.3z" fill="#999999" p-id="4764"></path></svg>