<?xml version="1.0" standalone="no"?><!DOCTYPE svg PUBLIC "-//W3C//DTD SVG 1.1//EN" "http://www.w3.org/Graphics/SVG/1.1/DTD/svg11.dtd"><svg t="1590733350207" class="icon" viewBox="0 0 1024 1024" version="1.1" xmlns="http://www.w3.org/2000/svg" p-id="4628" xmlns:xlink="http://www.w3.org/1999/xlink" width="32" height="32"><defs><style type="text/css"></style></defs><path d="M641.7539 523.599596c2.299998 0 3.699997 1.199999 5.799995 1.199999 10.499992 0 19.599985-7.199994 21.899984-17.399986 3.299997-12.89999 4.899996-26.19998 4.599996-39.49997 2.199998-89.899931-68.899947-164.499873-158.799878-166.799871-89.899931-2.199998-164.499873 68.899947-166.799871 158.799877-0.1 2.299998-0.1 4.499997 0 6.799995-0.2 12.89999 1.399999 25.79998 4.599997 38.39997 2.899998 12.49999 15.399988 20.299984 27.899978 17.399987s20.299984-15.399988 17.399987-27.899979c-2.499998-9.099993-3.699997-18.499986-3.699997-27.899978 0-64.19995 52.09996-116.29991 116.29991-116.29991 64.19995 0 116.29991 52.09996 116.29991 116.29991-0.1 9.399993-1.299999 18.799985-3.699997 27.899978-2.599998 12.89999 5.299996 25.79998 18.199986 28.999978z" fill="#999999" p-id="4629"></path><path d="M730.553831 649.099499c3.799997 2.399998 8.299994 3.699997 12.799991 3.699997 7.899994-0.1 15.299988-3.999997 19.799984-10.499992 97.399925-137.599894 64.79995-327.999747-72.799944-425.399671-137.599894-97.399925-327.999747-64.79995-425.399671 72.799944-36.799972 52.09996-56.499956 114.399912-56.099957 178.199862-0.2 61.899952 18.499986 122.299906 53.599959 173.299866 7.399994 10.599992 21.999983 13.19999 32.599974 5.899996 10.599992-7.399994 13.19999-21.999983 5.899996-32.599975-29.599977-43.599966-45.399965-94.999927-45.399965-147.699886-1.799999-142.19989 111.999914-258.7998 254.199804-260.499799 142.09989-1.699999 258.6998 112.099914 260.399799 254.299804v6.099995c0 52.699959-15.899988 104.09992-45.399965 147.699886-8.099994 10.599992-6.199995 25.69998 4.399996 33.899974 0.5 0.4 0.999999 0.699999 1.399999 0.999999v-0.2z" fill="#999999" p-id="4630"></path><path d="M511.654 0c-257.299801 0.2-465.799641 208.999839-465.599641 466.29964 0.1 123.899904 49.499962 242.599813 137.299895 329.999746 8.599993 8.999993 22.799982 9.399993 31.799975 0.799999l0.799999-0.799999c8.999993-8.599993 9.399993-22.799982 0.8-31.799976l-0.8-0.799999a414.39268 414.39268 0 0 1-123.399904-297.99977c0.6-231.399821 188.699854-418.499677 420.099675-417.899678 231.399821 0.6 418.499677 188.699854 417.899678 420.099676-0.3 110.499915-44.199966 216.499833-122.199906 294.699773-8.999993 8.999993-8.999993 23.599982 0 32.599975s23.599982 8.999993 32.599975 0c87.899932-86.999933 136.999894-205.799841 136.199895-329.399746 0.1-257.199802-208.199839-465.699641-465.199641-465.799641h-0.3z" fill="#999999" p-id="4631"></path><path d="M551.25397 604.399534c-3.899997-6.499995-9.599993-11.699991-16.299988-15.099989v-99.999922c0-12.89999-10.399992-23.299982-23.299982-23.299983s-23.299982 10.399992-23.299982 23.299983v98.799923c-6.499995 3.799997-12.099991 8.899993-16.299987 15.099989L250.654202 951.999266c-9.099993 14.399989-9.499993 32.699975-1.199999 47.599963 7.999994 15.099988 23.699982 24.499981 40.699968 24.399981h442.599659c17.099987 0.1 32.799975-9.299993 40.699968-24.399981 8.299994-14.899989 7.899994-33.099974-1.199999-47.599963l-221.099829-347.499732 0.1-0.1z m-39.59997 24.399981l73.399944 116.29991h-146.799887l73.399943-116.29991z m0 348.899731h-221.299829l117.599909-185.999857h206.199841l118.799909 185.999857h-221.29983z" fill="#999999" p-id="4632"></path></svg>