<?xml version="1.0" standalone="no"?><!DOCTYPE svg PUBLIC "-//W3C//DTD SVG 1.1//EN" "http://www.w3.org/Graphics/SVG/1.1/DTD/svg11.dtd"><svg t="1591931104459" class="icon" viewBox="0 0 1024 1024" version="1.1" xmlns="http://www.w3.org/2000/svg" p-id="6391" xmlns:xlink="http://www.w3.org/1999/xlink" width="32" height="32"><defs><style type="text/css"></style></defs><path d="M309.328 837.794c-23.8-0.7-46.6-9.9-64.1-25.9-11.2-19-16.3-41-14.6-63l0.3-430.8-179-1.2c-28.9 0-52 23.4-51.9 52.1v482.1c-0.2 28.7 23 52.2 51.7 52.4H130.928c14.3 0 25.1 56 43.1 56.2 18 0.1 88.6-56.2 106-56.2h268.7c26.1 2.4 49.2-16.9 51.6-43 0.1-1.2 0.2-2.4 0.2-3.5v-19l-291.2-0.2z" fill="#FFFFFF" opacity=".5" p-id="6392"></path><path d="M953.428 64.294h-597.6c-39.2 0.2-70.8 32.1-70.7 71.4v577.3c0.8 38.8 31.8 70.2 70.6 71.5 0 0 249.4-0.2 262-0.2 31 0 142.9 79.9 169.1 76.7 26.2-3.1 23.7-76.7 58.8-76.7h107.8c39.2-0.2 70.8-32.2 70.6-71.4v-577.3c0.1-39.1-31.4-71-70.6-71.3z m-267.3 618.2c-17.2 17.2-45 17.3-62.3 0.2-17.2-17.2-17.3-45-0.2-62.3s45-17.3 62.3-0.2l0.2 0.2c16.9 17.2 16.9 44.8 0 62.1z m4.1-157.7v11.2c0 19.5-15.8 35.2-35.2 35.2-19.5 0-35.2-15.8-35.2-35.2v-43.5c0-19.5 15.8-35.2 35.3-35.2h3c60.1 0 108.9-48.7 108.9-108.8 0-60.1-48.7-108.9-108.8-108.9-50.6 0-94.5 34.8-106.1 84.1-4.3 18.8-3.6 38.4 2 56.8 5.7 18.6-4.7 38.3-23.3 44-18.6 5.7-38.3-4.7-44-23.3-29.2-94.7 23.9-195.1 118.6-224.3s194.9 23.9 224.1 118.6c29.2 94.7-23.9 195.1-118.6 224.3-6.7 2.1-13.6 3.8-20.5 5h-0.2z" fill="#FFFFFF" p-id="6393"></path></svg>