<?xml version="1.0" standalone="no"?><!DOCTYPE svg PUBLIC "-//W3C//DTD SVG 1.1//EN" "http://www.w3.org/Graphics/SVG/1.1/DTD/svg11.dtd"><svg t="1591780519464" class="icon" viewBox="0 0 1024 1024" version="1.1" xmlns="http://www.w3.org/2000/svg" p-id="6259" xmlns:xlink="http://www.w3.org/1999/xlink" width="48" height="48"><defs><style type="text/css"></style></defs><path d="M955.204719 256.012712C813.80706 11.116766 500.712242-72.681847 255.916294 68.715813S-72.678267 523.208289 68.719393 768.004237 523.21187 1096.698797 768.007818 955.301137c244.69595-141.197663 328.694559-454.092484 187.396898-698.888431 0-0.199997-0.099998-0.299995-0.199997-0.399994zM762.007917 944.801311C522.911875 1082.899025 217.216935 1001.000381 79.119221 761.904338S22.820153 217.113356 261.916195 79.015642s544.790982-56.299068 682.888696 182.796974c137.997716 239.096042 56.19907 544.790982-182.796974 682.988695z" fill="#919AAA" opacity=".5" p-id="6260"></path><path d="M898.005666 289.112164C774.907703 75.915693 502.312216 2.916902 289.115745 125.914866 75.919274 249.012828 2.920482 521.608316 125.918446 734.804787 249.016408 948.001258 521.611896 1021.100048 734.808367 898.002086 947.90484 774.904123 1021.00363 502.408634 898.005666 289.112164zM731.60842 892.802172c-210.296519 121.397991-479.292066 49.399182-600.690057-160.897337C9.420374 521.608316 81.519181 252.612769 291.8157 131.214778 502.012221 9.816788 770.90777 81.715597 892.405759 292.012116c121.397991 210.296519 49.499181 479.292066-160.797339 600.790056z" fill="#919AAA" opacity=".5" p-id="6261"></path><path d="M316.415293 179.913972c3.59994-1.999967 5.999901 0.799987 8.799854 2.799954 5.999901 4.399927 12.399795 8.799854 18.799689 12.799788 7.199881-2.39996 14.399762-5.099916 21.599642-7.699873 3.59994-1.19998 5.999901-2.799954 8.799855 0.399994 2.39996 2.799954 0.399993 6.399894-0.399994 8.799854-1.999967 6.799887-3.59994 13.599775-5.599907 20.799656 4.799921 5.999901 9.999834 11.599808 15.199748 17.599708 2.39996 2.799954 4.399927 5.599907 2.799954 8.399861-1.19998 2.799954-5.599907 2.39996-7.699872 2.399961l-22.39963 0.799986c-4.399927 6.799887-8.399861 13.599775-12.799788 19.999669-1.599974 2.39996-3.999934 5.099916-7.199881 3.999934-2.39996-1.899969-3.899935-4.699922-4.399927-7.699873l-7.199881-20.49966-25.199582-6.399894c-2.299962-1.19998-3.59994-3.799937-3.199947-6.399894 1.299978-1.79997 2.899952-3.299945 4.79992-4.399928 3.999934-3.199947 7.699873-6.799887 11.599808-9.999834 1.899969-1.299978 3.59994-2.699955 5.099916-4.399927-0.399993-6.799887-1.19998-13.599775-1.599974-20.499661-0.699988-2.899952-0.899985-5.899902-0.399993-8.799854-0.699988-0.799987-0.299995-1.599974 0.59999-1.999967zM193.517327 292.312111c3.59994-1.999967 5.999901 0.799987 8.799854 2.799954 6.399894 4.399927 12.399795 8.399861 18.799689 12.799788 7.199881-2.39996 14.399762-5.099916 21.599643-7.699872 3.59994-1.19998 5.999901-2.799954 8.799854 0.399993 2.39996 2.799954 0.399993 6.399894-0.399993 8.799854-1.999967 6.799887-3.59994 13.599775-5.599908 20.799656 4.799921 5.999901 9.999834 11.599808 14.799755 17.599709 2.39996 2.799954 4.399927 5.599907 2.799954 8.399861-1.19998 2.39996-5.599907 2.39996-7.699872 2.39996l-22.39963 0.799987c-4.399927 6.799887-8.799854 13.599775-12.799788 19.999669-1.599974 2.39996-3.999934 5.099916-7.199881 3.999934-2.199964-1.999967-3.799937-4.699922-4.399927-7.699873l-7.199881-20.499661c-8.399861-1.999967-16.799722-4.399927-25.199583-6.399894-2.299962-1.19998-3.59994-3.799937-3.199947-6.399894 1.299978-1.79997 2.899952-3.299945 4.799921-4.399927 3.59994-3.199947 7.699873-6.799887 11.599808-9.999834 1.899969-1.299978 3.59994-2.699955 5.099916-4.399928-0.399993-6.799887-1.19998-13.599775-1.599974-20.49966-0.699988-2.899952-0.899985-5.899902-0.399993-8.799855-0.399993-1.19998 0-1.599974 0.799986-2.39996l0.199997 0.399993zM470.01275 132.714753c3.59994-1.999967 5.999901 0.799987 8.799855 2.799954 6.399894 4.399927 12.399795 8.399861 18.799688 12.799788 7.199881-2.39996 14.399762-5.099916 21.599643-7.699873 3.59994-1.19998 5.999901-2.799954 8.799854 0.399994 2.39996 2.799954 0.399993 6.399894-0.399993 8.799854-1.999967 6.799887-3.59994 13.999768-5.599907 20.799656 4.799921 5.999901 9.999834 11.999801 15.199748 17.599709 2.39996 2.799954 4.399927 5.599907 2.799954 8.399861-1.19998 2.799954-5.599907 2.39996-7.699873 2.39996l-22.399629 0.799987c-4.399927 6.799887-8.799854 13.599775-12.799788 19.999668-1.599974 2.39996-3.999934 5.099916-7.199881 3.999934-2.199964-1.999967-3.799937-4.699922-4.399927-7.699872l-7.199881-20.499661-25.199583-6.399894c-2.299962-1.19998-3.59994-3.799937-3.199947-6.399894 1.299978-1.79997 2.899952-3.299945 4.799921-4.399927 3.999934-3.199947 7.699873-6.799887 11.599808-9.999835 1.899969-1.299978 3.59994-2.699955 5.099915-4.399927-0.399993-6.799887-1.19998-13.599775-1.599973-20.499661-0.699988-2.899952-0.899985-5.899902-0.399994-8.799854-0.799987-1.19998-0.399993-1.599974 0.399994-2.39996l0.199996 0.399993z m142.097648 29.59951c3.59994-1.999967 5.999901 0.799987 8.799855 2.799954l18.799688 12.799788c7.199881-2.39996 14.399762-5.099916 21.599643-7.699873 3.59994-1.19998 5.999901-2.799954 8.799854 0.399994 2.39996 2.799954 0.399993 6.399894-0.399993 8.799854-1.999967 6.799887-3.59994 13.999768-5.599907 20.799656 4.799921 5.999901 9.999834 11.999801 15.199748 17.599709 2.39996 2.799954 4.399927 5.599907 2.799954 8.399861-1.19998 2.799954-5.599907 2.39996-7.699873 2.39996-7.699873 0.399993-15.199748 0.799987-22.399629 0.799987-4.399927 6.799887-8.399861 13.199782-12.799788 19.999669-1.599974 2.39996-3.999934 5.099916-7.199881 3.999933-2.39996-1.899969-3.899935-4.699922-4.399927-7.699872l-7.199881-20.499661c-8.399861-1.999967-16.799722-4.399927-25.199583-6.399894-2.299962-1.19998-3.59994-3.799937-3.199947-6.399894 1.299978-1.79997 2.899952-3.299945 4.79992-4.399927 3.999934-3.199947 7.699873-6.799887 11.599808-9.999835 1.899969-1.299978 3.59994-2.699955 5.099916-4.399927-0.399993-6.799887-1.19998-13.599775-1.599973-20.499661-0.699988-2.899952-0.899985-5.899902-0.399994-8.799854-0.59999-1.19998 0.099998-1.599974 0.59999-1.999967zM142.818166 433.109781c3.59994-1.999967 5.999901 0.799987 8.799855 2.799954 6.399894 4.399927 12.399795 8.399861 18.799688 12.799788 7.199881-2.39996 14.399762-5.099916 21.599643-7.699873 3.59994-1.19998 5.999901-2.799954 8.799854 0.399993 2.39996 2.799954 0.399993 6.399894-0.399993 8.799855-1.999967 6.799887-3.999934 13.999768-5.599907 20.799656 4.799921 5.999901 9.999834 11.599808 15.199748 17.599708 2.39996 2.799954 4.399927 5.599907 2.799954 8.399861-1.19998 2.799954-5.599907 2.39996-7.699873 2.39996l-22.399629 0.799987c-4.399927 6.799887-8.799854 13.599775-12.799788 19.999669-1.599974 2.39996-3.999934 5.099916-7.199881 3.999934-2.199964-1.999967-3.799937-4.699922-4.399927-7.699873l-7.199881-20.49966-25.199583-6.399894c-2.299962-1.19998-3.59994-3.799937-3.199947-6.399894 1.299978-1.79997 2.899952-3.299945 4.799921-4.399928 3.59994-3.199947 7.699873-6.799887 11.599808-9.999834 1.899969-1.299978 3.59994-2.699955 5.099915-4.399927-0.399993-6.799887-1.19998-13.599775-1.599973-20.499661-0.699988-2.899952-0.899985-5.899902-0.399994-8.799854-0.699988-0.699988-0.299995-1.399977 0.59999-1.999967z m558.890749 414.493139c3.59994-2.39996 2.39996-5.599907 1.999967-8.799854l-1.599973-22.39963 17.199715-14.799755c2.799954-2.39996 5.099916-3.999934 3.999934-7.699872-1.19998-3.199947-5.599907-3.59994-7.699873-3.999934-6.799887-1.999967-13.999768-3.59994-20.799656-5.599907-2.799954-7.199881-5.099916-14.399762-7.699872-21.599643-1.19998-3.59994-2.799954-6.399894-5.599908-6.799887-2.799954-0.399993-4.799921 3.59994-5.599907 5.099915l-11.999801 19.199682-23.999603 1.199981c-2.799954 0-6.799887 0.799987-6.799887 4.399927 0.499992 2.99995 1.999967 5.699906 4.399927 7.699872 4.799921 5.599907 9.199848 11.199815 13.999768 16.399729l-7.199881 25.199583c-0.299995 2.699955 1.399977 5.199914 3.999934 5.9999 2.199964-0.099998 4.399927-0.699988 6.399894-1.599973l14.399762-4.799921c2.099965-0.799987 4.19993-1.499975 6.399894-1.999967 5.599907 3.999934 11.199815 7.699873 16.799722 11.599808 2.199964 2.099965 4.799921 3.59994 7.699872 4.399928 0.499992-1.099982 0.799987-1.099982 1.599974-1.099982h0.099998z m-158.797371 49.999172c3.59994-2.39996 2.39996-5.599907 1.999967-8.799854l-1.599974-22.399629 17.199715-14.799755c2.799954-2.39996 5.099916-3.999934 3.999934-7.699873-1.099982-3.699939-5.599907-3.59994-7.699872-3.999934-6.799887-1.599974-13.999768-3.59994-20.799656-5.599907l-7.699873-21.999636c-1.19998-3.59994-2.799954-6.399894-5.599907-6.799887-2.799954-0.399993-4.799921 3.59994-5.599907 5.099915l-11.999802 19.199682-23.999602 1.199981c-2.799954 0-6.799887 0.799987-6.799888 4.399927 0.499992 2.99995 1.999967 5.699906 4.399927 7.699872 4.799921 5.599907 9.199848 11.199815 13.999769 16.399729l-7.199881 25.199583c-0.299995 2.699955 1.399977 5.199914 3.999934 5.9999 2.199964-0.299995 4.299929-0.899985 6.399894-1.599973l14.399761-4.799921c1.999967-0.999983 4.19993-1.699972 6.399894-1.999967 5.599907 3.999934 11.199815 7.699873 16.799722 11.599808 2.199964 2.099965 4.799921 3.59994 7.699873 4.399928 0.399993-0.699988 0.799987-0.699988 1.699972-0.699989zM819.506965 738.004734c3.59994-2.39996 2.39996-5.599907 1.999967-8.799854l-1.599973-22.39963 17.199715-14.799755c2.799954-2.39996 5.099916-3.999934 3.999934-7.699872-1.19998-3.199947-5.599907-3.59994-7.699873-3.999934-6.799887-1.999967-13.999768-3.59994-20.799656-5.599907-2.799954-7.199881-5.099916-14.399762-7.699872-21.599643-1.19998-3.59994-2.799954-6.399894-5.599907-6.799887-2.799954-0.399993-4.799921 3.59994-5.599908 5.099915l-11.999801 19.199683-23.999603 1.19998c-2.799954 0-6.799887 0.799987-6.799887 4.399927 0.499992 2.99995 1.999967 5.699906 4.399927 7.699872 4.799921 5.599907 9.199848 11.199815 13.999768 16.399729l-7.199881 25.199583c-0.299995 2.699955 1.399977 5.199914 3.999934 5.999901 2.199964-0.199997 4.399927-0.699988 6.399894-1.599974l14.399762-4.79992c2.099965-0.799987 4.19993-1.499975 6.399894-1.999967 5.599907 3.999934 11.199815 7.699873 16.799722 11.599808 2.199964 2.099965 4.799921 3.59994 7.699872 4.399927 0-0.799987 0.799987-1.19998 1.599974-1.19998l0.099998 0.099998z m45.599245-137.597722c3.59994-2.39996 2.39996-5.599907 1.999967-8.799855l-1.599973-22.399629 17.199715-14.799755c2.799954-2.39996 5.099916-3.999934 3.999934-7.699873-1.19998-3.199947-5.599907-3.59994-7.699873-3.999933-6.799887-1.599974-13.999768-3.59994-20.799655-5.599908l-7.699873-21.999635c-1.19998-3.59994-2.799954-6.399894-5.599907-6.799888-2.799954-0.399993-4.799921 3.59994-5.599907 5.099916l-11.999802 19.199682-23.999603 1.19998c-2.799954 0-6.799887 0.799987-6.799887 4.399927 0.499992 2.99995 1.999967 5.699906 4.399927 7.699873 4.799921 5.599907 9.199848 11.199815 13.999768 16.399728l-7.19988 25.199583c-0.299995 2.699955 1.399977 5.199914 3.999933 5.999901 2.199964-0.299995 4.299929-0.899985 6.399894-1.599974l14.399762-4.79992c2.099965-0.799987 4.19993-1.499975 6.399894-1.999967 5.599907 3.999934 11.199815 7.699873 16.799722 11.599808 2.199964 2.099965 4.799921 3.59994 7.699873 4.399927 0.199997-0.699988 0.59999-0.699988 1.399976-0.699988h0.299995zM395.513984 871.302528c3.59994-2.39996 2.39996-5.599907 1.999966-8.799855l-1.599973-22.399629 17.199715-14.799755c2.799954-2.39996 5.099916-3.999934 3.999934-7.699873-1.19998-3.199947-5.599907-3.59994-7.699873-3.999933-6.799887-1.999967-13.999768-3.59994-20.799655-5.599908-2.799954-7.199881-5.099916-14.399762-7.699873-21.599642-1.19998-3.59994-2.799954-6.399894-5.599907-6.799888-2.799954-0.399993-4.799921 3.59994-5.599907 5.099916l-11.999802 19.199682-23.999603 1.19998c-2.799954 0-6.799887 0.799987-6.799887 4.399928 0.499992 2.99995 1.999967 5.699906 4.399927 7.699872 4.799921 5.599907 9.199848 11.199815 13.999768 16.399729l-7.19988 25.199582c-0.299995 2.699955 1.399977 5.199914 3.999933 5.999901 2.199964-0.299995 4.299929-0.899985 6.399894-1.599973l14.399762-4.799921c2.099965-0.799987 4.19993-1.499975 6.399894-1.999967 5.599907 3.999934 11.199815 7.699873 16.799722 11.599808 2.199964 2.099965 4.799921 3.59994 7.699873 4.399927 0.499992-0.799987 0.899985-1.099982 1.699972-1.099981zM393.216022 582.907301l-42.699294-73.998775-132.197811 76.298737 9.999834 17.299714 113.798116-65.698913 22.799623 39.499347-88.298538 50.999155-13.199782-22.799622-18.0997 10.499826 51.799142 89.698515c8.899853 15.399745 20.699657 18.999686 35.599411 10.399828l96.298406-55.59908c6.099899-3.499942 10.699823-9.099849 12.999785-15.799738-1.399977-15.499743-6.099899-30.499495-13.799772-43.899273l-20.899654 4.699922c6.499892 9.999834 10.799821 21.299647 12.599792 33.099452-0.999983 3.199947-3.099949 5.899902-5.999901 7.599874l-86.198573 49.699177c-6.099899 3.499942-10.799821 2.099965-14.399762-4.099932l-26.699558-46.199235 106.598236-61.698979z m-2.099966-85.298588l9.899836 17.099717 23.799606-13.799771 9.09985 15.69974 16.799722-9.69984-9.09985-15.69974 27.499545-15.899737 9.499843 16.399729 17.699707-10.199831-9.499843-16.399729 27.899538-16.099733 9.09985 15.69974 16.89972-9.799838-9.099849-15.69974 24.499594-14.199765-9.899836-17.099717-24.499594 14.099767-9.09985-15.699741-16.999718 9.799838 9.099849 15.69974-27.999537 16.199732-9.499842-16.399728-17.699707 10.199831 9.499842 16.399728-27.499544 15.899737-9.09985-15.69974-16.699723 9.599841 9.099849 15.69974-23.699608 13.89977z m175.397097-46.099237l-147.897552 85.398587 20.699657 35.799407 17.699707-10.199831-10.899819-18.799689 47.09922-27.19955 7.89987 13.699774-43.49928 25.099584 34.39943 59.599014 17.699707-10.199832-24.799589-42.899289 25.799573-14.899754 31.199483 53.999106 17.999702-10.399828-31.199483-53.999106 26.499561-15.299746 11.799805 20.399662c2.199964 3.799937 1.999967 6.699889-0.799987 8.299863l-14.799755 7.399877 14.699757 14.599758 15.399745-8.899852c10.599825-6.099899 12.299796-15.399745 5.199914-27.699542l-23.699608-40.999321-44.09927 25.499578-7.899869-13.699773 47.599212-27.499545 10.399828 17.999702 17.699707-10.199831-20.199666-34.899423z m16.199732-46.999222l8.799854 15.199749 45.799242-26.499562c-0.299995 3.399944-0.59999 6.999884-0.899985 10.399828l-49.899174 28.799523 9.199848 15.899737 36.999387-21.399646c-4.999917 20.199666-12.299796 39.89934-21.499644 58.59903l18.699691 9.899837c4.899919-10.699823 9.399844-21.299647 13.299779-32.099469l34.699426 60.099005 17.099717-9.899836-3.699939-6.399894 73.498784-42.399298 3.699938 6.399894 17.099717-9.899836-48.799192-84.5986-83.398619 48.099204c0.59999-3.299945 1.099982-6.899886 1.699971-10.699823l93.598451-53.999106-9.199848-15.899737-82.898627 47.899207c0-3.199947-0.099998-6.599891-0.099999-9.799838l68.698863-39.699342-8.799854-15.199749-61.598981 35.599411c-0.59999-3.399944-1.099982-6.699889-1.79997-10.29983 18.599692-12.599791 36.499396-26.399563 53.399116-41.199318l-16.499727-9.399844c-36.699393 30.599493-76.198739 57.699045-117.898048 80.998659l13.29978 11.899803c18.299697-10.599825 35.299416-21.099651 50.999156-31.099485l0.899985 9.199848-54.499098 31.499478z m83.698614 59.699012l73.498784-42.399298 4.099932 7.099882-73.498783 42.399299-4.099933-7.099883z m65.89891-55.799076l-73.498784 42.399298-4.19993-7.299879 73.498783-42.399298 4.199931 7.299879z m-53.899108 76.498733l73.498783-42.399298 4.499926 7.799871-73.498784 42.399298-4.499925-7.799871z" fill="#919AAA" opacity=".5" p-id="6262"></path></svg>