<?xml version="1.0" standalone="no"?><!DOCTYPE svg PUBLIC "-//W3C//DTD SVG 1.1//EN" "http://www.w3.org/Graphics/SVG/1.1/DTD/svg11.dtd"><svg t="1591774754038" class="icon" viewBox="0 0 1024 1024" version="1.1" xmlns="http://www.w3.org/2000/svg" p-id="6410" xmlns:xlink="http://www.w3.org/1999/xlink" width="200" height="200"><defs><style type="text/css"></style></defs><path d="M996.1 884.4H37.3c-17 0-31.9-11.5-36.1-27.9 15.8 0.2 28.9-12.2 29.6-27.9C30 812.4 16.3 800 0.1 800.7V754c16.2 0.7 29.9-11.8 30.7-27.9-0.8-16.2-14.5-28.6-30.7-27.9v-55.9c16.2 0.7 29.9-11.8 30.7-27.9-0.8-16.2-14.5-28.6-30.7-27.9V540c16.2 0.7 29.9-11.8 30.7-27.9-0.8-16.2-14.5-28.6-30.7-27.9v-46.5c16.2 0.7 29.9-11.8 30.7-27.9-0.9-16.4-14.6-28.8-30.8-28.1v-55.9c16.2 0.7 29.9-11.8 30.7-27.9-0.8-16.2-14.5-28.6-30.7-27.9v-46.5c16.2 0.7 29.9-11.8 30.7-27.9-0.7-15.8-13.8-28.1-29.6-27.9 4.3-16.5 19.1-27.9 36.1-27.9H996c0 7.4 2.9 14.5 8.2 19.8 5.2 5.3 12.3 8.2 19.7 8.2v688.8c-15.3-0.2-27.8 12.3-27.8 27.8z" fill="#F04531" p-id="6411"></path></svg>