<?xml version="1.0" standalone="no"?><!DOCTYPE svg PUBLIC "-//W3C//DTD SVG 1.1//EN" "http://www.w3.org/Graphics/SVG/1.1/DTD/svg11.dtd"><svg t="1589440332116" class="icon" viewBox="0 0 1024 1024" version="1.1" xmlns="http://www.w3.org/2000/svg" p-id="2319" xmlns:xlink="http://www.w3.org/1999/xlink" width="200" height="200"><defs><style type="text/css"></style></defs><path d="M780.815 324.503c-10.3 0-19.2 7.2-21.4 17.2l-0.5 2.9v488.8c0.2 18.8-14.8 34.3-33.7 34.6h-425.5c-19.1 0-34.5-15.4-34.6-34.5v-491.5c-2.1-10.1-11-17.3-21.4-17.4h-0.4c-10.3 0.1-19.1 7.3-21.2 17.4l-0.4 2.2v539.5c-0.2 15.4 12.1 28.1 27.5 28.3h525.7c15.5-0.1 28.1-12.8 28-28.3v-540.1l-0.8-1.7c-2.2-10.1-11-17.4-21.3-17.4z m-387.7-168.7h237.3c12.1 0 21.9-9.8 21.9-21.9 0-12.1-9.8-21.9-21.9-21.9h-237.3c-12.1 0-21.9 9.8-21.9 21.9 0.1 12.1 9.8 21.9 21.9 21.9z" fill="#CCCCCC" p-id="2320"></path><path d="M621.215 792.703c4.1-4.1 6.4-9.6 6.3-15.3v-381.3c0-12.1-9.8-21.8-21.8-21.8s-21.8 9.8-21.8 21.8v381.2c0 12.1 9.8 22 21.9 22 5.8 0 11.3-2.4 15.3-6.5l0.1-0.1z m-181.2-15.5v-381.1c-0.1-11.9-9.7-21.5-21.6-21.6h-0.3c-12.1-0.1-21.9 9.6-22 21.6v381.2c-0.8 12.1 8.4 22.6 20.5 23.5 12.1 0.8 22.6-8.4 23.5-20.5 0-1.1 0-2.1-0.1-3.1z m428.2-565.6h-712.5c-12.1 0-22 9.8-22 22 0 12.1 9.8 22 22 22h712.5c12.1 0 22-9.8 22-22 0-12.1-9.8-22-22-22z" fill="#CCCCCC" p-id="2321"></path></svg>