<?xml version="1.0" standalone="no"?><!DOCTYPE svg PUBLIC "-//W3C//DTD SVG 1.1//EN" "http://www.w3.org/Graphics/SVG/1.1/DTD/svg11.dtd"><svg t="1589936396850" class="icon" viewBox="0 0 1024 1024" version="1.1" xmlns="http://www.w3.org/2000/svg" p-id="2884" xmlns:xlink="http://www.w3.org/1999/xlink" width="32" height="32"><defs><style type="text/css"></style></defs><path d="M955.22053 256C813.82053 11.2 500.72053-72.6 255.92053 68.8S-72.67947 523.2 68.72053 768 523.22053 1096.6 768.02053 955.2c244.7-141.2 328.6-454.1 187.4-698.8 0-0.1-0.1-0.3-0.2-0.4zM762.02053 944.7c-239 138.1-544.8 56.2-682.9-182.8S22.92053 217.1 261.92053 79.1s544.8-56.2 682.9 182.8c137.9 239 56.1 544.6-182.8 682.8z" fill="#F04531" opacity=".5" p-id="2885"></path><path d="M898.02053 289.2C774.92053 76 502.32053 2.9 289.22053 126 76.02053 249 2.92053 521.6 126.02053 734.8 249.02053 948 521.62053 1021 734.82053 898 947.92053 774.9 1020.92053 502.4 898.02053 289.2zM731.62053 892.8c-210.3 121.4-479.2 49.4-600.7-160.9C9.52053 521.6 81.52053 252.7 291.82053 131.2 502.02053 9.8 770.92053 81.8 892.42053 292c121.4 210.3 49.4 479.2-160.8 600.8z" fill="#F04531" opacity=".5" p-id="2886"></path><path d="M316.42053 180c3.6-2 6 0.8 8.8 2.8 6 4.4 12.4 8.8 18.8 12.8 7.2-2.4 14.4-5.1 21.6-7.7 3.6-1.2 6-2.8 8.8 0.4 2.4 2.8 0.4 6.4-0.4 8.8-2 6.8-3.6 13.6-5.6 20.8 4.8 6 10 11.6 15.2 17.6 2.4 2.8 4.4 5.6 2.8 8.4-1.2 2.8-5.6 2.4-7.7 2.4l-22.4 0.8c-4.4 6.8-8.4 13.6-12.8 20-1.6 2.4-4 5.1-7.2 4-2.4-1.9-3.9-4.7-4.4-7.7l-7.2-20.5-25.2-6.4c-2.3-1.2-3.6-3.8-3.2-6.4 1.3-1.8 2.9-3.3 4.8-4.4 4-3.2 7.7-6.8 11.6-10 1.9-1.3 3.6-2.7 5.1-4.4-0.4-6.8-1.2-13.6-1.6-20.5-0.7-2.9-0.9-5.9-0.4-8.8-0.7-0.8-0.3-1.6 0.6-2zM193.52053 292.4c3.6-2 6 0.8 8.8 2.8 6.4 4.4 12.4 8.4 18.8 12.8 7.2-2.4 14.4-5.1 21.6-7.7 3.6-1.2 6-2.8 8.8 0.4 2.4 2.8 0.4 6.4-0.4 8.8-2 6.8-3.6 13.6-5.6 20.8 4.8 6 10 11.6 14.8 17.6 2.4 2.8 4.4 5.6 2.8 8.4-1.2 2.4-5.6 2.4-7.7 2.4l-22.4 0.8c-4.4 6.8-8.8 13.6-12.8 20-1.6 2.4-4 5.1-7.2 4-2.2-2-3.8-4.7-4.4-7.7l-7.2-20.5c-8.4-2-16.8-4.4-25.2-6.4-2.3-1.2-3.6-3.8-3.2-6.4 1.3-1.8 2.9-3.3 4.8-4.4 3.6-3.2 7.7-6.8 11.6-10 1.9-1.3 3.6-2.7 5.1-4.4-0.4-6.8-1.2-13.6-1.6-20.5-0.7-2.9-0.9-5.9-0.4-8.8-0.4-1.2 0-1.6 0.8-2.4l0.2 0.4zM470.02053 132.7c3.6-2 6 0.8 8.8 2.8 6.4 4.4 12.4 8.4 18.8 12.8 7.2-2.4 14.4-5.1 21.6-7.7 3.6-1.2 6-2.8 8.8 0.4 2.4 2.8 0.4 6.4-0.4 8.8-2 6.8-3.6 14-5.6 20.8 4.8 6 10 12 15.2 17.6 2.4 2.8 4.4 5.6 2.8 8.4-1.2 2.8-5.6 2.4-7.7 2.4l-22.4 0.8c-4.4 6.8-8.8 13.6-12.8 20-1.6 2.4-4 5.1-7.2 4-2.2-2-3.8-4.7-4.4-7.7l-7.2-20.5-25.2-6.4c-2.3-1.2-3.6-3.8-3.2-6.4 1.3-1.8 2.9-3.3 4.8-4.4 4-3.2 7.7-6.8 11.6-10 1.9-1.3 3.6-2.7 5.1-4.4-0.4-6.8-1.2-13.6-1.6-20.5-0.7-2.9-0.9-5.9-0.4-8.8-0.8-1.2-0.4-1.6 0.4-2.4l0.2 0.4z m142 29.6c3.6-2 6 0.8 8.8 2.8l18.8 12.8c7.2-2.4 14.4-5.1 21.6-7.7 3.6-1.2 6-2.8 8.8 0.4 2.4 2.8 0.4 6.4-0.4 8.8-2 6.8-3.6 14-5.6 20.8 4.8 6 10 12 15.2 17.6 2.4 2.8 4.4 5.6 2.8 8.4-1.2 2.8-5.6 2.4-7.7 2.4-7.7 0.4-15.2 0.8-22.4 0.8-4.4 6.8-8.4 13.2-12.8 20-1.6 2.4-4 5.1-7.2 4-2.4-1.9-3.9-4.7-4.4-7.7l-7.2-20.5c-8.4-2-16.8-4.4-25.2-6.4-2.3-1.2-3.6-3.8-3.2-6.4 1.3-1.8 2.9-3.3 4.8-4.4 4-3.2 7.7-6.8 11.6-10 1.9-1.3 3.6-2.7 5.1-4.4-0.4-6.8-1.2-13.6-1.6-20.5-0.7-2.9-0.9-5.9-0.4-8.8-0.5-1.1 0.2-1.5 0.6-2zM142.82053 433.2c3.6-2 6 0.8 8.8 2.8 6.4 4.4 12.4 8.4 18.8 12.8 7.2-2.4 14.4-5.1 21.6-7.7 3.6-1.2 6-2.8 8.8 0.4 2.4 2.8 0.4 6.4-0.4 8.8-2 6.8-4 14-5.6 20.8 4.8 6 10 11.6 15.2 17.6 2.4 2.8 4.4 5.6 2.8 8.4-1.2 2.8-5.6 2.4-7.7 2.4l-22.4 0.8c-4.4 6.8-8.8 13.6-12.8 20-1.6 2.4-4 5.1-7.2 4-2.2-2-3.8-4.7-4.4-7.7l-7.2-20.5-25.2-6.4c-2.3-1.2-3.6-3.8-3.2-6.4 1.3-1.8 2.9-3.3 4.8-4.4 3.6-3.2 7.7-6.8 11.6-10 1.9-1.3 3.6-2.7 5.1-4.4-0.4-6.8-1.2-13.6-1.6-20.5-0.7-2.9-0.9-5.9-0.4-8.8-0.7-0.8-0.3-1.5 0.6-2z m558.9 414.4c3.6-2.4 2.4-5.6 2-8.8l-1.6-22.4 17.2-14.8c2.8-2.4 5.1-4 4-7.7-1.2-3.2-5.6-3.6-7.7-4-6.8-2-14-3.6-20.8-5.6-2.8-7.2-5.1-14.4-7.7-21.6-1.2-3.6-2.8-6.4-5.6-6.8-2.8-0.4-4.8 3.6-5.6 5.1l-12 19.2-24 1.2c-2.8 0-6.8 0.8-6.8 4.4 0.5 3 2 5.7 4.4 7.7 4.8 5.6 9.2 11.2 14 16.4l-7.2 25.2c-0.3 2.7 1.4 5.2 4 6 2.2-0.1 4.4-0.7 6.4-1.6l14.4-4.8c2.1-0.8 4.2-1.5 6.4-2 5.6 4 11.2 7.7 16.8 11.6 2.2 2.1 4.8 3.6 7.7 4.4 0.5-1.1 0.8-1.1 1.6-1.1h0.1z m-158.8 50c3.6-2.4 2.4-5.6 2-8.8l-1.6-22.4 17.2-14.8c2.8-2.4 5.1-4 4-7.7-1.1-3.7-5.6-3.6-7.7-4-6.8-1.6-14-3.6-20.8-5.6l-7.7-22c-1.2-3.6-2.8-6.4-5.6-6.8-2.8-0.4-4.8 3.6-5.6 5.1l-12 19.2-24 1.2c-2.8 0-6.8 0.8-6.8 4.4 0.5 3 2 5.7 4.4 7.7 4.8 5.6 9.2 11.2 14 16.4l-7.2 25.2c-0.3 2.7 1.4 5.2 4 6 2.2-0.3 4.3-0.9 6.4-1.6l14.4-4.8c2-1 4.2-1.7 6.4-2 5.6 4 11.2 7.7 16.8 11.6 2.2 2.1 4.8 3.6 7.7 4.4 0.4-0.8 0.8-0.8 1.7-0.7zM819.42053 738c3.6-2.4 2.4-5.6 2-8.8l-1.6-22.4L837.02053 692c2.8-2.4 5.1-4 4-7.7-1.2-3.2-5.6-3.6-7.7-4-6.8-2-14-3.6-20.8-5.6-2.8-7.2-5.1-14.4-7.7-21.6-1.2-3.6-2.8-6.4-5.6-6.8-2.8-0.4-4.8 3.6-5.6 5.1l-12 19.2-24 1.2c-2.8 0-6.8 0.8-6.8 4.4 0.5 3 2 5.7 4.4 7.7 4.8 5.6 9.2 11.2 14 16.4l-7.2 25.2c-0.3 2.7 1.4 5.2 4 6 2.2-0.2 4.4-0.7 6.4-1.6l14.4-4.8c2.1-0.8 4.2-1.5 6.4-2 5.6 4 11.2 7.7 16.8 11.6 2.2 2.1 4.8 3.6 7.7 4.4 0-0.8 0.8-1.2 1.6-1.2l0.1 0.1zM865.02053 600.3c3.6-2.4 2.4-5.6 2-8.8l-1.6-22.4 17.2-14.8c2.8-2.4 5.1-4 4-7.7-1.2-3.2-5.6-3.6-7.7-4-6.8-1.6-14-3.6-20.8-5.6l-7.7-22c-1.2-3.6-2.8-6.4-5.6-6.8-2.8-0.4-4.8 3.6-5.6 5.1l-12 19.2-24 1.2c-2.8 0-6.8 0.8-6.8 4.4 0.5 3 2 5.7 4.4 7.7 4.8 5.6 9.2 11.2 14 16.4l-7.2 25.2c-0.3 2.7 1.4 5.2 4 6 2.2-0.3 4.3-0.9 6.4-1.6l14.4-4.8c2.1-0.8 4.2-1.5 6.4-2 5.6 4 11.2 7.7 16.8 11.6 2.2 2.1 4.8 3.6 7.7 4.4 0.2-0.7 0.6-0.7 1.4-0.7h0.3zM395.52053 871.2c3.6-2.4 2.4-5.6 2-8.8L396.02053 840l17.2-14.8c2.8-2.4 5.1-4 4-7.7-1.2-3.2-5.6-3.6-7.7-4-6.8-2-14-3.6-20.8-5.6-2.8-7.2-5.1-14.4-7.7-21.6-1.2-3.6-2.8-6.4-5.6-6.8-2.8-0.4-4.8 3.6-5.6 5.1l-12 19.2-24 1.2c-2.8 0-6.8 0.8-6.8 4.4 0.5 3 2 5.7 4.4 7.7 4.8 5.6 9.2 11.2 14 16.4l-7.2 25.2c-0.3 2.7 1.4 5.2 4 6 2.2-0.3 4.3-0.9 6.4-1.6l14.4-4.8c2.1-0.8 4.2-1.5 6.4-2 5.6 4 11.2 7.7 16.8 11.6 2.2 2.1 4.8 3.6 7.7 4.4 0.4-0.8 0.8-1.1 1.6-1.1zM168.22053 690.3l8.1 14.1 14.4-8.3 32.1 55.5-14 9 10.9 13.8c22-14.9 40.2-27.7 54.2-38.4l7.9 13.7 17.1-9.9-9.3-16.1c2.7-2.5 5.3-4.7 7.8-6.8l-7.8-13.6c-2.6 1.9-5.2 4.1-7.9 6.4L253.02053 660l75.6-43.7-8.1-14.1-152.3 88.1z m70.3 50.8l-6.1-10.6 28.8-16.6 4.6 8c-8 6-17.1 12.4-27.3 19.2zM225.02053 717.8l-5.4-9.4 28.8-16.6 5.4 9.4-28.8 16.6z m-12.8-22.2l-5.2-9.1 28.8-16.6 5.2 9.1-28.8 16.6zM153.02053 618.3l30.6 53 113.7-65.6-30.6-53L153.02053 618.3z m120-15.1l-79.6 45.9-4.7-8.1 79.6-45.9 4.7 8.1z m-91.1 26l-4.5-7.8 79.6-45.9 4.5 7.7-79.6 46z m95.6 46.1c9.7 9.7 21.6 16.9 34.7 20.9-4.2 9.8-9.8 19-16.5 27.3l17 8.5c7.4-9.6 13.5-20.2 18-31.5 11.9 1.6 23.9 1.8 35.8 0.6l0.6-20c-10.6 1.7-21.3 2.2-31.9 1.5 2.1-13.3 1-27-3.1-39.8l-7.8-13.5-60.4 34.9 8.3 14.4 5.3-3.3z m39.4 4c-8.9-2.4-17.1-6.8-24-12.7l23.7-13.7c1.7 8.7 1.9 17.7 0.4 26.5l-0.1-0.1zM365.62053 513l10 17.3 35.7-20.6 11.5 20-44.1 25.4 10.1 17.5 107-61.8-10.1-17.6L441.02053 519l-11.5-20 36.5-21.1-10-17.3-36.5 21.1-10.4-18-18.2 10.5 10.4 18-35.7 20.8z m43.1 77.9l10 17.3 37-21.4 13.3 23-46.6 26.9 10.1 17.5 112-64.6-10.1-17.5-47.2 27.3-13.3-23 37.6-21.7-10-17.3-37.6 21.7L454.02053 542l-18.2 10.5 9.9 17.1-37 21.3z m-50.9-4.2l51.4 89 18.2-10.5-66.6-115.3c0-15.8-1.5-31.5-4.7-47l-21.5 1.9c6.8 29.9 7.2 60.8 1 90.9l17.1 15.7c2-8.3 3.7-16.5 5.1-24.7z m183.3-137.1l37.7 65.3 70.1-40.5-37.7-65.3-70.1 40.5z m81.4 18.8L587.02053 488.9l-19.3-33.4 35.5-20.5 19.3 33.4z m3.1-117.5l-142.3 82.2 84.5 146.3 18-10.4-3.2-5.6L688.92053 502l3.2 5.5 18-10.4-84.5-146.2z m-52.3 196.4l-62.7-108.5 106.3-61.4 62.7 108.5-106.3 61.4z m114.6-206.1l11-6.3c6.3 4.2 12.3 8.7 18.3 13.4l12.7-15.3c-3.9-2.8-8.1-5.8-12.8-8.6l20.2-11.7-9.3-16.1-42.1 24.3c-0.7-3.9-1.5-8.1-2.3-12.4l-19.2 6c4 17.9 4.4 36.4 1.2 54.4l20.7 1.1c1.3-9.4 1.8-19.1 1.6-28.8z m71.3-41.2l13.5-7.8c7.7 4.7 15.2 9.7 22.5 15.1l12.5-15.2c-5.3-3.8-10.9-7.3-16.6-10.5l24.2-14-9.3-16.1-48.4 28c-0.6-3.8-1.4-7.9-2.2-12.2l-19.2 6c3.4 14.8 3.8 30.1 1.4 45.1l20.4 0.9c0.7-6.2 1.1-12.7 1.2-19.3z m74.1 54.2l-108 62.4 32.9 56.9 17.3-10-3.5-6 73.4-42.4 3.5 6 17.3-10-32.9-56.9z m-70.6 87.2l-10.8-18.7 73.4-42.4 10.8 18.7-73.4 42.4z m-35.1-52.2l4.4 7.5 81.3-46.9-3.9-6.8c12.8-0.6 25.5-2 38.2-4l-0.2-20.6c-31.8 6.6-64.5 7.8-96.8 3.8l-11.7 6.7a297.37 297.37 0 0 1-51 80l17.7 10.5c8.2-10.1 15.4-20.2 22-30.2z m59.4-46.1l-48.5 28c5.5-10.2 10.3-20.9 14.1-31.8 11.3 2.2 22.8 3.4 34.4 3.8z" fill="#F04531" opacity=".5" p-id="2887"></path></svg>