<?xml version="1.0" standalone="no"?><!DOCTYPE svg PUBLIC "-//W3C//DTD SVG 1.1//EN" "http://www.w3.org/Graphics/SVG/1.1/DTD/svg11.dtd"><svg t="1591317712684" class="icon" viewBox="0 0 1024 1024" version="1.1" xmlns="http://www.w3.org/2000/svg" p-id="5921" xmlns:xlink="http://www.w3.org/1999/xlink" width="48" height="48"><defs><style type="text/css"></style></defs><path d="M748.7 987.6H89.8C39.6 983.9 0.6 942.4 0 892.1V279.6c0.9-44.3 37.2-79.6 81.5-79.3h157.4L165.4 87.3c-9.6-15-5.6-35 9-45.2 5.1-3.8 11.4-5.9 17.8-5.7 10.6 0.3 20.5 5.6 26.5 14.4l96.1 147.9 0.9 1.8H516.4l1.2-1.8L613.4 50.8c6-8.2 15.5-13 25.6-13 6.4-0.1 12.7 1.9 17.8 5.7 14.2 9.8 18.5 28.8 9.9 43.7l-73.5 113h160.6c42.8 0.1 77.6 34.4 78.4 77.2 0.1 2.2 0 4.4-0.3 6.6v445l0.6 0.5v170c-0.2 47-37 85.6-83.8 88.1zM325.3 407.3c-14.7 0-29.1 4-41.8 11.5-38.5 23.1-56.3 80.7-56.3 181.1 0 103.8 17.1 160.5 55.5 183.8 12.1 7.1 25.9 10.9 39.9 10.9h1.7c50.9-6.4 99.4-25 141.6-54.2l4.1-2.4c4.4-2.6 8.7-5.1 12.1-7.3 13.1-8 25.7-16.9 37.7-26.5 38.7-23.6 62.9-65.2 64.2-110.6-3.4-46.1-42.1-89.9-118.4-133.8-41-28.9-88.7-47-138.6-52.4l-1.7-0.1z" fill="#FFFFFF" p-id="5922"></path><path d="M979 793.8L832.4 726.3v3.3l-0.3-0.3V434l146.9-66.8c4.1-1.9 8.6-2.9 13.1-2.8 6.2 0 12.2 1.9 17.4 5.4 9.2 6.1 14.7 16.6 14.5 27.6v366.1c0.1 11.1-5.4 21.4-14.5 27.6-5.1 3.5-11.2 5.3-17.4 5.4-4.5 0.1-9-0.8-13.1-2.7z" fill="#FFFFFF" opacity=".5" p-id="5923"></path></svg>