<?xml version="1.0" standalone="no"?><!DOCTYPE svg PUBLIC "-//W3C//DTD SVG 1.1//EN" "http://www.w3.org/Graphics/SVG/1.1/DTD/svg11.dtd"><svg t="1591317727282" class="icon" viewBox="0 0 1024 1024" version="1.1" xmlns="http://www.w3.org/2000/svg" p-id="6042" xmlns:xlink="http://www.w3.org/1999/xlink" width="48" height="48"><defs><style type="text/css"></style></defs><path d="M762.501696 236.75781c70.69427-0.499959 130.189448 52.995704 137.088888 123.389998l51.19585 516.758115c6.099506 74.793938-49.695972 140.388621-124.489909 146.488126-0.199984 0-0.499959 0-0.699943 0.099992-3.899684 0.299976-7.89936 0.499959-11.799044 0.499959h-604.251023c-75.393889 0.699943-136.988896-59.895145-137.588848-135.289034 0-3.899684 0-7.89936 0.49996-11.799043l51.19585-516.758115c6.899441-70.394294 66.294627-123.98995 137.088889-123.389998h501.75933z m-149.387892 174.085889c-18.698484 0-33.797261 15.098776-33.79726 33.797261v33.79726h-240.5805c-18.598493 1.999838-31.897415 18.698484-29.897577 37.296977 1.899846 17.198606 16.498663 30.197552 33.797261 30.097561h236.680816v274.37776c1.999838 18.498501 18.698484 31.897415 37.296977 29.897577 17.198606-1.899846 30.197552-16.498663 30.09756-33.797261v-270.578068H684.408026c18.598493-1.999838 31.897415-18.698484 29.897576-37.296977-1.899846-17.198606-16.498663-30.197552-33.79726-30.097561h-33.797261V440.641284c-1.899846-17.098614-16.398671-30.09756-33.597277-30.09756v0.299975z m-148.78794 209.583013c-14.898792-11.199092-36.097074-8.199335-47.296166 6.699456v0.099992l-101.491774 135.189043-2.399805 3.499716c-9.099262 16.298679-3.199741 36.897009 13.098938 45.89628 14.598817 8.099344 32.997325 4.299651 43.196499-8.899279l101.391781-135.289034 2.399806-3.499716c8.599303-14.7988 4.799611-33.797261-8.999271-43.996434v0.299976z" fill="#FFFFFF" p-id="6043"></path><path d="M511.722023 0.076994c109.091158 0 198.583904 86.293006 202.783563 195.284171V270.55507c0.099992 18.698484-14.898792 33.897252-33.597277 33.997245-17.298598 0.099992-31.897415-12.898954-33.79726-30.097561v-71.494205c-0.399968-74.693946-61.19504-134.989059-135.888986-134.589091-71.594197 0.299976-130.489423 56.395429-134.389107 127.889634V270.655062c0.099992 18.698484-14.898792 33.897252-33.597277 33.997245-17.298598 0.099992-31.897415-12.898954-33.79726-30.097561v-71.494205c0-112.090915 90.792641-202.883555 202.883555-202.883555l-0.599951-0.099992z" fill="#FFFFFF" opacity=".5" p-id="6044"></path></svg>