<?xml version="1.0" standalone="no"?><!DOCTYPE svg PUBLIC "-//W3C//DTD SVG 1.1//EN" "http://www.w3.org/Graphics/SVG/1.1/DTD/svg11.dtd"><svg t="1591317772635" class="icon" viewBox="0 0 1024 1024" version="1.1" xmlns="http://www.w3.org/2000/svg" p-id="6405" xmlns:xlink="http://www.w3.org/1999/xlink" width="48" height="48"><defs><style type="text/css"></style></defs><path d="M215.3 1023.9c-41.2-0.6-78.7-24.1-97.2-61-8.2-15.9-13.3-33.2-14.9-51V578.1c-1.9-39.8 16.5-77.8 48.7-101.1 19.8-14.7 43.7-22.6 68.3-22.6h83.3c3.9 0 6.6 2 6.6 5.1 34.4 110.5 68.3 223.1 101.2 332 22.6 75 45.9 152.5 69.3 228.5 0 2 0 2 1.9 3.9H215.3z m589.4 0H546.1c-2.2 0-3.5-0.4-3.7-1.2-0.2-0.8 0.5-1.7 1.9-2.7 52.5-171.3 106.2-349.3 153.5-506.4 3.5-9.4 6-18.4 8.8-28 2.4-8.5 5.1-17.2 8.1-26.2 0-2 1.9-3.9 4.7-5.1h93.7c41.3 1.8 78 26.9 94.6 64.8 8.5 18.1 13 37.9 13.1 57.9v323c2 44-20.3 85.5-58.1 108-17.5 10.5-37.6 16-58 15.7v0.2zM685.7 805c-7.6 0.5-13.8 6.2-14.9 13.7 0.6 10.6 9.1 19 19.6 19.6h141.4c3.8 0 6.6 0 8.5-2 6.7-3.1 10.3-10.5 8.5-17.6-1-7.6-7.3-13.4-15-13.7H685.7zM513.4 447.7c-123.7-8.6-216.9-115.9-208.3-239.5C312.8 97.3 400.7 8.7 511.5 0.1 566.7 0.2 619.5 22.5 658 62c42.3 43.3 65.7 101.5 65.1 162 3.6 119.6-90.1 219.7-209.7 223.9v-0.2z" fill="#FFFFFF" p-id="6406"></path><path d="M512 911.9c-6.6-17.6-10.2-36.3-16.9-54-28.1-92.3-55.2-183.6-85.2-275.9-1.9-5.1 0-6.9 1.9-11.8 30.9-25.5 62.7-54 94.6-82.5 1.9-2 1.9-2 4.7-2 1.7 0.2 3.3 0.9 4.7 2 31.8 29.4 64.6 57.9 96.5 85.4 1.5 2 2.2 4.4 1.9 6.9-34.6 110-66.3 218-100.2 326.9-0.1 2-0.1 2-2 5z" fill="#FFFFFF" opacity=".5" p-id="6407"></path></svg>