<?xml version="1.0" standalone="no"?><!DOCTYPE svg PUBLIC "-//W3C//DTD SVG 1.1//EN" "http://www.w3.org/Graphics/SVG/1.1/DTD/svg11.dtd"><svg t="1589335856230" class="icon" viewBox="0 0 1024 1024" version="1.1" xmlns="http://www.w3.org/2000/svg" p-id="2747" xmlns:xlink="http://www.w3.org/1999/xlink" width="32" height="32"><defs><style type="text/css"></style></defs><path d="M198.513 205.796v443.7c-0.6 59.1 46.8 107.5 105.9 108.1h477.8c59.1 0.6 107.5-46.9 108.1-106v-290.1c0.5-59.1-47-107.5-106.1-108h-447.4c-11.9 0-21.6 9.7-21.6 21.6 0 11.9 9.7 21.6 21.6 21.6h445.4c35.5 0.9 64 29.4 64.9 64.9v287.9c-0.9 35.5-29.4 64-64.9 64.9h-475.6c-35.5-0.9-64-29.4-64.9-64.9v-448c-4.3-30.3-25.9-82.1-108.1-82.1-11.9 0-21.6 9.7-21.6 21.6 0 11.9 9.7 21.6 21.6 21.6 51.9 0 60.5 21.6 64.9 43.2z" fill="#101D37" p-id="2748"></path><path d="M371.413 472.196h345.9c11.9 0 21.6-9.7 21.6-21.6 0-11.9-9.7-21.6-21.6-21.6h-345.9c-11.9 0-21.6 9.7-21.6 21.6 0 11.9 9.7 21.6 21.6 21.6z m0 129.8h345.9c11.9 0 21.6-9.7 21.6-21.6 0-11.9-9.7-21.6-21.6-21.6h-345.9c-11.9 0-21.6 9.7-21.6 21.6 0 11.9 9.7 21.6 21.6 21.6z m-129.7 172.9c-35.8 0-64.9 29-64.9 64.9s29 64.9 64.9 64.9 64.9-29 64.9-64.9c-0.9-35.5-29.4-64-64.9-64.9z m0 86.5c-11.9 0-21.6-9.7-21.6-21.6 0-11.9 9.7-21.6 21.6-21.6 11.9 0 21.6 9.7 21.6 21.6 0.6 11.3-8 20.9-19.3 21.5h-2.3v0.1z m605.4-86.5c-35.8 0-64.8 29.1-64.8 64.9 0 35.8 29.1 64.8 64.9 64.8 35.8 0 64.8-29.1 64.8-64.9-0.9-35.4-29.5-64-64.9-64.8z m0 86.5c-11.9 0-21.6-9.7-21.6-21.6 0-11.9 9.7-21.6 21.6-21.6 11.9 0 21.6 9.7 21.6 21.6 0.6 11.3-8 20.9-19.3 21.5h-2.3v0.1z" fill="#101D37" p-id="2749"></path></svg>