<?xml version="1.0" standalone="no"?><!DOCTYPE svg PUBLIC "-//W3C//DTD SVG 1.1//EN" "http://www.w3.org/Graphics/SVG/1.1/DTD/svg11.dtd"><svg t="1591781504200" class="icon" viewBox="0 0 1024 1024" version="1.1" xmlns="http://www.w3.org/2000/svg" p-id="6298" xmlns:xlink="http://www.w3.org/1999/xlink" width="200" height="200"><defs><style type="text/css"></style></defs><path d="M512 992C247.3 992 32 776.7 32 512S247.3 32 512 32s480 215.3 480 480-215.3 480-480 480z" fill="#FFFFFF" p-id="6299"></path><path d="M512 64C265 64 64 265 64 512s201 448 448 448 448-201 448-448S759 64 512 64m0-64c282.8 0 512 229.2 512 512s-229.2 512-512 512S0 794.8 0 512 229.2 0 512 0z" fill="#CCCCCC" p-id="6300"></path></svg>