<?xml version="1.0" standalone="no"?><!DOCTYPE svg PUBLIC "-//W3C//DTD SVG 1.1//EN" "http://www.w3.org/Graphics/SVG/1.1/DTD/svg11.dtd"><svg t="1591250167358" class="icon" viewBox="0 0 1024 1024" version="1.1" xmlns="http://www.w3.org/2000/svg" p-id="5421" xmlns:xlink="http://www.w3.org/1999/xlink" width="32" height="32"><defs><style type="text/css"></style></defs><path d="M960 96h-576c0-35.3-28.7-64-64-64h-256c-35.3 0-64 28.7-64 64v192c0 35.3 28.7 64 64 64h896c35.3 0 64-28.7 64-64V160c0-35.3-28.6-64-64-64z" fill="#101D37" p-id="5422"></path><path d="M896.1 160h-768c-35.3 0-64 28.7-64 64v64c0 35.3 28.7 64 64 64h768c35.3 0 64-28.7 64-64v-64c0-35.3-28.7-64-64-64z" fill="#FFFFFF" p-id="5423"></path><path d="M960 224h-896c-35.3 0-64 28.7-64 64v640c0 35.3 28.7 64 64 64h896c35.3 0 64-28.7 64-64V288c0-35.3-28.6-64-64-64z" fill="#F04531" p-id="5424"></path><path d="M427.827 504.705c0 55 44.6 99.5 99.5 99.5s99.5-44.6 99.5-99.5-44.6-99.5-99.5-99.5c-26.4 0-51.7 10.5-70.3 29.1-18.7 18.7-29.2 44-29.2 70.4zM688.327 742.005z m0 0zM621.827 616.305h-8.5c-3.5 0.1-7 0.9-10.2 2.3-4.2 2.3-8.6 4.3-13 6.1-20 7.8-41.3 11.8-62.8 11.7-21.1 0.1-42-3.8-61.6-11.6-6.3-2.5-13.3-6.3-13.3-6.3-3.2-1.5-6.6-2.3-10.2-2.3h-8.5c-35.7 5.6-66 29.3-80 62.7-8.3 19.2-12.5 39.9-12.5 60.8 0.6 6.4 4.5 11.9 10.2 14.7 54.8 25.9 115.2 37.8 175.7 34.7 60.5 3.2 120.9-8.7 175.7-34.6 5.6-3 9.5-8.6 10.2-14.9 0.2-20.5-3.9-40.9-12.1-59.7-13.2-33.6-43.4-57.7-79.1-63.6zM688.327 741.005z m0 0.7z" fill="#FFFFFF" p-id="5425"></path></svg>