<?xml version="1.0" standalone="no"?><!DOCTYPE svg PUBLIC "-//W3C//DTD SVG 1.1//EN" "http://www.w3.org/Graphics/SVG/1.1/DTD/svg11.dtd"><svg t="1591004267335" class="icon" viewBox="0 0 1024 1024" version="1.1" xmlns="http://www.w3.org/2000/svg" p-id="4152" xmlns:xlink="http://www.w3.org/1999/xlink" width="64" height="64"><defs><style type="text/css"></style></defs><path d="M512 512m-512 0a512 512 0 1 0 1024 0 512 512 0 1 0-1024 0Z" opacity=".5" p-id="4153"></path><path d="M622.4 733.9H314.9c-23.4-1.7-41.6-21-41.8-44.5V403.6c0.6-20.9 18-37.5 39-36.9h72.5L350.3 314c-4.6-7-2.7-16.4 4.1-21.2 2.4-1.7 5.3-2.6 8.3-2.6 5 0 9.7 2.6 12.4 6.8l44.8 68.9 0.5 0.9h93.6l0.5-0.9 44.8-68.9c2.8-3.9 7.2-6.1 11.9-6.1 3 0 5.9 0.9 8.3 2.6 6.6 4.6 8.6 13.5 4.6 20.5l-34.3 52.7h74.7c20.1-0.2 36.6 15.9 36.8 36 0 1 0 2-0.1 3v70l68.6-31.2c1.9-0.9 4-1.3 6.1-1.3 2.9 0 5.7 0.9 8.1 2.5 4.3 2.9 6.9 7.7 6.8 12.9v170.8c0 5.2-2.5 10-6.8 12.9-2.4 1.6-5.2 2.5-8.1 2.5-2.1 0-4.2-0.4-6.1-1.3L661.4 612v80.9c-0.1 21.9-17.2 39.9-39 41zM425.6 463.2c-7.1-0.1-14.1 1.7-20.2 5.4-18 10.8-26.3 37.7-26.3 84.5 0 48.5 8 74.9 25.9 85.7 5.9 3.5 12.6 5.2 19.4 5.1 23.7-3 46.3-11.7 66-25.3 2.7-1.6 5.4-3.2 7.6-4.6 6.1-3.8 11.9-7.9 17.5-12.3 21.4-17.1 31.3-33.9 30-51.6-1.5-21.5-19.6-41.9-55.2-62.4-19.1-13.5-41.4-21.9-64.7-24.5z" fill="#FFFFFF" p-id="4154"></path></svg>