<?xml version="1.0" standalone="no"?><!DOCTYPE svg PUBLIC "-//W3C//DTD SVG 1.1//EN" "http://www.w3.org/Graphics/SVG/1.1/DTD/svg11.dtd"><svg t="1591251434443" class="icon" viewBox="0 0 1024 1024" version="1.1" xmlns="http://www.w3.org/2000/svg" p-id="7181" xmlns:xlink="http://www.w3.org/1999/xlink" width="32" height="32"><defs><style type="text/css"></style></defs><path d="M362.195053 819.588795c-42.099424-0.299996-75.998961-34.699526-75.698965-76.79895 0-4.099944 0.399995-8.099889 1.099984-12.199834l21.799702-128.098248-92.398736-90.69876c-29.99959-29.399598-30.499583-77.598939-1.099985-107.598529 11.599841-11.799839 26.699635-19.499733 42.999412-21.999699l127.798253-18.699745 57.399215-116.398408c18.29975-37.499487 63.59913-52.999275 101.098618-34.699526 15.099794 7.399899 27.299627 19.599732 34.699525 34.699526l57.09922 116.398408 127.798252 18.699745c41.499433 6.199915 70.19904 44.799388 63.999125 86.398818-2.399967 16.399776-10.199861 31.599568-21.999699 43.19941l-92.598734 90.69876 21.799702 128.098248c4.999932 28.49961-6.59991 57.299217-29.99959 74.398983-23.39968 16.79977-54.299258 18.99974-79.898907 5.799921l-114.198439-60.499173-114.498435 60.399174c-10.799852 5.899919-22.899687 8.899878-35.199518 8.899879z m149.697953-556.792388c-6.799907 0-12.899824 3.799948-16.09978 9.799866l-63.799128 130.298219a28.639608 28.639608 0 0 1-21.799702 15.799784l-142.698049 20.899714c-9.799866 1.499979-16.599773 10.699854-14.999795 20.49972 0.599992 3.899947 2.399967 7.399899 5.199929 10.099862l103.398587 101.498612c6.799907 6.59991 9.899865 16.199779 8.199887 25.59965l-24.199669 143.098043c-1.199984 6.699908 1.499979 13.599814 6.999905 17.699758 5.499925 3.999945 12.799825 4.39994 18.699744 1.199984l127.798253-67.399078c8.499884-4.599937 18.599746-4.599937 27.099629 0l127.698254 67.399078c5.899919 3.099958 12.999822 2.599964 18.499747-1.199984 5.599923-4.099944 8.299887-10.899851 7.199902-17.699758l-24.499665-143.098043c-1.499979-9.399871 1.599978-18.899742 8.399885-25.59965l103.398586-101.498612c7.099903-6.899906 7.2999-18.29975 0.299996-25.399653-2.699963-2.799962-6.299914-4.599937-10.099862-5.199929l-143.198042-20.899714c-9.399871-1.399981-17.599759-7.2999-21.799702-15.799784l-63.799127-130.298219c-2.999959-5.999918-9.099876-9.799866-15.899783-9.799866z" fill="#F04531" p-id="7182"></path><path d="M878.987987 1023.986h-734.089964c-79.998906 0-144.898019-64.899113-144.898019-144.898019v-734.189962c0-79.998906 64.899113-144.898019 144.898019-144.898019h734.089964c79.998906 0.099999 144.79802 64.899113 144.898019 144.898019v734.189962c0 79.998906-64.899113 144.79802-144.898019 144.898019z m-734.089964-965.886794c-47.999344 0-86.898812 38.899468-86.898812 86.898812v734.189962c0.199997 47.899345 38.999467 86.698815 86.898812 86.898812h734.089964c47.999344 0 86.898812-38.899468 86.898812-86.898812v-734.289961c0-47.999344-38.899468-86.898812-86.898812-86.898812l-734.089964 0.099999z" fill="#101D37" p-id="7183"></path></svg>