<?xml version="1.0" standalone="no"?><!DOCTYPE svg PUBLIC "-//W3C//DTD SVG 1.1//EN" "http://www.w3.org/Graphics/SVG/1.1/DTD/svg11.dtd"><svg t="1591931114319" class="icon" viewBox="0 0 1024 1024" version="1.1" xmlns="http://www.w3.org/2000/svg" p-id="6522" xmlns:xlink="http://www.w3.org/1999/xlink" width="32" height="32"><defs><style type="text/css"></style></defs><path d="M1024.00156 764.651c0.1-3.5-2.7-6.3-6.2-6.4h-0.2c-134.3-51.1-345.3-121.5-370.9-134.3h-6.4c-19.7 1.6-38 10.8-51.1 25.6-32 38.4 38.4 108.7 38.4 108.7 4.9 5.1 7.3 12.2 6.4 19.2 0 6.4-12.8 12.8-19.2 12.8-6.4 0-230.2 0-319.8-95.9-50-59-108.1-110.7-172.7-153.4-13.8-7.4-29.1-11.7-44.8-12.8h-6.4c-25.1 0.1-48.8 11.9-63.9 32-19.2 38.4 0 102.3 57.5 191.8 178.9 230.2 351.7 230.2 351.7 230.2h588.4c12.8 0 12.8-6.4 19.2-6.4v-211.1z" fill="#FFFFFF" opacity=".5" p-id="6523"></path><path d="M141.50156 508.851c63.7 48.6 123.5 102 178.9 159.9 57.5 57.5 178.9 76.7 249.4 83.1-25.6-38.4-44.8-83.1-12.8-127.8 20.7-24.4 51.1-38.5 83.1-38.4h19.2c19.2 6.4 178.9 63.9 287.8 102.2 38.3-63.7 58.2-136.7 57.5-211.1-2.5-239.1-195.8-432.4-434.9-434.9-236-7.5-433.4 177.7-440.9 413.7-0.2 4.9-0.2 9.9-0.2 14.8v32c6.5 0.1 6.5 6.5 12.9 6.5z m300.5-172.7l76.7 6.4-70.4-108.7v-12.8c0.9-13.7 11.8-24.6 25.6-25.6 12.8 0 19.2 6.4 19.2 12.8 20.9 39.9 44.4 78.4 70.4 115.1l63.9-115.1c6.4-6.4 12.8-12.8 19.2-12.8 13.7 0.9 24.6 11.8 25.6 25.6v6.4l-70.4 115.1h76.7c14.1 0 25.6 11.4 25.6 25.6 0 14.1-11.4 25.6-25.6 25.6H589.00156v25.6h76.7c14.1 0 25.6 11.4 25.6 25.6s-11.6 25.4-25.7 25.4h-76.7v76.7c0 14.1-11.4 25.6-25.5 25.6s-25.6-11.4-25.6-25.5v-89.5h-83.1c-14.1 0-25.6-11.4-25.6-25.6s11.4-25.6 25.6-25.6h83.1v-19.1h-95.9c-13.7-0.9-24.6-11.8-25.6-25.6 6.6-12.8 13-25.6 25.7-25.6z" fill="#FFFFFF" p-id="6524"></path></svg>