<?xml version="1.0" standalone="no"?><!DOCTYPE svg PUBLIC "-//W3C//DTD SVG 1.1//EN" "http://www.w3.org/Graphics/SVG/1.1/DTD/svg11.dtd"><svg t="1590047809506" class="icon" viewBox="0 0 1024 1024" version="1.1" xmlns="http://www.w3.org/2000/svg" p-id="3647" xmlns:xlink="http://www.w3.org/1999/xlink" width="48" height="48"><defs><style type="text/css"></style></defs><path d="M923.627176 204.95059h-823.398352c-25.699949-1.199998-47.699905 18.599963-49.099901 44.299911v575.798847c3.799992 73.799852 63.999872 132.099736 137.999723 133.699733v21.799956c2.699995 26.499947 26.499947 45.799908 53.099894 43.099914 22.799954-2.299995 40.799918-20.299959 43.099914-43.099914v-21.099958h453.399092v21.199958c2.699995 26.499947 26.499947 45.799908 53.099894 43.099914 22.799954-2.299995 40.799918-20.299959 43.099914-43.099914v-21.799957c73.999852-1.499997 134.299731-59.99988 137.999723-133.899732v-575.598847c-0.1-11.999976-5.399989-23.399953-14.299971-31.399937-9.79998-8.599983-22.199956-13.199974-34.99993-12.999974z m-276.899446 0z m-248.299503 542.398914c-1.999996 20.299959-20.09996 35.19993-40.399919 33.099934-17.499965-1.799996-31.499937-15.599969-33.099933-33.099934v-325.399349c1.999996-20.299959 20.09996-35.19993 40.399919-33.099933 17.499965 1.799996 31.499937 15.599969 33.099933 33.099933v325.399349z m306.599387 0c-1.999996 20.299959-20.09996 35.19993-40.39992 33.099934-17.499965-1.799996-31.499937-15.599969-33.099933-33.099934v-325.399349c1.999996-20.299959 20.09996-35.19993 40.399919-33.099933 17.499965 1.799996 31.499937 15.599969 33.099934 33.099933v325.399349z" fill="#FFFFFF" p-id="3648"></path><path d="M669.127685 204.65059v-124.79975h5.799989c20.09996 0.499999 37.599925-13.399973 41.699916-33.099934 1.999996-11.599977-1.299997-23.499953-8.799982-32.499935-7.699985-8.999982-18.899962-14.199972-30.699939-14.199971h-327.499344c-20.09996-0.499999-37.599925 13.399973-41.699916 33.099934-1.999996 11.599977 1.299997 23.499953 8.799982 32.499935 7.699985 8.999982 18.899962 14.199972 30.699938 14.199971h7.899985v124.89975l313.799371-0.1z m-233.599532-124.79975h153.299693v124.89975h-153.299693v-124.89975z" fill="#FFFFFF" opacity=".5" p-id="3649"></path></svg>