<?xml version="1.0" standalone="no"?><!DOCTYPE svg PUBLIC "-//W3C//DTD SVG 1.1//EN" "http://www.w3.org/Graphics/SVG/1.1/DTD/svg11.dtd"><svg t="1589335869521" class="icon" viewBox="0 0 1024 1024" version="1.1" xmlns="http://www.w3.org/2000/svg" p-id="3018" xmlns:xlink="http://www.w3.org/1999/xlink" width="32" height="32"><defs><style type="text/css"></style></defs><path d="M795.413 244.042h-566.8c-63.2-1.2-115.4 49.1-116.6 112.3v443.5c1.2 63.2 53.4 113.5 116.6 112.3h566.8c63.2 1.2 115.4-49.1 116.6-112.3v-443.5c-1.2-63.2-53.4-113.5-116.6-112.3z m-566.8 37.5h566.8c42.1-0.7 76.9 32.7 77.7 74.9v443.5c-0.8 42.1-35.6 75.6-77.7 74.9h-566.8c-42.1 0.7-76.9-32.7-77.7-74.9v-443.6c0.8-42.1 35.5-75.6 77.7-74.8z" fill="#102645" p-id="3019"></path><path d="M469.813 368.442l-3.5 0.2c-21.8 1.8-38.6 20-38.7 41.9v83.6h-83.7c-23.3 0-42.1 18.9-42.1 42.1v68.3l0.2 3.5c1.8 21.8 20 38.6 41.9 38.7h83.6v83.7c0 23.3 18.9 42.1 42.1 42.1h68.4l3.5-0.2c21.8-1.8 38.6-20 38.7-41.9v-83.7h83.7c23.2 0 42.1-18.8 42.1-42.1V536.242l-0.2-3.5c-1.8-21.8-20-38.6-41.9-38.7h-83.7v-83.6c0-23.2-18.8-42.1-42-42.1H469.813z m0 37.5h68.3c2.6 0 4.6 2.1 4.7 4.7v121.1h121.2c2.6 0 4.6 2.1 4.7 4.7v68.3c0 2.6-2.1 4.6-4.7 4.7h-121.2v121.2c0 2.6-2.1 4.6-4.7 4.7h-68.3c-2.6 0-4.6-2.1-4.7-4.7v-121.4h-121.2c-2.6 0-4.6-2.1-4.7-4.7v-68.3c0-2.6 2.1-4.6 4.7-4.7h121.1v-120.9c0-2.6 2.1-4.7 4.8-4.7z m185.7-294.1c34.6 0 63.2 27 65.3 61.5v103.1h-37.4v-99.1c0-14.4-10.9-26.5-25.2-28l-2.9-0.2h-306.3c-14.4 0-26.5 10.9-28 25.2l-0.2 2.9v90.7h-37.4v-90.7c0-34.6 27-63.3 61.5-65.3h4l306.6-0.1z" fill="#102645" p-id="3020"></path></svg>