<?xml version="1.0" standalone="no"?><!DOCTYPE svg PUBLIC "-//W3C//DTD SVG 1.1//EN" "http://www.w3.org/Graphics/SVG/1.1/DTD/svg11.dtd"><svg t="1591250159770" class="icon" viewBox="0 0 1024 1024" version="1.1" xmlns="http://www.w3.org/2000/svg" p-id="5286" xmlns:xlink="http://www.w3.org/1999/xlink" width="32" height="32"><defs><style type="text/css"></style></defs><path d="M736.5 709.181c-43.6-0.1-79-35.5-79.1-79.1v-50.6c0-43.7 35.4-79.1 79.1-79.3h287.3v-163.3c-0.1-43.6-35.5-79-79.1-79.1H78.9c-43.5 0.2-78.7 35.5-78.9 79.1v592.8c0.1 43.6 35.5 79 79.1 79.1h865.8c43.6-0.1 79-35.5 79.1-79.1v-220.5H736.5z" fill="#F04531" p-id="5287"></path><path d="M731.668 607.9c0 25.4 20.6 46 46 46s46-20.6 46-46-20.6-46-46-46-46 20.6-46 46zM886.168 207.5l-83.5-151.2c-21.2-38.1-69.2-52-107.4-31l-329.8 182.3 520.7-0.1z" fill="#101D37" p-id="5288"></path></svg>