<?xml version="1.0" standalone="no"?><!DOCTYPE svg PUBLIC "-//W3C//DTD SVG 1.1//EN" "http://www.w3.org/Graphics/SVG/1.1/DTD/svg11.dtd"><svg t="1591250249300" class="icon" viewBox="0 0 1024 1024" version="1.1" xmlns="http://www.w3.org/2000/svg" p-id="6773" xmlns:xlink="http://www.w3.org/1999/xlink" width="32" height="32"><defs><style type="text/css"></style></defs><path d="M846 995.8l-96.5-84.7-88.5-65.7h-280.7c-16.4 0-29.7-13.4-29.7-29.8s13.3-29.8 29.7-29.9h290.7c6.4 0.1 12.5 2.1 17.7 5.9l97.3 72.2c0.6 0.4 1.2 1 1.8 1.6l47.9 42v-92.1c0-16.4 13.3-29.8 29.7-29.9h88.8c2.6 0 5.1-1 7-2.9 1.8-1.9 2.9-4.4 2.9-7.1V281.1c0-2.6-1.1-5.1-2.9-7-1.8-2-4.4-3.1-7-3h-78.4c-3.3 0-6.6-0.5-9.7-1.6v394.1c-0.1 38.3-31.2 69.3-69.6 69.5h-420.4l-191.6 167.8c-5.4 4.7-12.4 7.3-19.6 7.3-4.2 0-8.4-0.9-12.3-2.6-10.6-4.9-17.4-15.5-17.4-27.1V733.2h-65.6c-38.3-0.1-69.5-31.1-69.6-69.5V90.1c0.1-38.4 31.2-69.5 69.6-69.6h727.1c38.4 0.1 69.5 31.2 69.6 69.6v123.4c3.1-1.1 6.4-1.6 9.7-1.6h78.4c18.5 0 36.2 7.3 49.2 20.5 13.1 13 20.5 30.7 20.5 49.2v494.5c0 18.5-7.3 36.2-20.5 49.2-13 13.1-30.7 20.5-49.2 20.5h-59v128c0 11.7-6.8 22.3-17.4 27.1-3.8 1.8-8 2.8-12.2 2.7-7.5-0.2-14.4-3-19.8-7.8zM59.7 89.9v574c0.1 5.4 4.5 9.8 9.9 9.9h95.4c16.4 0 29.8 13.3 29.9 29.8v109.3l150.5-131.7c5.4-4.8 12.5-7.4 19.7-7.4h431.5c5.5-0.2 9.9-4.7 9.9-10.2V90.1c-0.1-5.4-4.5-9.8-9.9-9.9h-727c-5.5 0-9.9 4.4-9.9 9.9v-0.2z" fill="#101D37" p-id="6774"></path><path d="M420.409 515.692c-15.3 0-27.7 12.4-27.7 27.7 0 15.3 12.4 27.7 27.7 27.7 15.3 0 27.7-12.4 27.7-27.7 0-15.3-12.4-27.7-27.7-27.7z m85-320.2c-22.2-22.4-52.4-34.9-83.9-34.9-16.3-0.4-32.6 2.9-47.4 9.8-14.7 6.4-28.3 15.2-40.2 25.9-22.2 22.8-34.7 53.2-34.9 85-0.5 14.8 11 27.2 25.8 27.7h1.9c14.5 0.7 26.9-10.5 27.7-25v-0.9c-0.3-16.9 6.5-33.2 18.7-44.9 5.7-6.6 13.2-11.6 21.5-14.3 8.3-3.1 17-4.9 25.9-5.4 16.9-0.4 33.2 6.5 44.7 18.8 5.1 5.1 9 11.6 13.4 17 5.9 11.6 8.4 24.6 7.2 37.6-1.8 12.6-7.8 24.3-17 33.1-4.6 4.8-10.1 8.8-16.1 11.6-15.9 7.2-29.7 18.2-40.2 32.2-14.4 20.7-21.6 45.5-20.5 70.7-0.5 14.8 11 27.2 25.8 27.7h1.9c15.7-0.2 28.4-12.9 28.6-28.6-1.5-13.2 1.6-26.5 9-37.6 6.5-7.1 14.4-12.6 23.3-16.1 10.3-5.6 19.7-12.9 27.7-21.5 17.6-18.1 29.2-41.3 33.1-66.2 2.6-24.9-2.1-50.1-13.4-72.5-6.1-10.8-13.7-20.7-22.4-29.5l-0.2 0.3z" fill="#F04531" p-id="6775"></path></svg>