<?xml version="1.0" standalone="no"?><!DOCTYPE svg PUBLIC "-//W3C//DTD SVG 1.1//EN" "http://www.w3.org/Graphics/SVG/1.1/DTD/svg11.dtd"><svg t="1590119815428" class="icon" viewBox="0 0 1024 1024" version="1.1" xmlns="http://www.w3.org/2000/svg" p-id="2886" xmlns:xlink="http://www.w3.org/1999/xlink" width="32" height="32"><defs><style type="text/css"></style></defs><path d="M512 1024C229.2 1024 0 794.8 0 512S229.2 0 512 0s512 229.2 512 512c-0.4 282.6-229.4 511.6-512 512z m0-966C261.2 58 58 261.2 58 512s203.3 454 454 454 454-203.3 454-454c-0.4-250.6-203.4-453.6-454-454z" fill="#101D37" p-id="2887"></path><path d="M512 738.4c-99.6 0.3-193.7-45.7-254.8-124.4-9.9-12.5-7.7-30.8 4.9-40.7s30.8-7.7 40.7 4.9c90 115.6 256.6 136.2 372.2 46.2 17.3-13.4 32.8-28.9 46.2-46.2 9.9-12.5 28.2-14.8 40.7-4.9 12.5 10 14.8 28.2 4.9 40.7-61.1 78.6-155.2 124.6-254.8 124.4zM328.6 431.7c-29.7 0-53.8-24.1-53.8-53.8v-38.7c0-29.7 24.1-53.8 53.8-53.8s53.8 24.1 53.8 53.8V378c0 29.7-24.1 53.6-53.8 53.7z m369.3 0c-29.7 0-53.8-24.1-53.8-53.8v-38.7c0-29.7 24.1-53.8 53.8-53.8 29.7 0 53.8 24.1 53.8 53.8V378c0 29.7-24.1 53.6-53.8 53.7z" fill="#101D37" p-id="2888"></path></svg>