<?xml version="1.0" standalone="no"?><!DOCTYPE svg PUBLIC "-//W3C//DTD SVG 1.1//EN" "http://www.w3.org/Graphics/SVG/1.1/DTD/svg11.dtd"><svg t="1591690938948" class="icon" viewBox="0 0 1024 1024" version="1.1" xmlns="http://www.w3.org/2000/svg" p-id="6039" xmlns:xlink="http://www.w3.org/1999/xlink" width="200" height="200"><defs><style type="text/css"></style></defs><path d="M955.12053 256C813.72053 11.2 500.72053-72.6 255.92053 68.8S-72.67947 523.2 68.72053 768s454.5 328.6 699.3 187.2c244.7-141.2 328.6-454.1 187.4-698.8-0.1-0.1-0.2-0.3-0.3-0.4zM761.92053 944.7c-239 138.1-544.8 56.2-682.9-182.8S22.82053 217.1 261.92053 79.1s544.8-56.2 682.9 182.8c137.9 239 56.1 544.7-182.9 682.8z" fill="#919AAA" opacity=".5" p-id="6040"></path><path d="M897.92053 289.2C774.92053 76 502.32053 2.9 289.12053 126 75.92053 249 2.82053 521.6 125.92053 734.8 249.02053 948 521.52053 1021.1 734.72053 898c213.1-123.1 286.1-395.6 163.2-608.8zM731.52053 892.8C521.22053 1014.3 252.32053 942.2 130.82053 731.9 9.42053 521.6 81.42053 252.7 291.72053 131.2 502.02053 9.8 770.82053 81.8 892.32053 292c121.4 210.3 49.5 479.2-160.8 600.8z" fill="#919AAA" opacity=".5" p-id="6041"></path><path d="M316.42053 180c3.6-2 6 0.8 8.8 2.8 6 4.4 12.4 8.8 18.8 12.8 7.2-2.4 14.4-5.1 21.6-7.7 3.6-1.2 6-2.8 8.8 0.4 2.4 2.8 0.4 6.4-0.4 8.8-2 6.8-3.6 13.6-5.6 20.8 4.8 6 10 11.6 15.2 17.6 2.4 2.8 4.4 5.6 2.8 8.4-1.2 2.8-5.6 2.4-7.7 2.4l-22.4 0.8c-4.4 6.8-8.4 13.6-12.8 20-1.6 2.4-4 5.1-7.2 4-2.4-1.9-3.9-4.7-4.4-7.7l-7.2-20.5-25.2-6.4c-2.3-1.2-3.6-3.8-3.2-6.4 1.3-1.8 2.9-3.3 4.8-4.4 4-3.2 7.7-6.8 11.6-10 1.9-1.3 3.6-2.7 5.1-4.4-0.4-6.8-1.2-13.6-1.6-20.5-0.7-2.9-0.9-5.9-0.4-8.8-0.7-0.8-0.3-1.6 0.6-2zM193.52053 292.4c3.6-2 6 0.8 8.8 2.8 6.4 4.4 12.4 8.4 18.8 12.8 7.2-2.4 14.4-5.1 21.6-7.7 3.6-1.2 6-2.8 8.8 0.4 2.4 2.8 0.4 6.4-0.4 8.8-2 6.8-3.6 13.6-5.6 20.8 4.8 6 10 11.6 14.8 17.6 2.4 2.8 4.4 5.6 2.8 8.4-1.2 2.4-5.6 2.4-7.7 2.4l-22.4 0.8c-4.4 6.8-8.8 13.6-12.8 20-1.6 2.4-4 5.1-7.2 4-2.2-2-3.8-4.7-4.4-7.7l-7.2-20.5c-8.4-2-16.8-4.4-25.2-6.4-2.3-1.2-3.6-3.8-3.2-6.4 1.3-1.8 2.9-3.3 4.8-4.4 3.6-3.2 7.7-6.8 11.6-10 1.9-1.3 3.6-2.7 5.1-4.4-0.4-6.8-1.2-13.6-1.6-20.5-0.7-2.9-0.9-5.9-0.4-8.8-0.4-1.2 0-1.6 0.8-2.4l0.2 0.4z m276.5-159.6c3.6-2 6 0.8 8.8 2.8 6.4 4.4 12.4 8.4 18.8 12.8 7.2-2.4 14.4-5.1 21.6-7.7 3.6-1.2 6-2.8 8.8 0.4 2.4 2.8 0.4 6.4-0.4 8.8-2 6.8-3.6 14-5.6 20.8 4.8 6 10 12 15.2 17.6 2.4 2.8 4.4 5.6 2.8 8.4-1.2 2.8-5.6 2.4-7.7 2.4l-22.4 0.8c-4.4 6.8-8.8 13.6-12.8 20-1.6 2.4-4 5.1-7.2 4-2.2-2-3.8-4.7-4.4-7.7l-7.2-20.5-25.2-6.4c-2.3-1.2-3.6-3.8-3.2-6.4 1.3-1.8 2.9-3.3 4.8-4.4 4-3.2 7.7-6.8 11.6-10 1.9-1.3 3.6-2.7 5.1-4.4-0.4-6.8-1.2-13.6-1.6-20.5-0.7-2.9-0.9-5.9-0.4-8.8-0.8-1.2-0.4-1.6 0.4-2.4l0.2 0.4z m142 29.6c3.6-2 6 0.8 8.8 2.8l18.8 12.8c7.2-2.4 14.4-5.1 21.6-7.7 3.6-1.2 6-2.8 8.8 0.4 2.4 2.8 0.4 6.4-0.4 8.8-2 6.8-3.6 14-5.6 20.8 4.8 6 10 12 15.2 17.6 2.4 2.8 4.4 5.6 2.8 8.4-1.2 2.8-5.6 2.4-7.7 2.4-7.7 0.4-15.2 0.8-22.4 0.8-4.4 6.8-8.4 13.2-12.8 20-1.6 2.4-4 5.1-7.2 4-2.4-1.9-3.9-4.7-4.4-7.7l-7.2-20.5c-8.4-2-16.8-4.4-25.2-6.4-2.3-1.2-3.6-3.8-3.2-6.4 1.3-1.8 2.9-3.3 4.8-4.4 4-3.2 7.7-6.8 11.6-10 1.9-1.3 3.6-2.7 5.1-4.4-0.4-6.8-1.2-13.6-1.6-20.5-0.7-2.9-0.9-5.9-0.4-8.8-0.6-1.2 0.1-1.6 0.6-2zM142.82053 433.2c3.6-2 6 0.8 8.8 2.8 6.4 4.4 12.4 8.4 18.8 12.8 7.2-2.4 14.4-5.1 21.6-7.7 3.6-1.2 6-2.8 8.8 0.4 2.4 2.8 0.4 6.4-0.4 8.8-2 6.8-4 14-5.6 20.8 4.8 6 10 11.6 15.2 17.6 2.4 2.8 4.4 5.6 2.8 8.4-1.2 2.8-5.6 2.4-7.7 2.4l-22.4 0.8c-4.4 6.8-8.8 13.6-12.8 20-1.6 2.4-4 5.1-7.2 4-2.2-2-3.8-4.7-4.4-7.7l-7.2-20.5-25.2-6.4c-2.3-1.2-3.6-3.8-3.2-6.4 1.3-1.8 2.9-3.3 4.8-4.4 3.6-3.2 7.7-6.8 11.6-10 1.9-1.3 3.6-2.7 5.1-4.4-0.4-6.8-1.2-13.6-1.6-20.5-0.7-2.9-0.9-5.9-0.4-8.8-0.7-0.8-0.3-1.5 0.6-2z m558.8 414.4c3.6-2.4 2.4-5.6 2-8.8l-1.6-22.4 17.2-14.8c2.8-2.4 5.1-4 4-7.7-1.2-3.2-5.6-3.6-7.7-4-6.8-2-14-3.6-20.8-5.6-2.8-7.2-5.1-14.4-7.7-21.6-1.2-3.6-2.8-6.4-5.6-6.8-2.8-0.4-4.8 3.6-5.6 5.1l-12 19.2-24 1.2c-2.8 0-6.8 0.8-6.8 4.4 0.5 3 2 5.7 4.4 7.7 4.8 5.6 9.2 11.2 14 16.4l-7.2 25.2c-0.3 2.7 1.4 5.2 4 6 2.2-0.1 4.4-0.7 6.4-1.6l14.4-4.8c2.1-0.8 4.2-1.5 6.4-2 5.6 4 11.2 7.7 16.8 11.6 2.2 2.1 4.8 3.6 7.7 4.4 0.5-1.1 0.8-1.1 1.6-1.1h0.1z m-158.7 50c3.6-2.4 2.4-5.6 2-8.8l-1.6-22.4 17.2-14.8c2.8-2.4 5.1-4 4-7.7s-5.6-3.6-7.7-4c-6.8-1.6-14-3.6-20.8-5.6l-7.7-22c-1.2-3.6-2.8-6.4-5.6-6.8-2.8-0.4-4.8 3.6-5.6 5.1l-12 19.2-24 1.2c-2.8 0-6.8 0.8-6.8 4.4 0.5 3 2 5.7 4.4 7.7 4.8 5.6 9.2 11.2 14 16.4l-7.2 25.2c-0.3 2.7 1.4 5.2 4 6 2.2-0.3 4.3-0.9 6.4-1.6l14.4-4.8c2-1 4.2-1.7 6.4-2 5.6 4 11.2 7.7 16.8 11.6 2.2 2.1 4.8 3.6 7.7 4.4 0.4-0.8 0.8-0.8 1.7-0.7zM819.42053 738c3.6-2.4 2.4-5.6 2-8.8l-1.6-22.4 17.2-14.8c2.8-2.4 5.1-4 4-7.7-1.2-3.2-5.6-3.6-7.7-4-6.8-2-14-3.6-20.8-5.6-2.8-7.2-5.1-14.4-7.7-21.6-1.2-3.6-2.8-6.4-5.6-6.8-2.8-0.4-4.8 3.6-5.6 5.1l-12 19.2-24 1.2c-2.8 0-6.8 0.8-6.8 4.4 0.5 3 2 5.7 4.4 7.7 4.8 5.6 9.2 11.2 14 16.4l-7.2 25.2c-0.3 2.7 1.4 5.2 4 6 2.2-0.2 4.4-0.7 6.4-1.6l14.4-4.8c2.1-0.8 4.2-1.5 6.4-2 5.6 4 11.2 7.7 16.8 11.6 2.2 2.1 4.8 3.6 7.7 4.4 0-0.8 0.8-1.2 1.6-1.2l0.1 0.1z m45.6-137.6c3.6-2.4 2.4-5.6 2-8.8l-1.6-22.4 17.2-14.8c2.8-2.4 5.1-4 4-7.7-1.2-3.2-5.6-3.6-7.7-4-6.8-1.6-14-3.6-20.8-5.6l-7.7-22c-1.2-3.6-2.8-6.4-5.6-6.8s-4.8 3.6-5.6 5.1l-12 19.2-24 1.2c-2.8 0-6.8 0.8-6.8 4.4 0.5 3 2 5.7 4.4 7.7 4.8 5.6 9.2 11.2 14 16.4l-7.2 25.2c-0.3 2.7 1.4 5.2 4 6 2.2-0.3 4.3-0.9 6.4-1.6l14.4-4.8c2.1-0.8 4.2-1.5 6.4-2 5.6 4 11.2 7.7 16.8 11.6 2.2 2.1 4.8 3.6 7.7 4.4 0.2-0.7 0.6-0.7 1.4-0.7h0.3zM395.52053 871.2c3.6-2.4 2.4-5.6 2-8.8l-1.6-22.4 17.2-14.8c2.8-2.4 5.1-4 4-7.7-1.2-3.2-5.6-3.6-7.7-4-6.8-2-14-3.6-20.8-5.6-2.8-7.2-5.1-14.4-7.7-21.6-1.2-3.6-2.8-6.4-5.6-6.8-2.8-0.4-4.8 3.6-5.6 5.1l-12 19.2-24 1.2c-2.8 0-6.8 0.8-6.8 4.4 0.5 3 2 5.7 4.4 7.7 4.8 5.6 9.2 11.2 14 16.4l-7.2 25.2c-0.3 2.7 1.4 5.2 4 6 2.2-0.3 4.3-0.9 6.4-1.6l14.4-4.8c2.1-0.8 4.2-1.5 6.4-2 5.6 4 11.2 7.7 16.8 11.6 2.2 2.1 4.8 3.6 7.7 4.4 0.5-0.8 0.9-1.1 1.7-1.1zM393.12253 582.9l-42.7-74-132.1 76.2 10 17.3 113.8-65.7 22.8 39.5-88.2 51-13.2-22.8-18.2 10.4 51.8 89.7c8.9 15.4 20.7 19 35.6 10.4l96.3-55.6c6.1-3.5 10.7-9.1 13-15.8-1.4-15.5-6.1-30.4-13.8-43.9l-20.9 4.7c6.5 10 10.8 21.3 12.6 33.1-1 3.2-3.1 5.9-6 7.6l-86.1 49.7c-6.1 3.5-10.8 2.1-14.4-4.1l-26.7-46.2 106.4-61.5z m121.1-16c-16.3 18.5-34.3 35.4-53.8 50.6l12.5 16.5c18.4-15.3 35.5-32 51.1-50l-9.8-17.1z m-106.7-102.6c4.5 20.8 7.2 42 7.9 63.2-0.2 3.9-1.4 7.7-3.6 10.9l13.8 13.8c8.3-6.4 16.3-12.7 23.9-18.4 0.2 13.2-1 26.3-3.7 39.2-1.2 3.6-2.9 6.9-5.1 9.9l14.2 13.5c17.3-13.5 33.2-28.6 47.5-45.2l-9.3-16.1c-8.9 10.1-18.3 19.6-28.2 28.7 2.9-26.1 3.8-52.3 2.6-78.5l-19.1 3.2c0.2 8.4 0.5 16.3 1 23.7-5.7 4.5-11.6 8.7-17.4 13 0.8-21.5-0.5-43-3.9-64.2l-20.6 3.3z m44.7 1.6l10 17.3 39.3-22.7 11.8 20.5-33.6 19.4 10 17.3 86-49.6-10-17.3-34.3 19.8-11.8-20.4 39.3-22.7-10-17.3-39.3 22.7-11-19-18.2 10.5 11 19-39.2 22.5z m127.1 16l-79 45.6 42.1 72.9 17.7-10.2-3.7-6.4 43.9-25.4 3.7 6.4 17.5-10.1-42.2-72.8z m-32.8 85.1l-18.8-32.5 43.9-25.4 18.8 32.5-43.9 25.4z m19.6-171.8l10.1 17.5 65.7-37.9 7.1 12.3-53.6 31 30.7 53.2 39.8-23c-4.8 27.2-16.7 52.7-34.4 73.9l20.2 10.7c18.3-26.8 28.4-58.3 29-90.7l34.3 59.4 18.3-10.6-34.1-59.1c28.3 14.3 59.7 21.5 91.4 20.8l3.5-23c-27.7 4.1-56 1.4-82.5-7.7l40.3-23.3-30.7-53.2-54 31.2-7.1-12.3 65.4-37.7-10.1-17.5-65.4 37.7-8.9-15.4-18.3 10.6 8.9 15.4-65.6 37.7z m158.3-2.7l-35.8 20.7-11.5-20 35.8-20.7 11.5 20z m-54.2 31.2l-35.5 20.5-11.5-20 35.5-20.5 11.5 20z" fill="#919AAA" opacity=".5" p-id="6042"></path></svg>