<?xml version="1.0" standalone="no"?><!DOCTYPE svg PUBLIC "-//W3C//DTD SVG 1.1//EN" "http://www.w3.org/Graphics/SVG/1.1/DTD/svg11.dtd"><svg t="1591250231716" class="icon" viewBox="0 0 1024 1024" version="1.1" xmlns="http://www.w3.org/2000/svg" p-id="6368" xmlns:xlink="http://www.w3.org/1999/xlink" width="32" height="32"><defs><style type="text/css"></style></defs><path d="M639.7 778.6c-16.1 0-29.1-13-29.1-29.1V370.1c0-16.1 13-29.1 29.1-29.1s29.1 13 29.1 29.1v379.4c0.1 16-12.9 29-28.9 29.1h-0.2z m-256.7 0c-16.1 0-29.1-13-29.1-29.1V370.1c0-16.1 13-29.1 29.1-29.1s29.1 13 29.1 29.1v379.4c0 16.1-13 29.1-29.1 29.1z" fill="#F04531" p-id="6369"></path><path d="M969.8 413.5c16.1 0 29.1-13 29.1-29.1V215.1c-0.1-42.7-34.6-77.3-77.3-77.3H727v-32.7C727 47.1 679.9 0.1 621.9 0H401.2c-58 0.1-105 47.1-105.1 105.1v32.6H101.5c-42.7 0.1-77.3 34.6-77.3 77.3v645.9c0.1 42.7 34.6 77.3 77.3 77.3H359v56.6c0 16.1 13 29.1 29.1 29.1s29.1-13 29.1-29.1v-56.6h198.4v56.6c0 16.1 13 29.1 29.1 29.1s29.1-13 29.1-29.1v-56.6h247.9c42.7-0.1 77.3-34.6 77.3-77.3V605.3c0-16.1-13-29.1-29.1-29.1s-29.1 13-29.1 29.1V861c-0.1 10.4-8.6 18.9-19 19H101.2c-10.4-0.1-18.9-8.6-19-19V215.1c0.1-10.4 8.6-18.9 19-19h820.4c10.4 0.1 18.9 8.6 19 19v169.4c0 16 12.9 29 28.9 29h0.3zM354.3 105c0-25.8 20.9-46.7 46.7-46.7h220.7c25.8 0 46.7 20.9 46.7 46.7v32.7H354.3V105z" fill="#101D37" p-id="6370"></path></svg>