<?xml version="1.0" standalone="no"?><!DOCTYPE svg PUBLIC "-//W3C//DTD SVG 1.1//EN" "http://www.w3.org/Graphics/SVG/1.1/DTD/svg11.dtd"><svg t="1590982671565" class="icon" viewBox="0 0 1024 1024" version="1.1" xmlns="http://www.w3.org/2000/svg" p-id="4232" xmlns:xlink="http://www.w3.org/1999/xlink" width="64" height="64"><defs><style type="text/css"></style></defs><path d="M255.898993 536.198984c0.1-131.999996 100.599997-242.299993 231.999993-254.699992l-29.699999-28.699999c-11.1-10.7-11.4-28.399999-0.6-39.499999 10.7-11.1 28.399999-11.4 39.499998-0.6l79.099998 76.399998c14.5 14 14.9 37.099999 0.9 51.599998l-0.2 0.2-76.199998 78.899998c-9.8 11.9-27.499999 13.6-39.399999 3.8-11.9-9.8-13.6-27.499999-3.799999-39.399999 1-1.2 2-2.2 3.1-3.2l42.799998-44.299999c-110.399997 4.2-196.199994 97.299997-191.699994 207.599994s97.499997 196.099994 207.799994 191.599994c107.199997-4.3 191.799994-92.499997 191.799994-199.799994 0-15.5 12.5-27.999999 27.999999-27.999999s27.999999 12.5 28 27.999999c0 141.299996-114.599997 255.899993-255.899993 255.899993s-255.799993-114.499997-255.799992-255.799993h0.3z m282.299991-206.099994z" fill="#F7A197" p-id="4233"></path><path d="M511.999985 959.999972c-247.399993 0-447.999987-200.599994-447.999987-447.999987s200.599994-447.999987 447.999987-447.999987 447.999987 200.599994 447.999987 447.999987c0.1 247.399993-200.399994 447.999987-447.799987 447.999987h-0.2m0-959.999972C229.199993 0 0 229.299993 0 512.099985s229.299993 511.999985 512.099985 511.899985c282.699992 0 511.899985-229.299993 511.899985-511.999985C1023.19997 229.599993 794.399977 0.8 511.999985 0" fill="#F7A197" p-id="4234"></path></svg>