<?xml version="1.0" standalone="no"?><!DOCTYPE svg PUBLIC "-//W3C//DTD SVG 1.1//EN" "http://www.w3.org/Graphics/SVG/1.1/DTD/svg11.dtd"><svg t="1591942967788" class="icon" viewBox="0 0 1024 1024" version="1.1" xmlns="http://www.w3.org/2000/svg" p-id="12390" xmlns:xlink="http://www.w3.org/1999/xlink" width="200" height="200"><defs><style type="text/css"></style></defs><path d="M712.1 350.4c5.2 0 10.3 0 15.4 0.4-26.9-147-178.6-259.2-361.6-259.2-202 0-365.9 137-365.9 306 2.9 100.3 57.2 192 143.6 242.9l3.4 2.1-35.4 110.7 132.3-67.4 6.4 1.8c37.7 10.4 76.7 15.7 115.8 15.6 8.3 0 16.4 0 24.6-0.8a241.2 241.2 0 0 1-11.6-73c-0.2-154 149-279.1 333-279.1zM493.2 242.5c27.5 0.7 49.3 23.6 48.6 51.1-0.7 27.5-23.6 49.3-51.1 48.6-27-0.7-48.6-22.8-48.6-49.9 0.5-27.8 23.3-50.1 51.1-49.8zM238.6 342c-27.5-0.7-49.3-23.6-48.6-51.1 0.7-27.5 23.6-49.3 51.1-48.6 27 0.7 48.6 22.8 48.6 49.9-0.4 27.9-23.3 50.1-51.1 49.8z" fill="#FFFFFF" p-id="12391"></path><path d="M1024 631.6c0-142.8-138.4-258.5-309-258.5S405.7 488.8 405.7 631.6 544.1 890.1 715 890.1c33 0.1 65.9-4.4 97.8-13.2l5.3-1.5 111.7 57-29.8-93.6 2.8-1.8c73-43.1 118.8-120.7 121.2-205.4z m-416.7-46.9c-23.2-0.7-41.4-20.2-40.7-43.4 0.7-23.2 20.2-41.4 43.4-40.7 22.7 0.7 40.7 19.3 40.7 42-0.3 23.6-19.6 42.5-43.2 42.2-0.1-0.1-0.1-0.1-0.2-0.1z m215 0c-23.2-0.7-41.4-20.2-40.7-43.4 0.7-23.2 20.2-41.4 43.4-40.7 22.7 0.7 40.7 19.3 40.7 42-0.3 23.6-19.6 42.5-43.2 42.2 0-0.1 0-0.1-0.2-0.1z" fill="#FFFFFF" p-id="12392"></path></svg>