<?xml version="1.0" standalone="no"?><!DOCTYPE svg PUBLIC "-//W3C//DTD SVG 1.1//EN" "http://www.w3.org/Graphics/SVG/1.1/DTD/svg11.dtd"><svg t="1590721919519" class="icon" viewBox="0 0 1024 1024" version="1.1" xmlns="http://www.w3.org/2000/svg" p-id="3840" xmlns:xlink="http://www.w3.org/1999/xlink" width="32" height="32"><defs><style type="text/css"></style></defs><path d="M908.499 992.501h-793.1c-63.7 0-115.4-51.7-115.4-115.4v-628.8c0.3-63.6 51.9-115 115.4-115.1h793.1c63.6 0.1 115.2 51.5 115.4 115.1v628.6c0.1 63.9-51.6 115.6-115.4 115.6z m-793.1-788.9c-24.7 0-44.7 20-44.7 44.7v628.6c0 24.7 20 44.7 44.7 44.7h793.1c24.7 0 44.7-20 44.7-44.7v-628.6c0-24.7-20-44.7-44.7-44.7h-793.1z" fill="#F04531" p-id="3841"></path><path d="M63.799 366.901h914.1v70.7h-914.1v-70.7zM442.799 824.301c-9.4 0-18.4-3.7-25-10.4l-129.3-129.3c-13.6-14-13.3-36.4 0.6-50 13.7-13.4 35.6-13.4 49.4 0l105.5 105.6 226.4-205.2c14.7-12.8 37.1-11.3 49.9 3.5 12.4 14.3 11.4 35.8-2.3 48.8l-251.5 227.8c-6.5 5.9-14.9 9.2-23.7 9.2zM334.599 195.001c-19.5 0-35.4-15.8-35.4-35.3v-92.7c-0.1-19.5 15.7-35.4 35.2-35.5 19.5-0.1 35.4 15.7 35.5 35.2V159.601c0 19.5-15.8 35.4-35.4 35.4h0.1zM694.099 195.001c-19.5 0-35.3-15.8-35.3-35.4v-92.7c0-19.5 15.8-35.4 35.4-35.4 19.5 0 35.3 15.8 35.3 35.4v92.7c0 19.5-15.8 35.3-35.3 35.4h-0.1z" fill="#F04531" p-id="3842"></path></svg>