<?xml version="1.0" standalone="no"?><!DOCTYPE svg PUBLIC "-//W3C//DTD SVG 1.1//EN" "http://www.w3.org/Graphics/SVG/1.1/DTD/svg11.dtd"><svg t="1589272619164" class="icon" viewBox="0 0 1024 1024" version="1.1" xmlns="http://www.w3.org/2000/svg" p-id="7041" xmlns:xlink="http://www.w3.org/1999/xlink" width="32" height="32"><defs><style type="text/css"></style></defs><path d="M512.044 912.026c-220.9 0-400-179-400.1-399.9 0-220.9 179-400 399.9-400.1s400 179 400.1 399.9c0 104.3-40.7 204.5-113.5 279.2-8 8.2-21.1 8.4-29.3 0.4s-8.4-21.1-0.4-29.3c137.3-141.7 133.9-367.8-7.8-505.2s-367.8-133.9-505.2 7.8c-137.3 141.6-133.8 367.8 7.9 505.1 117.1 113.6 296.2 133.4 435.3 48.2 9.6-6.2 22.5-3.4 28.7 6.2 6.2 9.6 3.4 22.5-6.2 28.7-0.2 0.2-0.5 0.3-0.8 0.5-62.7 38.3-134.8 58.5-208.3 58.5h-0.3z" fill="#F7A197" p-id="7042"></path><path d="M720.144 438.126l-25.7 58.6-151.2-69.1-43.6-21.1-61.9 127.6-201.8-94.4-20.4 43.6 201.2 94.1v0.5l44.9 21.7 62.3-128 151.7 69.3-26.5 60.5 140.7-36-69.3-127.4-0.4 0.1z" fill="#F7A197" p-id="7043"></path></svg>