<?xml version="1.0" standalone="no"?><!DOCTYPE svg PUBLIC "-//W3C//DTD SVG 1.1//EN" "http://www.w3.org/Graphics/SVG/1.1/DTD/svg11.dtd"><svg t="1590048632507" class="icon" viewBox="0 0 1024 1024" version="1.1" xmlns="http://www.w3.org/2000/svg" p-id="4737" xmlns:xlink="http://www.w3.org/1999/xlink" width="48" height="48"><defs><style type="text/css"></style></defs><path d="M852.564011 0.015h-681.690014c-67.699008 3.599947-119.998242 61.099105-116.998286 128.798113v766.388774c-2.899958 67.699008 49.299278 125.198166 116.998286 128.798113h682.190007c67.699008-3.599947 119.998242-61.099105 116.998286-128.798113v-766.388774c2.899958-67.999004-49.599273-125.498162-117.498279-128.798113z m-371.994551 42.899371v224.896706l-98.198561-58.999136-96.098592 58.499143v-224.296714l194.297153-0.099999z m445.993467 852.187517c2.899958 43.999355-30.099559 82.298794-74.098914 85.898742h-681.590016c-43.999355-3.599947-76.898874-41.899386-74.098915-85.898742v-766.288775c-2.899958-43.999355 30.099559-82.298794 74.098915-85.898742h72.498938v301.09559l138.997964-85.398749 141.197932 84.898756v-300.495598h329.495173c43.999355 3.599947 76.898874 41.899386 74.098915 85.898742l-0.499993 766.388773-0.099999-0.199997z" fill="#101D37" p-id="4738"></path><path d="M758.46539 559.706801h-493.692769c-11.899826 0-21.499685 9.599859-21.499685 21.499685s9.599859 21.499685 21.499685 21.499685h493.792767c11.899826 0 21.499685-9.599859 21.499685-21.499685-0.099999-11.799827-9.699858-21.499685-21.599683-21.499685z m0 200.297066h-493.692769c-11.899826 0-21.499685 9.599859-21.499685 21.499685s9.599859 21.499685 21.499685 21.499685h493.792767c11.899826 0 21.499685-9.599859 21.499685-21.499685s-9.699858-21.499685-21.599683-21.499685z" fill="#F04531" p-id="4739"></path></svg>