<?xml version="1.0" standalone="no"?><!DOCTYPE svg PUBLIC "-//W3C//DTD SVG 1.1//EN" "http://www.w3.org/Graphics/SVG/1.1/DTD/svg11.dtd"><svg t="1589767966217" class="icon" viewBox="0 0 1024 1024" version="1.1" xmlns="http://www.w3.org/2000/svg" p-id="2780" xmlns:xlink="http://www.w3.org/1999/xlink" width="48" height="48"><defs><style type="text/css"></style></defs><path d="M512.022499 512.022499m-511.977501 0a511.977501 511.977501 0 1 0 1023.955002 0 511.977501 511.977501 0 1 0-1023.955002 0Z" opacity=".5" p-id="2781"></path><path d="M360.529156 734.712713c-47.997891-27.898774-69.39695-96.395764-69.39695-222.09024 0-121.094678 22.399016-190.69162 70.696893-218.790386 48.797856-28.398752 116.994859-13.999385 227.78999 49.197838 95.495803 53.197662 143.993672 106.195333 148.093492 161.692895 3.499846 46.097974-22.998989 89.596063-80.496463 133.594129-15.099336 11.499495-30.798647 22.099029-47.09793 31.898598-6.499714 3.999824-13.299416 8.099644-20.499099 11.999473-61.797284 35.198453-124.69452 65.697113-176.992222 65.697113-18.099205 0.299987-36.198409-4.299811-52.097711-13.19942z" fill="#FFFFFF" p-id="2782"></path></svg>