<?xml version="1.0" standalone="no"?><!DOCTYPE svg PUBLIC "-//W3C//DTD SVG 1.1//EN" "http://www.w3.org/Graphics/SVG/1.1/DTD/svg11.dtd"><svg t="1590636085293" class="icon" viewBox="0 0 1024 1024" version="1.1" xmlns="http://www.w3.org/2000/svg" p-id="3104" xmlns:xlink="http://www.w3.org/1999/xlink" width="32" height="32"><defs><style type="text/css"></style></defs><path d="M73.514308 1023.9c-34.799976 1.699999-65.199954-23.299984-70.49995-57.699959-0.6-6.699995 0.1-13.299991 1.999998-19.699987l87.799939-235.299834c12.899991-27.399981 40.799971-44.499969 70.99995-43.799969h546.099616c14.09999 0-211.299851 34.399976-211.299852 22.299984 0.999999-13.099991 12.399991-22.799984 25.499982-21.899985h334.899765c30.499979-1.799999 58.999959 15.099989 72.099949 42.59997l87.599939 234.599836c5.099996 15.999989 2.599998 33.499976-6.899995 47.399966-10.399993 14.999989-26.099982 25.299982-43.999969 29.19998-7.599995 1.799999-15.399989 2.399998-23.199984 1.999998h-870.799388l-0.3 0.3z" fill="#101D37" p-id="3105"></path><path d="M488.900016 899.100088c-19.299986 0-37.899973-7.799995-51.599963-21.499985L217.500207 656.900258c-110.199923-109.999923-143.099899-275.699806-83.199941-419.299705C193.600224 93.600654 334.000125-0.29928 489.800016 0.00072c155.699891-0.3 296.099792 93.699934 355.49975 237.599833 59.799958 143.799899 26.899981 309.399782-83.499942 419.299705L541.899979 877.600103c-13.59999 13.79999-32.099977 21.499985-51.599964 21.499985h-1.699999 0.3z m-1.999998-644.499547c-70.299951 0-127.39991 56.99996-127.399911 127.39991 0 70.299951 56.99996 127.39991 127.399911 127.399911s127.39991-56.99996 127.39991-127.399911c-0.2-70.399951-57.19996-127.39991-127.39991-127.39991z" fill="#F04531" p-id="3106"></path></svg>