<?xml version="1.0" standalone="no"?><!DOCTYPE svg PUBLIC "-//W3C//DTD SVG 1.1//EN" "http://www.w3.org/Graphics/SVG/1.1/DTD/svg11.dtd"><svg t="1591150627101" class="icon" viewBox="0 0 1024 1024" version="1.1" xmlns="http://www.w3.org/2000/svg" p-id="4280" xmlns:xlink="http://www.w3.org/1999/xlink" width="32" height="32"><defs><style type="text/css"></style></defs><path d="M676.4 864.5v0z" fill="#F6AE2F" p-id="4281"></path><path d="M249.7 503.8l1.2 2-1.2-2z" fill="#946728" p-id="4282"></path><path d="M390.4 634.6c-61.3 34.1-70.4-19.1-70.4-19.1l-76.8-179.2c-29.6-84.9 25.6-38.2 25.6-38.2s47.3 35.7 83.2 57.5c23.6 12.7 51.4 15 76.8 6.3l502.3-231.2C827 107.6 673.1 37.9 512 40.7c-282.7 0-512 200-512 446.9 2.8 141.6 75.5 272.6 194.1 349.9l-21.3 122.3s-10.3 35.7 25.6 19.1c24.6-11.3 87.1-51.7 124.3-76.4 60.9 21 124.8 31.7 189.2 31.7 282.7 0 512-200 512-446.9-0.2-69.9-18.6-138.5-53.5-199-159.7 96.4-532 319.7-580 346.3z" fill="#50B674" p-id="4283"></path></svg>