<?xml version="1.0" standalone="no"?><!DOCTYPE svg PUBLIC "-//W3C//DTD SVG 1.1//EN" "http://www.w3.org/Graphics/SVG/1.1/DTD/svg11.dtd"><svg t="1589164775862" class="icon" viewBox="0 0 1024 1024" version="1.1" xmlns="http://www.w3.org/2000/svg" p-id="4587" xmlns:xlink="http://www.w3.org/1999/xlink" width="48" height="48"><defs><style type="text/css"></style></defs><path d="M210.9 875.9c-9.3 0.4-18.4-2.1-26.2-7.3-22.2-16.7-12.2-52-1.5-89.1 6.1-16.7 9.5-34.3 10-52-51.9-61.3-80.7-139-81.3-219.3-0.1-89.6 35.9-175.6 99.9-238.4 80-78.6 187.9-122.2 300.1-121.3 210-9.8 388.7 151.7 400 361.6-11.3 210-189.9 371.5-400 361.8-55.1-0.4-109.7-10.4-161.4-29.4-22.6 1-44.8 6.1-65.5 15.1-23.6 9.7-48.6 15.8-74.1 18.3z m-3.3-36.4c22.6-2.3 44.8-7.8 65.8-16.4 28-14.3 59.8-19.3 90.9-14.5 47.3 17.4 97.2 26.6 147.7 27.1 190 9.8 352.4-135.5 363.6-325.5C864.4 320.3 702 175 512 184.9c-102.4-1.1-201 38.5-274.2 110.2-57.2 56-89.5 132.7-89.4 212.8 0.4 72.3 26.1 142.2 72.7 197.5 15.5 18.2 6.7 48.4-3.7 84.2-5.4 16.1-8.7 32.9-9.8 49.9z" fill="#F04531" p-id="4588"></path><path d="M319.3 512.2c0 20.1 16.3 36.4 36.4 36.4 20.1 0 36.4-16.3 36.4-36.4 0-20.1-16.3-36.4-36.4-36.4-20.2 0-36.4 16.3-36.4 36.4zM475.6 512.2c0 20.1 16.3 36.4 36.4 36.4 20.1 0 36.4-16.3 36.4-36.4 0-20.1-16.3-36.4-36.4-36.4-20.1 0-36.4 16.3-36.4 36.4zM632 512.2c0 20.1 16.3 36.4 36.4 36.4 20.1 0 36.4-16.3 36.4-36.4 0-20.1-16.3-36.4-36.4-36.4-20.1-0.1-36.4 16.1-36.5 36.2v0.1h0.1z" fill="#F04531" p-id="4589"></path></svg>