<?xml version="1.0" standalone="no"?><!DOCTYPE svg PUBLIC "-//W3C//DTD SVG 1.1//EN" "http://www.w3.org/Graphics/SVG/1.1/DTD/svg11.dtd"><svg t="1589937709668" class="icon" viewBox="0 0 1024 1024" version="1.1" xmlns="http://www.w3.org/2000/svg" p-id="4153" xmlns:xlink="http://www.w3.org/1999/xlink" width="64" height="64"><defs><style type="text/css"></style></defs><path d="M914.112 219.7h-140.8l-42.1-85.9c-19.5-36.6-57.4-59.7-98.9-60.2h-238.9c-41.6 0-79.7 23.2-98.8 60.2l-42.1 85.9h-142.6c-60.7 0.2-109.8 49.3-109.9 110v510.8c0.1 60.6 49.2 109.7 109.9 109.9h804.3c60.3-0.3 109.3-48.9 109.9-109.3V329.7c-0.2-60.7-49.3-109.8-110-110zM512.012 768c-111 0-201.1-90-201.1-201.1 0-111 90-201.1 201.1-201.1 111 0 201.1 90 201.1 201.1 0.4 110.6-88.9 200.7-199.6 201.1h-1.5z m386.9-408c0 20-16.2 36.2-36.2 36.2s-36.2-16.2-36.2-36.2c0-20 16.2-36.2 36.2-36.2 19.9 0.2 36.1 16.3 36.2 36.2z" fill="#DDE3EF" p-id="4154"></path><path d="M512.012 438.9c-70.7 0-128 57.3-128 128s57.3 128 128 128 128-57.3 128-128c0.4-70.3-56.2-127.6-126.5-128h-1.5z" fill="#DDE3EF" p-id="4155"></path></svg>