<?xml version="1.0" standalone="no"?><!DOCTYPE svg PUBLIC "-//W3C//DTD SVG 1.1//EN" "http://www.w3.org/Graphics/SVG/1.1/DTD/svg11.dtd"><svg t="1590976708307" class="icon" viewBox="0 0 1024 1024" version="1.1" xmlns="http://www.w3.org/2000/svg" p-id="4122" xmlns:xlink="http://www.w3.org/1999/xlink" width="48" height="48"><defs><style type="text/css"></style></defs><path d="M415.446 534.701c62.9-48.9 74.3-139.5 25.4-202.4-48.9-62.9-139.5-74.3-202.4-25.4-62.9 48.9-74.3 139.5-25.4 202.4 7.4 9.5 15.9 18.1 25.4 25.4-67.7 33.5-110.6 102.5-110.6 178.1 0 14.1 11.4 25.6 25.6 25.6 14.1 0 25.6-11.4 25.6-25.6 0-81.6 66.2-147.8 147.8-147.8s147.8 66.2 147.8 147.8c0 14.1 11.4 25.6 25.6 25.6 14.1 0 25.6-11.4 25.6-25.6-0.1-75.5-42.8-144.5-110.4-178.1z m-181.7-114.1c0-51.5 41.7-93.2 93.2-93.2s93.2 41.7 93.2 93.2-41.7 93.2-93.2 93.2c-51.5 0.1-93.3-41.6-93.4-93.1v-0.1h0.2zM803.55 379.944h-157c-9.5 0-17.3-7.7-17.3-17.3 0-9.5 7.7-17.3 17.3-17.3h157c9.5 0 17.3 7.7 17.3 17.3 0 9.6-7.8 17.3-17.3 17.3z m63.9 154.2h-221c-9.5 0-17.3-7.7-17.3-17.3 0-9.5 7.7-17.3 17.3-17.3h221c9.5 0 17.3 7.7 17.3 17.3 0 9.6-7.8 17.3-17.3 17.3z m0 152.8h-221c-9.5 0-17.3-7.7-17.3-17.3 0-9.5 7.7-17.3 17.3-17.3h221c9.5 0 17.3 7.7 17.3 17.3 0 9.6-7.8 17.3-17.3 17.3z" fill="#F04531" p-id="4123"></path><path d="M923 917.844h-822.7c-55.4 0-100.2-44.9-100.3-100.3v-611.2c0-55.4 44.9-100.2 100.3-100.3h823.5c55.4 0 100.2 44.9 100.3 100.3v611.2c-0.7 55.5-45.6 100.1-101.1 100.3z m-822.7-776.9c-36.2 0.2-65.5 29.5-65.7 65.7v611.2c0.2 36.2 29.5 65.5 65.7 65.7h823.5c36.2-0.2 65.5-29.5 65.7-65.7v-611.2c-0.2-36.2-29.5-65.5-65.8-65.7h-823.4z" fill="#F04531" p-id="4124"></path></svg>