<?xml version="1.0" standalone="no"?><!DOCTYPE svg PUBLIC "-//W3C//DTD SVG 1.1//EN" "http://www.w3.org/Graphics/SVG/1.1/DTD/svg11.dtd"><svg t="1590977066966" class="icon" viewBox="0 0 1024 1024" version="1.1" xmlns="http://www.w3.org/2000/svg" p-id="4606" xmlns:xlink="http://www.w3.org/1999/xlink" width="48" height="48"><defs><style type="text/css"></style></defs><path d="M622.980566 1023.796001h191.099254c71.499721-0.499998 86.699661-45.99982 86.699661-111.699564v-323.298737h45.399823c27.499893 2.59999 53.69979-12.499951 65.299745-37.599853 6.799973-14.099945 11.499955-48.099812-27.699892-86.699661l-382.198507-378.098523c-23.499908-23.499908-89.49965-86.399663-89.49965-86.399663s-65.799743 62.599755-89.499651 86.199663l-382.298506 377.998524c-39.699845 39.199847-34.499865 72.599716-27.699892 87.199659 11.899954 24.799903 37.799852 39.799845 65.299745 37.599853h45.399822v323.298737c0 64.699747 25.5999 111.699564 86.699662 111.699564h191.099253l221.399135-0.499998 0.499998 0.299999z" fill="#F04531" p-id="4607"></path><path d="M649.080465 854.896661h-125.299511v-157.199386h125.899508c12.099953 0 21.899914-9.799962 21.899915-21.899915 0-12.099953-9.799962-21.899914-21.899915-21.899914h-125.899508v-77.299698h2.099992c35.999859-3.999984 68.799731-22.499912 90.899645-51.099801 22.499912-28.299889 32.799872-64.399748 28.699888-100.299608-3.999984-35.999859-22.499912-68.799731-51.099801-90.899645-23.499908-19.499924-52.999793-30.199882-83.499674-30.299881-5.799977 0-10.399959 0-16.199936 0.499998-74.999707 8.999965-128.399498 77.099699-119.399534 152.099405 6.699974 55.599783 46.499818 101.499604 100.599607 115.799548l2.59999 0.499998v1.599994h-0.499998v325.298729h171.299331c12.399952 0.899996 23.09991-8.299968 24.099906-20.699919 0.899996-12.399952-8.299968-23.09991-20.69992-24.099906-1.099996-0.1-2.299991-0.1-3.399986 0l-0.199999-0.099999z m-228.799107-428.298327c6.499975-39.099847 37.099855-69.799727 76.299702-76.299702 49.899805-7.999969 96.899621 25.999898 104.99959 75.899703 1.499994 9.599963 1.499994 19.399924 0 28.999887-6.499975 39.099847-37.099855 69.799727-76.299702 76.299702-49.999805 7.899969-96.899621-26.099898-104.799591-76.099703-1.499994-9.599963-1.499994-19.299925 0-28.899887l-0.199999 0.1z" fill="#FFFFFF" p-id="4608"></path></svg>