<?xml version="1.0" standalone="no"?><!DOCTYPE svg PUBLIC "-//W3C//DTD SVG 1.1//EN" "http://www.w3.org/Graphics/SVG/1.1/DTD/svg11.dtd"><svg t="1589937681007" class="icon" viewBox="0 0 1024 1024" version="1.1" xmlns="http://www.w3.org/2000/svg" p-id="4018" xmlns:xlink="http://www.w3.org/1999/xlink" width="64" height="64"><defs><style type="text/css"></style></defs><path d="M0.048999 511.991c0 282.794477 229.195524 511.99 511.99 511.99s511.99-229.195524 511.99-511.99-229.195524-511.99-511.99-511.99-511.99 229.195524-511.99 511.99z" fill="#101D37" opacity=".8" p-id="4019"></path><path d="M708.835156 758.186192l-196.796157-196.996153-196.896154 196.996153c-13.699732 12.999746-35.199313 12.999746-48.999043 0-13.499736-13.699732-13.499736-35.699303 0-49.399035l196.496162-196.796157-196.396164-196.796156c-13.499736-13.699732-13.499736-35.699303 0-49.399035 13.699732-12.999746 35.199313-12.999746 48.999043 0l196.896154 196.996152 196.796157-196.996152c13.699732-12.999746 35.199313-12.999746 48.999043 0 13.499736 13.699732 13.499736 35.699303 0 49.399035l-196.696159 196.796156 197.096151 197.196149c13.499736 13.199742 13.79973 34.999316 0.49999 48.499052-6.699869 6.799867-15.799691 10.499795-25.399504 10.299799-9.099822 0.199996-17.999648-3.399934-24.599519-9.799808z" fill="#FFFFFF" p-id="4020"></path></svg>