<?xml version="1.0" standalone="no"?><!DOCTYPE svg PUBLIC "-//W3C//DTD SVG 1.1//EN" "http://www.w3.org/Graphics/SVG/1.1/DTD/svg11.dtd"><svg t="1591150631441" class="icon" viewBox="0 0 1024 1024" version="1.1" xmlns="http://www.w3.org/2000/svg" p-id="4412" xmlns:xlink="http://www.w3.org/1999/xlink" width="32" height="32"><defs><style type="text/css"></style></defs><path d="M615.20817 605.4s25.9-37 51.8-111c27.7-74 31.4-114.7 31.4-114.7l-210.9-1.9v-72.1l255.2-1.9V252H487.60817V135.6H361.80817v114.7H119.60817v51.8l238.6-1.9v77.7H167.60817v40.7h394s-3.7 33.3-18.5 74c-16.7 40.7-31.4 75.8-31.4 75.8s-184.9-64.7-283-64.7S12.30817 544.3 1.20817 657.1s55.5 175.7 149.8 198c92.5 22.2 179.4 0 255.2-37C482.00817 781.1 556.00817 697.9 556.00817 697.9l392.1 190.5s24-37 42.5-72.1 33.3-74 33.3-74L615.20817 605.4zM212.00817 792.2c-138.7 0-166.5-68.4-166.5-116.5 0-48.1 29.6-101.7 146.1-109.1s275.6 83.2 275.6 83.2S350.70817 792.2 212.00817 792.2z" fill="#108EE9" p-id="4413"></path></svg>