<?xml version="1.0" standalone="no"?><!DOCTYPE svg PUBLIC "-//W3C//DTD SVG 1.1//EN" "http://www.w3.org/Graphics/SVG/1.1/DTD/svg11.dtd"><svg t="1591253745713" class="icon" viewBox="0 0 1024 1024" version="1.1" xmlns="http://www.w3.org/2000/svg" p-id="5381" xmlns:xlink="http://www.w3.org/1999/xlink" width="200" height="200"><defs><style type="text/css"></style></defs><path d="M955.12053 256C813.72053 11.2 500.72053-72.6 255.92053 68.8S-72.67947 523.2 68.72053 768s454.5 328.6 699.3 187.2c244.7-141.2 328.6-454.1 187.4-698.8-0.1-0.1-0.2-0.3-0.3-0.4zM761.92053 944.7c-239 138.1-544.8 56.2-682.9-182.8S22.82053 217.1 261.92053 79.1s544.8-56.2 682.9 182.8c137.9 239 56.1 544.7-182.9 682.8z" fill="#F04531" opacity=".5" p-id="5382"></path><path d="M897.92053 289.2C774.92053 76 502.32053 2.9 289.12053 126 75.92053 249 2.82053 521.6 125.92053 734.8 249.02053 948 521.52053 1021.1 734.72053 898c213.1-123.1 286.1-395.6 163.2-608.8zM731.52053 892.8C521.22053 1014.3 252.32053 942.2 130.82053 731.9 9.42053 521.6 81.42053 252.7 291.72053 131.2 502.02053 9.8 770.82053 81.8 892.32053 292c121.4 210.3 49.5 479.2-160.8 600.8z" fill="#F04531" opacity=".5" p-id="5383"></path><path d="M316.42053 180c3.6-2 6 0.8 8.8 2.8 6 4.4 12.4 8.8 18.8 12.8 7.2-2.4 14.4-5.1 21.6-7.7 3.6-1.2 6-2.8 8.8 0.4 2.4 2.8 0.4 6.4-0.4 8.8-2 6.8-3.6 13.6-5.6 20.8 4.8 6 10 11.6 15.2 17.6 2.4 2.8 4.4 5.6 2.8 8.4-1.2 2.8-5.6 2.4-7.7 2.4l-22.4 0.8c-4.4 6.8-8.4 13.6-12.8 20-1.6 2.4-4 5.1-7.2 4-2.4-1.9-3.9-4.7-4.4-7.7l-7.2-20.5-25.2-6.4c-2.3-1.2-3.6-3.8-3.2-6.4 1.3-1.8 2.9-3.3 4.8-4.4 4-3.2 7.7-6.8 11.6-10 1.9-1.3 3.6-2.7 5.1-4.4-0.4-6.8-1.2-13.6-1.6-20.5-0.7-2.9-0.9-5.9-0.4-8.8-0.7-0.8-0.3-1.6 0.6-2zM193.52053 292.4c3.6-2 6 0.8 8.8 2.8 6.4 4.4 12.4 8.4 18.8 12.8 7.2-2.4 14.4-5.1 21.6-7.7 3.6-1.2 6-2.8 8.8 0.4 2.4 2.8 0.4 6.4-0.4 8.8-2 6.8-3.6 13.6-5.6 20.8 4.8 6 10 11.6 14.8 17.6 2.4 2.8 4.4 5.6 2.8 8.4-1.2 2.4-5.6 2.4-7.7 2.4l-22.4 0.8c-4.4 6.8-8.8 13.6-12.8 20-1.6 2.4-4 5.1-7.2 4-2.2-2-3.8-4.7-4.4-7.7l-7.2-20.5c-8.4-2-16.8-4.4-25.2-6.4-2.3-1.2-3.6-3.8-3.2-6.4 1.3-1.8 2.9-3.3 4.8-4.4 3.6-3.2 7.7-6.8 11.6-10 1.9-1.3 3.6-2.7 5.1-4.4-0.4-6.8-1.2-13.6-1.6-20.5-0.7-2.9-0.9-5.9-0.4-8.8-0.4-1.2 0-1.6 0.8-2.4l0.2 0.4z m276.5-159.6c3.6-2 6 0.8 8.8 2.8 6.4 4.4 12.4 8.4 18.8 12.8 7.2-2.4 14.4-5.1 21.6-7.7 3.6-1.2 6-2.8 8.8 0.4 2.4 2.8 0.4 6.4-0.4 8.8-2 6.8-3.6 14-5.6 20.8 4.8 6 10 12 15.2 17.6 2.4 2.8 4.4 5.6 2.8 8.4-1.2 2.8-5.6 2.4-7.7 2.4l-22.4 0.8c-4.4 6.8-8.8 13.6-12.8 20-1.6 2.4-4 5.1-7.2 4-2.2-2-3.8-4.7-4.4-7.7l-7.2-20.5-25.2-6.4c-2.3-1.2-3.6-3.8-3.2-6.4 1.3-1.8 2.9-3.3 4.8-4.4 4-3.2 7.7-6.8 11.6-10 1.9-1.3 3.6-2.7 5.1-4.4-0.4-6.8-1.2-13.6-1.6-20.5-0.7-2.9-0.9-5.9-0.4-8.8-0.8-1.2-0.4-1.6 0.4-2.4l0.2 0.4z m142 29.6c3.6-2 6 0.8 8.8 2.8l18.8 12.8c7.2-2.4 14.4-5.1 21.6-7.7 3.6-1.2 6-2.8 8.8 0.4 2.4 2.8 0.4 6.4-0.4 8.8-2 6.8-3.6 14-5.6 20.8 4.8 6 10 12 15.2 17.6 2.4 2.8 4.4 5.6 2.8 8.4-1.2 2.8-5.6 2.4-7.7 2.4-7.7 0.4-15.2 0.8-22.4 0.8-4.4 6.8-8.4 13.2-12.8 20-1.6 2.4-4 5.1-7.2 4-2.4-1.9-3.9-4.7-4.4-7.7l-7.2-20.5c-8.4-2-16.8-4.4-25.2-6.4-2.3-1.2-3.6-3.8-3.2-6.4 1.3-1.8 2.9-3.3 4.8-4.4 4-3.2 7.7-6.8 11.6-10 1.9-1.3 3.6-2.7 5.1-4.4-0.4-6.8-1.2-13.6-1.6-20.5-0.7-2.9-0.9-5.9-0.4-8.8-0.6-1.2 0.1-1.6 0.6-2zM142.82053 433.2c3.6-2 6 0.8 8.8 2.8 6.4 4.4 12.4 8.4 18.8 12.8 7.2-2.4 14.4-5.1 21.6-7.7 3.6-1.2 6-2.8 8.8 0.4 2.4 2.8 0.4 6.4-0.4 8.8-2 6.8-4 14-5.6 20.8 4.8 6 10 11.6 15.2 17.6 2.4 2.8 4.4 5.6 2.8 8.4-1.2 2.8-5.6 2.4-7.7 2.4l-22.4 0.8c-4.4 6.8-8.8 13.6-12.8 20-1.6 2.4-4 5.1-7.2 4-2.2-2-3.8-4.7-4.4-7.7l-7.2-20.5-25.2-6.4c-2.3-1.2-3.6-3.8-3.2-6.4 1.3-1.8 2.9-3.3 4.8-4.4 3.6-3.2 7.7-6.8 11.6-10 1.9-1.3 3.6-2.7 5.1-4.4-0.4-6.8-1.2-13.6-1.6-20.5-0.7-2.9-0.9-5.9-0.4-8.8-0.7-0.8-0.3-1.5 0.6-2z m558.8 414.4c3.6-2.4 2.4-5.6 2-8.8l-1.6-22.4 17.2-14.8c2.8-2.4 5.1-4 4-7.7-1.2-3.2-5.6-3.6-7.7-4-6.8-2-14-3.6-20.8-5.6-2.8-7.2-5.1-14.4-7.7-21.6-1.2-3.6-2.8-6.4-5.6-6.8-2.8-0.4-4.8 3.6-5.6 5.1l-12 19.2-24 1.2c-2.8 0-6.8 0.8-6.8 4.4 0.5 3 2 5.7 4.4 7.7 4.8 5.6 9.2 11.2 14 16.4l-7.2 25.2c-0.3 2.7 1.4 5.2 4 6 2.2-0.1 4.4-0.7 6.4-1.6l14.4-4.8c2.1-0.8 4.2-1.5 6.4-2 5.6 4 11.2 7.7 16.8 11.6 2.2 2.1 4.8 3.6 7.7 4.4 0.5-1.1 0.8-1.1 1.6-1.1h0.1z m-158.7 50c3.6-2.4 2.4-5.6 2-8.8l-1.6-22.4 17.2-14.8c2.8-2.4 5.1-4 4-7.7s-5.6-3.6-7.7-4c-6.8-1.6-14-3.6-20.8-5.6l-7.7-22c-1.2-3.6-2.8-6.4-5.6-6.8-2.8-0.4-4.8 3.6-5.6 5.1l-12 19.2-24 1.2c-2.8 0-6.8 0.8-6.8 4.4 0.5 3 2 5.7 4.4 7.7 4.8 5.6 9.2 11.2 14 16.4l-7.2 25.2c-0.3 2.7 1.4 5.2 4 6 2.2-0.3 4.3-0.9 6.4-1.6l14.4-4.8c2-1 4.2-1.7 6.4-2 5.6 4 11.2 7.7 16.8 11.6 2.2 2.1 4.8 3.6 7.7 4.4 0.4-0.8 0.8-0.8 1.7-0.7zM819.42053 738c3.6-2.4 2.4-5.6 2-8.8l-1.6-22.4 17.2-14.8c2.8-2.4 5.1-4 4-7.7-1.2-3.2-5.6-3.6-7.7-4-6.8-2-14-3.6-20.8-5.6-2.8-7.2-5.1-14.4-7.7-21.6-1.2-3.6-2.8-6.4-5.6-6.8-2.8-0.4-4.8 3.6-5.6 5.1l-12 19.2-24 1.2c-2.8 0-6.8 0.8-6.8 4.4 0.5 3 2 5.7 4.4 7.7 4.8 5.6 9.2 11.2 14 16.4l-7.2 25.2c-0.3 2.7 1.4 5.2 4 6 2.2-0.2 4.4-0.7 6.4-1.6l14.4-4.8c2.1-0.8 4.2-1.5 6.4-2 5.6 4 11.2 7.7 16.8 11.6 2.2 2.1 4.8 3.6 7.7 4.4 0-0.8 0.8-1.2 1.6-1.2l0.1 0.1z m45.6-137.6c3.6-2.4 2.4-5.6 2-8.8l-1.6-22.4 17.2-14.8c2.8-2.4 5.1-4 4-7.7-1.2-3.2-5.6-3.6-7.7-4-6.8-1.6-14-3.6-20.8-5.6l-7.7-22c-1.2-3.6-2.8-6.4-5.6-6.8s-4.8 3.6-5.6 5.1l-12 19.2-24 1.2c-2.8 0-6.8 0.8-6.8 4.4 0.5 3 2 5.7 4.4 7.7 4.8 5.6 9.2 11.2 14 16.4l-7.2 25.2c-0.3 2.7 1.4 5.2 4 6 2.2-0.3 4.3-0.9 6.4-1.6l14.4-4.8c2.1-0.8 4.2-1.5 6.4-2 5.6 4 11.2 7.7 16.8 11.6 2.2 2.1 4.8 3.6 7.7 4.4 0.2-0.7 0.6-0.7 1.4-0.7h0.3zM395.52053 871.2c3.6-2.4 2.4-5.6 2-8.8l-1.6-22.4 17.2-14.8c2.8-2.4 5.1-4 4-7.7-1.2-3.2-5.6-3.6-7.7-4-6.8-2-14-3.6-20.8-5.6-2.8-7.2-5.1-14.4-7.7-21.6-1.2-3.6-2.8-6.4-5.6-6.8-2.8-0.4-4.8 3.6-5.6 5.1l-12 19.2-24 1.2c-2.8 0-6.8 0.8-6.8 4.4 0.5 3 2 5.7 4.4 7.7 4.8 5.6 9.2 11.2 14 16.4l-7.2 25.2c-0.3 2.7 1.4 5.2 4 6 2.2-0.3 4.3-0.9 6.4-1.6l14.4-4.8c2.1-0.8 4.2-1.5 6.4-2 5.6 4 11.2 7.7 16.8 11.6 2.2 2.1 4.8 3.6 7.7 4.4 0.5-0.8 0.9-1.1 1.7-1.1zM393.12253 582.9l-42.7-74-132.1 76.2 10 17.3 113.8-65.7 22.8 39.5-88.2 51-13.2-22.8-18.2 10.4 51.8 89.7c8.9 15.4 20.7 19 35.6 10.4l96.3-55.6c6.1-3.5 10.7-9.1 13-15.8-1.4-15.5-6.1-30.4-13.8-43.9l-20.9 4.7c6.5 10 10.8 21.3 12.6 33.1-1 3.2-3.1 5.9-6 7.6l-86.1 49.7c-6.1 3.5-10.8 2.1-14.4-4.1l-26.7-46.2 106.4-61.5z m47.6-115.4l9.9 17.1 42.6-24.6 7.2 12.5-38.1 22 30.4 52.6 37.2-21.5c3.8 8.1 6.3 16.7 7.6 25.6-11.2-1.1-22.2-3.7-32.8-7.7l-8.4 17.5c12.4 4.7 25.3 7.9 38.5 9.5a77.32 77.32 0 0 1-28.8 31.2l17.3 11.9c15.2-10.3 26.9-24.8 33.7-41.9 24.7-0.9 49-7.1 71-18.4l-5.7-19.8c-19.6 10.5-41.2 16.6-63.4 18.2-1.6-12.7-5.3-25.1-11-36.6l40.5-23.4-30.3-52.5-39.5 22.8-7.2-12.5 46-26.6-9.9-17.1-46 26.6-9-15.7-18.2 10.5 9.1 15.7-42.7 24.6z m121.5 18l-22.7 13.1-11.8-20.4 22.7-13.1 11.8 20.4z m-40.8 23.6l-21.1 12.1-11.8-20.4 21.1-12.2 11.8 20.5z m-83.5 33.8l51.6 89.3 18.2-10.5-67.1-116.2c-0.2-15.8-2.1-31.6-5.5-47.1l-21.7 1.9c7.3 29.7 8.4 60.5 3.2 90.6l17 15.8c1.6-7.9 3.1-15.6 4.3-23.8z m184.2-116.1l38-22 14.4 25-38 22-14.4-25z m23.1 42l38.9-22.5 28.2 48.8 18.3-10.6-28.2-48.8 41.2-23.8 13.9 24.1c3.8 6.7 3 11.6-2.2 14.6-5.9 3.4-12.3 6.6-19.6 9.9l15.1 14.9 20-11.5c10.7-4.2 16-16.2 11.8-26.9-0.7-1.7-1.6-3.4-2.7-4.9l-75.5-130.8-134.1 77.6 49.4 85.6c11.8 19.4 17.5 41.9 16.3 64.5l21.1 4.5c2-22.2-2.1-44.6-11.9-64.7z m88.9-73.3l-41.1 23.7-14.4-25 41.1-23.7 14.4 25z m-23.9-41.5l-41.1 23.7-14-24.3 41.1-23.7 14 24.3z m-73.5 10.1l14 24.2-38.1 22-14-24.2 38.1-22z" fill="#F04531" opacity=".5" p-id="5384"></path></svg>