<?xml version="1.0" standalone="no"?><!DOCTYPE svg PUBLIC "-//W3C//DTD SVG 1.1//EN" "http://www.w3.org/Graphics/SVG/1.1/DTD/svg11.dtd"><svg t="1590733365574" class="icon" viewBox="0 0 1024 1024" version="1.1" xmlns="http://www.w3.org/2000/svg" p-id="5024" xmlns:xlink="http://www.w3.org/1999/xlink" width="32" height="32"><defs><style type="text/css"></style></defs><path d="M910.4 796H113.6C51.7 796.8 0.9 747.3 0 685.5V338.8c0.9-61.9 51.7-111.4 113.6-110.6 61.9-0.8 112.7 48.7 113.6 110.6v236.1h569.7V338.7c1.6-62.7 53.7-112.3 116.5-110.7 60.5 1.5 109.2 50.2 110.7 110.7v346.8c-1 61.8-51.8 111.3-113.7 110.5zM113.6 272.6c-37-0.4-67.4 29.1-67.9 66.1v346.8c0.5 37 30.9 66.6 67.9 66.1h796.8c37 0.4 67.4-29.1 67.9-66.1V338.8c-1.2-37.5-32.6-66.9-70.1-65.7-35.8 1.2-64.5 29.9-65.7 65.7v258.3c-0.2 12.4-10.4 22.4-22.8 22.2H204.4c-12.4 0.1-22.5-9.8-22.7-22.2V338.8c-0.6-37-31-66.6-68.1-66.2z" fill="#999999" p-id="5025"></path><path d="M785.3 705.8H238.5c-31.1 0.4-56.6-24.4-57-55.5v-10.6c1.2-84.9 71-152.7 155.8-151.7h349.3c84.9-1.1 154.6 66.8 155.8 151.7v10.6c-0.5 31-26 55.8-57.1 55.5z m-448-173.4c-60-0.7-109.3 47.3-110.2 107.2v10.6c0.2 6.1 5.3 11 11.4 10.9h546.8c6.1 0.1 11.2-4.8 11.4-10.9v-10.6c-0.9-60-50.2-107.9-110.2-107.2H337.3z m578.2-166.8c-12.4 0.1-22.6-9.8-22.8-22.2V196.8c0-51.8-67.9-95.5-148.4-95.5H279.7c-80.5 0-148.4 43.7-148.4 95.5v146.7c0 12.6-10.2 22.8-22.8 22.8-12.6 0-22.8-10.2-22.8-22.8V196.8c1.7-41.7 24.2-79.7 59.9-101.2 39.9-26 86.6-39.4 134.1-38.7h464.6c47.6-0.8 94.3 12.7 134.1 38.7 35.7 21.5 58.3 59.6 59.9 101.2v146.7c-0.2 12.4-10.4 22.4-22.8 22.2v-0.1zM213.8 967.1c-12.4 0.1-22.6-9.8-22.8-22.2V869c0-12.6 10.2-22.8 22.8-22.8 12.6 0 22.8 10.2 22.8 22.8v76c-0.1 12.4-10.3 22.3-22.7 22.2 0-0.1 0-0.1-0.1-0.1z m596.4 0c-12.4 0.1-22.6-9.8-22.8-22.2V869c0-12.6 10.2-22.8 22.8-22.8 12.6 0 22.8 10.2 22.8 22.8v76c-0.1 12.4-10.3 22.3-22.7 22.2 0-0.1 0-0.1-0.1-0.1z" fill="#999999" p-id="5026"></path></svg>