<?xml version="1.0" standalone="no"?><!DOCTYPE svg PUBLIC "-//W3C//DTD SVG 1.1//EN" "http://www.w3.org/Graphics/SVG/1.1/DTD/svg11.dtd"><svg t="1590566612905" class="icon" viewBox="0 0 1024 1024" version="1.1" xmlns="http://www.w3.org/2000/svg" p-id="3742" xmlns:xlink="http://www.w3.org/1999/xlink" width="32" height="32"><defs><style type="text/css"></style></defs><path d="M1023.800039 1024L0 0h818.84007c112.677993 0 204.160125 91.082211 204.660028 203.760203v820.239797h0.299941zM716.460066 485.905097c-2.499512 42.491701-8.39836 84.58348-17.596563 126.175356l34.493263 6.798672c8.198399-41.591877 13.297403-83.783636 15.396993-126.175356l-32.293693-6.798672zM557.191174 310.639328L493.903534 373.926967c-16.8967 13.497364-19.696153 38.192541-6.098808 55.189221 2.09959 2.699473 4.699082 5.198985 7.498535 7.198594l95.781293 95.481352c8.898262 10.59793 21.295841 17.596563 34.893185 19.796133h1.199765c23.29545-5.498926 44.591291-17.496583 61.388011-34.693224l-16.296817-31.393868c-11.697715 12.297598-26.294864 21.695763-42.391721 27.194688h-0.699863c-7.298574-0.599883-13.997266-3.999219-18.796329-9.598125L527.097051 420.017965c-4.499121-3.699277-7.198594-8.998243-7.698496-14.79711 0.299941-4.399141 2.299551-8.49834 5.598906-11.297793l57.788714-57.988674-25.595001-25.29506z m-38.692443-108.778754l-19.996095 26.294864c111.078305 105.579379 207.759422 194.462019 279.845343 257.349737-0.299941 14.497169-1.299746 28.894357-2.999414 43.291544l32.593634 5.798868c2.09959-31.993751 1.599688-64.187463-1.399727-96.181215l16.996681 16.996681 104.979496-104.979497L813.841047 235.853935l20.495997-20.495997 147.271236 147.371216 22.595586-22.595586L856.632689 193.062293l24.195274-24.195275-26.094903-26.094903-24.195274 24.195274L683.46651 19.596173 660.870924 42.191759l147.371216 147.171256-20.495997 20.495997-114.577621-114.977544-105.079477 104.979497 114.877563 114.577621-23.29545 23.29545c-33.7934-32.093732-70.086311-67.286858-108.678774-104.479594L533.19586 216.057801l-14.697129-14.197227z m92.181995 171.26655c1.499707 29.59422 0.399922 59.28842-3.199375 88.682679l33.293498 5.798867c2.599492-28.894357 3.099395-57.988674 1.399726-86.983011l-31.493849-7.698496v0.199961zM504.601445 263.548526c-32.693615 18.096466-68.286663 29.994142-105.279438 35.093146l7.898458 35.393087c40.892013-7.398555 80.184339-21.695763 116.277289-42.391721l-18.896309-28.094512z m274.046475 184.863893c-23.095489-21.19586-47.590705-43.891427-77.084944-71.685998L686.765866 363.029096l22.295645-22.595587 82.983793 82.883812-14.497169-3.499317c0.399922 4.19918 0.499902 8.298379 0.599883 12.59754v3.999219c0 3.899238 0 7.698496 0.399922 11.697715l0.09998 0.299941z m39.792228-37.492677L728.557704 321.037297l24.195274-24.195274 89.982425 89.882445-24.295255 24.195274z m41.891818-41.991798L770.649483 279.045499l23.495411-23.495411 89.682483 89.882445-23.495411 23.495411z m-157.869166-73.98555l-89.682484-89.582503 24.295255-24.195275 89.882445 89.682484-24.495216 24.095294z m42.19176-41.891818l-89.882445-89.582503 23.495411-23.495411 89.882445 89.682483-23.495411 23.395431z" fill="#F25B48" p-id="3743"></path></svg>