<?xml version="1.0" standalone="no"?><!DOCTYPE svg PUBLIC "-//W3C//DTD SVG 1.1//EN" "http://www.w3.org/Graphics/SVG/1.1/DTD/svg11.dtd"><svg t="1591250262144" class="icon" viewBox="0 0 1024 1024" version="1.1" xmlns="http://www.w3.org/2000/svg" p-id="7046" xmlns:xlink="http://www.w3.org/1999/xlink" width="32" height="32"><defs><style type="text/css"></style></defs><path d="M674.667301 1023.90002h-569.488771c-57.988674-0.09998-104.979496-46.990822-105.179458-104.979497v-813.941027c0.199961-57.988674 47.190783-104.879516 105.179458-104.979496h516.999023c57.988674 0.09998 104.979496 46.990822 105.179457 104.979496v273.046671h191.662566c57.888694 0.299941 104.779535 47.190783 104.979496 105.179457v435.81488c-0.199961 57.888694-47.090803 104.779535-104.979496 104.979496l-244.352275-0.09998z m52.489748-52.389768h191.662566c28.994337-0.09998 52.389768-23.595392 52.589729-52.589729v-435.714899c-0.09998-28.994337-23.595392-52.389768-52.589729-52.589729h-191.662566v540.894357z m-674.668228-866.530756v813.941027c0.09998 28.994337 23.595392 52.489748 52.589728 52.589729h569.488772v-866.430775c-0.09998-28.994337-23.595392-52.389768-52.589729-52.389768h-516.899043c-28.894357 0-52.389768 23.395431-52.589728 52.289787z" fill="#101D37" p-id="7047"></path><path d="M296.641135 547.99297h-136.473346c-14.497169 0-26.294864-11.797696-26.294864-26.294864s11.797696-26.294864 26.294864-26.294864h133.873853c13.697325-0.799844 25.39504 9.598125 26.294865 23.29545 0.09998 0.999805 0.09998 1.999609 0 2.999414 1.099785 13.297403-8.798282 25.095099-22.095685 26.194884-0.499902 0-0.999805 0-1.599687 0.09998z m270.447178 0h-133.873853c-14.497169 0-26.294864-11.797696-26.294864-26.294864s11.797696-26.294864 26.294864-26.294864h133.873853c13.697325-0.799844 25.39504 9.598125 26.294864 23.29545 0.09998 0.999805 0.09998 1.999609 0 2.999414-0.09998 14.497169-11.797696 26.194884-26.294864 26.294864zM296.641135 292.542863h-136.473346c-14.497169 0-26.294864-11.797696-26.294864-26.294865s11.797696-26.294864 26.294864-26.294864h133.873853c13.697325-0.799844 25.39504 9.598125 26.294865 23.29545 0.09998 0.999805 0.09998 1.999609 0 2.999414 1.099785 13.297403-8.798282 25.095099-22.095685 26.194884-0.499902 0-0.999805 0.09998-1.599687 0.099981z m270.447178 0h-133.873853c-14.497169 0-26.294864-11.797696-26.294864-26.294865s11.797696-26.294864 26.294864-26.294864h133.873853c13.697325-0.799844 25.39504 9.598125 26.294864 23.29545 0.09998 0.999805 0.09998 1.999609 0 2.999414-0.09998 14.497169-11.797696 26.194884-26.294864 26.294865zM296.641135 803.343097h-136.473346c-14.497169 0-26.294864-11.797696-26.294864-26.294864s11.797696-26.294864 26.294864-26.294865h133.873853c13.697325-0.799844 25.39504 9.598125 26.294865 23.295451 0.09998 0.999805 0.09998 1.999609 0 2.899433 1.099785 13.397383-8.798282 25.095099-22.195665 26.194884-0.499902 0.199961-0.999805 0.199961-1.499707 0.199961z m270.447178 0h-133.873853c-14.497169 0-26.294864-11.797696-26.294864-26.294864s11.797696-26.294864 26.294864-26.294865h133.873853c13.697325-0.799844 25.39504 9.598125 26.294864 23.295451 0.09998 0.999805 0.09998 1.999609 0 2.899433-0.09998 14.697129-11.797696 26.394845-26.294864 26.394845z" fill="#F04531" p-id="7048"></path></svg>