<?xml version="1.0" standalone="no"?><!DOCTYPE svg PUBLIC "-//W3C//DTD SVG 1.1//EN" "http://www.w3.org/Graphics/SVG/1.1/DTD/svg11.dtd"><svg t="1591666877869" class="icon" viewBox="0 0 1024 1024" version="1.1" xmlns="http://www.w3.org/2000/svg" p-id="6135" xmlns:xlink="http://www.w3.org/1999/xlink" width="64" height="64"><defs><style type="text/css"></style></defs><path d="M984.083267 945.084961h-729.381872c-21.799458 0-39.399021 17.69956-39.399021 39.399021 0 21.799458 17.69956 39.399021 39.399021 39.399021h729.381872c21.799458 0 39.399021-17.69956 39.399021-39.399021 0.099998-21.699461-17.599563-39.399021-39.399021-39.399021z" fill="#919AAA" p-id="6136"></path><path d="M780.188335 79.006486l163.595934 162.195969c-0.199995 3.799906-1.99995 7.299819-4.899879 9.799757l-687.482913 687.482913c-4.399891 4.399891-8.499789 4.799881-7.299819 6.199846l-164.895902-163.695931c0.299993-3.799906 1.99995-7.299819 4.899879-9.799757l687.382916-687.282918c2.299943-2.39994 5.299868-4.099898 8.499789-4.799881m0.899977-78.898039c-24.599389 0.299993-48.098805 10.399742-65.298377 27.999304l-687.282919 687.482914c-34.399145 30.899232-37.399071 83.69792-6.699833 118.197062l167.195845 167.195845c14.09965 13.899655 33.199175 21.499466 52.998682 21.29947 24.599389-0.299993 48.098805-10.399742 65.298377-27.999304l687.382917-687.382916c34.399145-30.899232 37.399071-83.69792 6.699833-118.197062l-167.195845-167.495838c-14.09965-13.899655-33.199175-21.599463-52.998682-21.29947l-0.099998 0.199995z" fill="#919AAA" p-id="6137"></path><path d="M274.500903 675.991649c-21.799458 0-39.399021 17.69956-39.399021 39.499019 0 10.399742 4.099898 20.399493 11.499714 27.799309l111.497229 111.497229c14.799632 15.899605 39.799011 16.799582 55.698616 1.99995 15.899605-14.799632 16.799582-39.799011 1.99995-55.698616-0.599985-0.699983-1.19997-1.299968-1.899953-1.899953l-111.497229-111.697224c-7.399816-7.399816-17.499565-11.499714-27.899306-11.499714z" fill="#919AAA" p-id="6138"></path></svg>