<?xml version="1.0" standalone="no"?><!DOCTYPE svg PUBLIC "-//W3C//DTD SVG 1.1//EN" "http://www.w3.org/Graphics/SVG/1.1/DTD/svg11.dtd"><svg t="1590048609245" class="icon" viewBox="0 0 1024 1024" version="1.1" xmlns="http://www.w3.org/2000/svg" p-id="4372" xmlns:xlink="http://www.w3.org/1999/xlink" width="48" height="48"><defs><style type="text/css"></style></defs><path d="M903.466481 284.417017h-60.294838V113.831623C841.271806 49.237154 787.376421-1.658488 722.781952 0.041366H120.533519C55.839059-1.658488 2.043665 49.237154 0.043836 113.831623v796.231823c1.999829 64.694461 55.795223 115.590103 120.489683 113.890248h782.932962c64.594469 1.799846 118.489854-49.095796 120.389691-113.790257v-511.956163c-1.899837-64.594469-55.695231-115.590103-120.389691-113.790257zM796.275659 983.557153H109.634453c-33.497132 0.899923-61.394743-25.497817-62.494649-58.994949V99.232873c0.999914-33.497132 28.897526-59.894872 62.494649-58.994948h624.146557c33.497132-0.899923 61.394743 25.497817 62.494649 58.994948v884.32428zM972.96053 921.262487c-3.099735 35.096995-32.297235 62.094683-67.394229 62.294666h-62.194675V327.213352h62.494649c34.697029-1.199897 64.394486 24.597894 68.194161 58.994949L972.96053 921.262487z" fill="#101D37" p-id="4373"></path><path d="M665.586849 475.80063H171.029196c-13.598836 0-24.597894-10.999058-24.597894-24.597894 0-13.598836 10.999058-24.597894 24.597894-24.597894h494.757636c13.598836 0 24.597894 10.999058 24.597894 24.597894 0 13.598836-10.999058 24.597894-24.597894 24.597894h-0.199983z m0 152.786917H171.029196c-13.598836 0-24.597894-10.999058-24.597894-24.597894 0-13.598836 10.999058-24.597894 24.597894-24.597893h494.757636c13.598836 0 24.597894 10.999058 24.597894 24.597893 0 13.598836-10.999058 24.597894-24.597894 24.597894h-0.199983z" fill="#101D37" p-id="4374"></path><path d="M180.028425 229.054757l50.595668 75.593527v-76.693433c-0.299974-3.999658 0.899923-7.899324 3.199726-11.299032 2.199812-2.399795 5.399538-3.799675 8.699255-3.699683 3.299717-0.099991 6.699426 1.199897 8.799247 3.699683 2.399795 3.199726 3.4997 7.299375 3.199726 11.299032v101.191336c0 11.299033-4.699598 16.898553-14.098793 16.898553-2.199812 0-4.19964-0.299974-6.299461-0.899923-1.899837-0.599949-3.799675-1.799846-5.399538-3.199726-1.699854-1.499872-3.199726-3.199726-4.499614-5.099563-1.39988-1.899837-2.699769-3.999658-4.199641-5.999487l-49.095796-74.993578v75.493535c0.299974 3.999658-0.899923 7.799332-3.4997 10.999059-4.599606 4.89958-12.298947 5.099563-17.198528 0.499957-0.299974-0.099991-0.399966-0.399966-0.499957-0.499957-2.399795-3.099735-3.599692-6.999401-3.4997-10.999059v-99.291498c-0.099991-3.299717 0.399966-6.799418 1.39988-9.999143 1.199897-2.699769 3.099735-4.89958 5.499529-6.399453 2.599777-1.499872 5.399538-2.399795 8.399281-2.399794 1.999829-0.099991 4.099649 0.299974 5.999486 1.199897 1.699854 0.799932 3.099735 1.799846 4.399624 3.099735 1.499872 1.499872 2.79976 3.199726 3.799674 4.999572 1.299889 1.999829 2.599777 4.19964 4.099649 6.399452l0.199983 0.099991z m188.38387 6.699427h-58.994949v31.597294h54.395343c3.199726-0.299974 6.399452 0.799932 8.799246 2.699769 3.799675 3.999658 3.799675 10.199127 0 14.198784-2.599777 1.999829-5.799503 2.899752-9.099221 2.699769h-54.395342v36.596866h61.19476c3.299717-0.299974 6.799418 0.799932 9.299204 2.899752 1.999829 1.899837 3.199726 4.699598 3.099734 7.599349 0.099991 2.79976-0.999914 5.499529-3.099734 7.299375-2.699769 2.199812-5.999486 3.199726-9.299204 2.899752h-71.193904c-7.299375 1.499872-14.498759-3.199726-15.99863-10.599092-0.399966-1.799846-0.399966-3.599692 0-5.399538v-96.491738c-0.099991-3.199726 0.399966-6.299461 1.699854-9.199212 0.999914-2.299803 2.899752-4.099649 5.099564-5.099564 2.79976-1.199897 5.999486-1.699854 9.099221-1.699854h69.494049c3.299717-0.299974 6.699426 0.799932 9.299204 2.699769 1.999829 1.799846 3.199726 4.499615 3.099734 7.299375 0.099991 2.79976-0.999914 5.499529-3.099734 7.299375-2.699769 1.899837-6.099478 2.899752-9.399195 2.699769z m126.689152 88.29244l-20.898211-77.193391-21.098193 77.193391c-1.699854 5.799503-2.899752 9.999144-3.799675 12.498929-0.999914 2.699769-2.79976 5.099563-4.999572 6.89941-2.699769 2.199812-6.099478 3.299717-9.699169 3.099734-2.699769 0.099991-5.499529-0.499957-7.899324-1.799846-2.199812-1.199897-3.799675-2.899752-4.999572-5.099563-1.39988-2.399795-2.599777-5.099563-3.199726-7.899324-0.799932-3.099735-1.699854-5.799503-2.299803-8.299289l-21.498159-86.792569c-0.999914-3.699683-1.799846-7.599349-1.899837-11.399023 0-3.199726 1.299889-6.299461 3.699683-8.29929 2.299803-2.199812 5.499529-3.4997 8.699255-3.299717 3.799675-0.399966 7.599349 1.299889 9.699169 4.499614 1.999829 4.19964 3.4997 8.599264 4.399624 13.19887l16.998544 75.09357 18.898382-70.293981c1.39988-5.199555 2.699769-9.499187 3.699683-12.198955 0.999914-2.899752 2.899752-5.499529 5.499529-7.299375 2.899752-2.199812 6.699426-3.299717 10.39911-3.099735 3.699683-0.299974 7.399366 0.899923 10.39911 3.199726 2.299803 1.799846 3.999658 4.19964 4.999571 6.89941 1.39988 4.099649 2.699769 8.299289 3.699684 12.498929l19.098364 70.293981 16.998545-75.09357c0.799932-3.799675 1.699854-6.899409 2.299803-9.199212 0.799932-2.199812 1.999829-4.19964 3.699683-5.999486 2.199812-1.899837 4.999572-2.79976 7.799332-2.599778 3.199726-0.099991 6.399452 1.199897 8.699255 3.299718 2.399795 2.199812 3.699683 5.199555 3.699684 8.599263-0.299974 3.799675-0.899923 7.699341-1.899838 11.399024l-22.098107 86.792569c-1.39988 5.799503-2.699769 10.099135-3.699684 12.898895-0.899923 2.79976-2.699769 5.199555-4.999572 6.999401-5.899495 4.099649-13.698827 4.099649-19.598321 0-2.299803-1.799846-3.999658-4.099649-4.999572-6.799418-0.69994-2.299803-1.999829-6.599435-3.799675-12.698912z m176.184914-18.298434c0.099991 7.399366-1.899837 14.698741-5.999486 20.898211-4.399623 6.499443-10.499101 11.499015-17.698485 14.59875-8.699255 3.699683-18.198442 5.499529-27.597637 5.199555-10.999058 0.399966-21.898125-2.199812-31.497303-7.299375-5.899495-3.299717-10.799075-8.199298-14.498758-13.798819-3.4997-4.999572-5.199555-10.799075-5.499529-16.798561 0-3.099735 1.199897-5.999486 3.199726-8.199298 2.199812-2.199812 5.199555-3.4997 8.39928-3.299718 2.599777-0.099991 5.099563 0.799932 6.89941 2.599778 2.199812 2.199812 3.999658 4.89958 4.89958 7.899323 1.39988 3.599692 3.199726 7.199384 5.399538 10.39911 1.999829 2.899752 4.89958 5.199555 8.099306 6.799418 4.19964 1.899837 8.799247 2.899752 13.598836 2.699768 6.699426 0.299974 13.298861-1.499872 18.898382-5.199554 4.599606-2.899752 7.299375-8.099306 7.299375-13.598836 0.099991-3.799675-1.299889-7.699341-3.799675-10.499101-2.79976-2.79976-6.399452-4.999572-10.199127-6.099478-4.19964-1.39988-9.69917-2.899752-16.598578-4.499614-8.099306-1.699854-15.898639-4.19964-23.298005-7.59935-5.899495-2.599777-10.999058-6.699426-14.798733-11.898981-3.799675-5.499529-5.799503-11.998973-5.499529-18.698399-0.099991-6.799418 1.899837-13.298861 5.799503-18.79839 4.399623-5.799503 10.099135-10.099135 16.798562-12.698913 8.299289-3.099735 16.998544-4.599606 25.897782-4.499615 6.899409-0.099991 13.998801 0.799932 20.598236 2.899752 5.199555 1.499872 10.199127 4.399623 14.498759 7.899324 3.599692 2.79976 6.399452 6.299461 8.399281 10.399109 1.699854 3.199726 2.599777 6.799418 2.599777 10.499101 0 3.099735-1.199897 5.999486-3.199726 8.29929-1.999829 2.299803-5.099563 3.699683-8.299289 3.699683-2.399795 0.099991-4.999572-0.599949-6.799418-2.299803-1.999829-2.199812-3.699683-4.599606-4.999572-7.299375-1.999829-4.399623-4.89958-8.199298-8.399281-11.399024-4.599606-3.099735-10.199127-4.499615-15.898638-3.999658-5.799503-0.399966-11.499015 1.299889-16.398596 4.499615-3.699683 2.299803-5.999486 6.299461-6.099478 10.599093-0.099991 2.399795 0.599949 4.699598 1.999829 6.499443 1.499872 1.999829 3.599692 3.699683 5.799503 4.89958 2.299803 1.299889 4.699598 2.299803 7.299375 3.199726 2.599777 0.799932 6.799418 1.899837 12.698913 3.299718 6.699426 1.499872 13.298861 3.4997 19.698313 5.59952 5.399538 1.799846 10.39911 4.19964 14.998716 7.299375 4.099649 2.79976 7.399366 6.499443 9.699169 10.999059 2.599777 5.299546 3.899666 10.999058 3.599692 16.798561z" fill="#F04531" p-id="4375"></path></svg>