<?xml version="1.0" standalone="no"?><!DOCTYPE svg PUBLIC "-//W3C//DTD SVG 1.1//EN" "http://www.w3.org/Graphics/SVG/1.1/DTD/svg11.dtd"><svg t="1590995332015" class="icon" viewBox="0 0 1024 1024" version="1.1" xmlns="http://www.w3.org/2000/svg" p-id="5098" xmlns:xlink="http://www.w3.org/1999/xlink" width="48" height="48"><defs><style type="text/css"></style></defs><path d="M923 917.844h-822.7c-55.4 0-100.2-44.9-100.3-100.3v-611.2c0-55.4 44.9-100.2 100.3-100.3h823.5c55.4 0 100.2 44.9 100.3 100.3v611.2c-0.7 55.5-45.6 100.1-101.1 100.3z m-822.7-776.9c-36.2 0.2-65.5 29.5-65.7 65.7v611.2c0.2 36.2 29.5 65.5 65.7 65.7h823.5c36.2-0.2 65.5-29.5 65.7-65.7v-611.2c-0.2-36.2-29.5-65.5-65.8-65.7h-823.4z" fill="#F04531" p-id="5099"></path><path d="M336.7 629.944c-104.6 0.4-189.7-84.1-190.1-188.7-0.4-104.6 84.1-189.7 188.7-190.1 104.6-0.4 189.7 84.1 190.1 188.7v1.4c-0.5 104-84.7 188.2-188.7 188.7z m0-343.6c-85.5-0.4-155.1 68.7-155.5 154.2-0.4 85.5 68.7 155.1 154.2 155.5 85.5 0.4 155.1-68.7 155.5-154.2v-0.6c-0.3-85.1-69.1-154.1-154.2-154.5v-0.4z" fill="#F04531" p-id="5100"></path><path d="M439 767.144c-1.9 0.1-3.8-0.1-5.6-0.7l-93.4-32.5-98.1 32.5c-5.1 1.8-10.8 1.1-15.2-2-4.5-3.1-7.1-8.3-6.9-13.8v-160.5c0-9.5 7.7-17.3 17.3-17.3 9.5 0 17.3 7.7 17.3 17.3v136.2l80.2-26.3c3.6-1.4 7.5-1.4 11.1 0l76.1 26.3v-145.9c0-9.5 7.7-17.3 17.3-17.3 9.5 0 17.3 7.7 17.3 17.3v170.1c0 5.4-2.5 10.6-6.9 13.8-3.3 1.9-6.9 2.8-10.5 2.8z m412.1-387.2h-220.6c-9.5 0-17.3-7.7-17.3-17.3 0-9.5 7.7-17.3 17.3-17.3h220.5c9.5 0 17.3 7.7 17.3 17.3 0.1 9.6-7.7 17.3-17.2 17.3z m0 154.2h-220.6c-9.5 0-17.3-7.7-17.3-17.3 0-9.5 7.7-17.3 17.3-17.3h220.5c9.5 0 17.3 7.7 17.3 17.3 0.1 9.6-7.7 17.3-17.2 17.3z m0 152.8h-220.6c-9.5 0-17.3-7.7-17.3-17.3 0-9.5 7.7-17.3 17.3-17.3h220.5c9.5 0 17.3 7.7 17.3 17.3 0.1 9.6-7.7 17.3-17.2 17.3z" fill="#F04531" p-id="5101"></path></svg>