<?xml version="1.0" standalone="no"?><!DOCTYPE svg PUBLIC "-//W3C//DTD SVG 1.1//EN" "http://www.w3.org/Graphics/SVG/1.1/DTD/svg11.dtd"><svg t="1589854592673" class="icon" viewBox="0 0 1024 1024" version="1.1" xmlns="http://www.w3.org/2000/svg" p-id="2827" xmlns:xlink="http://www.w3.org/1999/xlink" width="32" height="32"><defs><style type="text/css"></style></defs><path d="M1.349937 1.349934h875.357257c70.496558-10.099507 135.793369 38.898101 145.892877 109.294663 1.799912 12.199404 1.799912 24.398809 0 36.598213v729.464382c10.099507 70.496558-38.898101 135.793369-109.294664 145.892876-12.199404 1.799912-24.398809 1.799912-36.598213 0H147.242813C76.746255 1032.79957 11.549439 983.701968 1.349937 913.4054c-1.799912-12.199404-1.799912-24.398809 0-36.598213V147.24281C-8.74957 76.746253 40.348032 11.549436 110.6446 1.349934c12.199404-1.799912 24.398809-1.799912 36.598213 0H1.349937z" fill="#28D9A1" p-id="2828"></path><path d="M228.938824 384.731214c23.698843-29.198574 44.497827-60.797031 61.896977-94.095405h62.696939c15.099263 26.698696 28.498608 54.497339 40.198037 82.895952l47.497681-17.499145c-9.999512-22.698892-21.49895-44.497827-34.298325-65.696793h102.794981v-48.097651H313.234708c7.299644-19.199063 14.599287-37.89815 21.09897-57.497193L284.036133 173.841512c-20.998975 66.796738-54.897319 128.793711-100.095112 182.391094l44.997803 28.498608z m483.476393 0l47.49768-16.799179c-12.799375-26.598701-27.098677-52.497437-42.9979-77.296226H835.009231v-48.097652H616.219914c7.299644-17.499146 14.599287-36.498218 21.098969-56.797226L587.021339 174.841463c-16.599189 56.097261-44.397832 108.094722-81.696011 153.19252l43.797862 26.998681c15.599238-20.498999 29.89854-41.997949 42.9979-64.196865h70.296568c18.899077 29.89854 35.798252 61.297007 49.997559 93.895415z m107.994726 197.790343l25.498755-45.297789C731.014308 496.925736 623.719547 437.528636 528.624191 361.532347h-35.098287C400.23046 436.82867 294.935601 495.6258 182.041114 535.823837l24.798789 45.897759c46.797715-18.699087 92.695474-39.798057 137.193301-63.4969V551.023095h336.983546v-32.398418c45.097798 24.398809 91.695523 45.597774 139.393193 63.89688z m-167.691812-80.196085H372.531812c49.397588-28.698599 95.895318-62.096968 138.593233-99.995117 43.897857 37.598164 91.395537 71.196524 141.593086 99.995117zM344.133199 849.50852v-32.898394h335.583614v32.798399H730.014357V619.019774H294.035645v230.488746h50.297544-0.19999z m335.583614-80.996045H344.133199V667.117426h335.583614v101.395049z" fill="#FFFFFF" p-id="2829"></path></svg>