<?xml version="1.0" standalone="no"?><!DOCTYPE svg PUBLIC "-//W3C//DTD SVG 1.1//EN" "http://www.w3.org/Graphics/SVG/1.1/DTD/svg11.dtd"><svg t="1590046238130" class="icon" viewBox="0 0 1024 1024" version="1.1" xmlns="http://www.w3.org/2000/svg" p-id="3405" xmlns:xlink="http://www.w3.org/1999/xlink" width="48" height="48"><defs><style type="text/css"></style></defs><path d="M1023.989 481.696296l-482.195291-481.695296H-0.001l1023.99 1023.99v-542.294704z" fill="#F36D61" p-id="3406"></path><path d="M581.093325 219.09886l-51.1995-51.999492-147.39856 150.698529-38.399625-38.899621 147.39856-150.798527-50.899503-51.799494 31.099697-31.899689 140.198631 142.798606-30.7997 31.899688z m-45.199558 77.599243c23.799768-26.59974 57.199441-42.799582 92.799094-44.799563 34.699661-0.99999 67.999336 13.29987 91.09911 39.199617 24.299763 22.999775 37.499634 55.399459 36.199646 88.999131-1.899981 34.599662-16.999834 66.899347-42.099589 90.799113-23.59977 26.399742-56.699446 42.399586-91.999101 44.399567-33.999668 0.899991-66.799348-13.099872-89.599125-38.399625-24.399762-23.299772-37.999629-55.799455-37.199637-89.599125 1.399986-34.399664 15.999844-66.899347 40.799602-90.599115z m42.299587 38.699622c-15.899845 14.999854-26.399742 34.79966-29.799709 56.29945-2.799973 19.199813 3.799963 38.699622 17.899825 52.099491 12.699876 14.29986 31.599691 21.599789 50.699505 19.299812 21.399791-3.699964 40.799602-14.599857 54.999463-30.7997 16.499839-15.199852 27.799729-35.299655 31.999687-57.499438 3.699964-35.199656-21.899786-66.699349-56.999443-70.299314-4.199959-0.399996-8.599916-0.499995-12.799875 0-21.699788 3.599965-41.599594 14.499858-55.999453 30.899699z m187.598168 245.997597l-62.199393 63.599379-38.099628-38.799621 178.598256-182.498218 61.599398 62.699388c44.499565 45.299558 47.899532 87.299147 10.199901 125.798772-16.299841 17.899825-39.89961 26.999736-63.999375 24.399761-25.699749-3.09997-49.299519-15.599848-66.199354-35.199656l-19.899805-19.999805z m86.799152-88.699133l-57.599437 58.899424 16.499838 16.799836c22.399781 22.799777 43.299577 24.199764 62.699388 4.199959 18.899815-19.49981 17.39983-40.399605-4.699954-62.999385l-16.899835-16.899834z" fill="#FFFFFF" p-id="3407"></path></svg>