<?xml version="1.0" standalone="no"?><!DOCTYPE svg PUBLIC "-//W3C//DTD SVG 1.1//EN" "http://www.w3.org/Graphics/SVG/1.1/DTD/svg11.dtd"><svg t="1590733370299" class="icon" viewBox="0 0 1024 1024" version="1.1" xmlns="http://www.w3.org/2000/svg" p-id="5155" xmlns:xlink="http://www.w3.org/1999/xlink" width="32" height="32"><defs><style type="text/css"></style></defs><path d="M978.4 471.3V132.7c0-32.8-26.6-59.4-59.4-59.5H99.8c-32.8 0-59.4 26.6-59.4 59.5v346.4C14 520.9 0 569.4 0 618.9v331.9h133.8v-88.9c0-34.3 27.7-62.1 62-62.2H829c34.2 0.1 62 27.9 61.9 62.2v89H1024V619.1c0-52.7-15.8-104.2-45.6-147.8zM99.8 111.1H919c11.9 0 21.5 9.6 21.5 21.5V427.3c-27.6-25.8-60.4-45.2-96.2-57.1 30.5-31.8 29.5-82.2-2.3-112.7-14.9-14.3-34.8-22.3-55.4-22.2H584.4c-37.4 0.1-69.7 26-77.8 62.5-8.1-36.5-40.4-62.4-77.8-62.5H226.4c-44 0-79.8 35.7-79.8 79.7 0 21.9 9 42.9 24.9 58-35 12.9-66.7 33.1-93.2 59.3V132.7c0-11.9 9.7-21.6 21.5-21.6z m126.6 245.7c-23.1 0-41.9-18.7-41.9-41.9s18.7-41.9 41.9-41.9h202.4c23.1 0 41.9 18.7 41.9 41.9s-18.7 41.9-41.9 41.9H226.4z m280.1-24.5c1.9 8.7 5.3 17 9.9 24.5h-19.9c4.8-7.5 8.1-15.8 10-24.5z m35.9-17.3c0-23.1 18.7-41.8 41.8-41.8h202.4c23.1 0 41.9 18.7 41.9 41.9S809.8 357 786.6 357H584.4c-23.1-0.1-41.8-18.8-41.8-41.8l-0.2-0.2z m386.5 597.9v-51.2c0-55.2-44.7-99.9-99.8-99.9H195.8c-55.2 0-99.9 44.8-99.8 99.9v51.2H37.9V619.1c-0.1-43.1 12.4-85.4 35.8-121.6h4.6v-6.9c41.8-60 110.4-95.7 183.5-95.7h500.4c123.7 0.2 223.8 100.5 223.9 224.2v33.5h-947v38H986v222.5l-57.1-0.2z" fill="#999999" p-id="5156"></path></svg>