<?xml version="1.0" standalone="no"?><!DOCTYPE svg PUBLIC "-//W3C//DTD SVG 1.1//EN" "http://www.w3.org/Graphics/SVG/1.1/DTD/svg11.dtd"><svg t="1589335845523" class="icon" viewBox="0 0 1024 1024" version="1.1" xmlns="http://www.w3.org/2000/svg" p-id="2612" xmlns:xlink="http://www.w3.org/1999/xlink" width="32" height="32"><defs><style type="text/css"></style></defs><path d="M740.087 428.57c4.9 7.6 15 9.8 22.6 5 7.6-4.9 9.8-15 5-22.6-0.5-0.8-50.6-81-7.5-135.3 24-31.5 28.7-73.6 12.4-109.7-7.2-18.8-17.1-36.3-29.5-52.2-6-6.7-16.4-7.3-23.1-1.3-6.4 5.7-7.3 15.3-2.1 22.1 0.8 1 56.6 70.2 16.6 120.7-57.7 72.7 2.9 169.2 5.6 173.3z m109.9 0.5c5.1 7.5 15.3 9.4 22.8 4.3 7.1-4.9 9.2-14.5 4.8-21.9-0.5-0.8-50.6-81-7.5-135.3 24-31.5 28.7-73.6 12.4-109.7-7.2-18.8-17.1-36.3-29.5-52.2-6-6.7-16.4-7.3-23.1-1.3-6.4 5.7-7.3 15.3-2.1 22.1 0.6 0.7 56.7 70.1 16.6 120.7-57.5 72.7 3.1 169.2 5.6 173.3z m-687.7 4.4c3 4.7 8.2 7.5 13.7 7.6 9 0 16.4-7.3 16.4-16.4 0-3.1-0.9-6.2-2.6-8.8-0.5-0.8-50.6-81-7.5-135.3 24-31.5 28.7-73.6 12.4-109.7-7.2-18.8-17.1-36.3-29.5-52.2-6-6.7-16.4-7.3-23.1-1.3-6.4 5.7-7.3 15.3-2.1 22.1 0.6 0.7 56.7 70.1 16.6 120.7-57.5 72.7 3.1 169.2 5.7 173.3z m109.9 0.5c4.9 7.6 15 9.8 22.6 5 7.6-4.9 9.8-15 5-22.6-0.5-0.8-50.6-81-7.5-135.3 24-31.5 28.7-73.6 12.5-109.7-7.2-18.8-17.1-36.3-29.5-52.2-6-6.7-16.4-7.3-23.1-1.3-6.4 5.7-7.3 15.3-2.1 22.1 0.6 0.7 56.7 70.1 16.6 120.7-57.7 72.7 2.9 169.3 5.6 173.3h-0.1z m554 342.5c-10.9-0.1-19.7-8.9-19.6-19.8 0.5-163.4-131.3-296.4-294.7-297.3h-1.4c-162.9 0.1-295.2 131.8-296.1 294.7-0.1 10.9-8.9 19.6-19.7 19.6-10.9-0.1-19.7-8.9-19.6-19.8 1.1-184.5 150.8-333.7 335.4-333.9h1.6c185.2 1.1 334.5 151.8 333.9 337-0.1 10.8-8.9 19.6-19.8 19.5z" fill="#101D37" p-id="2613"></path><path d="M842.087 915.67h-0.3l-660.2-3c-19.9-0.4-38.5-9.8-50.7-25.5-25.4-33.1-25.2-79.2 0.5-112.1 12.5-15.5 31.1-24.6 51-25.1l431.5 2c10.9 0.1 19.7 8.9 19.6 19.8 0.3 10.5-8 19.3-18.6 19.6h-1.3l-431.6-2c-8 0.4-15.4 4.3-20.2 10.7-13.8 18.4-13.9 43.7-0.3 62.2 4.8 6.4 12.2 10.4 20.2 10.9l660.3 3.1c8-0.4 15.4-4.3 20.2-10.7 13.8-18.4 13.9-43.7 0.3-62.2-4.8-6.4-12.2-10.4-20.2-10.9l-98.5-0.5c-10.9 0-19.7-8.8-19.7-19.7 0-10.9 8.8-19.7 19.7-19.7l98.5 0.5c19.9 0.4 38.5 9.8 50.7 25.5 25.4 33.1 25.2 79.2-0.5 112.1-12.3 15.5-30.9 24.7-50.7 25.1l0.3-0.1z m-328.6-464.6c-42.5 0-76.9-34.4-76.9-76.9 0-42.5 34.4-76.9 76.9-76.9 42.5 0 76.9 34.4 76.9 76.9 0 42.4-34.4 76.8-76.9 76.9z m0-114.5c-20.7 0-37.5 16.8-37.5 37.5s16.8 37.5 37.5 37.5 37.5-16.8 37.5-37.5c0-20.6-16.8-37.4-37.5-37.5z" fill="#101D37" p-id="2614"></path></svg>