<?xml version="1.0" standalone="no"?><!DOCTYPE svg PUBLIC "-//W3C//DTD SVG 1.1//EN" "http://www.w3.org/Graphics/SVG/1.1/DTD/svg11.dtd"><svg t="1590977061445" class="icon" viewBox="0 0 1024 1024" version="1.1" xmlns="http://www.w3.org/2000/svg" p-id="4485" xmlns:xlink="http://www.w3.org/1999/xlink" width="48" height="48"><defs><style type="text/css"></style></defs><path d="M622.980566 1023.796001h191.099254c71.499721-0.499998 86.699661-45.99982 86.699661-111.699564v-323.298737h45.399823c27.499893 2.59999 53.69979-12.499951 65.299745-37.599853 6.799973-14.099945 11.499955-48.099812-27.699892-86.699661l-382.198507-378.098523c-23.499908-23.499908-89.49965-86.399663-89.49965-86.399663s-65.799743 62.599755-89.499651 86.199663l-382.298506 377.998524c-39.699845 39.199847-34.499865 72.599716-27.699892 87.199659 11.899954 24.799903 37.799852 39.799845 65.299745 37.599853h45.399822v323.298737c0 64.699747 25.5999 111.699564 86.699662 111.699564h191.099253l221.399135-0.499998 0.499998 0.299999z" fill="#F04531" p-id="4486"></path><path d="M484.147109 870.696599v-142.499444h-102.199601c-13.999945-1.999992-23.699907-14.899942-21.699915-28.899887 1.599994-11.299956 10.399959-20.099921 21.699915-21.699915h102.2996v-86.199663h-102.2996c-13.999945-1.999992-23.699907-14.899942-21.699915-28.899887 1.599994-11.299956 10.399959-20.099921 21.699915-21.699915h73.399713l-123.699516-194.499241c-7.199972-11.699954-3.499986-26.999895 8.199967-34.199866 0 0 0.1 0 0.1-0.1 11.399955-7.59997 26.899895-4.499982 34.499865 6.999973l129.399495 203.499205 129.199495-203.499205c7.59997-11.399955 22.99991-14.599943 34.499865-6.999973 11.699954 7.099972 15.39994 22.399913 8.299968 34.199867 0 0 0 0.1-0.1 0.099999l-123.699516 194.499241h84.899668c13.699946 0.299999 24.599904 11.599955 24.399905 25.3999v0.2c0.399998 13.699946-10.399959 25.199902-24.099906 25.5999H534.646912v85.699665h102.2996c13.699946 0.299999 24.599904 11.599955 24.399905 25.399901v0.199999c0.399998 13.699946-10.399959 25.199902-24.099906 25.5999H534.646912v141.999445c-1.999992 13.999945-14.899942 23.699907-28.899888 21.699915-11.299956-1.599994-20.099921-10.399959-21.699915-21.699915h0.1z" fill="#FFFFFF" p-id="4487"></path></svg>