<?xml version="1.0" standalone="no"?><!DOCTYPE svg PUBLIC "-//W3C//DTD SVG 1.1//EN" "http://www.w3.org/Graphics/SVG/1.1/DTD/svg11.dtd"><svg t="1590733329500" class="icon" viewBox="0 0 1024 1024" version="1.1" xmlns="http://www.w3.org/2000/svg" p-id="4363" xmlns:xlink="http://www.w3.org/1999/xlink" width="32" height="32"><defs><style type="text/css"></style></defs><path d="M645.7 176.3C791.5 176 909.9 294 910.2 439.8v370.8c0 14.1-11.4 25.6-25.6 25.6H139.3c-14.1 0-25.6-11.4-25.6-25.6V441c-0.3-145.8 117.6-264.3 263.4-264.6h268.6m0-57H381.1C203.4 118 58.2 260.9 56.8 438.6v372c0 45.6 36.9 82.5 82.5 82.5h745.3c45.6 0 82.5-36.9 82.5-82.5V441C967.3 263.6 823.6 119.7 646.3 119.6h-0.6v-0.2z" fill="#999999" p-id="4364"></path><path d="M995.5 384.1H28.4c-15.7 0-28.4-12.8-28.4-28.5s12.7-28.4 28.4-28.4h967.1c15.7 0 28.4 12.8 28.4 28.5 0 15.6-12.7 28.3-28.4 28.4zM853.3 1009.8H170.6c-15.7 0-28.5-12.7-28.5-28.5 0-15.7 12.7-28.5 28.5-28.5H853.3c15.7 0 28.5 12.7 28.5 28.5-0.1 15.8-12.8 28.5-28.5 28.5zM568.8 71.2H455c-14.8 0.9-27.6-10.4-28.5-25.2-0.1-1.1-0.1-2.2 0-3.2-0.9-14.8 10.4-27.6 25.2-28.5 1.1-0.1 2.2-0.1 3.3 0h113.8c14.8-0.9 27.6 10.4 28.5 25.2 0.1 1.1 0.1 2.2 0 3.2 0.9 14.8-10.4 27.6-25.2 28.4-1.1 0.1-2.2 0.1-3.3 0.1z" fill="#999999" p-id="4365"></path></svg>