<?xml version="1.0" standalone="no"?><!DOCTYPE svg PUBLIC "-//W3C//DTD SVG 1.1//EN" "http://www.w3.org/Graphics/SVG/1.1/DTD/svg11.dtd"><svg t="1590048642112" class="icon" viewBox="0 0 1024 1024" version="1.1" xmlns="http://www.w3.org/2000/svg" p-id="4858" xmlns:xlink="http://www.w3.org/1999/xlink" width="48" height="48"><defs><style type="text/css"></style></defs><path d="M623.25335 562.273447c149.092429-61.596872 220.088824-232.388199 158.691942-381.480628-61.596872-149.092429-232.288204-220.088824-381.380633-158.691941-149.092429 61.596872-220.188819 232.288204-158.691942 381.380633 29.698492 71.896349 86.795592 128.99345 158.691942 158.691941-202.789702 49.897466-345.282466 231.688235-345.082476 440.477632 0 10.099487 8.199584 18.299071 18.29907 18.299071s18.299071-8.199584 18.299071-18.299071c0-231.888224 187.990454-419.978673 419.978673-419.978673s419.978673 187.990454 419.978673 419.978673c0 10.099487 8.199584 18.299071 18.299071 18.299071s18.299071-8.199584 18.29907-18.299071c-0.19999-208.789397-142.692754-390.580166-345.382461-440.377637z m-366.981364-269.486315c-0.39998-141.19283 113.694226-255.987001 254.787062-256.38698s255.987001 113.694226 256.38698 254.887056c0.39998 141.19283-113.694226 255.987001-254.887056 256.38698h-0.79996c-140.592861-0.299985-254.687067-114.094206-255.487026-254.887056z" fill="#101D37" p-id="4859"></path><path d="M493.859921 731.164871c9.199533 9.599513 12.699355 23.398812 9.099538 36.198161l-63.496775 167.291505 77.996039 53.497283 77.996039-53.497283-63.496775-167.291505a31.548398 31.548398 0 0 1 9.099537-36.198161l32.598345-30.998426h-112.494287l32.698339 30.998426z m-25.39871-65.596669h108.794475c17.799096-0.099995 32.398355 14.199279 32.49835 32.09837 0 0.799959 0 1.699914-0.099995 2.399878-0.099995 9.199533-4.099792 17.899091-10.999441 24.198771l-32.598345 32.898329 63.59677 167.19151c5.199736 14.599259 0 30.798436-12.699355 39.697984l-77.996039 53.497284c-13.19933 8.599563-30.298461 8.599563-43.497791 0l-77.996039-53.497284c-12.699355-8.799553-17.899091-25.098725-12.699355-39.697984l63.59677-167.291505-32.598345-30.998425c-13.299325-11.799401-14.599259-32.29836-2.699862-45.597685 0.899954-0.999949 1.799909-1.899904 2.699862-2.699863 9.099538-7.899599 20.698949-12.299375 32.798335-11.999391v-0.199989z" fill="#F04531" p-id="4860"></path></svg>