<?xml version="1.0" standalone="no"?><!DOCTYPE svg PUBLIC "-//W3C//DTD SVG 1.1//EN" "http://www.w3.org/Graphics/SVG/1.1/DTD/svg11.dtd"><svg t="1591931129891" class="icon" viewBox="0 0 1024 1024" version="1.1" xmlns="http://www.w3.org/2000/svg" p-id="6653" xmlns:xlink="http://www.w3.org/1999/xlink" width="32" height="32"><defs><style type="text/css"></style></defs><path d="M552.69945 1022.793v-51.2h5.8l176.4-774.3v-25.6h127.5c89.1 0.5 161.2 72.6 161.7 161.7v529.1c0.1 88.2-71.3 159.9-159.5 160h-0.5l-311.4 0.3z" fill="#FFFFFF" opacity=".5" p-id="6654"></path><path d="M751.79945 163.593c-6.8-103.8-81.6-159.9-182-161.6-108.9-1.7-217.8 0-325 0-93.6 0-192.2 0-231.4 105.5-22.1 59.6-10.2 136.1-10.2 199v353.9c-4.5 74.3-4 148.7 1.7 222.9 18.7 125.9 129.3 139.5 231.4 139.5h515.5v-340.3c0-171.7 12-347.1 0-518.9z m-612.5 153.1c0.6-9.1 7.9-16.4 17-17h263.8c9.1 0.6 16.4 7.9 17 17v17c-0.6 9.1-7.9 16.4-17 17h-263.7c-9.1-0.6-16.4-7.9-17-17v-17z m442.4 450.9c-0.6 9.1-7.9 16.4-17 17h-408.3c-9.1-0.6-16.4-7.9-17-17v-17c0.6-9.1 7.9-16.4 17-17h408.3c9.1 0.6 16.4 7.9 17 17v17z m0-216.1c-0.6 9.1-7.9 16.4-17 17h-408.3c-9.1-0.6-16.4-7.9-17-17v-17c0.6-9.1 7.9-16.4 17-17h408.3c9.1 0.6 16.4 7.9 17 17v17z" fill="#FFFFFF" p-id="6655"></path></svg>