<?xml version="1.0" standalone="no"?><!DOCTYPE svg PUBLIC "-//W3C//DTD SVG 1.1//EN" "http://www.w3.org/Graphics/SVG/1.1/DTD/svg11.dtd"><svg t="1591069611038" class="icon" viewBox="0 0 1024 1024" version="1.1" xmlns="http://www.w3.org/2000/svg" p-id="4330" xmlns:xlink="http://www.w3.org/1999/xlink" width="48" height="48"><defs><style type="text/css"></style></defs><path d="M289.8 995.8c-29.8 15.6-65.8 13.7-93.9-4.9-25.2-20.2-38.2-52-34.6-84l39.5-232.1c0-9.8 0-19.7-9.8-24.6l-168-173c-20.7-24.7-28-57.9-19.5-89 11.2-30.4 37.3-52.9 69.1-59.4l237-34.6c9.8 0 19.7-4.9 19.7-14.7L433 67.1c21.2-43.6 73.8-61.7 117.4-40.5 17.6 8.6 31.9 22.8 40.5 40.5l103.8 212.4c3.7 7.9 11.1 13.4 19.7 14.8l237 34.6c32.5 4.9 59.3 27.9 69.1 59.3 8.4 31.1 1.1 64.3-19.7 88.9L833.2 645c-6.1 6.7-9.6 15.5-9.8 24.6l39.4 232.2c4.6 32.2-8.7 64.4-34.6 84-28 18.9-64.1 20.8-93.9 4.9L521.9 881.9c-7.4-5-17.2-5-24.6 0L290 995.5l-0.2 0.3z" fill="#ffffff" p-id="4331"></path></svg>