<?xml version="1.0" standalone="no"?><!DOCTYPE svg PUBLIC "-//W3C//DTD SVG 1.1//EN" "http://www.w3.org/Graphics/SVG/1.1/DTD/svg11.dtd"><svg t="1590047815666" class="icon" viewBox="0 0 1024 1024" version="1.1" xmlns="http://www.w3.org/2000/svg" p-id="3768" xmlns:xlink="http://www.w3.org/1999/xlink" width="48" height="48"><defs><style type="text/css"></style></defs><path d="M51.3 1024C23 1024 0.1 1001.1 0.1 972.8s22.9-51.2 51.2-51.2h921.4c28.3 0 51.2 22.9 51.2 51.2s-22.9 51.2-51.2 51.2H51.3z m51.2-102.4V115.4C106.6 48.1 164.2-3.4 231.5 0.2h305c67.3-3.6 124.9 47.9 129 115.2v806.3h-563z m133.1-512.4c2.9 26.5 26.5 45.9 53 43.5h212.2c26.6 2.3 50.2-17 53-43.5-2.8-26.5-26.5-45.9-53-43.5H288.6c-26.5-2.3-50.1 17-53 43.5z m0-192.1c3.7 25.7 27.3 43.8 53 41h212.2c25.9 2.9 49.3-15.2 53-41-3.7-25.7-27.3-43.9-53-41H288.6c-25.8-2.8-49.3 15.3-53 41z" fill="#FFFFFF" p-id="3769"></path><path d="M925.407 921.6v-389c-1.7-56.6-41.3-104.9-96.5-117.7l-210.7-56.3v563.1h307.2z" fill="#FFFFFF" opacity=".5" p-id="3770"></path></svg>