<?xml version="1.0" standalone="no"?><!DOCTYPE svg PUBLIC "-//W3C//DTD SVG 1.1//EN" "http://www.w3.org/Graphics/SVG/1.1/DTD/svg11.dtd"><svg t="1590733385754" class="icon" viewBox="0 0 1024 1024" version="1.1" xmlns="http://www.w3.org/2000/svg" p-id="5548" xmlns:xlink="http://www.w3.org/1999/xlink" width="32" height="32"><defs><style type="text/css"></style></defs><path d="M284.844 247.2c26.8 0 48.6-21.7 48.6-48.6s-21.7-48.6-48.6-48.6-48.6 21.7-48.6 48.6c0.3 26.8 21.9 48.4 48.6 48.6z m0-70.6c12.1 0 21.9 9.8 21.9 21.9 0 12.1-9.8 21.9-21.9 21.9-12.1 0-21.9-9.8-21.9-21.9-0.6-11.5 8.2-21.3 19.7-21.9 0.7-0.1 1.5-0.1 2.2 0z m0 207.4c-30.9 0-53 17.7-53 39.7v286.9c0 21.9 21.9 39.7 53 39.7s53-17.7 53-39.7V423.8c-0.1-22.1-22.2-39.8-53-39.8z m26.5 326.7c0 4.4-8.8 13.2-26.5 13.2s-26.5-8.8-26.5-13.2V423.8c0-4.4 8.8-13.2 26.5-13.2s26.5 8.8 26.5 13.2v286.9z" fill="#999999" p-id="5549"></path><path d="M818.844 0h-618.1c-48.7 0.1-88.1 39.6-88.3 88.3v847.5c0.2 48.7 39.7 88.2 88.4 88.2h622.4c48.7-0.1 88.1-39.6 88.3-88.3V88.3c-3.7-48.9-43.8-87-92.7-88.3z m-618.1 26.5h618.1c31.4 0.6 56.8 25.9 57.4 57.4v229.5h-732.8V88.3c-1.3-32.8 24.2-60.5 57-61.8h0.4-0.1z m618.1 966.6h-618.1c-31.4-0.6-56.8-25.9-57.4-57.4V344.3h732.7v591.5c-0.6 31.3-25.8 56.7-57.2 57.3z" fill="#999999" p-id="5550"></path></svg>