<?xml version="1.0" standalone="no"?><!DOCTYPE svg PUBLIC "-//W3C//DTD SVG 1.1//EN" "http://www.w3.org/Graphics/SVG/1.1/DTD/svg11.dtd"><svg t="1590047826226" class="icon" viewBox="0 0 1024 1024" version="1.1" xmlns="http://www.w3.org/2000/svg" p-id="4011" xmlns:xlink="http://www.w3.org/1999/xlink" width="48" height="48"><defs><style type="text/css"></style></defs><path d="M488.801868 898.928332c-19.298446 0-37.896948-7.799372-51.595845-21.498269L217.423721 656.747834C107.232595 546.856683 74.335244 381.070033 134.230421 237.481596 193.625638 93.593183 334.014333-0.299256 489.601804 0.00072c155.587471-0.299976 295.976166 93.692455 355.371383 237.480876 59.795185 143.688429 26.897834 309.375087-83.393285 419.266238L541.697609 877.430063c-13.598905 13.798889-32.097415 21.498269-51.595846 21.498269h-1.699863 0.399968z m-2.099831-644.348113c-70.294339 0-127.389742 56.99541-127.389741 127.389742 0 70.294339 56.99541 127.389742 127.389741 127.389742S613.991787 452.2643 613.991787 381.869969s-56.895418-127.28975-127.28975-127.28975z" fill="#FFFFFF" p-id="4012"></path><path d="M524.213017 667.84694h334.773041c30.497544-1.799855 58.995249 15.098784 72.094195 42.59657l87.492954 234.58111c5.099589 15.998712 2.599791 33.497303-6.899444 47.396183-10.399163 14.998792-26.097898 25.297963-43.996457 29.197649-7.599388 1.799855-15.39876 2.399807-23.198132 1.999839h-870.629891l-0.299976 0.299976c-34.797198 1.699863-65.094758-23.298124-70.494323-57.695354-0.599952-6.699461 0.099992-13.298929 1.999839-19.698414l87.79293-235.181062c12.898961-27.397794 40.796715-44.496417 70.994283-43.796473h545.956036" fill="#FFFFFF" opacity=".5" p-id="4013"></path></svg>