<?xml version="1.0" standalone="no"?><!DOCTYPE svg PUBLIC "-//W3C//DTD SVG 1.1//EN" "http://www.w3.org/Graphics/SVG/1.1/DTD/svg11.dtd"><svg t="1589335862432" class="icon" viewBox="0 0 1024 1024" version="1.1" xmlns="http://www.w3.org/2000/svg" p-id="2882" xmlns:xlink="http://www.w3.org/1999/xlink" width="32" height="32"><defs><style type="text/css"></style></defs><path d="M883.4 911.01H140.6c-17-1.5-29.6-16.3-28.6-33.3v-332.5c-1.1-17 11.6-31.7 28.6-33.3h742.7c17 1.5 29.6 16.3 28.6 33.3v332.5c1.1 17-11.6 31.8-28.5 33.3z m-742.8-365.8v332.5h742.7v-332.5H140.6z" fill="#101D37" p-id="2883"></path><path d="M738.9 909.31H285.1c-17.5-0.9-31-15.8-30.3-33.3v-522.2c-0.1-9.4 3.7-18.5 10.6-24.9l228.5-209.4c11.2-10 28.1-10 39.3 0l225.3 209.5c7.2 6.3 11.1 15.4 10.6 24.9v522c0.7 17.6-12.8 32.5-30.2 33.4z m-462.8-568.7l9.1 13.3v522.1h453.7v-522.2l-225.4-209.4-228.4 209.4-9-13.3v0.1z" fill="#101D37" p-id="2884"></path><path d="M526.3 420.91c-39.4 0-71.4-32-71.4-71.4s32-71.4 71.4-71.4c39.4 0 71.4 32 71.4 71.4-0.3 39.3-32.1 71.1-71.4 71.4z m0-116.8c-25.1 0-45.5 20.3-45.5 45.5 0 25.1 20.3 45.5 45.5 45.5 25.1 0 45.5-20.3 45.5-45.5-0.4-25.1-20.5-45.2-45.5-45.5zM576.3 911.91h-100c-26.6 1-49-19.8-50-46.5V703.01c0-26.6 21.6-48.2 48.3-48.2h101.7c26.6-1 49 19.8 50 46.5V863.71c0 26.6-21.6 48.3-48.2 48.3-0.7-0.1-1.2-0.1-1.8-0.1z m-100-225c-8.5-0.7-16 5.7-16.6 14.2 0 0.6-0.1 1.2 0 1.9v160.7c-0.4 8.5 6.3 15.8 14.8 16.1h101.8c8.5 0.7 16-5.7 16.6-14.3 0-0.6 0.1-1.2 0-1.8v-160.8c0.4-8.5-6.3-15.7-14.8-16.1H476.3z" fill="#101D37" p-id="2885"></path></svg>