<?xml version="1.0" standalone="no"?><!DOCTYPE svg PUBLIC "-//W3C//DTD SVG 1.1//EN" "http://www.w3.org/Graphics/SVG/1.1/DTD/svg11.dtd"><svg t="1590733390523" class="icon" viewBox="0 0 1024 1024" version="1.1" xmlns="http://www.w3.org/2000/svg" p-id="5679" xmlns:xlink="http://www.w3.org/1999/xlink" width="32" height="32"><defs><style type="text/css"></style></defs><path d="M894.215936 1023.965001h-764.473871c-34.198831-1.599945-60.697925-30.598954-59.197976-64.797785v-894.369431c-1.499949-34.198831 24.999146-63.19784 59.197976-64.797785h764.473871c34.198831 1.599945 60.697925 30.598954 59.197977 64.797785v894.369431c1.499949 34.298828-24.999146 63.19784-59.197977 64.797785z m-764.473871-988.666208c-14.599501 1.699942-25.199139 14.799494-23.799186 29.498992v894.469428c-1.399952 14.699498 9.199686 27.699053 23.799186 29.498991h764.473871c14.599501-1.699942 25.199139-14.799494 23.799187-29.498991v-894.469428c1.399952-14.699498-9.199686-27.699053-23.799187-29.498992h-764.473871z" fill="#999999" p-id="5680"></path><path d="M70.644085 176.593964h847.471034v35.298794h-847.471034v-35.298794z m776.773451-35.298793h-105.896381c-9.699668 0-17.599398-7.89973-17.599398-17.599399 0-9.699668 7.89973-17.599398 17.599398-17.599398h105.996377c9.699668 0 17.599398 7.89973 17.599399 17.599398 0 9.699668-7.89973 17.599398-17.699395 17.599399z m-635.77827 0h-35.298793c-9.699668 0-17.599398-7.89973-17.599399-17.599399 0-9.699668 7.89973-17.599398 17.599399-17.599398h35.298793c9.699668 0 17.599398 7.89973 17.599399 17.599398 0.099997 9.699668-7.799733 17.599398-17.599399 17.599399z m105.996377 0h-35.298793c-9.699668 0-17.599398-7.89973-17.599399-17.599399 0-9.699668 7.89973-17.599398 17.599399-17.599398h35.298793c9.699668 0 17.599398 7.89973 17.599399 17.599398 0.099997 9.699668-7.89973 17.599398-17.599399 17.599399z m105.996377 0h-35.298793c-9.699668 0-17.599398-7.89973-17.599399-17.599399 0-9.699668 7.89973-17.599398 17.599399-17.599398h35.298793c9.699668 0 17.599398 7.89973 17.599399 17.599398 0 9.699668-7.89973 17.599398-17.599399 17.599399zM510.929037 846.271075c-135.395372 0-245.191619-109.896244-245.091623-245.291616 0-135.395372 109.896244-245.191619 245.291616-245.091623 135.395372 0 245.191619 109.796247 245.091623 245.191619-0.099997 135.395372-109.896244 245.091623-245.291616 245.19162z m0-455.184442c-115.896039 0-209.792829 93.996787-209.79283 209.992822s93.996787 209.792829 209.992823 209.79283c115.896039 0 209.792829-93.996787 209.792829-209.79283-0.199993-115.896039-94.096784-209.692833-209.992822-209.792829v-0.199993z" fill="#999999" p-id="5681"></path><path d="M511.929002 906.269024c-168.994224 0-305.989541-137.095314-305.889544-306.089538 0-168.994224 137.095314-305.989541 306.089538-305.889545 168.994224 0 305.889545 136.995318 305.889544 305.989542-0.199993 168.894227-137.095314 305.789548-306.089538 305.989541z m0-576.680289c-149.49489 0-270.690748 121.195858-270.690747 270.790744 0 149.49489 121.195858 270.690748 270.790744 270.690748 149.49489 0 270.690748-121.195858 270.690748-270.690748-0.199993-149.594887-121.295854-270.690748-270.790745-270.790744z" fill="#999999" p-id="5682"></path></svg>