<?xml version="1.0" standalone="no"?><!DOCTYPE svg PUBLIC "-//W3C//DTD SVG 1.1//EN" "http://www.w3.org/Graphics/SVG/1.1/DTD/svg11.dtd"><svg t="1591317761390" class="icon" viewBox="0 0 1024 1024" version="1.1" xmlns="http://www.w3.org/2000/svg" p-id="6284" xmlns:xlink="http://www.w3.org/1999/xlink" width="48" height="48"><defs><style type="text/css"></style></defs><path d="M36.12722 706.4h209.8c17.3-2.5 33.4 9.6 35.8 26.9 0.4 3 0.4 6 0 8.9v245.2c2.5 17.3-9.6 33.4-26.9 35.8-3 0.4-6 0.4-8.9 0h-209.8c-17.3 2.5-33.4-9.6-35.8-26.9-0.4-3-0.4-6 0-8.9V742.3c-2.5-17.3 9.6-33.4 26.9-35.8 2.9-0.5 5.9-0.5 8.9-0.1zM413.12722 589h197.8c20.3-2.9 39.1 11.2 42 31.5 0.5 3.5 0.5 7 0 10.5v350.4c2.9 20.3-11.2 39.1-31.5 42-3.5 0.5-7 0.5-10.5 0h-197.8c-20.3 2.9-39.1-11.2-42-31.5-0.5-3.5-0.5-7 0-10.5V631c-2.9-20.3 11.2-39.1 31.5-42 3.5-0.5 7.1-0.5 10.5 0zM974.72722 448.1h-183.2c-26.7-0.4-48.7 20.8-49.3 47.5v480.5c0.6 26.7 22.6 47.9 49.3 47.5h183.2c26.7 0.4 48.7-20.8 49.3-47.5V495.5c-0.7-26.7-22.7-47.8-49.3-47.4z" fill="#FFFFFF" p-id="6285"></path><path d="M1023.72722 220V0.3h-220l74 74.2-247.1 247.4-194.8-195.1c-1.4-1.8-3-3.5-4.6-5.1l-0.7-0.7c-21.3-21.3-55.8-21.3-77.1 0l-337.2 337.8c-21.2 21.4-21.2 55.8 0 77.2l0.7 0.7c21.3 21 55.5 21 76.8 0l298-298.4 195.6 195.9 2.3 2.1 1 1.1 2.1 2.1c20.9 20.7 54.6 20.7 75.5 0l286.8-287.7 68.7 68.2z m0 0.3z" fill="#FFFFFF" opacity=".5" p-id="6286"></path></svg>