<?xml version="1.0" standalone="no"?><!DOCTYPE svg PUBLIC "-//W3C//DTD SVG 1.1//EN" "http://www.w3.org/Graphics/SVG/1.1/DTD/svg11.dtd"><svg t="1590723126970" class="icon" viewBox="0 0 1024 1024" version="1.1" xmlns="http://www.w3.org/2000/svg" p-id="4102" xmlns:xlink="http://www.w3.org/1999/xlink" width="32" height="32"><defs><style type="text/css"></style></defs><path d="M513.601 30.707c-282.4 0-513.6 195.1-513.6 437.2 4.6 150.3 87.8 287.1 219.2 360.4v135.7c-1.2 15.1 10.2 28.3 25.3 29.3 0.5 0 1.2 0.1 1.7 0.1 5-0.6 10-1.7 14.8-2.8l141.1-91.5c35.7 5.9 71.9 9 108.2 9.1 282.5 0 513.7-195.1 513.7-437.3 3.3-245-227.8-440.2-510.4-440.2z m-231.6 507.9c-32.5-0.5-58.5-27.3-58-59.8s27.3-58.5 59.8-58c32.3 0.5 58.1 26.8 58 59-0.4 32.7-27.1 58.9-59.8 58.8z m264.5-5.6a54.547 54.547 0 0 1-59.8 0c-18-11.8-29.3-31.6-30-53.3 0-33 26.8-59.9 59.9-59.9 33 0 59.9 26.8 59.9 59.9 0.1 21.8-11.3 42-30 53.3z m195.2 5.6c-32.5-0.5-58.5-27.3-58-59.8s27.3-58.5 59.8-58c32.3 0.5 58.1 26.8 58 59-0.4 32.7-27.1 58.9-59.8 58.8z" fill="#F04531" p-id="4103"></path></svg>