<?xml version="1.0" standalone="no"?><!DOCTYPE svg PUBLIC "-//W3C//DTD SVG 1.1//EN" "http://www.w3.org/Graphics/SVG/1.1/DTD/svg11.dtd"><svg t="1590047820709" class="icon" viewBox="0 0 1024 1024" version="1.1" xmlns="http://www.w3.org/2000/svg" p-id="3889" xmlns:xlink="http://www.w3.org/1999/xlink" width="48" height="48"><defs><style type="text/css"></style></defs><path d="M358.4603 716.359269h307.195398v307.195398h-307.195398z" fill="#FFFFFF" opacity=".5" p-id="3890"></path><path d="M387.459866 1023.954661h-254.096194c-46.199308 1.499978-85.098725-34.399485-86.998697-80.598793v-414.893785c11.099834-0.999985 21.599676-6.099909 29.39956-14.199787l433.193511-408.093886 431.19354 406.49391c8.69987 8.199877 20.199697 12.69981 32.099519 12.69981 1.799973 0 3.599946-0.099999 5.399919-0.299996v418.393733c-0.099999 21.699675-9.299861 42.499363-25.599616 56.899147-16.899747 15.199772-38.799419 23.499648-61.39908 23.499648h-260.196103v-242.496367c-1.699975-32.599512-29.199563-57.799134-61.799074-56.699151h-119.698207c-32.599512-0.999985-59.999101 24.399634-61.39908 57.099145l-0.099998 242.196372z" fill="#FFFFFF" p-id="3891"></path><path d="M1009.450548 445.663324l-459.593115-433.193511c-20.999685-16.599751-50.699241-16.599751-71.598928 0l-461.593085 434.693488c-13.199802 10.999835-19.099714 28.399575-15.399769 45.199323 3.799943 16.799748 16.499753 30.099549 33.099504 34.499483 16.599751 4.599931 34.399485-0.299996 46.299307-12.699809l433.19351-408.093887 430.993544 406.493911c18.799718 17.499738 48.199278 16.799748 66.099009-1.799973 17.599736-18.299726 16.999745-47.39929-1.499977-65.099025 0 0-0.099999 0 0 0z" fill="#FFFFFF" opacity=".5" p-id="3892"></path></svg>