<?xml version="1.0" standalone="no"?><!DOCTYPE svg PUBLIC "-//W3C//DTD SVG 1.1//EN" "http://www.w3.org/Graphics/SVG/1.1/DTD/svg11.dtd"><svg t="1590740897893" class="icon" viewBox="0 0 1024 1024" version="1.1" xmlns="http://www.w3.org/2000/svg" p-id="6611" xmlns:xlink="http://www.w3.org/1999/xlink" width="32" height="32"><defs><style type="text/css"></style></defs><path d="M562.467 1021.634c-8.8-0.7-17.6-2.5-26-5.2-15.6-7.8-513-505.3-518.1-507.8l-2.6-2.6c-7.8-10.6-12.2-23.3-12.8-36.5l-2.9-406.4c0-31.8 25.8-57.6 57.6-57.6l388-2.6c20.4-2.6 41.1 3 57.4 15.7l140.7 138c75.5 75.5 114.6 114.6 361.9 359.3 11.9 11.7 18.4 27.6 18.2 44.3-0.5 15-7.1 29.1-18.2 39.1l-401 406.2c-11.6 10-26.3 15.6-41.6 15.6l-0.6 0.5z m-5.2-41.6c5.8 1.6 11.9-0.4 15.6-5.2l403.6-408.8c5.2-2.6 5.2-5.2 5.2-10.4-0.1-4.7-2-9.3-5.2-12.8-244.8-244.8-286.5-283.9-361.9-359.4l-140.7-138c-5.2-5.2-12.8-5.2-28.7-5.2h-10.4l-380.2 2.6c-7.6-1.1-14.5 4.2-15.6 11.8-0.2 1.3-0.2 2.6 0 3.9l2.6 406.2c1 4.5 2.8 8.8 5.2 12.8 39.1 39.1 476.6 473.9 510.4 502.6l0.1-0.1z" fill="#FF9900" p-id="6612"></path><path d="M242.167 349.834c-60.4 0-109.4-49-109.4-109.4s49-109.4 109.4-109.4c60.4 0 109.4 49 109.4 109.4-0.3 60.3-49.1 109-109.4 109.4z m0-177.1c-37.4 0-67.7 30.3-67.7 67.7s30.3 67.7 67.7 67.7c37.4 0 67.7-30.3 67.7-67.7-0.6-37.1-30.5-67.1-67.7-67.7z m309.9 630.2c-22.2 0.1-43.6-8.2-59.9-23.4-35.9-41.7-31.3-104.7 10.4-140.7 34.3-40.9 95.2-46.3 136.1-12 0.6 0.5 1.3 1.1 1.9 1.6 16.3 14.7 25.8 35.6 26 57.6-0.6 30.2-12.7 59.1-33.8 80.7-21.6 21.5-50.3 34.5-80.7 36.5v-0.3z m26.1-156.3c-18.4 1.2-35.8 8.5-49.5 20.9-23.2 20.5-27.7 55-10.4 80.7 25.4 18.7 60.9 14.1 80.7-10.4 14.5-13.5 22.9-32.3 23.4-52.1-0.2-10.9-4.8-21.2-12.8-28.7-9.1-6.5-19.9-10.1-31.1-10.4h-0.3z m-41.7-125c-22.2 0.1-43.6-8.2-59.9-23.4-35.9-41.7-31.3-104.7 10.4-140.7 34.3-40.9 95.2-46.3 136.1-12 0.6 0.5 1.3 1.1 1.9 1.6 18.7 18.4 28.2 44.2 26 70.4-3.6 26.4-15.5 51-33.8 70.4-22.4 19.8-50.8 31.7-80.7 33.7z m26.1-156.2c-18.4 1.2-35.8 8.5-49.5 20.9-23.2 20.5-27.7 55-10.4 80.7 25.4 18.7 60.9 14.1 80.7-10.4 25.1-18.5 30.3-53.8 11.8-78.9-0.5-0.6-0.9-1.2-1.4-1.8-9.2-6.6-20-10.3-31.2-10.5z m-216.2 250c-10.4-0.4-19.1-8-20.9-18.2-1.8-11.1 5.7-21.5 16.8-23.2 0.5-0.1 0.9-0.1 1.4-0.2l422.1-67.7c11.5-1.4 22 6.7 23.4 18.2 1.4 11.5-6.7 22-18.2 23.4l-422.1 67.7h-2.5z" fill="#FF9900" p-id="6613"></path></svg>