<?xml version="1.0" standalone="no"?><!DOCTYPE svg PUBLIC "-//W3C//DTD SVG 1.1//EN" "http://www.w3.org/Graphics/SVG/1.1/DTD/svg11.dtd"><svg t="1590733379322" class="icon" viewBox="0 0 1024 1024" version="1.1" xmlns="http://www.w3.org/2000/svg" p-id="5416" xmlns:xlink="http://www.w3.org/1999/xlink" width="32" height="32"><defs><style type="text/css"></style></defs><path d="M853.272262 955.664331h-682.574523c-50.198126-0.199993-90.796611-40.798477-90.996604-90.996604v-773.671123c0.199993-50.198126 40.798477-90.796611 90.996604-90.996604h682.574523c50.198126 0.199993 90.796611 40.798477 90.996604 90.996604v773.571127c-0.099996 50.198126-40.798477 90.896607-90.996604 91.0966z m-684.774441-909.86604c-24.999067 0.099996-45.198313 20.299242-45.398306 45.198313v773.571127c0.099996 25.099063 20.399239 45.398306 45.498302 45.498301h682.474527c25.099063-0.099996 45.398306-20.399239 45.498302-45.498301v-773.571127c-0.099996-25.099063-20.399239-45.398306-45.498302-45.498302h-682.574523v0.299989z" fill="#999999" p-id="5417"></path><path d="M102.500284 682.67452h796.27028v45.498302h-796.27028v-45.498302z" fill="#999999" p-id="5418"></path><path d="M489.285848 22.899145h45.398305v682.574524h-45.498301l0.099996-682.574524zM384.589755 455.183011c-11.79956 0.699974-21.999179-8.29969-22.799149-20.09925-0.099996-0.899966-0.099996-1.799933 0-2.599903v-113.795753c-0.499981-12.59953 9.299653-23.199134 21.799187-23.699115 12.59953-0.499981 23.199134 9.299653 23.699115 21.799186v115.595686c0.699974 11.79956-8.29969 21.999179-20.09925 22.799149h-2.599903z m250.290659 0c-11.79956 0.699974-21.999179-8.29969-22.799149-20.09925-0.099996-0.899966-0.099996-1.799933 0-2.599903v-113.795753c-0.499981-12.59953 9.299653-23.199134 21.799186-23.699115 12.59953-0.499981 23.199134 9.299653 23.699115 21.799186v115.595686c0.699974 11.79956-8.29969 21.999179-20.099249 22.799149h-2.599903zM566.582963 841.968574h-113.695757c-12.59953 0.499981-23.199134-9.299653-23.699115-21.799186-0.499981-12.59953 9.299653-23.199134 21.799186-23.699116h115.595686c12.59953 0.499981 22.299168 11.099586 21.799186 23.699116-0.399985 11.79956-9.899631 21.299205-21.799186 21.799186zM261.794339 1023.961781c-11.79956 0.699974-21.999179-8.29969-22.799149-20.099249-0.099996-0.899966-0.099996-1.799933 0-2.599903v-68.297451c0.499981-12.59953 11.099586-22.299168 23.699115-21.799187 11.899556 0.499981 21.399201 9.999627 21.799187 21.799187v68.297451c0 12.499533-10.199619 22.599157-22.699153 22.699152z m500.581316 0c-11.79956 0.699974-21.999179-8.29969-22.799149-20.099249-0.099996-0.899966-0.099996-1.799933 0-2.599903v-68.297451c-0.499981-12.59953 9.299653-23.199134 21.799186-23.699116 12.59953-0.499981 23.199134 9.299653 23.699116 21.799187v70.097383c0 12.59953-10.199619 22.799149-22.799149 22.799149h0.099996z" fill="#999999" p-id="5419"></path></svg>