<?xml version="1.0" standalone="no"?><!DOCTYPE svg PUBLIC "-//W3C//DTD SVG 1.1//EN" "http://www.w3.org/Graphics/SVG/1.1/DTD/svg11.dtd"><svg t="1589937797306" class="icon" viewBox="0 0 1024 1024" version="1.1" xmlns="http://www.w3.org/2000/svg" p-id="2974" xmlns:xlink="http://www.w3.org/1999/xlink" width="64" height="64"><defs><style type="text/css"></style></defs><path d="M0.037999 512.016999c0 282.79061 229.19239 511.983001 511.983 511.983001s511.983001-229.19239 511.983001-511.983001-229.19239-511.983001-511.983001-511.983-511.983001 229.19239-511.983 511.983z" fill="#F04531" p-id="2975"></path><path d="M214.330884 486.617843c-16.999436-18.499386-45.798479-19.799343-64.397862-2.799907-18.499386 16.999436-19.799343 45.798479-2.799907 64.397862 0.89997 0.999967 1.79994 1.899937 2.799907 2.799907l187.593771 187.593771c17.799409 17.799409 46.598453 17.799409 64.397862 0l428.785763-428.785763c18.499386-17.099432 19.599349-45.998473 2.499917-64.497859s-45.998473-19.599349-64.497859-2.499917c-0.89997 0.799973-1.79994 1.699944-2.599913 2.599914l-396.686829 396.786826-155.39484-155.294844 0.29999-0.29999z" fill="#FFFFFF" p-id="2976"></path></svg>