<?xml version="1.0" standalone="no"?><!DOCTYPE svg PUBLIC "-//W3C//DTD SVG 1.1//EN" "http://www.w3.org/Graphics/SVG/1.1/DTD/svg11.dtd"><svg t="1589182404077" class="icon" viewBox="0 0 1024 1024" version="1.1" xmlns="http://www.w3.org/2000/svg" p-id="2946" xmlns:xlink="http://www.w3.org/1999/xlink" width="64" height="64"><defs><style type="text/css"></style></defs><path d="M881.508 912.037c-8.1 0-15.9-3.2-21.7-9l-738.7-738.7c-12-12-12-31.4 0-43.4s31.4-12 43.4 0l738.7 738.9c11.9 12.1 11.7 31.6-0.4 43.5-5.7 5.5-13.4 8.7-21.3 8.7" fill="#CCCCCC" p-id="2947"></path><path d="M142.708 912.037c-16.9 0.1-30.7-13.6-30.7-30.5 0-8.2 3.2-16.1 9.1-21.9l738.8-738.8c12.1-11.8 31.5-11.6 43.4 0.5 11.7 11.9 11.6 31 0 42.9l-738.8 738.8c-5.8 5.8-13.6 9-21.8 9" fill="#CCCCCC" p-id="2948"></path></svg>