<?xml version="1.0" standalone="no"?><!DOCTYPE svg PUBLIC "-//W3C//DTD SVG 1.1//EN" "http://www.w3.org/Graphics/SVG/1.1/DTD/svg11.dtd"><svg t="1591250200601" class="icon" viewBox="0 0 1024 1024" version="1.1" xmlns="http://www.w3.org/2000/svg" p-id="5963" xmlns:xlink="http://www.w3.org/1999/xlink" width="32" height="32"><defs><style type="text/css"></style></defs><path d="M170.462 50.385h682.8c94.2 0.3 170.4 76.6 170.7 170.7v512.1c-0.3 94.2-76.6 170.4-170.7 170.7h-230.3l-73.9 56.9c-20.6 17.1-50.5 17.1-71.1 0l-73.9-56.9h-233.3c-94.2-0.3-170.4-76.6-170.7-170.7v-512.1c0.2-94.1 76.3-170.3 170.4-170.7z m28.5 85.3c-62.8 0.2-113.6 51-113.8 113.8v455.2c0.2 62.8 51 113.6 113.8 113.8h202c19.9 0 48.4 19.9 91 62.6 10.5 11 27.9 11.4 38.9 1 0.3-0.3 0.7-0.6 1-1 42.7-42.7 73.9-65.4 93.9-65.4h199.2c62.8-0.2 113.6-51 113.8-113.8v-455.2c-0.2-62.8-51-113.6-113.8-113.8l-626 2.8z" fill="#101D37" p-id="5964"></path><path d="M227.362 477.085c0 31.4 25.5 56.9 56.9 56.9s56.9-25.5 56.9-56.9-25.5-56.9-56.9-56.9-56.9 25.5-56.9 56.9z m227.6 0c0 31.4 25.5 56.9 56.9 56.9s56.9-25.5 56.9-56.9-25.5-56.9-56.9-56.9c-31.5 0-56.9 25.5-56.9 56.9z m227.5 0c0 31.4 25.5 56.9 56.9 56.9s56.9-25.5 56.9-56.9-25.5-56.9-56.9-56.9-56.8 25.5-56.9 56.9z" fill="#101D37" p-id="5965"></path></svg>