<?xml version="1.0" standalone="no"?><!DOCTYPE svg PUBLIC "-//W3C//DTD SVG 1.1//EN" "http://www.w3.org/Graphics/SVG/1.1/DTD/svg11.dtd"><svg t="1590565866189" class="icon" viewBox="0 0 1024 1024" version="1.1" xmlns="http://www.w3.org/2000/svg" p-id="3283" data-spm-anchor-id="a313x.7781069.0.i2" xmlns:xlink="http://www.w3.org/1999/xlink" width="32" height="32"><defs><style type="text/css"></style></defs><path d="M955.22053 256C813.82053 11.2 500.72053-72.6 255.92053 68.8S-72.67947 523.2 68.72053 768 523.22053 1096.6 768.02053 955.2c244.7-141.2 328.6-454.1 187.4-698.8 0-0.1-0.1-0.3-0.2-0.4zM762.02053 944.7c-239 138.1-544.8 56.2-682.9-182.8S22.92053 217.1 261.92053 79.1s544.8-56.2 682.9 182.8c137.9 239 56.1 544.6-182.8 682.8z" fill="#f9bbb4" opacity=".5" p-id="3284"></path><path d="M898.02053 289.2C774.92053 76 502.32053 2.9 289.22053 126 76.02053 249 2.92053 521.6 126.02053 734.8 249.02053 948 521.62053 1021 734.82053 898 947.92053 774.9 1020.92053 502.4 898.02053 289.2zM731.62053 892.8c-210.3 121.4-479.2 49.4-600.7-160.9C9.52053 521.6 81.52053 252.7 291.82053 131.2 502.02053 9.8 770.92053 81.8 892.42053 292c121.4 210.3 49.4 479.2-160.8 600.8z" fill="#f9bbb4" opacity=".5" p-id="3285"></path><path d="M316.42053 180c3.6-2 6 0.8 8.8 2.8 6 4.4 12.4 8.8 18.8 12.8 7.2-2.4 14.4-5.1 21.6-7.7 3.6-1.2 6-2.8 8.8 0.4 2.4 2.8 0.4 6.4-0.4 8.8-2 6.8-3.6 13.6-5.6 20.8 4.8 6 10 11.6 15.2 17.6 2.4 2.8 4.4 5.6 2.8 8.4-1.2 2.8-5.6 2.4-7.7 2.4l-22.4 0.8c-4.4 6.8-8.4 13.6-12.8 20-1.6 2.4-4 5.1-7.2 4-2.4-1.9-3.9-4.7-4.4-7.7l-7.2-20.5-25.2-6.4c-2.3-1.2-3.6-3.8-3.2-6.4 1.3-1.8 2.9-3.3 4.8-4.4 4-3.2 7.7-6.8 11.6-10 1.9-1.3 3.6-2.7 5.1-4.4-0.4-6.8-1.2-13.6-1.6-20.5-0.7-2.9-0.9-5.9-0.4-8.8-0.7-0.8-0.3-1.6 0.6-2zM193.52053 292.4c3.6-2 6 0.8 8.8 2.8 6.4 4.4 12.4 8.4 18.8 12.8 7.2-2.4 14.4-5.1 21.6-7.7 3.6-1.2 6-2.8 8.8 0.4 2.4 2.8 0.4 6.4-0.4 8.8-2 6.8-3.6 13.6-5.6 20.8 4.8 6 10 11.6 14.8 17.6 2.4 2.8 4.4 5.6 2.8 8.4-1.2 2.4-5.6 2.4-7.7 2.4l-22.4 0.8c-4.4 6.8-8.8 13.6-12.8 20-1.6 2.4-4 5.1-7.2 4-2.2-2-3.8-4.7-4.4-7.7l-7.2-20.5c-8.4-2-16.8-4.4-25.2-6.4-2.3-1.2-3.6-3.8-3.2-6.4 1.3-1.8 2.9-3.3 4.8-4.4 3.6-3.2 7.7-6.8 11.6-10 1.9-1.3 3.6-2.7 5.1-4.4-0.4-6.8-1.2-13.6-1.6-20.5-0.7-2.9-0.9-5.9-0.4-8.8-0.4-1.2 0-1.6 0.8-2.4l0.2 0.4zM470.02053 132.7c3.6-2 6 0.8 8.8 2.8 6.4 4.4 12.4 8.4 18.8 12.8 7.2-2.4 14.4-5.1 21.6-7.7 3.6-1.2 6-2.8 8.8 0.4 2.4 2.8 0.4 6.4-0.4 8.8-2 6.8-3.6 14-5.6 20.8 4.8 6 10 12 15.2 17.6 2.4 2.8 4.4 5.6 2.8 8.4-1.2 2.8-5.6 2.4-7.7 2.4l-22.4 0.8c-4.4 6.8-8.8 13.6-12.8 20-1.6 2.4-4 5.1-7.2 4-2.2-2-3.8-4.7-4.4-7.7l-7.2-20.5-25.2-6.4c-2.3-1.2-3.6-3.8-3.2-6.4 1.3-1.8 2.9-3.3 4.8-4.4 4-3.2 7.7-6.8 11.6-10 1.9-1.3 3.6-2.7 5.1-4.4-0.4-6.8-1.2-13.6-1.6-20.5-0.7-2.9-0.9-5.9-0.4-8.8-0.8-1.2-0.4-1.6 0.4-2.4l0.2 0.4z m142 29.6c3.6-2 6 0.8 8.8 2.8l18.8 12.8c7.2-2.4 14.4-5.1 21.6-7.7 3.6-1.2 6-2.8 8.8 0.4 2.4 2.8 0.4 6.4-0.4 8.8-2 6.8-3.6 14-5.6 20.8 4.8 6 10 12 15.2 17.6 2.4 2.8 4.4 5.6 2.8 8.4-1.2 2.8-5.6 2.4-7.7 2.4-7.7 0.4-15.2 0.8-22.4 0.8-4.4 6.8-8.4 13.2-12.8 20-1.6 2.4-4 5.1-7.2 4-2.4-1.9-3.9-4.7-4.4-7.7l-7.2-20.5c-8.4-2-16.8-4.4-25.2-6.4-2.3-1.2-3.6-3.8-3.2-6.4 1.3-1.8 2.9-3.3 4.8-4.4 4-3.2 7.7-6.8 11.6-10 1.9-1.3 3.6-2.7 5.1-4.4-0.4-6.8-1.2-13.6-1.6-20.5-0.7-2.9-0.9-5.9-0.4-8.8-0.5-1.1 0.2-1.5 0.6-2zM142.82053 433.2c3.6-2 6 0.8 8.8 2.8 6.4 4.4 12.4 8.4 18.8 12.8 7.2-2.4 14.4-5.1 21.6-7.7 3.6-1.2 6-2.8 8.8 0.4 2.4 2.8 0.4 6.4-0.4 8.8-2 6.8-4 14-5.6 20.8 4.8 6 10 11.6 15.2 17.6 2.4 2.8 4.4 5.6 2.8 8.4-1.2 2.8-5.6 2.4-7.7 2.4l-22.4 0.8c-4.4 6.8-8.8 13.6-12.8 20-1.6 2.4-4 5.1-7.2 4-2.2-2-3.8-4.7-4.4-7.7l-7.2-20.5-25.2-6.4c-2.3-1.2-3.6-3.8-3.2-6.4 1.3-1.8 2.9-3.3 4.8-4.4 3.6-3.2 7.7-6.8 11.6-10 1.9-1.3 3.6-2.7 5.1-4.4-0.4-6.8-1.2-13.6-1.6-20.5-0.7-2.9-0.9-5.9-0.4-8.8-0.7-0.8-0.3-1.5 0.6-2z m558.9 414.4c3.6-2.4 2.4-5.6 2-8.8l-1.6-22.4 17.2-14.8c2.8-2.4 5.1-4 4-7.7-1.2-3.2-5.6-3.6-7.7-4-6.8-2-14-3.6-20.8-5.6-2.8-7.2-5.1-14.4-7.7-21.6-1.2-3.6-2.8-6.4-5.6-6.8-2.8-0.4-4.8 3.6-5.6 5.1l-12 19.2-24 1.2c-2.8 0-6.8 0.8-6.8 4.4 0.5 3 2 5.7 4.4 7.7 4.8 5.6 9.2 11.2 14 16.4l-7.2 25.2c-0.3 2.7 1.4 5.2 4 6 2.2-0.1 4.4-0.7 6.4-1.6l14.4-4.8c2.1-0.8 4.2-1.5 6.4-2 5.6 4 11.2 7.7 16.8 11.6 2.2 2.1 4.8 3.6 7.7 4.4 0.5-1.1 0.8-1.1 1.6-1.1h0.1z m-158.8 50c3.6-2.4 2.4-5.6 2-8.8l-1.6-22.4 17.2-14.8c2.8-2.4 5.1-4 4-7.7-1.1-3.7-5.6-3.6-7.7-4-6.8-1.6-14-3.6-20.8-5.6l-7.7-22c-1.2-3.6-2.8-6.4-5.6-6.8-2.8-0.4-4.8 3.6-5.6 5.1l-12 19.2-24 1.2c-2.8 0-6.8 0.8-6.8 4.4 0.5 3 2 5.7 4.4 7.7 4.8 5.6 9.2 11.2 14 16.4l-7.2 25.2c-0.3 2.7 1.4 5.2 4 6 2.2-0.3 4.3-0.9 6.4-1.6l14.4-4.8c2-1 4.2-1.7 6.4-2 5.6 4 11.2 7.7 16.8 11.6 2.2 2.1 4.8 3.6 7.7 4.4 0.4-0.8 0.8-0.8 1.7-0.7zM819.42053 738c3.6-2.4 2.4-5.6 2-8.8l-1.6-22.4L837.02053 692c2.8-2.4 5.1-4 4-7.7-1.2-3.2-5.6-3.6-7.7-4-6.8-2-14-3.6-20.8-5.6-2.8-7.2-5.1-14.4-7.7-21.6-1.2-3.6-2.8-6.4-5.6-6.8-2.8-0.4-4.8 3.6-5.6 5.1l-12 19.2-24 1.2c-2.8 0-6.8 0.8-6.8 4.4 0.5 3 2 5.7 4.4 7.7 4.8 5.6 9.2 11.2 14 16.4l-7.2 25.2c-0.3 2.7 1.4 5.2 4 6 2.2-0.2 4.4-0.7 6.4-1.6l14.4-4.8c2.1-0.8 4.2-1.5 6.4-2 5.6 4 11.2 7.7 16.8 11.6 2.2 2.1 4.8 3.6 7.7 4.4 0-0.8 0.8-1.2 1.6-1.2l0.1 0.1zM865.02053 600.3c3.6-2.4 2.4-5.6 2-8.8l-1.6-22.4 17.2-14.8c2.8-2.4 5.1-4 4-7.7-1.2-3.2-5.6-3.6-7.7-4-6.8-1.6-14-3.6-20.8-5.6l-7.7-22c-1.2-3.6-2.8-6.4-5.6-6.8-2.8-0.4-4.8 3.6-5.6 5.1l-12 19.2-24 1.2c-2.8 0-6.8 0.8-6.8 4.4 0.5 3 2 5.7 4.4 7.7 4.8 5.6 9.2 11.2 14 16.4l-7.2 25.2c-0.3 2.7 1.4 5.2 4 6 2.2-0.3 4.3-0.9 6.4-1.6l14.4-4.8c2.1-0.8 4.2-1.5 6.4-2 5.6 4 11.2 7.7 16.8 11.6 2.2 2.1 4.8 3.6 7.7 4.4 0.2-0.7 0.6-0.7 1.4-0.7h0.3zM395.52053 871.2c3.6-2.4 2.4-5.6 2-8.8L396.02053 840l17.2-14.8c2.8-2.4 5.1-4 4-7.7-1.2-3.2-5.6-3.6-7.7-4-6.8-2-14-3.6-20.8-5.6-2.8-7.2-5.1-14.4-7.7-21.6-1.2-3.6-2.8-6.4-5.6-6.8-2.8-0.4-4.8 3.6-5.6 5.1l-12 19.2-24 1.2c-2.8 0-6.8 0.8-6.8 4.4 0.5 3 2 5.7 4.4 7.7 4.8 5.6 9.2 11.2 14 16.4l-7.2 25.2c-0.3 2.7 1.4 5.2 4 6 2.2-0.3 4.3-0.9 6.4-1.6l14.4-4.8c2.1-0.8 4.2-1.5 6.4-2 5.6 4 11.2 7.7 16.8 11.6 2.2 2.1 4.8 3.6 7.7 4.4 0.4-0.8 0.8-1.1 1.6-1.1z" fill="#f9bbb4" opacity=".5" p-id="3286"></path><path d="M179.52053 673l11.6-6.7 23.9 41.3c-8.5 9.1-17.6 17.6-27.2 25.6l14.4 15c7.9-7.8 15.3-15.8 22.6-23.6l29.1 50.3 17.7-10.2-32.7-56.7c3.4-4.3 6.9-8.8 10.5-13.4l-9.8-16.9c-3.2 4.6-6.7 9.2-10.4 13.6l-20.3-35.1 12.6-7.3-10-17.3-12.6 7.2-19.7-34.2-17.7 10.2 19.8 34.2-9.4 5.4c-3.2-6.7-6.6-13.5-10.1-20.2l-17.4 8.2c10.6 19.7 18.7 40.7 24.2 62.4l19.6-4.9c-2.5-9-5.4-18-8.7-26.9z m53.3-99.9l9.8 16.9-28.1 16.2 9.5 16.4 28.1-16.2 8.7 15.1-37.7 21.8 9.8 16.9 93.4-53.9-9.8-16.9-37.5 21.7-8.7-15.1 29.9-17.3-9.5-16.4-29.9 17.3-9.8-16.9-18.2 10.4zM245.62053 674l9.9 17.1 52.2-30.2 22 38c2.4 4.2 1.9 7.2-1.6 9.2-6.2 3.6-12.7 6.8-19.3 9.7l14.3 15.1 20.8-12c9.2-4 13.4-14.6 9.4-23.8-0.6-1.5-1.5-2.9-2.5-4.2l-24.7-42.7 17.7-10.2-9.8-17-17.7 10.2-5.8-10-18.4 10.6 5.8 10-52.3 30.2z m28 11.3l-8.9 17c11.8 4.3 23.2 9.6 34 15.8l8.6-18.3c-11-5.5-22.2-10.3-33.7-14.5z m88-94.4l52 90.1 18.2-10.5-69.3-120c-0.9-13.2-2.8-26.2-5.8-39.1l-21.4 1.8c7.5 28.9 9.1 59.1 4.6 88.7l17.2 15.9c1.9-9 3.4-18 4.5-26.9z m88.3-61.1L506.02053 627l17.5-10.1-56.1-97.2-17.5 10.1zM407.02053 555.2l14.7 25.4c14.9 21.7 20.1 48.6 14.3 74.3l20.5 4c6.6-30.6 0.3-62.6-17.3-88.5L424.52053 545 407.02053 555.2z m-13.4-73.4c2.3 30.8-3.5 61.7-16.8 89.5l18.9 9.6c12.5-27 18-56.8 16-86.5 25.4 16.1 54.5 25.1 84.5 26.2l1.3-21.3c-31.1-0.5-61.5-9.9-87.5-27l-16.4 9.5z m200 7.9c12 22.8 9.7 50.5-5.9 71l19 10c11.9-17.5 17.3-38.6 15.1-59.7l51-29.4c4.6 10 7.4 16 8.1 17.9 0.3 2.2-0.5 4.4-2 6-4.8 4.1-10 7.7-15.5 10.6-3.8 2.2-7.5 4.1-11.5 6l14.2 13.5 1.7-1c11-5.8 21.4-12.7 30.9-20.8 3.6-3.5 5.2-8.6 4.4-13.6-5.8-15.7-12.8-30.9-21.1-45.4L617.52053 492c-1.5-4.2-3.3-8.5-5.3-12.8l74.5-43-9.8-16.9-52.8 30.5c-4.2-4-8.2-7.7-11.8-10.9l-17.4 14.2c3.3 2.2 6.8 4.9 10.2 7.7l-46 26.6 9.8 16.9 24.7-14.6zM623.02053 386l9.5 16.4-96.7 55.8-9.5-16.4L623.02053 386z m-77.6 88.9l114.4-66.1L631.02053 359l-56.4 32.6c-4.4-4-8.5-7.5-12.5-10.8l-17.7 14.4c3.6 2.4 7.1 5 10.4 7.8l-56.5 32.6 36 62.4c15.9 25.3 24.6 54.4 25 84.3l20.5 4.3c0.3-34.9-9.1-69.3-27.2-99.1l-7.2-12.6z m119.5-147.6l-5.4 18.6c15.7 1.3 31.2 4.4 46.3 9l5.3-19.2c-15.2-4.1-30.7-6.9-46.2-8.4z m21.3 44.1l-5.4 18.6c14.9 1.4 29.5 4.6 43.7 9.4l5-19.3c-14.1-4.2-28.6-7.1-43.3-8.7z m42.6 38.6c4.6 24.8 7.5 49.8 8.8 74.9l21.1-2.1c-2.1-25.3-5.7-50.5-10.8-75.4l-19.1 2.6z m14.8-86.9l37.1 64.3 27.8-16.1 23.3 40.4c2.4 4.1 1.9 7.2-1.2 9-4.2 2.4-8.6 4.5-13.2 6.2l13.2 14.1 14.5-8.4c10.7-6.2 12.8-15 6.2-26.4l-25.8-44.7 27.2-15.7-37.1-64.3-31.7 18.3c-0.9-4.8-2.2-9.4-3.5-14.1l36.8-21.3-9.2-15.9L701.52053 310l34.2 59.2c17.6 28.2 28.6 60 32.2 93.1l20.6 4.2c-3.4-38-15.5-74.7-35.4-107.3l-25-43.2 35.3-20.4c1.4 4.6 2.6 9.3 3.5 14.1l-23.3 13.4z m85.3 17.4L788.22053 364l-6.6-11.4 40.6-23.5 6.7 11.4z m-54.7-0.9l-6.8-11.8 40.6-23.5 6.8 11.8-40.6 23.5z m14.2 56.3c4 14.2 5.4 29.1 4 43.8l19.8 0.8c0.8-17-1.1-33.9-5.8-50.2l-18 5.6z m64.1-38.4l-11.9 13.8c13.8 9 26.9 19 39.2 30l11.4-15.6c-12.2-10.4-25.1-19.8-38.7-28.2z" fill="#f9bbb4" p-id="3287" data-spm-anchor-id="a313x.7781069.0.i4" class="selected"></path></svg>