<?xml version="1.0" standalone="no"?><!DOCTYPE svg PUBLIC "-//W3C//DTD SVG 1.1//EN" "http://www.w3.org/Graphics/SVG/1.1/DTD/svg11.dtd"><svg t="1591666914855" class="icon" viewBox="0 0 1024 1024" version="1.1" xmlns="http://www.w3.org/2000/svg" p-id="6942" xmlns:xlink="http://www.w3.org/1999/xlink" width="64" height="64"><defs><style type="text/css"></style></defs><path d="M205.099674 0.612593c32.899606-4.699944 63.49924 18.199782 68.199184 51.099388 0.79999 5.699932 0.79999 11.399864 0 17.099795v886.489387c0 37.699549-30.499635 68.199183-68.199184 68.199183s-68.199183-30.499635-68.199183-68.199183v-886.489387c-4.699944-32.899606 18.199782-63.49924 51.099388-68.199183 5.699932-0.79999 11.499862-0.79999 17.099795 0z" fill="#919AAA" p-id="6943"></path><path d="M210.599609 1024.00034c-40.699513 0-73.699118-32.899606-73.699118-73.599119v-373.795525c-0.099999-0.499994-0.099999-0.999988 0-1.399983v-485.894182c0-48.999413 39.699525-88.598939 88.598939-88.59894h337.595958c159.998084-0.499994 290.096527 128.998456 290.396523 288.99654 0.199998 78.399061-31.399624 153.598161-87.598951 208.297507 130.398439 92.798889 160.898074 273.796722 68.099185 404.19516-54.499347 76.599083-142.79829 121.998539-236.797165 121.798542h-386.595371z m62.59925-136.898361h323.896122c84.698986 0 153.398163-68.699177 153.398164-153.398163s-68.699177-153.398163-153.398164-153.398164h-323.896122v306.796327z m0-443.194694h289.79653c84.698986 0 153.398163-68.699177 153.498163-153.398163 0-84.698986-68.699177-153.398163-153.398164-153.498162H273.198859v306.896325z" fill="#919AAA" p-id="6944"></path></svg>