<?xml version="1.0" standalone="no"?><!DOCTYPE svg PUBLIC "-//W3C//DTD SVG 1.1//EN" "http://www.w3.org/Graphics/SVG/1.1/DTD/svg11.dtd"><svg t="1589160422851" class="icon" viewBox="0 0 1024 1024" version="1.1" xmlns="http://www.w3.org/2000/svg" p-id="2622" xmlns:xlink="http://www.w3.org/1999/xlink" width="200" height="200"><defs><style type="text/css"></style></defs><path d="M619.301 607.5c-29.1-14.1-59.5-25.4-90.8-33.7 94.9-53.9 128.1-174.5 74.2-269.4-53.9-94.9-174.5-128.1-269.4-74.2-94.9 53.9-128.1 174.5-74.2 269.4 17.2 30.3 42.1 55.5 72.2 73.1-30.1 7.7-59.5 18.3-87.6 31.6-52.7 21-96.8 59.3-125 108.7-14.4 34.2-5 73.8 23.2 98 9.8 9.5 30.3 20 108 28 48 4.8 110.1 7.5 175 7.5h2.4c64.2 0 126.1-2.5 174.5-7.2 39.1 1.1 77.8-8.1 112.2-26.7 30.3-20 43.1-58.1 31.1-92.4-27.3-51.2-71.9-91.1-125.8-112.7zM279.501 402c0-83.8 67.9-151.7 151.7-151.7s151.8 67.9 151.8 151.7c0 83.8-67.9 151.7-151.7 151.7-83.9 0-151.9-67.9-152-151.7h0.2z m406.5 374.5c-27.6 11.4-57.1 17.2-87 17.1-46.7 4.6-106.6 7.1-169.1 7.1h-2.7c-61.2 0-120.3-2.4-166.6-6.7-29.8-0.1-59.3-5.6-87.2-16.3-14.5-11.2-19.6-30.8-12.3-47.6 23.7-38.8 59.6-68.5 102.1-84.5 51.7-24.9 108.1-38.7 165.5-40.5 59.3 2.2 117.4 17 170.5 43.5 43.1 16.3 79.3 46.9 102.6 86.6 3.7 10.5 5.1 24.6-16.3 41.3h0.5z" fill="#999999" p-id="2623"></path><path d="M909.401 684c-17.7-63.8-116.4-122.1-211.7-147.1 19.3-12.8 36.1-29 49.6-47.8 25-35 38.5-76.9 38.5-120-0.3-105.8-86.1-191.5-191.9-191.6-9.5 0-17.2 7.7-17.2 17.2s7.7 17.2 17.2 17.2c87.1-0.1 157.7 70.4 157.8 157.5 1.4 71.9-44.7 136-113.3 157.5-9.1 2.6-14.4 12.1-11.9 21.2 1.7 6.1 6.6 10.7 12.8 12.1h1.6c53.5 7.4 105.2 24.8 152.3 51.2 36.5 16.3 66 45.1 83.2 81.2 3.1 11 4.3 27.8-20 46.7-16.3 8.1-34.1 12.7-52.2 13.7-9.4 1.4-15.8 10.2-14.4 19.6 1.3 8.4 8.5 14.5 16.9 14.6h2.5c24.2-1 47.7-8.1 68.4-20.6 27.4-17.5 40.4-51 31.8-82.6z" fill="#999999" p-id="2624"></path></svg>