<?xml version="1.0" standalone="no"?><!DOCTYPE svg PUBLIC "-//W3C//DTD SVG 1.1//EN" "http://www.w3.org/Graphics/SVG/1.1/DTD/svg11.dtd"><svg t="1590733398355" class="icon" viewBox="0 0 1024 1024" version="1.1" xmlns="http://www.w3.org/2000/svg" p-id="5952" xmlns:xlink="http://www.w3.org/1999/xlink" width="32" height="32"><defs><style type="text/css"></style></defs><path d="M777.2 903.5c-6.3 0-12.5-0.8-18.6-2.3-41.2-10.4-66.1-52.2-55.7-93.3 10.4-41.2 52.2-66.1 93.3-55.7 41.2 10.4 66.1 52.2 55.7 93.3-8.6 34.1-39.4 58.1-74.7 58z m-31.7-85c-4.4 17.5 6.3 35.2 23.7 39.5 17.5 4.3 35.2-6.3 39.7-23.8 2.6-17.9-9.9-34.6-27.8-37.2-15.4-2.1-30.3 6.9-35.6 21.5z" fill="#999999" p-id="5953"></path><path d="M991.7 1024H158.4c-12.3 0-22.2-10-22.2-22.2v-126c0-12.3 9.9-22.2 22.2-22.2 12.3 0 22.2 9.9 22.2 22.2v103.7h788.9V44.4H180.7v85.5c0 12.3-9.9 22.2-22.2 22.2-12.3 0-22.2-9.9-22.2-22.2V22.2c0-12.3 10-22.2 22.2-22.2h833.3c12.3 0 22.2 10 22.2 22.2v979.6c0 12.3-10 22.2-22.3 22.2z" fill="#999999" p-id="5954"></path><path d="M405.1 882.8c-12.3 0-22.2-10-22.2-22.2V502H158.8c-57.5-1.1-105.1 44.7-106.1 102.2-1.1 57.5 44.7 105 102.2 106.1h3.9c12.3-0.1 22.3 9.8 22.3 22.1 0.1 12.3-9.8 22.3-22.1 22.3h-0.2c-82.1 0.1-148.7-66.4-148.7-148.4-0.1-82.1 66.4-148.7 148.4-148.7H404c12.9 0 23.4 10.5 23.4 23.4v379.6c0 12.3-10 22.2-22.3 22.2z" fill="#999999" p-id="5955"></path><path d="M414.2 900c-32.5 0-65.1-0.2-97.2-0.3-52.1-0.3-106.1-0.5-158.6 0-5.9 0.1-11.7-2.2-15.9-6.5-4.2-4.2-6.6-9.8-6.6-15.8V576.3c0-12.3 9.9-22.2 22.2-22.2 12.3 0 22.2 9.9 22.2 22.2V855c45.6-0.2 91.9 0 136.8 0.2 71 0.4 144 0.8 215.2-0.8V152.5H158.2c-12.3 0-22.2-9.9-22.2-22.2 0-12.3 9.9-22.2 22.2-22.2h396.4c12.3 0 22.2 10 22.2 22.2v745.8c0 12-9.5 21.9-21.6 22.2-46.3 1.3-93.8 1.7-141 1.7z" fill="#999999" p-id="5956"></path><path d="M306.2 245.1c-12.3 0-22.2-10-22.2-22.2v-78.6c-0.1-12.3 9.8-22.3 22.1-22.3 12.3-0.1 22.3 9.8 22.3 22.1v78.8c0 12.3-10 22.2-22.2 22.2z" fill="#999999" p-id="5957"></path></svg>