<?xml version="1.0" standalone="no"?><!DOCTYPE svg PUBLIC "-//W3C//DTD SVG 1.1//EN" "http://www.w3.org/Graphics/SVG/1.1/DTD/svg11.dtd"><svg t="1591668144252" class="icon" viewBox="0 0 1024 1024" version="1.1" xmlns="http://www.w3.org/2000/svg" p-id="6027" xmlns:xlink="http://www.w3.org/1999/xlink" width="48" height="48"><defs><style type="text/css"></style></defs><path d="M945.2705 511c0-21.7 17.6-39.4 39.4-39.4s39.4 17.6 39.4 39.4v414.2c2 52.4-38.8 96.6-91.2 98.6H92.0705c-52.4-1.7-93.6-45.5-92-98V98.9C-1.9295 46.4 38.8705 2.2 91.3705 0.2H514.7705c21.6 0.3 39 17.7 39.3 39.3-0.3 21.6-17.7 39-39.3 39.3h-420c-6.4 0-13.1 7.9-13.1 20v826.4c0 12.1 6.8 20 13.1 20h840c6.4 0 13.1-7.9 13.1-20L945.2705 511z" fill="#cccccc" p-id="6028"></path><path d="M192.8705 758.3c-4.2-15.3-4.2-31.4 0-46.7L219.0705 611.2c4.2-15.6 12.3-29.9 23.7-41.5L735.4705 75.3c17.3-17.8 41.1-27.9 65.9-27.9 24.8 0 48.6 10.1 65.9 27.9l74.6 74.6c35.7 35.8 35.7 93.8 0 129.6L447.1705 774.1c-11.5 11.4-25.7 19.5-41.4 23.5L304.9705 824c-7.5 1.9-15.2 2.9-23 2.9-41.9 0.1-78.5-28.1-89.1-68.6z m105.5-132.8c-1.6 1.6-2.6 3.6-3.1 5.8l-26.4 100.2c-0.5 2.3-0.5 4.6 0 6.9 1.7 6.9 8.6 11.1 15.4 9.4 0.1 0 0.2-0.1 0.4-0.1l100.8-26.2c2.3-0.5 4.3-1.8 5.7-3.6l494.5-494.1c4.8-5.2 4.8-13.2 0-18.4L811.0705 130.8c-2.4-2.5-5.7-3.8-9.2-3.8-3.4 0-6.7 1.4-9.2 3.8l-65.7 65.7 92.1 92.1-55.7 55.6-92-92-373 373.3z" fill="#cccccc" p-id="6029"></path></svg>