<?xml version="1.0" standalone="no"?><!DOCTYPE svg PUBLIC "-//W3C//DTD SVG 1.1//EN" "http://www.w3.org/Graphics/SVG/1.1/DTD/svg11.dtd"><svg t="1591088112971" class="icon" viewBox="0 0 1024 1024" version="1.1" xmlns="http://www.w3.org/2000/svg" p-id="4880" xmlns:xlink="http://www.w3.org/1999/xlink" width="200" height="200"><defs><style type="text/css"></style></defs><path d="M137.099 438.7h-54.9c-45.4 0-82.2 36.9-82.2 82.3v420.5c0 45.4 36.8 82.3 82.2 82.3h54.9c45.4 0 82.3-36.8 82.3-82.2V521c-0.1-45.4-36.9-82.2-82.3-82.3 0 0.1 0 0.1 0 0z" fill="#FFFFFF" opacity=".5" p-id="4881"></path><path d="M1020.699 468.6c-5.5-29.2-25.8-53.4-53.7-63.7-15.4-5.1-31.6-7.6-47.8-7.5-86.1-0.7-172.1 0-258.1 0-11.1 0-11.5-0.7-9.8-11.3 5.1-31.5 9.8-63 16-94.2 9.7-41.5 8-84.8-4.7-125.4-12.7-36.9-27.1-73.3-40.9-109.9-6.7-20.2-22-36.5-41.7-44.5-37.2-17-80.1-15.8-116.2 3.4-23.9 10.8-38.8 35.2-37.5 61.4 1.1 40.5 1.4 81 3.1 121.4 0.7 13-2.4 25.9-8.9 37.2-31.2 53.6-53.8 95.3-86.4 148.2-9.9 13-20.7 25.2-32.3 36.6-20.9 16.4-33.8 41-35.5 67.6 0 98.2-0.4 314.3-0.8 453.5-0.2 45.4 36.4 82.4 81.8 82.6h0.6c120.2 0 338.6-0.4 445.7-0.4 25.5 0.8 51-2.4 75.4-9.6 47.6-13.7 81.1-56.1 83.6-105.5 2.1-19.4-0.1-39-6.3-57.4-0.6-3.5 0.3-7.1 2.6-9.8 19.9-24.5 30.2-55.5 28.8-87-1.2-11.4-3.7-22.5-7.6-33.3-2.3-4.9-1.4-10.6 2.1-14.6 18.8-22 29-50.1 28.7-79-1.7-14.1-4.5-28.1-8.3-41.8-0.6-3.3-1.1-8.2 0.7-10.2 15.1-17.4 25.2-38.7 29.2-61.4 0.3-0.9 0.9-1.7 1.5-2.3v-32.3c-1.1-3.6-2.3-7.1-3.3-10.7v-0.1z" fill="#FFFFFF" p-id="4882"></path></svg>