<?xml version="1.0" standalone="no"?><!DOCTYPE svg PUBLIC "-//W3C//DTD SVG 1.1//EN" "http://www.w3.org/Graphics/SVG/1.1/DTD/svg11.dtd"><svg t="1591250244129" class="icon" viewBox="0 0 1024 1024" version="1.1" xmlns="http://www.w3.org/2000/svg" p-id="6638" xmlns:xlink="http://www.w3.org/1999/xlink" width="32" height="32"><defs><style type="text/css"></style></defs><path d="M167.716811 1024.001c-50.597529-0.19999-91.595528-41.197988-91.795518-91.795518v-662.167667c0.19999-50.597529 41.197988-91.595528 91.795518-91.795518H279.011376c6.999658-39.798057 41.497974-68.796641 81.896002-68.896636h9.399541c17.599141 0 33.79835-9.899517 41.697964-25.59875l18.699087-37.598164c14.099312-28.298618 42.9979-46.197744 74.596357-46.097749h13.399346c31.598457-0.099995 60.497046 17.799131 74.596357 46.097749l18.699087 37.598164c7.899614 15.799229 24.098823 25.698745 41.697964 25.59875h9.399541c40.398027 0.099995 74.896343 29.098579 81.896002 68.896636h111.294565c50.597529 0.19999 91.595528 41.197988 91.795518 91.795518v662.067672c-0.19999 50.597529-41.197988 91.595528-91.795518 91.795518H167.716811z m-54.997315-753.963185v662.067672c0 30.398516 24.598799 54.997315 54.997315 54.997315h688.866364c30.298521 0 54.897319-24.598799 54.997314-54.997315v-662.067672c0-30.298521-24.698794-54.897319-54.997314-54.997315H743.488697c-10.099507 35.998242-42.897905 60.997022-80.296079 60.997022H361.007373c-37.398174 0-70.196572-24.898784-80.29608-60.997022H167.616816c-30.298521 0.099995-54.897319 24.698794-54.89732 54.997315z m201.890142-77.296226c-0.099995 25.698745 20.798984 46.49773 46.49773 46.597725h302.185245c25.59875 0 46.397734-20.698989 46.497729-46.29774v-0.099995c0-25.698745-20.798984-46.49773-46.497729-46.597725h-9.399541c-31.598457 0.099995-60.597041-17.699136-74.596358-46.097749l-18.799082-37.598164c-7.799619-15.799229-23.998828-25.698745-41.597969-25.59875h-13.399346c-17.599141-0.099995-33.79835 9.799522-41.597968 25.59875l-18.799083 37.598164c-13.999316 28.398613-42.9979 46.197744-74.596357 46.097749h-9.399541c-25.698745-0.099995-46.597725 20.698989-46.69772 46.29774 0.19999 0 0.19999 0 0.19999 0.099995z" fill="#101D37" p-id="6639"></path><path d="M532.099019 391.680875h141.593086c18.299106-2.599873 35.298276 10.099507 37.898149 28.398613 0.39998 3.099849 0.39998 6.299692 0 9.499536v368.781994h31.898443c10.599482 0 16.599189 5.999707 17.899126 17.899126-1.299937 11.999414-7.299644 17.899126-17.899126 17.899126H452.302915c-9.899517 1.099946-18.799082-5.999707-19.899028-15.899224-0.099995-0.599971-0.099995-1.299937-0.099996-1.999902 1.299937-10.899468 10.999463-18.799082 21.898931-17.899126h33.898345V433.578829c-2.599873-30.598506 11.999414-44.497827 43.997852-41.897954z m121.594062 37.898149H541.998535c-11.999414-1.399932-17.299155 4.599775-15.899223 17.999122v79.796103h147.592793v-79.796103c1.299937-13.299351-5.399736-19.299058-19.999024-17.999122zM526.099312 563.172501V658.967824h147.592793v-95.695328H526.099312z m0 131.69357v103.694937h147.592793V694.866071H526.099312z m-91.795518-5.999707c-13.399346-22.698892-27.998633-44.697817-43.897857-65.796787v211.389678c0 9.299546-5.999707 14.599287-17.899126 15.899224-8.39959 1.399932-16.299204-4.199795-17.699136-12.49939-0.099995-0.499976-0.099995-0.999951-0.19999-1.399932V619.069772c-14.799277 34.19833-32.798399 66.996729-53.897368 97.69523-10.699478 10.699478-20.598994 12.69938-29.89854 5.999707-8.79957-7.099653-10.099507-19.999023-2.899859-28.798594 0.299985-0.39998 0.599971-0.699966 0.999952-1.099946 30.798496-43.297886 56.397246-90.195596 75.996289-139.593184h-63.996875c-8.699575 1.199941-16.699185-4.799766-17.899126-13.499341-0.19999-1.499927-0.19999-2.899858 0-4.399785 0.699966-9.499536 8.899565-16.699185 18.499096-16.099214 0.499976 0 0.999951 0.099995 1.499927 0.19999h71.696499v-79.796104c-8.499585 1.799912-17.19916 2.399883-25.898735 1.999903-8.59958 1.199941-17.19916 1.799912-25.898736 1.999902-10.399492 1.599922-20.099019-5.499731-21.69894-15.899224-0.099995-0.699966-0.19999-1.299937-0.19999-1.999902 0-11.999414 6.599678-18.599092 19.899028-19.899028 43.697866-2.099897 87.095747-8.099605 129.593672-17.899126 9.499536-3.499829 19.999023 1.399932 23.498853 10.899467 0.099995 0.39998 0.299985 0.699966 0.39998 1.099947 2.299888 10.399492-3.799814 20.798984-13.999316 23.898833-10.599482 2.699868-27.198672 6.699673-49.797569 11.999414v83.695913h55.797276c7.699624-1.099946 14.899272 4.199795 15.999219 11.899419 0.19999 1.399932 0.19999 2.699868 0 4.0998 0 11.999414-5.299741 17.899126-15.999219 17.899126h-55.69728v9.999512c37.198184 47.797666 62.496948 81.696011 75.796299 101.695034 7.999609 13.299351 7.299644 23.898833-1.999903 31.898443-10.899468 6.399688-20.89898 3.799814-30.198525-8.1996z" fill="#F04531" p-id="6640"></path></svg>