<?xml version="1.0" standalone="no"?><!DOCTYPE svg PUBLIC "-//W3C//DTD SVG 1.1//EN" "http://www.w3.org/Graphics/SVG/1.1/DTD/svg11.dtd"><svg t="1590025838191" class="icon" viewBox="0 0 1024 1024" version="1.1" xmlns="http://www.w3.org/2000/svg" p-id="3361" xmlns:xlink="http://www.w3.org/1999/xlink" width="32" height="32"><defs><style type="text/css"></style></defs><path d="M914.284961 0.019109H109.715039C70.516504-0.880857 38.017719 30.117984 37.017756 69.316519v885.466899c0.999963 39.198535 33.498748 70.09738 72.697283 69.197413h804.569922c39.198535 0.899966 71.69732-30.098875 72.697283-69.197413V69.116526c-1.199955-38.998542-33.69874-69.997383-72.697283-69.097417z m27.598969 955.064297c-0.499981 14.799447-12.899518 26.399013-27.798961 26.099025H109.715039c-7.299727 0-14.299465-2.699899-19.699264-7.799709-5.099809-4.899817-8.099697-11.599566-8.099697-18.699301V235.110321h859.767859l0.199993 719.973085z m0-762.271504h-859.967852V69.116526c0.399985-14.999439 12.799522-26.699002 27.798961-26.399013h804.569922c14.999439-0.399985 27.398976 11.49957 27.798961 26.499009l-0.199992 123.59538z" fill="#101D37" p-id="3362"></path><path d="M591.297036 466.601667h211.192105c11.099585 0 20.199245-9.09966 20.199245-20.199245s-9.09966-20.199245-20.199245-20.199245H591.297036c-11.099585 0-20.199245 9.09966-20.199245 20.199245-0.199993 11.099585 8.899667 20.199245 20.199245 20.199245z m-351.086876 0h85.496804v85.5968c0 11.099585 9.09966 20.199245 20.199245 20.199245s20.199245-9.09966 20.199245-20.199245v-85.5968h85.496804c11.099585 0 20.199245-9.09966 20.199245-20.199245s-9.09966-20.199245-20.199245-20.199245H366.005458v-85.5968c0-11.099585-9.09966-20.199245-20.199245-20.199245s-20.199245 9.09966-20.199245 20.199245v85.5968h-85.496804c-11.099585 0-20.199245 9.09966-20.199245 20.199245s9.09966 20.199245 20.299241 20.199245z m194.692722 226.691526l-0.399985-0.399985c-7.899705-7.799708-20.59923-7.799708-28.498935 0l-60.397742 60.497738-60.197749-60.397742c-7.299727-8.399686-19.999252-9.499645-28.498935-2.299914-8.399686 7.299727-9.499645 19.999252-2.299914 28.498935 0.79997 0.79997 1.499944 1.699936 2.299914 2.299914l60.397742 60.497738-60.397742 60.497738c-7.299727 8.399686-6.299764 21.199208 2.299914 28.498935 7.599716 6.399761 18.699301 6.399761 26.199021 0l60.297746-59.997757 59.997757 60.497738c8.599679 7.199731 21.199208 6.099772 28.498934-2.299914 6.399761-7.599716 6.399761-18.699301 0-26.19902l-60.397742-60.497739 60.397742-60.497738c8.099697-7.699712 8.499682-20.499234 0.699974-28.698927 0.099996 0.099996 0.099996 0 0 0z m372.686068 67.297484H595.99686c-11.099585 0-20.199245 9.09966-20.199245 20.199245S584.897275 800.989167 595.99686 800.989167h211.492094c11.099585 0 20.199245-9.09966 20.199245-20.199245 0.099996-11.099585-8.999664-20.199245-20.099249-20.199245zM673.693955 700.392927c0 15.699413 12.799522 28.498935 28.498935 28.498935s28.498935-12.799522 28.498935-28.498935-12.799522-28.498935-28.498935-28.498934-28.498935 12.699525-28.498935 28.498934zM673.693955 864.086808c0 15.699413 12.799522 28.498935 28.498935 28.498935s28.498935-12.799522 28.498935-28.498935-12.799522-28.498935-28.498935-28.498935-28.498935 12.799522-28.498935 28.498935z" fill="#F04531" p-id="3363"></path></svg>