<?xml version="1.0" standalone="no"?><!DOCTYPE svg PUBLIC "-//W3C//DTD SVG 1.1//EN" "http://www.w3.org/Graphics/SVG/1.1/DTD/svg11.dtd"><svg t="1590733402353" class="icon" viewBox="0 0 1024 1024" version="1.1" xmlns="http://www.w3.org/2000/svg" p-id="6086" xmlns:xlink="http://www.w3.org/1999/xlink" width="32" height="32"><defs><style type="text/css"></style></defs><path d="M848.51558 915.936h-671.9c-9.9 0-17.9-8-17.9-17.9 0-9.9 8-17.9 17.9-17.9h671.9c9.9 0 17.9 8 17.9 17.9 0 9.9-8 17.9-17.9 17.9z m-571.8-321.7c-9.9 0-17.9-8-17.9-17.8 0-4.8 1.9-9.3 5.3-12.7l278.8-278.8c7-7 18.3-7 25.3 0s7 18.3 0 25.3l-278.9 278.8c-3.3 3.3-7.9 5.2-12.6 5.2z m7.3-135.8c-9.9 0-17.9-8-17.9-17.8 0-4.8 1.9-9.3 5.3-12.7l135.8-135.8c7-7 18.3-7 25.3 0s7 18.3 0 25.3l-135.9 135.7c-3.4 3.4-8 5.3-12.8 5.3h0.2z" fill="#999999" p-id="6087"></path><path d="M512.61558 787.336c-136.2 0-272.3 0-407.5-0.3-78.1 0-103.2-25.2-103.5-103.5-0.2-58-0.2-116.1 0-174.1 0-97.5 0.3-198.4-0.9-297.6-5.4-44.4 20.2-86.7 62-102.6 3.2-1.3 6.7-1.6 10.1-0.9 1.2-0.2 2.4-0.4 3.6-0.4h843.7c78.1 0 103.2 25.2 103.5 103.5 0.5 157.3 0.5 314.6 0 471.9-0.2 78.2-25.5 103.3-103.5 103.5-135.2 0-271.3 0.3-407.5 0.3v0.2z m-439.1-643.7c-27.1 11.5-37.5 30.8-37 67.9 1.2 99.4 1 200.4 0.9 298v173.9c0 58.3 9.7 67.7 67.8 67.8 270.4 0.4 544.5 0.4 814.9 0 58.1 0 67.6-9.6 67.8-67.8 0.5-156.5 0.5-315.2 0-471.7 0-58.3-9.7-67.8-67.8-67.8-205.8-0.2-411.7-0.2-617.5 0h-226.2c-1 0-2-0.1-3-0.3h0.1z" fill="#999999" p-id="6088"></path></svg>