<?xml version="1.0" standalone="no"?><!DOCTYPE svg PUBLIC "-//W3C//DTD SVG 1.1//EN" "http://www.w3.org/Graphics/SVG/1.1/DTD/svg11.dtd"><svg t="1590051897706" class="icon" viewBox="0 0 1024 1024" version="1.1" xmlns="http://www.w3.org/2000/svg" p-id="3299" xmlns:xlink="http://www.w3.org/1999/xlink" width="32" height="32"><defs><style type="text/css"></style></defs><path d="M905.60342 95.193c43.3 1.9 77.2 37.6 76.8 80.9v555.3c0.5 44.2-34.8 80.4-79 80.9h-256c-6 0-12 1-17.7 2.9l-12.4 4.5-7.7 10.6-61.8 85.5c-8.8 9-21 14.1-33.5 14.1h-1.5c-13.6 0.1-26.6-5-36.5-14.1l-1.9-1.9-55-80.3-5.2-7.4-7.8-4.6c-4.6-2.8-9.6-4.9-14.7-6.4l-5.8-1.7H121.60342c-44.2-0.5-79.6-36.7-79.1-81v-555.3c-0.4-44.2 34.9-80.3 79.1-80.8h784m-2.6-42.6H121.60342c-67.2 0.6-121.3 55.1-121.6 122.3v555.3c-0.5 67.7 53.9 123 121.6 123.6h256c1.5 0.4 3.1 1.2 4.5 1.9l57.6 83.2 5.8 5.8c17.8 16.5 41.1 25.6 65.3 25.6h1.4c25.1 0 49-10.4 66.2-28.5l64-87.7h260.1c67.7-0.6 122.1-56.1 121.6-123.8v-555.4c0.4-67.7-54.1-123-121.9-123.6l0.8 1.3z" fill="#101D37" p-id="3300"></path><path d="M253.10342 435.793c0 32.4 26.2 58.8 58.8 58.8s58.8-26.4 58.8-58.8-26.4-58.7-58.9-58.7c-32.4-0.1-58.9 26.1-58.9 58.6v0.1h0.2zM453.40342 435.793c0 32.4 26.4 58.8 58.8 58.8s58.8-26.4 58.8-58.8-26.5-58.7-58.9-58.7c-32.5 0-58.7 26.2-58.7 58.7zM653.40342 435.793c0 32.4 26.4 58.8 58.8 58.8s58.8-26.4 58.8-58.8-26.4-58.7-58.8-58.7c-32.5-0.1-58.9 26.1-59 58.5v0.3l0.2-0.1z" fill="#101D37" p-id="3301"></path></svg>