<?xml version="1.0" standalone="no"?><!DOCTYPE svg PUBLIC "-//W3C//DTD SVG 1.1//EN" "http://www.w3.org/Graphics/SVG/1.1/DTD/svg11.dtd"><svg t="1590733394206" class="icon" viewBox="0 0 1024 1024" version="1.1" xmlns="http://www.w3.org/2000/svg" p-id="5811" xmlns:xlink="http://www.w3.org/1999/xlink" width="32" height="32"><defs><style type="text/css"></style></defs><path d="M232.70711 954.2H116.30711C52.70711 954.8 0.60711 903.7 0.00711 840.1V186.2c-0.7-63.6 50.4-115.7 114-116.4h118.7c63.6-0.6 115.7 50.4 116.4 114.1v653.9c0.6 63.6-50.4 115.7-114.1 116.4h-2.3zM116.30711 116.4c-37.9-0.7-69.1 29.4-69.8 67.3v654.1c-0.7 37.9 29.4 69.1 67.3 69.8h118.9c37.9 0.7 69.1-29.4 69.8-67.3V186.2c0.7-37.9-29.4-69.1-67.3-69.8H116.30711z" fill="#999999" p-id="5812"></path><path d="M930.90711 861.1H302.70711V162.9h628.2c51.4 0.1 93 41.7 93.1 93.1v512c-0.2 51.4-41.8 93-93.1 93.1z m-581.8-46.5h581.8c25.7-0.1 46.4-20.9 46.5-46.5V256c-0.1-25.7-20.9-46.4-46.5-46.5H349.00711l0.1 605.1z" fill="#999999" p-id="5813"></path><path d="M977.40711 395.7H418.90711c-12.8 0.1-23.3-10.3-23.4-23.2-0.1-12.8 10.3-23.3 23.2-23.4h558.7c12.8 0.1 23.2 10.5 23.2 23.4-0.1 12.8-10.4 23.1-23.2 23.2z m-558.5-35zM465.40711 477.1h69.7c6.4-0.4 11.9 4.6 12.3 11 0.4 6.4-4.6 11.9-11 12.3H465.30711c-6.4 0.4-11.9-4.6-12.3-11-0.4-6.4 4.6-11.9 11-12.3H465.40711z" fill="#999999" p-id="5814"></path><path d="M535.20711 512h-69.8c-12.8-0.1-23.2-10.5-23.2-23.4 0.1-12.8 10.4-23.1 23.2-23.2h69.8c12.8 0.1 23.2 10.5 23.2 23.4-0.1 12.8-10.4 23.2-23.2 23.2z m-69.8-34.9zM651.60711 477.1h69.8c6.4-0.4 11.9 4.6 12.3 11 0.4 6.4-4.6 11.9-11 12.3h-71.1c-6.4 0.4-11.9-4.6-12.3-11-0.4-6.4 4.6-11.9 11-12.3h1.3z" fill="#999999" p-id="5815"></path><path d="M721.40711 512h-69.8c-12.8-0.1-23.2-10.5-23.2-23.4 0.1-12.8 10.4-23.1 23.2-23.2h69.8c12.8 0.1 23.2 10.5 23.2 23.4-0.1 12.8-10.5 23.2-23.2 23.2z m-69.9-34.9zM837.80711 477.1h69.8c6.4-0.4 11.9 4.6 12.3 11 0.4 6.4-4.6 11.9-11 12.3h-71.1c-6.4-0.4-11.3-5.9-11-12.3 0.3-5.9 5-10.7 11-11z" fill="#999999" p-id="5816"></path><path d="M907.60711 512h-69.7c-12.8 0.1-23.3-10.3-23.4-23.2-0.1-12.8 10.3-23.3 23.2-23.4h70c12.8-0.1 23.3 10.3 23.4 23.2 0.1 12.8-10.3 23.3-23.2 23.4H907.60711z m-69.9-34.9zM465.40711 593.5h69.7c6.4-0.4 11.9 4.6 12.3 11 0.4 6.4-4.6 11.9-11 12.3H465.30711c-6.4 0.4-11.9-4.6-12.3-11-0.4-6.4 4.6-11.9 11-12.3H465.40711z" fill="#999999" p-id="5817"></path><path d="M535.20711 628.4h-69.8c-12.8-0.1-23.2-10.5-23.2-23.4 0.1-12.8 10.4-23.1 23.2-23.2h69.8c12.8 0.1 23.2 10.5 23.2 23.4-0.1 12.8-10.4 23.1-23.2 23.2z m-69.8-34.9zM651.60711 593.5h69.8c6.4-0.4 11.9 4.6 12.3 11 0.4 6.4-4.6 11.9-11 12.3h-71.1c-6.4 0.4-11.9-4.6-12.3-11-0.4-6.4 4.6-11.9 11-12.3 0.4-0.1 0.8-0.1 1.3 0z" fill="#999999" p-id="5818"></path><path d="M721.40711 628.4h-69.8c-12.8-0.1-23.2-10.5-23.2-23.4 0.1-12.8 10.4-23.1 23.2-23.2h69.8c12.8 0.1 23.2 10.5 23.2 23.4-0.1 12.8-10.5 23.1-23.2 23.2z m-69.9-34.9zM837.80711 593.5h69.8c6.4-0.4 11.9 4.6 12.3 11 0.4 6.4-4.6 11.9-11 12.3h-71.1c-6.4-0.4-11.3-5.9-11-12.3 0.3-6 5-10.7 11-11z" fill="#999999" p-id="5819"></path><path d="M907.60711 628.4h-69.7c-12.8 0.1-23.3-10.3-23.4-23.2-0.1-12.8 10.3-23.3 23.2-23.4h70c12.8-0.1 23.3 10.3 23.4 23.2 0.1 12.8-10.3 23.3-23.2 23.4H907.60711z m-69.9-34.9zM465.40711 709.8h69.7c6.4-0.4 11.9 4.6 12.3 11 0.4 6.4-4.6 11.9-11 12.3H465.30711c-6.4 0.4-11.9-4.6-12.3-11-0.4-6.4 4.6-11.9 11-12.3H465.40711z" fill="#999999" p-id="5820"></path><path d="M535.20711 744.8h-69.8c-12.8 0.1-23.3-10.3-23.4-23.2-0.1-12.8 10.3-23.3 23.2-23.4h70c12.8-0.1 23.3 10.3 23.4 23.2 0.1 12.8-10.3 23.3-23.2 23.4h-0.2z m-69.8-35zM651.60711 709.8h69.8c6.4-0.4 11.9 4.6 12.3 11 0.4 6.4-4.6 11.9-11 12.3h-71.1c-6.4 0.4-11.9-4.6-12.3-11-0.4-6.4 4.6-11.9 11-12.3h1.3z" fill="#999999" p-id="5821"></path><path d="M721.40711 744.8h-69.8c-12.8 0.1-23.3-10.3-23.4-23.2-0.1-12.8 10.3-23.3 23.2-23.4h70c12.8 0.1 23.2 10.5 23.2 23.4-0.1 12.8-10.5 23.1-23.2 23.2z m-69.9-35zM837.80711 709.8h69.8c6.4-0.4 11.9 4.6 12.3 11 0.4 6.4-4.6 11.9-11 12.3h-71.1c-6.4-0.4-11.3-5.9-11-12.3 0.3-5.9 5-10.7 11-11z" fill="#999999" p-id="5822"></path><path d="M907.60711 744.8h-69.7c-12.8 0.1-23.3-10.3-23.4-23.2-0.1-12.8 10.3-23.3 23.2-23.4h70c12.8-0.1 23.3 10.3 23.4 23.2 0.1 12.8-10.3 23.3-23.2 23.4H907.60711z m-69.8-34.9z" fill="#999999" p-id="5823"></path></svg>