<?xml version="1.0" standalone="no"?><!DOCTYPE svg PUBLIC "-//W3C//DTD SVG 1.1//EN" "http://www.w3.org/Graphics/SVG/1.1/DTD/svg11.dtd"><svg t="1591250207528" class="icon" viewBox="0 0 1024 1024" version="1.1" xmlns="http://www.w3.org/2000/svg" p-id="6098" xmlns:xlink="http://www.w3.org/1999/xlink" width="32" height="32"><defs><style type="text/css"></style></defs><path d="M905.9 1024H118.3c-43.4-0.1-78.6-35.3-78.8-78.8V748.3c-0.7-12.5 5.3-24.5 15.7-31.4l259.9-201c-63.4-55.6-99.4-136.2-98.5-220.5C216.6 132.3 348.9 0 512 0c163.1 0 295.4 132.3 295.4 295.4 0.9 84.4-35.1 164.9-98.5 220.5l259.9 200.9c9 8.2 14.6 19.4 15.7 31.4v196.9c0.1 43.6-35.1 78.8-78.6 78.9zM118.2 768v177.3h787.7V768L618.4 547.4c-11.3-8.1-17.3-21.7-15.7-35.5 0-13.4 7.7-25.6 19.7-31.4 65.8-38.5 106.3-109 106.3-185.3 0.1-119.7-96.8-216.7-216.5-216.8-119.7-0.1-216.7 96.8-216.8 216.5v0.4c0 76.3 40.5 146.8 106.3 185.3 11.3 6.7 18.7 18.4 19.7 31.4 0 13.5-5.7 26.4-15.7 35.5L118.2 768z" fill="#101D37" p-id="6099"></path><path d="M551.6 945.3h-78.8V787.8c0-21.8 17.6-39.4 39.4-39.4 21.8 0 39.4 17.6 39.4 39.4v157.5z" fill="#101D37" p-id="6100"></path></svg>