<?xml version="1.0" standalone="no"?><!DOCTYPE svg PUBLIC "-//W3C//DTD SVG 1.1//EN" "http://www.w3.org/Graphics/SVG/1.1/DTD/svg11.dtd"><svg t="1589157849278" class="icon" viewBox="0 0 1024 1024" version="1.1" xmlns="http://www.w3.org/2000/svg" p-id="2329" xmlns:xlink="http://www.w3.org/1999/xlink" width="200" height="200"><defs><style type="text/css"></style></defs><path d="M500.1 706.2v-74.9l-37.9-40.4h37.9V489.6h-94.7l41.6-53.1V319.2H341.6L207 502.1h-95V591h29.6L112 631.4v74.9h152.7l43.6-63.8 34.2 63.8h157.6z m22.6-373.6v85.6l24.7-11.5 32 16-57.2 30.5v58h145.3l49.4-19.3 50.7 19.3H912v-58l-57.6-30.4 57.6-29.3v-70.7H720.2l11.5-5.8H561.4l-38.7 15.6z m-0.5 261.7h128.4V677l-30.4 30.1h163.3V594.3h128.4v-71.2H771.3l-55.2-20.6-51.8 20.6H522.2v71.2zM912 604.6H796v102.5h116V604.6zM522.2 707.1h82.7l34.7-33.7v-68.7H522.2v102.4z m147.4-323.9h96.7L718.2 405l-48.6-21.8z" fill="#101D37" p-id="2330"></path><path d="M112 394.3h144.4l57.2-77.3H112v77.3z m0 91.3h84.8l53.1-77.3H112v77.3z" fill="#F04531" p-id="2331"></path></svg>