<?xml version="1.0" standalone="no"?><!DOCTYPE svg PUBLIC "-//W3C//DTD SVG 1.1//EN" "http://www.w3.org/Graphics/SVG/1.1/DTD/svg11.dtd"><svg t="1590978768464" class="icon" viewBox="0 0 1024 1024" version="1.1" xmlns="http://www.w3.org/2000/svg" p-id="3904" xmlns:xlink="http://www.w3.org/1999/xlink" width="32" height="32"><defs><style type="text/css"></style></defs><path d="M955.12053 256C813.72053 11.2 500.72053-72.6 255.92053 68.8S-72.67947 523.2 68.72053 768s454.5 328.6 699.3 187.2c244.7-141.2 328.6-454.1 187.4-698.8-0.1-0.1-0.2-0.3-0.3-0.4zM761.92053 944.7c-239 138.1-544.8 56.2-682.9-182.8S22.82053 217.1 261.92053 79.1s544.8-56.2 682.9 182.8c137.9 239 56.1 544.7-182.9 682.8z" fill="#F04531" opacity=".5" p-id="3905"></path><path d="M897.92053 289.2C774.92053 76 502.32053 2.9 289.12053 126 75.92053 249 2.82053 521.6 125.92053 734.8 249.02053 948 521.52053 1021.1 734.72053 898c213.1-123.1 286.1-395.6 163.2-608.8zM731.52053 892.8C521.22053 1014.3 252.32053 942.2 130.82053 731.9 9.42053 521.6 81.42053 252.7 291.72053 131.2 502.02053 9.8 770.82053 81.8 892.32053 292c121.4 210.3 49.5 479.2-160.8 600.8z" fill="#F04531" opacity=".5" p-id="3906"></path><path d="M316.42053 180c3.6-2 6 0.8 8.8 2.8 6 4.4 12.4 8.8 18.8 12.8 7.2-2.4 14.4-5.1 21.6-7.7 3.6-1.2 6-2.8 8.8 0.4 2.4 2.8 0.4 6.4-0.4 8.8-2 6.8-3.6 13.6-5.6 20.8 4.8 6 10 11.6 15.2 17.6 2.4 2.8 4.4 5.6 2.8 8.4-1.2 2.8-5.6 2.4-7.7 2.4l-22.4 0.8c-4.4 6.8-8.4 13.6-12.8 20-1.6 2.4-4 5.1-7.2 4-2.4-1.9-3.9-4.7-4.4-7.7l-7.2-20.5-25.2-6.4c-2.3-1.2-3.6-3.8-3.2-6.4 1.3-1.8 2.9-3.3 4.8-4.4 4-3.2 7.7-6.8 11.6-10 1.9-1.3 3.6-2.7 5.1-4.4-0.4-6.8-1.2-13.6-1.6-20.5-0.7-2.9-0.9-5.9-0.4-8.8-0.7-0.8-0.3-1.6 0.6-2zM193.52053 292.4c3.6-2 6 0.8 8.8 2.8 6.4 4.4 12.4 8.4 18.8 12.8 7.2-2.4 14.4-5.1 21.6-7.7 3.6-1.2 6-2.8 8.8 0.4 2.4 2.8 0.4 6.4-0.4 8.8-2 6.8-3.6 13.6-5.6 20.8 4.8 6 10 11.6 14.8 17.6 2.4 2.8 4.4 5.6 2.8 8.4-1.2 2.4-5.6 2.4-7.7 2.4l-22.4 0.8c-4.4 6.8-8.8 13.6-12.8 20-1.6 2.4-4 5.1-7.2 4-2.2-2-3.8-4.7-4.4-7.7l-7.2-20.5c-8.4-2-16.8-4.4-25.2-6.4-2.3-1.2-3.6-3.8-3.2-6.4 1.3-1.8 2.9-3.3 4.8-4.4 3.6-3.2 7.7-6.8 11.6-10 1.9-1.3 3.6-2.7 5.1-4.4-0.4-6.8-1.2-13.6-1.6-20.5-0.7-2.9-0.9-5.9-0.4-8.8-0.4-1.2 0-1.6 0.8-2.4l0.2 0.4z m276.5-159.6c3.6-2 6 0.8 8.8 2.8 6.4 4.4 12.4 8.4 18.8 12.8 7.2-2.4 14.4-5.1 21.6-7.7 3.6-1.2 6-2.8 8.8 0.4 2.4 2.8 0.4 6.4-0.4 8.8-2 6.8-3.6 14-5.6 20.8 4.8 6 10 12 15.2 17.6 2.4 2.8 4.4 5.6 2.8 8.4-1.2 2.8-5.6 2.4-7.7 2.4l-22.4 0.8c-4.4 6.8-8.8 13.6-12.8 20-1.6 2.4-4 5.1-7.2 4-2.2-2-3.8-4.7-4.4-7.7l-7.2-20.5-25.2-6.4c-2.3-1.2-3.6-3.8-3.2-6.4 1.3-1.8 2.9-3.3 4.8-4.4 4-3.2 7.7-6.8 11.6-10 1.9-1.3 3.6-2.7 5.1-4.4-0.4-6.8-1.2-13.6-1.6-20.5-0.7-2.9-0.9-5.9-0.4-8.8-0.8-1.2-0.4-1.6 0.4-2.4l0.2 0.4z m142 29.6c3.6-2 6 0.8 8.8 2.8l18.8 12.8c7.2-2.4 14.4-5.1 21.6-7.7 3.6-1.2 6-2.8 8.8 0.4 2.4 2.8 0.4 6.4-0.4 8.8-2 6.8-3.6 14-5.6 20.8 4.8 6 10 12 15.2 17.6 2.4 2.8 4.4 5.6 2.8 8.4-1.2 2.8-5.6 2.4-7.7 2.4-7.7 0.4-15.2 0.8-22.4 0.8-4.4 6.8-8.4 13.2-12.8 20-1.6 2.4-4 5.1-7.2 4-2.4-1.9-3.9-4.7-4.4-7.7l-7.2-20.5c-8.4-2-16.8-4.4-25.2-6.4-2.3-1.2-3.6-3.8-3.2-6.4 1.3-1.8 2.9-3.3 4.8-4.4 4-3.2 7.7-6.8 11.6-10 1.9-1.3 3.6-2.7 5.1-4.4-0.4-6.8-1.2-13.6-1.6-20.5-0.7-2.9-0.9-5.9-0.4-8.8-0.6-1.2 0.1-1.6 0.6-2zM142.82053 433.2c3.6-2 6 0.8 8.8 2.8 6.4 4.4 12.4 8.4 18.8 12.8 7.2-2.4 14.4-5.1 21.6-7.7 3.6-1.2 6-2.8 8.8 0.4 2.4 2.8 0.4 6.4-0.4 8.8-2 6.8-4 14-5.6 20.8 4.8 6 10 11.6 15.2 17.6 2.4 2.8 4.4 5.6 2.8 8.4-1.2 2.8-5.6 2.4-7.7 2.4l-22.4 0.8c-4.4 6.8-8.8 13.6-12.8 20-1.6 2.4-4 5.1-7.2 4-2.2-2-3.8-4.7-4.4-7.7l-7.2-20.5-25.2-6.4c-2.3-1.2-3.6-3.8-3.2-6.4 1.3-1.8 2.9-3.3 4.8-4.4 3.6-3.2 7.7-6.8 11.6-10 1.9-1.3 3.6-2.7 5.1-4.4-0.4-6.8-1.2-13.6-1.6-20.5-0.7-2.9-0.9-5.9-0.4-8.8-0.7-0.8-0.3-1.5 0.6-2z m558.8 414.4c3.6-2.4 2.4-5.6 2-8.8l-1.6-22.4 17.2-14.8c2.8-2.4 5.1-4 4-7.7-1.2-3.2-5.6-3.6-7.7-4-6.8-2-14-3.6-20.8-5.6-2.8-7.2-5.1-14.4-7.7-21.6-1.2-3.6-2.8-6.4-5.6-6.8-2.8-0.4-4.8 3.6-5.6 5.1l-12 19.2-24 1.2c-2.8 0-6.8 0.8-6.8 4.4 0.5 3 2 5.7 4.4 7.7 4.8 5.6 9.2 11.2 14 16.4l-7.2 25.2c-0.3 2.7 1.4 5.2 4 6 2.2-0.1 4.4-0.7 6.4-1.6l14.4-4.8c2.1-0.8 4.2-1.5 6.4-2 5.6 4 11.2 7.7 16.8 11.6 2.2 2.1 4.8 3.6 7.7 4.4 0.5-1.1 0.8-1.1 1.6-1.1h0.1z m-158.7 50c3.6-2.4 2.4-5.6 2-8.8l-1.6-22.4 17.2-14.8c2.8-2.4 5.1-4 4-7.7s-5.6-3.6-7.7-4c-6.8-1.6-14-3.6-20.8-5.6l-7.7-22c-1.2-3.6-2.8-6.4-5.6-6.8-2.8-0.4-4.8 3.6-5.6 5.1l-12 19.2-24 1.2c-2.8 0-6.8 0.8-6.8 4.4 0.5 3 2 5.7 4.4 7.7 4.8 5.6 9.2 11.2 14 16.4l-7.2 25.2c-0.3 2.7 1.4 5.2 4 6 2.2-0.3 4.3-0.9 6.4-1.6l14.4-4.8c2-1 4.2-1.7 6.4-2 5.6 4 11.2 7.7 16.8 11.6 2.2 2.1 4.8 3.6 7.7 4.4 0.4-0.8 0.8-0.8 1.7-0.7zM819.42053 738c3.6-2.4 2.4-5.6 2-8.8l-1.6-22.4 17.2-14.8c2.8-2.4 5.1-4 4-7.7-1.2-3.2-5.6-3.6-7.7-4-6.8-2-14-3.6-20.8-5.6-2.8-7.2-5.1-14.4-7.7-21.6-1.2-3.6-2.8-6.4-5.6-6.8-2.8-0.4-4.8 3.6-5.6 5.1l-12 19.2-24 1.2c-2.8 0-6.8 0.8-6.8 4.4 0.5 3 2 5.7 4.4 7.7 4.8 5.6 9.2 11.2 14 16.4l-7.2 25.2c-0.3 2.7 1.4 5.2 4 6 2.2-0.2 4.4-0.7 6.4-1.6l14.4-4.8c2.1-0.8 4.2-1.5 6.4-2 5.6 4 11.2 7.7 16.8 11.6 2.2 2.1 4.8 3.6 7.7 4.4 0-0.8 0.8-1.2 1.6-1.2l0.1 0.1z m45.6-137.6c3.6-2.4 2.4-5.6 2-8.8l-1.6-22.4 17.2-14.8c2.8-2.4 5.1-4 4-7.7-1.2-3.2-5.6-3.6-7.7-4-6.8-1.6-14-3.6-20.8-5.6l-7.7-22c-1.2-3.6-2.8-6.4-5.6-6.8-2.8-0.4-4.8 3.6-5.6 5.1l-12 19.2-24 1.2c-2.8 0-6.8 0.8-6.8 4.4 0.5 3 2 5.7 4.4 7.7 4.8 5.6 9.2 11.2 14 16.4l-7.2 25.2c-0.3 2.7 1.4 5.2 4 6 2.2-0.3 4.3-0.9 6.4-1.6l14.4-4.8c2.1-0.8 4.2-1.5 6.4-2 5.6 4 11.2 7.7 16.8 11.6 2.2 2.1 4.8 3.6 7.7 4.4 0.2-0.7 0.6-0.7 1.4-0.7h0.3zM395.52053 871.2c3.6-2.4 2.4-5.6 2-8.8l-1.6-22.4 17.2-14.8c2.8-2.4 5.1-4 4-7.7-1.2-3.2-5.6-3.6-7.7-4-6.8-2-14-3.6-20.8-5.6-2.8-7.2-5.1-14.4-7.7-21.6-1.2-3.6-2.8-6.4-5.6-6.8-2.8-0.4-4.8 3.6-5.6 5.1l-12 19.2-24 1.2c-2.8 0-6.8 0.8-6.8 4.4 0.5 3 2 5.7 4.4 7.7 4.8 5.6 9.2 11.2 14 16.4l-7.2 25.2c-0.3 2.7 1.4 5.2 4 6 2.2-0.3 4.3-0.9 6.4-1.6l14.4-4.8c2.1-0.8 4.2-1.5 6.4-2 5.6 4 11.2 7.7 16.8 11.6 2.2 2.1 4.8 3.6 7.7 4.4 0.5-0.8 0.9-1.1 1.7-1.1zM177.82053 611.9L248.92053 735c-4.6 4-9.5 8.4-14.3 12.8L178.32053 650.2l-17.7 10.2 58.1 100.7-12 9.7 13.2 16.8c26.8-21.2 51.9-44.6 75-69.9l-10.5-18.2c-6.2 6.8-13 13.8-20 20.8l-30.4-52.7 23.9-13.8-10.1-17.5-23.9 13.8-28.2-48.8-17.9 10.6zM296.32053 578.3c-5.7 16.5-13.5 32.2-23.1 46.8L242.02053 571l-18.3 10.6 75.8 131.3c4.2 10.9 16.4 16.3 27.2 12.1 1.8-0.7 3.5-1.7 5.1-2.8l20-11.5c6.8-3.3 12-9.2 14.4-16.4-1-16.1-6.1-31.6-14.6-45.3l-20.2 4.5c6.2 9.9 10.6 20.8 12.8 32.2 0 4.1-2.3 7.8-5.9 9.7l-10.6 6.1c-3.4 2.7-8.4 2.1-11.1-1.3-0.4-0.6-0.8-1.2-1.1-1.8L283.72053 643c13.1-17.1 23.9-36 31.9-56l-19.3-8.7z m124.2 11.3c12 22.8 9.7 50.5-5.9 71l18.9 10c11.9-17.4 17.3-38.6 15.2-59.6l51-29.4c4.6 10 7.4 16 8.1 17.9 0.3 2.2-0.5 4.4-2 6-4.8 4.1-10 7.7-15.5 10.6-3.8 2.2-7.5 4.1-11.5 6l14.2 13.5 1.7-1c11-5.8 21.4-12.7 30.9-20.8 3.6-3.5 5.2-8.6 4.4-13.6-5.8-15.7-12.8-30.9-21.1-45.4L444.42053 592c-1.5-4.2-3.3-8.5-5.3-12.8l74.5-43-9.8-16.9-52.8 30.5c-4.2-4-8.2-7.7-11.8-10.9l-17.4 14.2c3.3 2.2 6.8 4.9 10.2 7.7l-46 26.6 9.8 16.9 24.7-14.7z m29.4-103.7l9.5 16.4-96.7 55.9-9.5-16.4 96.7-55.9zM372.32053 574.8l114.4-66.1-28.8-49.8-56.4 32.6c-4.4-4-8.5-7.5-12.5-10.8L371.42053 495c3.6 2.4 7.1 5 10.4 7.8L325.32053 535.5l36 62.4c15.9 25.3 24.6 54.4 25 84.3l20.5 4.3c0.3-34.9-9.1-69.2-27.3-99.1l-7.2-12.6z m290-140.5l-42.7-74L487.32053 436.6l10 17.3 113.8-65.7 22.8 39.5-88.2 51-13.2-22.8-18.2 10.4 51.8 89.7c8.9 15.4 20.7 19 35.6 10.4l96.3-55.6c6.1-3.6 10.7-9.2 13-15.8-1.4-15.5-6.1-30.4-13.8-43.9l-20.9 4.7c6.5 10 10.7 21.3 12.5 33.2-1 3.2-3.1 5.9-6 7.6l-86.1 49.7c-6.1 3.5-10.8 2.1-14.4-4.1l-26.6-46.1L662.32053 434.3z m191.5-76.4L732.32053 428l31 53.6 17.7-10.2-4.1-7.1 85.8-49.5 4.1 7.1 17.7-10.2-30.7-53.8z m-85.6 90.8l-9.1-15.7 85.8-49.5 9.1 15.7-85.8 49.5z m-67.1-76.1l26.7 46.2 130.4-75.3-8.7-15.1-53.1 30.7-5-8.6 42.6-24.6-8-13.8-42.6 24.6-4.7-8.1 42.1-24.3-8-13.8-42.1 24.3-4.9-8.5 49.8-28.8-8.6-15-48.1 27.8c-5.8-5-11.2-9.2-16.4-13.1l-16.9 13.9c5.4 2.8 10.6 5.9 15.6 9.4L705.32053 321.2c-0.3-5.3-1-10.5-1.8-16l-19.7 6.8c3.8 24.4 1.6 49.4-6.2 72.9l15.9 14.4c3-8.8 5.5-17.7 7.6-26.7z m77.4-3.3l-42.6 24.6-5-8.6 42.6-24.6 5 8.6z m-12.9-22.5l-42.6 24.6-4.7-8.1 42.6-24.6 4.7 8.1z m-12.7-22L710.32053 349.4l-4.9-8.5 42.6-24.6 4.9 8.5z" fill="#F04531" opacity=".5" p-id="3907"></path></svg>