<?xml version="1.0" standalone="no"?><!DOCTYPE svg PUBLIC "-//W3C//DTD SVG 1.1//EN" "http://www.w3.org/Graphics/SVG/1.1/DTD/svg11.dtd"><svg t="1590737082958" class="icon" viewBox="0 0 1024 1024" version="1.1" xmlns="http://www.w3.org/2000/svg" p-id="6349" xmlns:xlink="http://www.w3.org/1999/xlink" width="32" height="32"><defs><style type="text/css"></style></defs><path d="M12.98684 82.617l469.5 469.7c16.5 16.3 43 16.3 59.5 0l469.3-469.7c16.1-15 17-40.1 2-56.2s-40.1-17-56.2-2c-0.8 0.6-1.4 1.3-2 2l-443 443.1-442.8-443c-15-16.1-40.1-17-56.2-2s-17 40.1-2 56.2c0.6 0.7 1.3 1.3 1.9 1.9z" fill="#CCCCCC" p-id="6350"></path><path d="M12.98684 528.717l469.3 469.3c16.5 16.3 43 16.3 59.5 0l469.5-469.3c16.1-15 17-40.1 2-56.2s-40.1-17-56.2-2c-0.8 0.6-1.4 1.3-2 2-146.1 147.3-293.1 294.3-441 442.5-149.8-146.8-297.9-294.5-445.2-442.5-15-16.1-40.1-17-56.2-2s-17 40.1-2 56.2c0.6 0.6 1.3 1.4 2 2h0.3z" fill="#CCCCCC" p-id="6351"></path></svg>