<?xml version="1.0" standalone="no"?><!DOCTYPE svg PUBLIC "-//W3C//DTD SVG 1.1//EN" "http://www.w3.org/Graphics/SVG/1.1/DTD/svg11.dtd"><svg t="1591666872379" class="icon" viewBox="0 0 1024 1024" version="1.1" xmlns="http://www.w3.org/2000/svg" p-id="6001" xmlns:xlink="http://www.w3.org/1999/xlink" width="64" height="64"><defs><style type="text/css"></style></defs><path d="M959.433 64.467h-894.9c-30.9-4.4-59.5 17-63.9 47.8-0.8 5.3-0.8 10.8 0 16.1-4.4 30.9 17 59.5 47.8 63.9 5.3 0.8 10.8 0.8 16.1 0h894.9c30.9 4.4 59.5-17 63.9-47.8 0.8-5.3 0.8-10.8 0-16.1 4.4-30.9-17-59.5-47.8-63.9-5.3-0.7-10.7-0.7-16.1 0zM959.433 575.867h-894.9c-30.9-4.4-59.5 17-63.9 47.8-0.8 5.3-0.8 10.8 0 16.1-4.4 30.9 17 59.5 47.8 63.9 5.3 0.8 10.8 0.8 16.1 0h894.9c30.9 4.4 59.5-17 63.9-47.8 0.8-5.3 0.8-10.8 0-16.1 4.4-30.9-17-59.5-47.8-63.9-5.3-0.7-10.7-0.7-16.1 0zM735.733 320.167h-447.5c-30.9-4.4-59.5 17-63.9 47.8-0.8 5.3-0.8 10.8 0 16.1-4.4 30.9 17 59.5 47.8 63.9 5.3 0.8 10.8 0.8 16.1 0h447.5c30.9 4.4 59.5-17 63.9-47.8 0.8-5.3 0.8-10.8 0-16.1 4.4-30.9-17-59.5-47.8-63.9-5.3-0.7-10.8-0.7-16.1 0zM735.733 831.667h-447.5c-30.9-4.4-59.5 17-63.9 47.8-0.8 5.3-0.8 10.8 0 16.1-4.4 30.9 17 59.5 47.8 63.9 5.3 0.8 10.8 0.8 16.1 0h447.5c30.9 4.4 59.5-17 63.9-47.8 0.8-5.3 0.8-10.8 0-16.1 4.4-30.9-17-59.5-47.8-63.9-5.3-0.8-10.8-0.8-16.1 0z" fill="#919AAA" p-id="6002"></path></svg>