<?xml version="1.0" standalone="no"?><!DOCTYPE svg PUBLIC "-//W3C//DTD SVG 1.1//EN" "http://www.w3.org/Graphics/SVG/1.1/DTD/svg11.dtd"><svg t="1591942973966" class="icon" viewBox="0 0 1024 1024" version="1.1" xmlns="http://www.w3.org/2000/svg" p-id="12525" xmlns:xlink="http://www.w3.org/1999/xlink" width="200" height="200"><defs><style type="text/css"></style></defs><path d="M739.532936 56.900134c31.399991 0 56.899984 25.399993 56.899983 56.799984v796.499774c0 31.399991-25.399993 56.899984-56.799983 56.899984H284.433064c-31.399991 0-56.899984-25.399993-56.899983-56.799984V113.800118c0-31.399991 25.399993-56.899984 56.799983-56.899984H739.532936m0-56.899984h-455.099872c-62.699982-0.1-113.699968 50.699986-113.799967 113.399968v796.799774c-0.1 62.699982 50.699986 113.699968 113.399968 113.799968h455.499871c62.699982 0.1 113.699968-50.699986 113.799967-113.399968V113.800118c0.1-62.699982-50.699986-113.699968-113.399968-113.799968h-0.399999z" fill="#F04531" p-id="12526"></path><path d="M170.633097 796.399924v118.399967c-1.6 58.299983 44.099988 107.09997 102.399971 109.199969h477.899864c58.299983-2.199999 103.999971-50.899986 102.399971-109.199969V796.399924h-682.699806z m341.399903 170.699952c-31.399991 0-56.899984-25.499993-56.899984-56.899984s25.499993-56.899984 56.899984-56.899984 56.899984 25.499993 56.899984 56.899984-25.399993 56.899984-56.799984 56.899984h-0.1z" fill="#F04531" p-id="12527"></path></svg>