<?xml version="1.0" standalone="no"?><!DOCTYPE svg PUBLIC "-//W3C//DTD SVG 1.1//EN" "http://www.w3.org/Graphics/SVG/1.1/DTD/svg11.dtd"><svg t="1590737089946" class="icon" viewBox="0 0 1024 1024" version="1.1" xmlns="http://www.w3.org/2000/svg" p-id="6480" xmlns:xlink="http://www.w3.org/1999/xlink" width="32" height="32"><defs><style type="text/css"></style></defs><path d="M12.98684 941.316l469.4-469.7c16.5-16.2 43-16.2 59.6 0l469.4 469.7c16.1 14.9 17 40.1 2 56.2-14.9 16.1-40.1 17-56.2 2-0.7-0.7-1.4-1.3-2-2l-443.1-443.1-443 443.1c-14.9 16.1-40.1 17-56.2 2-16.1-14.9-17-40.1-2-56.2 0.7-0.6 1.4-1.3 2.1-2z" fill="#CCCCCC" p-id="6481"></path><path d="M12.98684 495.316l469.3-469.4c16.5-16.2 43-16.2 59.6 0l469.5 469.3c16.1 14.9 17 40.1 2 56.2-14.9 16.1-40.1 17-56.2 2-0.7-0.7-1.4-1.3-2-2-146.2-147.4-293.2-294.2-441.1-442.5-149.8 146.8-297.8 294.5-445.2 442.5-14.9 16.1-40.1 17-56.2 2s-17-40.1-2-56.2c0.7-0.7 1.3-1.4 2-2h0.3z" fill="#CCCCCC" p-id="6482"></path></svg>