<?xml version="1.0" standalone="no"?><!DOCTYPE svg PUBLIC "-//W3C//DTD SVG 1.1//EN" "http://www.w3.org/Graphics/SVG/1.1/DTD/svg11.dtd"><svg t="1591931092796" class="icon" viewBox="0 0 1024 1024" version="1.1" xmlns="http://www.w3.org/2000/svg" p-id="6260" xmlns:xlink="http://www.w3.org/1999/xlink" width="32" height="32"><defs><style type="text/css"></style></defs><path d="M655.232341 522.655593v282.287898h27.398826v37.09841h-208.391066v-37.09841h30.698684v-282.287898H655.232341z m-113.395138 282.287898h75.296772v-58.997471h-75.296772v58.997471z m0-95.295914h75.296772v-58.497493h-75.296772v58.497493z m0-95.095924h75.296772v-55.597616h-75.296772v55.597616z m-190.091851-7.299687h53.297715v-43.098152c-14.599374 1.899919-29.198748 3.699841-44.098109 5.199777l-7.69967-34.898504c41.498221-3.099867 82.496463-10.599546 122.394753-22.599031l13.099438 35.598474c-14.599374 3.699841-29.498735 7.299687-45.598045 10.699541v48.9979h46.398011v36.598431h-46.398011v14.799365c16.79928 14.599374 33.59856 30.498692 50.697827 48.197934l-21.199092 32.698598c-11.699498-17.099267-21.599074-30.79868-29.598731-41.898204v155.393338h-37.998371v-152.393466c-12.399468 29.598731-28.498778 57.497535-47.897946 83.096437l-16.09931-40.398268c26.698855-28.598774 47.097981-62.397325 59.897432-99.395739h-49.397882l0.199991-36.598431z" fill="#FFFFFF" opacity=".5" p-id="6261"></path><path d="M1010.917093 351.862915c14.199391 10.699541 17.099267 30.898675 6.399726 45.098067-0.299987 0.399983-0.69997 0.899961-0.999958 1.299944-12.199477 14.199391-33.298572 16.599288-48.297929 5.399769l-19.499164-12.59946v539.676863c0 59.197462-27.9988 92.996013-81.596502 92.996013h-682.470742c-55.497621 3.999829-103.79555-37.598388-108.095365-92.996013v-539.676863l-21.499079 12.59946c-14.69937 11.299516-35.798465 8.899618-47.497964-5.399769-11.299516-13.699413-9.399597-34.098538 4.399812-45.398054 0.399983-0.299987 0.799966-0.69997 1.199948-0.999957l432.481459-330.485831c39.698298-28.498778 93.096009-28.498778 132.794307 0l432.481459 330.485831h0.199992z m-498.978608 629.173027c164.892931 0 298.587199-133.694268 298.587199-298.587199s-133.694268-298.487204-298.587199-298.487204-298.487204 133.694268-298.487204 298.587199c0 164.892931 133.594273 298.487204 298.487204 298.487204z" fill="#FFFFFF" p-id="6262"></path></svg>