<?xml version="1.0" standalone="no"?><!DOCTYPE svg PUBLIC "-//W3C//DTD SVG 1.1//EN" "http://www.w3.org/Graphics/SVG/1.1/DTD/svg11.dtd"><svg t="1591253753235" class="icon" viewBox="0 0 1024 1024" version="1.1" xmlns="http://www.w3.org/2000/svg" p-id="5511" xmlns:xlink="http://www.w3.org/1999/xlink" width="200" height="200"><defs><style type="text/css"></style></defs><path d="M955.12053 256C813.72053 11.2 500.72053-72.6 255.92053 68.8S-72.67947 523.2 68.72053 768s454.5 328.6 699.3 187.2c244.7-141.2 328.6-454.1 187.4-698.8-0.1-0.1-0.2-0.3-0.3-0.4zM761.92053 944.7c-239 138.1-544.8 56.2-682.9-182.8S22.82053 217.1 261.92053 79.1s544.8-56.2 682.9 182.8c137.9 239 56.1 544.7-182.9 682.8z" fill="#919AAA" opacity=".5" p-id="5512"></path><path d="M897.92053 289.2C774.92053 76 502.32053 2.9 289.12053 126 75.92053 249 2.82053 521.6 125.92053 734.8 249.02053 948 521.52053 1021.1 734.72053 898c213.1-123.1 286.1-395.6 163.2-608.8zM731.52053 892.8C521.22053 1014.3 252.32053 942.2 130.82053 731.9 9.42053 521.6 81.42053 252.7 291.72053 131.2 502.02053 9.8 770.82053 81.8 892.32053 292c121.4 210.3 49.5 479.2-160.8 600.8z" fill="#919AAA" opacity=".5" p-id="5513"></path><path d="M316.42053 180c3.6-2 6 0.8 8.8 2.8 6 4.4 12.4 8.8 18.8 12.8 7.2-2.4 14.4-5.1 21.6-7.7 3.6-1.2 6-2.8 8.8 0.4 2.4 2.8 0.4 6.4-0.4 8.8-2 6.8-3.6 13.6-5.6 20.8 4.8 6 10 11.6 15.2 17.6 2.4 2.8 4.4 5.6 2.8 8.4-1.2 2.8-5.6 2.4-7.7 2.4l-22.4 0.8c-4.4 6.8-8.4 13.6-12.8 20-1.6 2.4-4 5.1-7.2 4-2.4-1.9-3.9-4.7-4.4-7.7l-7.2-20.5-25.2-6.4c-2.3-1.2-3.6-3.8-3.2-6.4 1.3-1.8 2.9-3.3 4.8-4.4 4-3.2 7.7-6.8 11.6-10 1.9-1.3 3.6-2.7 5.1-4.4-0.4-6.8-1.2-13.6-1.6-20.5-0.7-2.9-0.9-5.9-0.4-8.8-0.7-0.8-0.3-1.6 0.6-2zM193.52053 292.4c3.6-2 6 0.8 8.8 2.8 6.4 4.4 12.4 8.4 18.8 12.8 7.2-2.4 14.4-5.1 21.6-7.7 3.6-1.2 6-2.8 8.8 0.4 2.4 2.8 0.4 6.4-0.4 8.8-2 6.8-3.6 13.6-5.6 20.8 4.8 6 10 11.6 14.8 17.6 2.4 2.8 4.4 5.6 2.8 8.4-1.2 2.4-5.6 2.4-7.7 2.4l-22.4 0.8c-4.4 6.8-8.8 13.6-12.8 20-1.6 2.4-4 5.1-7.2 4-2.2-2-3.8-4.7-4.4-7.7l-7.2-20.5c-8.4-2-16.8-4.4-25.2-6.4-2.3-1.2-3.6-3.8-3.2-6.4 1.3-1.8 2.9-3.3 4.8-4.4 3.6-3.2 7.7-6.8 11.6-10 1.9-1.3 3.6-2.7 5.1-4.4-0.4-6.8-1.2-13.6-1.6-20.5-0.7-2.9-0.9-5.9-0.4-8.8-0.4-1.2 0-1.6 0.8-2.4l0.2 0.4z m276.5-159.6c3.6-2 6 0.8 8.8 2.8 6.4 4.4 12.4 8.4 18.8 12.8 7.2-2.4 14.4-5.1 21.6-7.7 3.6-1.2 6-2.8 8.8 0.4 2.4 2.8 0.4 6.4-0.4 8.8-2 6.8-3.6 14-5.6 20.8 4.8 6 10 12 15.2 17.6 2.4 2.8 4.4 5.6 2.8 8.4-1.2 2.8-5.6 2.4-7.7 2.4l-22.4 0.8c-4.4 6.8-8.8 13.6-12.8 20-1.6 2.4-4 5.1-7.2 4-2.2-2-3.8-4.7-4.4-7.7l-7.2-20.5-25.2-6.4c-2.3-1.2-3.6-3.8-3.2-6.4 1.3-1.8 2.9-3.3 4.8-4.4 4-3.2 7.7-6.8 11.6-10 1.9-1.3 3.6-2.7 5.1-4.4-0.4-6.8-1.2-13.6-1.6-20.5-0.7-2.9-0.9-5.9-0.4-8.8-0.8-1.2-0.4-1.6 0.4-2.4l0.2 0.4z m142 29.6c3.6-2 6 0.8 8.8 2.8l18.8 12.8c7.2-2.4 14.4-5.1 21.6-7.7 3.6-1.2 6-2.8 8.8 0.4 2.4 2.8 0.4 6.4-0.4 8.8-2 6.8-3.6 14-5.6 20.8 4.8 6 10 12 15.2 17.6 2.4 2.8 4.4 5.6 2.8 8.4-1.2 2.8-5.6 2.4-7.7 2.4-7.7 0.4-15.2 0.8-22.4 0.8-4.4 6.8-8.4 13.2-12.8 20-1.6 2.4-4 5.1-7.2 4-2.4-1.9-3.9-4.7-4.4-7.7l-7.2-20.5c-8.4-2-16.8-4.4-25.2-6.4-2.3-1.2-3.6-3.8-3.2-6.4 1.3-1.8 2.9-3.3 4.8-4.4 4-3.2 7.7-6.8 11.6-10 1.9-1.3 3.6-2.7 5.1-4.4-0.4-6.8-1.2-13.6-1.6-20.5-0.7-2.9-0.9-5.9-0.4-8.8-0.6-1.2 0.1-1.6 0.6-2zM142.82053 433.2c3.6-2 6 0.8 8.8 2.8 6.4 4.4 12.4 8.4 18.8 12.8 7.2-2.4 14.4-5.1 21.6-7.7 3.6-1.2 6-2.8 8.8 0.4 2.4 2.8 0.4 6.4-0.4 8.8-2 6.8-4 14-5.6 20.8 4.8 6 10 11.6 15.2 17.6 2.4 2.8 4.4 5.6 2.8 8.4-1.2 2.8-5.6 2.4-7.7 2.4l-22.4 0.8c-4.4 6.8-8.8 13.6-12.8 20-1.6 2.4-4 5.1-7.2 4-2.2-2-3.8-4.7-4.4-7.7l-7.2-20.5-25.2-6.4c-2.3-1.2-3.6-3.8-3.2-6.4 1.3-1.8 2.9-3.3 4.8-4.4 3.6-3.2 7.7-6.8 11.6-10 1.9-1.3 3.6-2.7 5.1-4.4-0.4-6.8-1.2-13.6-1.6-20.5-0.7-2.9-0.9-5.9-0.4-8.8-0.7-0.8-0.3-1.5 0.6-2z m558.8 414.4c3.6-2.4 2.4-5.6 2-8.8l-1.6-22.4 17.2-14.8c2.8-2.4 5.1-4 4-7.7-1.2-3.2-5.6-3.6-7.7-4-6.8-2-14-3.6-20.8-5.6-2.8-7.2-5.1-14.4-7.7-21.6-1.2-3.6-2.8-6.4-5.6-6.8-2.8-0.4-4.8 3.6-5.6 5.1l-12 19.2-24 1.2c-2.8 0-6.8 0.8-6.8 4.4 0.5 3 2 5.7 4.4 7.7 4.8 5.6 9.2 11.2 14 16.4l-7.2 25.2c-0.3 2.7 1.4 5.2 4 6 2.2-0.1 4.4-0.7 6.4-1.6l14.4-4.8c2.1-0.8 4.2-1.5 6.4-2 5.6 4 11.2 7.7 16.8 11.6 2.2 2.1 4.8 3.6 7.7 4.4 0.5-1.1 0.8-1.1 1.6-1.1h0.1z m-158.7 50c3.6-2.4 2.4-5.6 2-8.8l-1.6-22.4 17.2-14.8c2.8-2.4 5.1-4 4-7.7s-5.6-3.6-7.7-4c-6.8-1.6-14-3.6-20.8-5.6l-7.7-22c-1.2-3.6-2.8-6.4-5.6-6.8-2.8-0.4-4.8 3.6-5.6 5.1l-12 19.2-24 1.2c-2.8 0-6.8 0.8-6.8 4.4 0.5 3 2 5.7 4.4 7.7 4.8 5.6 9.2 11.2 14 16.4l-7.2 25.2c-0.3 2.7 1.4 5.2 4 6 2.2-0.3 4.3-0.9 6.4-1.6l14.4-4.8c2-1 4.2-1.7 6.4-2 5.6 4 11.2 7.7 16.8 11.6 2.2 2.1 4.8 3.6 7.7 4.4 0.4-0.8 0.8-0.8 1.7-0.7zM819.42053 738c3.6-2.4 2.4-5.6 2-8.8l-1.6-22.4 17.2-14.8c2.8-2.4 5.1-4 4-7.7-1.2-3.2-5.6-3.6-7.7-4-6.8-2-14-3.6-20.8-5.6-2.8-7.2-5.1-14.4-7.7-21.6-1.2-3.6-2.8-6.4-5.6-6.8-2.8-0.4-4.8 3.6-5.6 5.1l-12 19.2-24 1.2c-2.8 0-6.8 0.8-6.8 4.4 0.5 3 2 5.7 4.4 7.7 4.8 5.6 9.2 11.2 14 16.4l-7.2 25.2c-0.3 2.7 1.4 5.2 4 6 2.2-0.2 4.4-0.7 6.4-1.6l14.4-4.8c2.1-0.8 4.2-1.5 6.4-2 5.6 4 11.2 7.7 16.8 11.6 2.2 2.1 4.8 3.6 7.7 4.4 0-0.8 0.8-1.2 1.6-1.2l0.1 0.1z m45.6-137.6c3.6-2.4 2.4-5.6 2-8.8l-1.6-22.4 17.2-14.8c2.8-2.4 5.1-4 4-7.7-1.2-3.2-5.6-3.6-7.7-4-6.8-1.6-14-3.6-20.8-5.6l-7.7-22c-1.2-3.6-2.8-6.4-5.6-6.8s-4.8 3.6-5.6 5.1l-12 19.2-24 1.2c-2.8 0-6.8 0.8-6.8 4.4 0.5 3 2 5.7 4.4 7.7 4.8 5.6 9.2 11.2 14 16.4l-7.2 25.2c-0.3 2.7 1.4 5.2 4 6 2.2-0.3 4.3-0.9 6.4-1.6l14.4-4.8c2.1-0.8 4.2-1.5 6.4-2 5.6 4 11.2 7.7 16.8 11.6 2.2 2.1 4.8 3.6 7.7 4.4 0.2-0.7 0.6-0.7 1.4-0.7h0.3zM395.52053 871.2c3.6-2.4 2.4-5.6 2-8.8l-1.6-22.4 17.2-14.8c2.8-2.4 5.1-4 4-7.7-1.2-3.2-5.6-3.6-7.7-4-6.8-2-14-3.6-20.8-5.6-2.8-7.2-5.1-14.4-7.7-21.6-1.2-3.6-2.8-6.4-5.6-6.8-2.8-0.4-4.8 3.6-5.6 5.1l-12 19.2-24 1.2c-2.8 0-6.8 0.8-6.8 4.4 0.5 3 2 5.7 4.4 7.7 4.8 5.6 9.2 11.2 14 16.4l-7.2 25.2c-0.3 2.7 1.4 5.2 4 6 2.2-0.3 4.3-0.9 6.4-1.6l14.4-4.8c2.1-0.8 4.2-1.5 6.4-2 5.6 4 11.2 7.7 16.8 11.6 2.2 2.1 4.8 3.6 7.7 4.4 0.5-0.8 0.9-1.1 1.7-1.1zM393.12253 582.9l-42.7-74-132.1 76.2 10 17.3 113.8-65.7 22.8 39.5-88.2 51-13.2-22.8-18.2 10.4 51.8 89.7c8.9 15.4 20.7 19 35.6 10.4l96.3-55.6c6.1-3.5 10.7-9.1 13-15.8-1.4-15.5-6.1-30.4-13.8-43.9l-20.9 4.7c6.5 10 10.8 21.3 12.6 33.1-1 3.2-3.1 5.9-6 7.6l-86.1 49.7c-6.1 3.5-10.8 2.1-14.4-4.1l-26.7-46.2 106.4-61.5z m3.3-108.9l-5.5 18.8c15.4 2.2 30.5 6 45 11.6l5.6-20.7c-14.7-4.6-29.8-7.8-45.1-9.7z m193.2 96.2l36.7-21.2-6.2-20.7c-4.1 2.9-10.3 6.9-18.4 12-8.1 5.1-16.2 9.8-24.2 14.4-14 8.1-26.4 15-36.9 20.8-8.2 4.8-17.2 8-26.6 9.4-6.3 0-12.5-0.9-18.5-2.9-1.1-0.3-2.1-0.4-3.2-0.7l-37.9-65.6-40.3 23.2 9.8 16.9 23.2-13.4 27.4 47.4c-5.8 12.7-8.6 26.6-7.9 40.6l20.4 4.6c-0.4-21 1-32.6 4.5-34.6 3.1-1.3 6.6-1.1 9.5 0.4 8.3 2.9 17.2 3.3 25.7 1 10.6-3.5 20.9-8.1 30.5-13.7 11.8-6.2 22.6-12.2 32.4-17.9z m-19-20.2c12.1-7 15-16.3 8.6-27.5l-41.9-72.6 22.7-13.1-10.3-17.8-22.6 13.1-15-25.9-18.3 10.6 15.1 26.1-61 35.2 10.2 17.7 61-35.2 39.3 68.1c2 3.5 0.9 6.4-3.2 8.8-6.7 3.8-14 7.4-21.6 10.9l14.1 15.2 22.9-13.6z m-83.4-56.2l-9.3 17.8c14.4 6.1 28.2 13.3 41.5 21.5l9.1-19.3c-13.3-7.7-27.1-14.4-41.3-20z m77.7-117.8l10 17.3-8.9 5.1 9.7 16.8 8.9-5.1 39 67.6-10.7 6.2 9.7 16.8 83.2-48-9.7-16.8-9.3 5.4-39-67.6 8.5-4.9-9.7-16.8-8.5 4.9-9.8-16.9-17.3 10 9.8 16.9-28.5 16.5-10-17.3-17.4 9.9z m76 91.7l-6.9-11.9 28.5-16.5 6.9 11.9-28.5 16.5z m-10.5-84.1l7 12.1-28.5 16.5-7-12.1 28.5-16.5z m-5.5 56.4l-7-12.1 28.5-16.5 7 12.1-28.5 16.5z m57.3 27.5l-9 17.1c11.6 5.2 22.8 11.2 33.5 18l6.2-13.3 19.2 4.1c2.2-23.5-1.9-47.2-11.9-68.5l27.6-15.9 17.2 29.8c2.7 4.7 2.4 8.1-1.1 10.1-5.2 3-11.1 5.9-17.6 9l15.1 14.9 18-10.4c9.2-3.6 13.8-14 10.2-23.2-0.6-1.6-1.5-3.1-2.6-4.5l-78.4-135.9-62.8 36.3 48.1 83.4c11.5 18.9 17.6 40.6 17.6 62.7-9.5-5.1-19.3-9.6-29.3-13.5v-0.2z m-38.8 23.1c0.4 13.9-1.3 27.7-5.1 41.1l20.4 2c3-14.6 4-29.5 3-44.3l-18.3 1.2z m54-107.6l26.6-15.4 14.4 24.9-26.6 15.4-14.4-24.9z m17.1-31.8l-26.6 15.4-14.4-24.9 26.6-15.4 14.4 24.9z" fill="#919AAA" opacity=".5" p-id="5514"></path></svg>