<?xml version="1.0" standalone="no"?><!DOCTYPE svg PUBLIC "-//W3C//DTD SVG 1.1//EN" "http://www.w3.org/Graphics/SVG/1.1/DTD/svg11.dtd"><svg t="1591666887985" class="icon" viewBox="0 0 1024 1024" version="1.1" xmlns="http://www.w3.org/2000/svg" p-id="6271" xmlns:xlink="http://www.w3.org/1999/xlink" width="64" height="64"><defs><style type="text/css"></style></defs><path d="M64.533 65.867h894.9c30.9-4.4 59.5 17 63.9 47.8 0.8 5.3 0.8 10.8 0 16.1 4.4 30.9-17 59.5-47.8 63.9-5.3 0.8-10.8 0.8-16.1 0h-894.9c-30.9 4.4-59.5-17-63.9-47.8-0.8-5.3-0.8-10.8 0-16.1-4.4-30.9 17-59.5 47.8-63.9 5.3-0.7 10.8-0.7 16.1 0zM64.533 830.167h894.9c30.9-4.4 59.5 17 63.9 47.8 0.8 5.3 0.8 10.8 0 16.1 4.4 30.9-17 59.5-47.8 63.9-5.3 0.8-10.8 0.8-16.1 0h-894.9c-30.9 4.4-59.5-17-63.9-47.8-0.8-5.3-0.8-10.8 0-16.1-4.4-30.9 17-59.5 47.8-63.9 5.3-0.7 10.8-0.7 16.1 0z" fill="#919AAA" p-id="6272"></path><path d="M258.362 441.3h-219.2c-23.4 2.1-40.6 22.7-38.5 46.1v0.1c-1.8 23.1 15.4 43.4 38.5 45.5h219.1c23.1-2.1 40.3-22.4 38.5-45.6 2.1-23.4-15.1-44.1-38.4-46.1-0.1-0.1-0.1-0.1 0 0z m355.2 0h-219.1c-23.4 2.1-40.6 22.7-38.5 46.1v0.1c-1.8 23.2 15.3 43.5 38.5 45.6h219.1c23.1-2.1 40.3-22.4 38.5-45.6 2.1-23.4-15-44.1-38.5-46.2 0.1 0 0 0 0 0z m366.5 0h-219.7c-23.4 2.1-40.6 22.7-38.5 46.1v0.1c-1.8 23.2 15.3 43.5 38.5 45.6h219.7c22.9-2.4 39.7-22.6 37.9-45.6 2.2-23.3-14.8-43.9-37.9-46.2z" fill="#919AAA" p-id="6273"></path></svg>