<?xml version="1.0" standalone="no"?><!DOCTYPE svg PUBLIC "-//W3C//DTD SVG 1.1//EN" "http://www.w3.org/Graphics/SVG/1.1/DTD/svg11.dtd"><svg t="1590733374883" class="icon" viewBox="0 0 1024 1024" version="1.1" xmlns="http://www.w3.org/2000/svg" p-id="5285" xmlns:xlink="http://www.w3.org/1999/xlink" width="32" height="32"><defs><style type="text/css"></style></defs><path d="M528.345 762.993c-5.1-12.4 0.8-26.7 13.3-31.8 12.2-5 26.1 0.6 31.5 12.6 7.7 13.6 22.9 21.2 38.4 19.2 22.8 1.2 42.4-15.7 44.8-38.4 0.5-24.2-18.8-44.3-43-44.8h-404.8c-14.1 0-25.6-11.4-25.6-25.6 0-14.1 11.4-25.6 25.6-25.6h409.3c2 0 4 0.3 5.9 0.8 47.2 7.3 82.5 47.3 83.7 95.1-1.8 51.2-44.7 91.2-95.9 89.6-35.7 2-68.9-18.4-83.2-51.1z m-319.8-217.4c-13.7-0.9-24.7-11.9-25.6-25.6 0.9-13.7 11.9-24.7 25.6-25.6h543.7c24.7 0.7 45.3-18.8 46-43.5s-18.8-45.3-43.5-46h-2.6c-16.1 2.2-30.2 11.6-38.4 25.6-5.1 12.4-19.3 18.4-31.8 13.3-12.4-5.1-18.4-19.3-13.3-31.8 0.1-0.2 0.2-0.5 0.3-0.7 14.3-33.6 46.7-56 83.2-57.5 52.4 1.3 94.6 43.5 95.9 95.9-1.3 52.4-43.5 94.6-95.9 95.9h-543.6z m0-140.7c-13.7-0.9-24.7-11.9-25.6-25.6 0.9-13.7 11.9-24.7 25.6-25.6h307.2c24.2 0.5 44.3-18.8 44.8-43v-1.8c0-25.6-19.2-38.4-44.8-38.4-17.4-2.2-33.8 8.7-38.4 25.6-4.6 12.1-18 18.1-30.1 13.6-0.6-0.2-1.3-0.5-1.9-0.8-13.3-7.7-18.8-24-13-38.3 15.7-31.5 47.9-51.4 83.1-51.2 52.5 1.3 94.7 43.5 96 95.9-1.8 51.2-44.8 91.2-96 89.5h-306.9z" fill="#999999" p-id="5286"></path><path d="M512 36.6c-127 0-246.4 49.5-336.2 139.2C86.1 265.6 36.6 385 36.6 512s49.5 246.4 139.2 336.2c89.8 89.8 209.2 139.2 336.2 139.2S758.4 937.9 848.2 848.2C938 758.4 987.5 639 987.5 512s-49.5-246.4-139.2-336.2C758.4 86 639 36.6 512 36.6m0-36.6c282.8 0 512 229.2 512 512s-229.2 512-512 512S0 794.8 0 512 229.3 0 512 0z" fill="#999999" p-id="5287"></path></svg>