<?xml version="1.0" standalone="no"?><!DOCTYPE svg PUBLIC "-//W3C//DTD SVG 1.1//EN" "http://www.w3.org/Graphics/SVG/1.1/DTD/svg11.dtd"><svg t="1589767975721" class="icon" viewBox="0 0 1024 1024" version="1.1" xmlns="http://www.w3.org/2000/svg" p-id="2915" xmlns:xlink="http://www.w3.org/1999/xlink" width="48" height="48"><defs><style type="text/css"></style></defs><path d="M512 0c282.8 0 512 229.2 512 512s-229.2 512-512 512S0 794.8 0 512 229.2 0 512 0z" opacity=".5" p-id="2916"></path><path d="M256 340c0-18 14.6-32.8 32.8-32.8H747.5c18 0 32.8 14.6 32.8 32.6V684c0 18-14.6 32.8-32.8 32.8H288.8c-18 0-32.8-14.6-32.8-32.6V340z m369.2 187c30.6-8.1 53.8-33.2 59.5-64.3 0.9-2.2 1.4-4.6 1.3-7v-7.9c0-2.4-0.4-4.9-1.3-7-7.3-38.8-41.1-66.9-80.6-66.8H513c-9.1 0-16.4 7.3-16.4 16.4V587L351.4 379.8c-5.6-7.2-15.9-8.4-23-2.8-6.7 5.1-8.3 14.6-3.8 21.6l175 249.3c5.2 7.4 15.4 9.2 22.8 4 4.4-3.1 6.9-8.1 7-13.3V530.1h57.5l81.9 114.7c5.2 7.4 15.5 9.1 22.9 3.8 7.4-5.2 9.1-15.5 3.8-22.9L625.2 527zM529 497.2V407h74.9c25-2 46.8 16.5 48.9 41.5 2 25-16.5 46.8-41.5 48.9-2.4 0.3-5 0.3-7.4 0l-74.9-0.2z" fill="#FFFFFF" p-id="2917"></path></svg>