<?xml version="1.0" standalone="no"?><!DOCTYPE svg PUBLIC "-//W3C//DTD SVG 1.1//EN" "http://www.w3.org/Graphics/SVG/1.1/DTD/svg11.dtd"><svg t="1591670992966" class="icon" viewBox="0 0 1024 1024" version="1.1" xmlns="http://www.w3.org/2000/svg" p-id="7211" xmlns:xlink="http://www.w3.org/1999/xlink" width="64" height="64"><defs><style type="text/css"></style></defs><path d="M142.49844 494.825c0 34.2 27.7 61.9 61.9 61.9s61.9-27.7 61.9-61.9-27.7-61.9-61.9-61.9-61.9 27.8-61.9 61.9z m0 0l72.1-185.6c0 34.2 27.7 61.9 61.9 61.9s61.9-27.7 61.9-61.9-27.7-61.9-61.9-61.9-61.9 27.7-61.9 61.9l-72.1 185.6z m0 0l185.6-103.1c0 34.2 27.7 61.9 61.9 61.9s61.9-27.7 61.9-61.9-27.7-61.9-61.9-61.9-61.9 27.7-61.9 61.9l-185.6 103.1z m0 0l206.2 51.6c0 34.2 27.7 61.9 61.9 61.9s61.9-27.7 61.9-61.9-27.7-61.9-61.9-61.9-61.9 27.7-61.9 61.9l-206.2-51.6z m0 0l103.1 165c0 34.2 27.7 61.9 61.9 61.9s61.9-27.7 61.9-61.9-27.7-61.9-61.9-61.9-61.9 27.7-61.9 61.9l-103.1-165z" fill="#919AAA" p-id="7212"></path><path d="M1011.59844 420.825v-2.2c-35.2-114.3-103.1-215.9-195.3-292-87.1-73.4-197.1-114.1-311-115.3-125.6 1.7-246.2 49.6-338.7 134.7-189.4 167.7-221.6 451.4-74.5 657.2 71.3 101.1 176.9 172.9 297.1 202.2l6.3 1c22.6 3.1 45.5 4.8 68.3 5.1 73.8 8.5 145.1-30 178.5-96.4 9.5-32.3 7.3-67-6.3-97.8-5.7-22.7-0.4-46.7 14.1-64.9 15.5-19.4 40.4-28.8 64.9-24.4 85.4 20.1 175.3 1.2 245.5-51.4 59.4-71.1 78.7-167.4 51.3-255.9l-0.2 0.1z m-88.4 217c-57.3 40.7-129.6 54.4-197.8 37.4h-1.6l-2.6-0.8c-42.8-6.7-85.9 10-113.1 43.8-26.2 31.9-34.8 74.7-23 114.3 7.3 18.2 10.2 37.9 8.5 57.5v1.5c-24.2 47.8-76 75-129.1 67.7-20.5-0.2-41-1.9-61.2-5.2l-6.3-1a449.121 449.121 0 0 1-258.4-175.9l-0.9-1.1-1.6-1.9c-133.6-183.9-105.1-439.2 65.6-589.2 160.4-153.6 411-160.9 580.1-16.9 82.8 69 144.4 160 177.8 262.5v0.7c23.2 70.5 9.6 148.2-36.4 206.6z" fill="#919AAA" p-id="7213"></path></svg>