<?xml version="1.0" standalone="no"?><!DOCTYPE svg PUBLIC "-//W3C//DTD SVG 1.1//EN" "http://www.w3.org/Graphics/SVG/1.1/DTD/svg11.dtd"><svg t="1591150713755" class="icon" viewBox="0 0 1024 1024" version="1.1" xmlns="http://www.w3.org/2000/svg" p-id="4310" xmlns:xlink="http://www.w3.org/1999/xlink" width="32" height="32"><defs><style type="text/css"></style></defs><path d="M381.33676 257.074895h246.875891c76.39254 0 134.686847-165.68382 134.686847-165.68382 0-49.595157-4.999512-87.191485-89.791231-89.791231s-105.089737 59.29421-165.983791 59.294209c-62.493897 0-93.690851-48.695245-170.583341-59.294209s-89.891222 40.196075-89.891222 89.891221c-0.09999-0.09999 58.294307 165.58383 134.686847 165.58383zM641.811323 308.269896h-260.474563c-288.371839 0-359.164925 566.544673-359.164925 566.544673-0.999902 77.292452 57.694366 142.286105 134.686847 149.185431h709.6307c76.992481-6.799336 135.686749-71.892979 134.686847-149.185431 0 0-70.793087-566.544673-359.164925-566.544673h-0.199981z m29.49712 435.457474c17.398301 0 31.496924 14.098623 31.396933 31.496925 0 17.398301-14.098623 31.396934-31.396933 31.396933h-127.787521v82.591935c0 17.398301-14.098623 31.396934-31.396934 31.396934-17.398301 0-31.396934-14.098623-31.396934-31.396934v-82.591935h-128.587443c-17.398301 0-31.496924-14.098623-31.396934-31.496924 0-17.398301 14.098623-31.396934 31.396934-31.396934h128.487453v-39.896104h-128.487453c-17.398301 0-31.496924-14.098623-31.496924-31.496924s14.098623-31.496924 31.496924-31.496924h87.091495l-88.891319-158.084562c-8.39918-15.198516-2.799727-34.396641 12.398789-42.795821 14.798555-8.099209 33.296748-3.199688 42.095889 11.198907l107.089542 189.681476h5.399473l107.089542-189.581486c8.999121-14.898545 28.397227-19.598086 43.195782-10.598965 14.398594 8.799141 19.398106 27.297334 11.198906 42.095889l-88.891319 158.084562h81.592032c17.398301 0 31.496924 14.098623 31.496924 31.496924s-14.098623 31.496924-31.496924 31.496924h-127.787521v39.896104h127.587541z" fill="#FC4F4B" p-id="4311"></path></svg>