<?xml version="1.0" standalone="no"?><!DOCTYPE svg PUBLIC "-//W3C//DTD SVG 1.1//EN" "http://www.w3.org/Graphics/SVG/1.1/DTD/svg11.dtd"><svg t="1591088106852" class="icon" viewBox="0 0 1024 1024" version="1.1" xmlns="http://www.w3.org/2000/svg" p-id="4751" xmlns:xlink="http://www.w3.org/1999/xlink" width="200" height="200"><defs><style type="text/css"></style></defs><path d="M811.1 1005.3H95.4c-52.7 0-95.4-42.7-95.4-95.3V114.1c0.1-52.6 42.8-95.3 95.4-95.3h715.7c52.7 0.1 95.4 42.8 95.4 95.4v257.1c-5.7 3-11.1 6.5-16 10.6l-0.6 0.5-0.6 0.5c-4.7 3.9-10.2 9.1-16.2 14.9-3.7 3.7-7.1 6.9-10.2 9.7l-3.9 3.7-3.9 3.9-3 2.9-30.8 29.2 1.2 1.2-2.5 2.6-108 111.7-40.9 42.1-36.7 37.9c-13.3 13.8-21.5 22.3-28.2 29.4l-12.1 12.7-1.7 1.8a132.8 132.8 0 0 0-17 21.2c-3.8 6.1-7.1 12.4-9.9 19-3.5 7.5-6.5 15.2-8.9 23.1-2.6 7.8-5.1 16.4-8.8 28.9-2.8 9.9-5.6 19.6-8.1 29-2.6 9.2-4.7 18.6-6.2 28.1-4.2 20.4 0.5 41.6 12.9 58.2 12.3 15.5 31.3 24.3 51.1 23.6 3.3 0 6.8 0 11-0.6h2c5.9-1 13.5-2.7 24.8-5.7 9-2.4 19.1-5.5 30.7-9.4 9.1-3.1 18.4-6.4 30.4-10.8 10.7-4.2 18.5-7.5 24.4-10.2 8.2-3.8 15.9-8.6 22.9-14.3 4.3-3.4 8.8-7.2 13.2-11.1 3.4-3 7.7-7.3 15.3-15.3l14.7-15.3 12.3-12.9c10.2-10.6 21.5-22.3 35.8-36.5l0.4-0.4v-0.3l40.2-42.1 30.7-31.5v209.1c-0.6 52.2-42.9 94.6-95.2 94.9zM222.7 679c-22 0-39.8 17.8-39.8 39.8 0 22 17.8 39.8 39.8 39.8h174.9c22 0 39.8-17.8 39.8-39.8 0-22-17.8-39.8-39.8-39.8H222.7z m0-206.8c-22-0.8-40.4 16.4-41.2 38.4-0.8 22 16.4 40.4 38.4 41.2H525c22 0.8 40.4-16.4 41.2-38.4 0.8-22-16.4-40.4-38.4-41.2H222.7z m0-206.6c-22 0-39.8 17.8-39.8 39.8 0 22 17.8 39.8 39.8 39.8h461.1c22 0 39.8-17.8 39.8-39.8 0-22-17.8-39.8-39.8-39.8H222.7z" fill="#FFFFFF" p-id="4752"></path><path d="M841.1 696.5l-40.2 42.1c-13.3 13.5-25.5 25.9-36.2 37.1-10.6 11.2-19.5 20.4-26.6 27.8s-11.2 11.4-12.6 12.5c-3.4 3.1-7.2 6.5-11.5 9.8-4.2 3.3-8.7 6.2-13.5 8.4-4.7 2.4-11.5 5.1-20.4 8.9-8.9 3.8-18.4 6.8-28.4 10.2s-19.3 6.1-28.2 8.5-15.3 3.9-19.9 4.6c-1.8 0.2-3.6 0.3-5.4 0.4-4.6 0.5-9.3-1.1-12.6-4.4-3.3-5.8-4.2-12.7-2.5-19.2 1.2-7.1 2.8-14.2 4.8-21.1 2.5-9.2 5.1-18.7 8-28.5 2.9-9.8 5.6-19.1 8.3-27.3 1.7-5.9 3.9-11.6 6.6-17.1 1.9-4.6 4.2-9 6.8-13.2 3.1-4.7 6.8-9.2 10.8-13.2l14.2-14.9c7.3-7.8 16.6-17.4 27.7-28.9l36.7-37.9 40.9-42.1 108-111.7 94 97.7-108.8 111.5z m180.4-190.1c-1.8 4.8-4.5 9.2-8 12.9-3.9 4.2-7.7 7.8-10.8 10.9l-8.3 8.3c-2.7 2.8-5.1 5.1-7.6 7.3l-94-97.1c4.1-3.8 8.9-8.4 14.3-13.8s10.2-9.6 13.8-12.7c4.3-3.5 9.2-6.2 14.5-8 4.3-1.4 8.9-2.1 13.4-2.1h1.4c4.8 0.2 9.5 1 14.1 2.3 4 1.2 8 2.8 11.8 4.6 8.8 5.3 16.7 12 23.3 19.9 8.1 8.9 14.8 19 19.9 29.8 1.4 3.5 2.5 7.2 3.2 10.9 0.9 4.3 1.3 8.6 1.3 12.9 0.2 4.7-0.6 9.5-2.3 13.9z" fill="#FFFFFF" opacity=".5" p-id="4753"></path></svg>