<?xml version="1.0" standalone="no"?><!DOCTYPE svg PUBLIC "-//W3C//DTD SVG 1.1//EN" "http://www.w3.org/Graphics/SVG/1.1/DTD/svg11.dtd"><svg t="1591088088465" class="icon" viewBox="0 0 1024 1024" version="1.1" xmlns="http://www.w3.org/2000/svg" p-id="4494" xmlns:xlink="http://www.w3.org/1999/xlink" width="200" height="200"><defs><style type="text/css"></style></defs><path d="M895.68 742.386c9.6-0.5 19.2 2.1 27.2 7.3-33.1-21.2-53.1-57.8-52.9-97.1v-227.6c-1.8-165.7-119.2-307.5-281.6-340.1v-8.2c0-42.3-34.3-76.6-76.6-76.6s-76.6 34.3-76.6 76.6v8.2c-162.5 32.6-280 174.5-281.7 340.2v227.6c0.1 39.3-19.9 75.9-52.9 97.1 8-5.3 17.6-7.8 27.2-7.3-28.2 0-51.1 22.9-51.1 51.1 0 28.2 22.9 51.1 51.1 51.1h767.7c28.2 0.1 51.2-22.7 51.2-50.9 0.1-28.2-22.7-51.2-50.9-51.2l-0.1-0.2z" fill="#FFFFFF" p-id="4495"></path><path d="M511.066 1023.986c70.7 0 128-57.3 128-128h-256c-0.2 70.5 56.9 127.9 127.4 128h0.6z" fill="#FFFFFF" opacity=".5" p-id="4496"></path></svg>