<?xml version="1.0" standalone="no"?><!DOCTYPE svg PUBLIC "-//W3C//DTD SVG 1.1//EN" "http://www.w3.org/Graphics/SVG/1.1/DTD/svg11.dtd"><svg t="1591250254450" class="icon" viewBox="0 0 1024 1024" version="1.1" xmlns="http://www.w3.org/2000/svg" p-id="6908" xmlns:xlink="http://www.w3.org/1999/xlink" width="32" height="32"><defs><style type="text/css"></style></defs><path d="M530.65912 556.348c-13.2 0.1-23.9-10.5-24-23.7 0-6.4 2.5-12.6 7.1-17.1l148.1-148.1c9-9.6 24.1-10.2 33.7-1.2 9.6 9 10.2 24.1 1.2 33.7l-1.2 1.2-148 148.1c-4.5 4.5-10.6 7.1-16.9 7.1z" fill="#F04531" p-id="6909"></path><path d="M530.65912 556.348c-6.3 0-12.4-2.5-16.9-7l-148.1-148.1c-9.6-9-10.2-24.1-1.2-33.7 9-9.6 24.1-10.2 33.7-1.2l1.2 1.2 148.1 148.1c9.4 9.2 9.5 24.3 0.3 33.7-4.5 4.6-10.7 7.2-17.1 7.1v-0.1z" fill="#F04531" p-id="6910"></path><path d="M530.65912 819.548c-13.2 0-23.9-10.7-23.9-23.8v-263.3c-0.1-13.2 10.6-23.9 23.7-24 13.2-0.1 23.9 10.6 24 23.7v263.5c0.1 13.3-10.6 23.9-23.8 23.9z" fill="#F04531" p-id="6911"></path><path d="M680.05912 556.348h-298.7c-13.2-0.1-23.8-10.8-23.7-24 0.1-13.1 10.7-23.7 23.7-23.7h298.8c13.2 0.1 23.8 10.8 23.7 24-0.1 13-10.7 23.6-23.8 23.7z m0 110.8h-298.7c-13.2-0.1-23.8-10.8-23.7-24 0.1-13.1 10.7-23.7 23.7-23.7h298.8c13.2 0.1 23.8 10.8 23.7 24-0.1 13-10.7 23.6-23.8 23.7z" fill="#F04531" p-id="6912"></path><path d="M995.29912 399.828c-5.9-0.2-11.7-1.9-16.8-5.1l-449.1-304.3c-10.4-5.9-23.1-5.9-33.5 0l-449.1 304.3c-13.6 9.1-32 5.6-41.4-7.9-9.3-13.1-6.3-31.3 6.8-40.7 0.3-0.2 0.7-0.5 1-0.7l449.2-304.3c30.2-19.7 69.3-19.7 99.5 0l449.1 304.3c13.6 9.3 17.1 27.8 7.9 41.4-5.1 8.1-14.1 12.9-23.6 12.8v0.2z m-242.3 597.8h-480.7c-106.5 2-194.5-82.5-197-189v-367.4c-0.7-16.3 12-30.1 28.3-30.8 16.3-0.7 30.1 12 30.8 28.3v369.9c2.3 73.9 64 132.1 137.9 130h480.6c73.9 2 135.6-56.1 137.9-130v-367.4c0.7-16.3 14.5-29 30.8-28.3 15.4 0.6 27.7 13 28.3 28.3v367.4c-2.5 106.5-90.5 190.9-197 189h0.1z" fill="#101D37" p-id="6913"></path></svg>