<?xml version="1.0" standalone="no"?><!DOCTYPE svg PUBLIC "-//W3C//DTD SVG 1.1//EN" "http://www.w3.org/Graphics/SVG/1.1/DTD/svg11.dtd"><svg t="1591250217399" class="icon" viewBox="0 0 1024 1024" version="1.1" xmlns="http://www.w3.org/2000/svg" p-id="6233" xmlns:xlink="http://www.w3.org/1999/xlink" width="32" height="32"><defs><style type="text/css"></style></defs><path d="M79.90754 1004.9c-43.9 0.2-79.7-35.2-79.9-79.2V160.9C-0.59246 117 34.70754 81 78.60754 80.6h118.6c15-0.6 27.7 11.2 28.2 26.2v2.1c0.6 15.1-11 27.8-26 28.5H79.70754c-12.9 0-23.4 10.5-23.3 23.4V247h911.1v-86.1c0-13-10.4-23.5-23.4-23.6h-91.5c-15 0.6-27.6-11.1-28.2-26.1v-2.3c-0.6-15 10.9-27.6 25.9-28.3h93.8c43.8-0.2 79.6 35.1 79.8 78.9v762.6c0.7 44.9-34.9 81.9-79.8 82.8H79.90754z m-23.5-82.8c-0.1 13 10.3 23.6 23.3 23.7h864.3c13-0.1 23.4-10.7 23.4-23.7V305.7H56.30754l0.1 616.4z m692.7-704.5c-22.6 0.3-41.4-17.5-42.2-40.1V59.2c-0.2-21.9 17.3-39.9 39.2-40.1h0.6c22.7-0.2 41.4 17.6 42.4 40.2v115.8c1.9 21.5-13.8 40.5-35.3 42.4-1.5 0.1-3.1 0.2-4.7 0.1z m-448.5 0c-22.6 0.3-41.4-17.5-42.4-40.1V59.2c0-22.1 17.9-39.9 40-39.9 22 0 39.9 17.8 39.9 39.9v116c3.6 19.6-9.3 38.4-28.9 42-2.8 0.5-5.7 0.7-8.6 0.5v-0.1z m103.3-80.3c-15 0.5-27.7-11.2-28.2-26.3v-2.2c-0.6-15 11.1-27.7 26.1-28.3h241.6c15-0.6 27.7 11.2 28.2 26.2v2.1c0.9 14.8-10.3 27.5-25.1 28.4H403.90754z" fill="#101D37" p-id="6234"></path><path d="M430.40754 836.6L270.80754 675.8c-13.7-13.1-14.2-34.9-1.1-48.7 0.4-0.3 0.7-0.7 1.1-1 12.8-13.6 34.3-14.2 47.9-1.4 0.4 0.5 0.9 1 1.3 1.4l136 136.9 293.7-295.8c12.8-13.6 34.2-14.2 47.8-1.4 0 0 0 0.1 0.1 0.1 0.4 0.4 1 0.9 1.4 1.3 13.7 13.2 14.1 35 1 48.7-0.3 0.3-0.6 0.7-1 1L484.30754 836.1c-6.2 6.2-14.4 9.9-23.2 10.5-2 0.4-4.1 0.6-6.1 0.6-9.3-0.1-18.1-3.9-24.6-10.6z" fill="#F04531" p-id="6235"></path></svg>