<?xml version="1.0" standalone="no"?><!DOCTYPE svg PUBLIC "-//W3C//DTD SVG 1.1//EN" "http://www.w3.org/Graphics/SVG/1.1/DTD/svg11.dtd"><svg t="1590118832902" class="icon" viewBox="0 0 1024 1024" version="1.1" xmlns="http://www.w3.org/2000/svg" p-id="3361" data-spm-anchor-id="a313x.7781069.0.i7" xmlns:xlink="http://www.w3.org/1999/xlink" width="32" height="32"><defs><style type="text/css"></style></defs><path d="M795.14 1011.28h-686.3c-60.2 0-108.8-48.8-108.8-108.8v-389.4c-0.4-61.6 47.4-112.7 108.8-116.4h109.5c132.2 1.8 240.9-103.8 242.7-236.1 0-3.6 0-7.2-0.1-10.9v-28.7c2.6-60.2 51.8-107.9 112-108.4h2.9c46.3 0.4 87.4 30 102.4 73.7l7.2 20.2c21.9 64.5 24.8 133.9 8.4 200l-3.8 15.9c-2.7 16.9-7.8 33.3-15.4 48.6h240.9c33.9 0 65.7 16.1 85.8 43.4 21.1 27.9 27.9 64 18.6 97.5l-119.8 417.8c-12.6 48-55.6 81.3-105 81.6z m-686.3-563.5c-33.3 3.3-58.4 31.7-57.6 65.2v389.3c0 31.9 25.9 57.6 57.6 57.6h686.3c26.4-0.5 49.3-18.4 55.9-43.9l119.7-418.4c5.2-18.2 1.5-37.6-10.1-52.6-10.5-14.3-27.1-22.8-44.8-22.9h-301.4v-51.2c12.4-15.6 20.9-33.8 24.8-53.4l0.8-5.4 4.4-18.1c14.2-56.5 11.9-115.9-6.4-171l-7.4-20.2c-8.1-23.2-29.7-38.9-54.2-39.4h-2.9c-32.1 0.6-58.5 25.6-60.9 57.6v28.9c4.7 159.8-120.8 293.3-280.7 298-4.4 0.1-8.7 0.1-13.1 0.1h-109.5l-0.5-0.2z" fill="#F04531" p-id="3362" data-spm-anchor-id="a313x.7781069.0.i0" class="selected"></path><path d="M230.34 985.68c-14.2 0-25.6-11.5-25.6-25.6v-512.3c0-14.2 11.5-25.6 25.6-25.6s25.6 11.5 25.6 25.6v512.3c0 14.1-11.4 25.6-25.6 25.6z" fill="#F04531" p-id="3363" data-spm-anchor-id="a313x.7781069.0.i5" class="selected"></path></svg>