<?xml version="1.0" standalone="no"?><!DOCTYPE svg PUBLIC "-//W3C//DTD SVG 1.1//EN" "http://www.w3.org/Graphics/SVG/1.1/DTD/svg11.dtd"><svg t="1590733360484" class="icon" viewBox="0 0 1024 1024" version="1.1" xmlns="http://www.w3.org/2000/svg" p-id="4893" xmlns:xlink="http://www.w3.org/1999/xlink" width="32" height="32"><defs><style type="text/css"></style></defs><path d="M946.8 618.3h-869.5c-42.6-0.1-77.2-34.7-77.3-77.3V193.2c0.1-42.6 34.7-77.2 77.3-77.3h869.4c42.6 0.1 77.2 34.7 77.3 77.3V541c-0.1 42.6-34.6 77.1-77.2 77.3z m-869.5-463.7c-21.3 0.1-38.6 17.3-38.6 38.6V541c0.1 21.3 17.3 38.6 38.6 38.6h869.4c21.3-0.1 38.6-17.3 38.6-38.6V193.2c-0.1-21.3-17.3-38.6-38.6-38.6h-869.4z" fill="#999999" p-id="4894"></path><path d="M289.9 347.8h-154.7c-10.7 0-19.3-8.7-19.3-19.3 0-10.7 8.7-19.3 19.3-19.3h154.5c10.7 0 19.3 8.7 19.3 19.3 0.1 10.6-8.6 19.3-19.1 19.3z m579.6 135.2h-734.3c-10.7 0-19.3-8.7-19.3-19.3 0-10.7 8.7-19.3 19.3-19.3h734.2c10.7 0 19.3 8.7 19.3 19.3 0 10.7-8.6 19.3-19.2 19.3zM208.7 908.1h-25.1c-10.7 0-19.3-8.7-19.3-19.3 0-10.7 8.7-19.3 19.3-19.3h25.1c28.7 0.1 52-23 52.2-51.7V676.2c0-10.7 8.7-19.3 19.3-19.3 10.7 0 19.3 8.7 19.3 19.3v141c0.1 50.1-40.4 90.8-90.5 90.9h-0.3z m631.8 0h-25.1c-50.1 0.1-90.7-40.5-90.8-90.6V676.2c0-10.7 8.7-19.3 19.3-19.3 10.7 0 19.3 8.7 19.3 19.3v141c-0.1 28.7 23 52 51.7 52.2h25.5c10.7 0 19.3 8.7 19.3 19.3 0.1 10.7-8.5 19.3-19.2 19.4z m-328.4 0c-10 0.6-18.7-7-19.3-17V676.2c0-10.7 8.7-19.3 19.3-19.3 10.7 0 19.3 8.7 19.3 19.3v212.5c0 10.7-8.7 19.4-19.3 19.4z" fill="#999999" p-id="4895"></path></svg>