<?xml version="1.0" standalone="no"?><!DOCTYPE svg PUBLIC "-//W3C//DTD SVG 1.1//EN" "http://www.w3.org/Graphics/SVG/1.1/DTD/svg11.dtd"><svg t="1590721926193" class="icon" viewBox="0 0 1024 1024" version="1.1" xmlns="http://www.w3.org/2000/svg" p-id="3971" xmlns:xlink="http://www.w3.org/1999/xlink" width="32" height="32"><defs><style type="text/css"></style></defs><path d="M56.688916 98.123872l447.64011-98.086877h13.898141l448.340017 98.186864v413.444685c0 282.062263-202.672885 512.331456-454.839148 512.331456s-454.839147-230.369179-454.839147-512.431442v-413.344699l-0.199973-0.099987z m65.091291 52.39299v361.151682c0 247.866838 175.57651 447.240164 390.047816 447.240165s390.047816-199.473313 390.047816-447.740098v-360.551762l-390.347776-85.488562-389.747856 85.388575z" fill="#0EA7EB" p-id="3972"></path><path d="M475.732852 351.689948c0-17.697632 14.298087-31.995719 31.995719-31.99572s31.995719 14.298087 31.99572 31.99572v223.070155c0 17.697632-14.298087 31.995719-31.99572 31.99572s-31.995719-14.298087-31.995719-31.99572v-223.070155z m31.995719 350.853059c-17.697632 0-31.995719-14.298087-31.995719-31.995719s14.298087-31.995719 31.995719-31.995719 31.995719 14.298087 31.99572 31.995719c0.099987 17.697632-14.1981 31.995719-31.795746 32.095706h-0.099987v-0.099987z" fill="#0EA7EB" p-id="3973"></path></svg>