<?xml version="1.0" standalone="no"?><!DOCTYPE svg PUBLIC "-//W3C//DTD SVG 1.1//EN" "http://www.w3.org/Graphics/SVG/1.1/DTD/svg11.dtd"><svg t="1590543031964" class="icon" viewBox="0 0 1024 1024" version="1.1" xmlns="http://www.w3.org/2000/svg" p-id="3041" xmlns:xlink="http://www.w3.org/1999/xlink" width="32" height="32"><defs><style type="text/css"></style></defs><path d="M512 512m-512 0a512 512 0 1 0 1024 0 512 512 0 1 0-1024 0Z" fill="#F04531" p-id="3042"></path><path d="M512 1024c-282.8 0-512-229.2-512-512s229.2-512 512-512 512 229.2 512 512c-0.3 282.6-229.4 511.7-512 512z m0-991.2c-264.6 0-479.1 214.6-479.1 479.2S247.5 991.1 512.1 991.1s479-214.5 479.1-479.1c-0.3-264.5-214.7-478.8-479.2-479.1v-0.1z" fill="#101D37" p-id="3043"></path><path d="M672.8 758.3c-2.7 0-5.3-0.6-7.7-1.9l-153.2-80.6-153.2 80.5c-5.6 2.9-12.3 2.4-17.4-1.3-5.1-3.7-7.6-10-6.5-16.1l29.2-170.6-123.8-120.7c-6.5-6.4-6.5-16.9-0.1-23.4 2.5-2.5 5.8-4.2 9.3-4.7l171.3-24.9 76.8-155.2c4-8.1 13.9-11.5 22-7.5 3.3 1.6 5.9 4.2 7.5 7.5l76.8 155.2 171.3 24.9c9 1.4 15.2 9.8 13.9 18.8-0.5 3.5-2.2 6.8-4.7 9.3l-124.5 120.6 29.2 170.6c1.5 9-4.5 17.5-13.5 19.1-0.9 0.2-1.8 0.2-2.7 0.2v0.2zM512.1 640.9c2.7 0 5.3 0.7 7.7 1.9l131.4 69-25.1-146.3c-0.9-5.3 0.8-10.7 4.7-14.5l106.3-103.5-146.8-21.3c-5.4-0.8-10-4.1-12.3-9L512.1 284.1l-65.7 133.1c-2.4 4.8-7 8.2-12.3 9l-146.8 21.3 106.2 103.6c3.9 3.8 5.6 9.2 4.7 14.5l-25.1 146.3 131.4-69c2.3-1.4 4.9-2.1 7.6-2z" fill="#101D37" p-id="3044"></path></svg>