<?xml version="1.0" standalone="no"?><!DOCTYPE svg PUBLIC "-//W3C//DTD SVG 1.1//EN" "http://www.w3.org/Graphics/SVG/1.1/DTD/svg11.dtd"><svg t="1591947858267" class="icon" viewBox="0 0 1024 1024" version="1.1" xmlns="http://www.w3.org/2000/svg" p-id="12660" xmlns:xlink="http://www.w3.org/1999/xlink" width="200" height="200"><defs><style type="text/css"></style></defs><path d="M865.7 1022.599H158.6c-76.2 10.7-146.6-42.5-157.2-118.7-1.8-12.7-1.8-25.6 0-38.3v-707.2c-10.5-76.1 42.6-146.5 118.7-157 12.7-1.8 25.6-1.8 38.3 0h707c76.2-10.6 146.6 42.5 157.2 118.8 1.8 12.7 1.8 25.6 0 38.3v707.1c10.5 76.2-42.6 146.6-118.8 157.1-12.5 1.7-25.4 1.7-38.1-0.1z m-706-517.3c-12.5 0-24.6 4.9-33.4 13.8-18.2 17.9-18.7 47-1.2 65.4l235.8 235.7 1.4 1.4 1.4 1.2c8.6 7.3 19.5 11.3 30.6 11.3 13.8 0 26.9-6.1 36-16.5l471.2-549.9c8.2-9.3 12.2-21.6 11.3-34.1-0.9-12.5-6.9-24.2-16.4-32.3-8.6-7.3-19.3-11.3-30.6-11.3-13.7 0-26.8 6-35.7 16.4l-438.4 511.3-199.9-199.7c-8.6-8.3-20.1-12.9-32-13.1l-0.1 0.4z" fill="#F7A197" p-id="12661"></path></svg>