<?xml version="1.0" standalone="no"?><!DOCTYPE svg PUBLIC "-//W3C//DTD SVG 1.1//EN" "http://www.w3.org/Graphics/SVG/1.1/DTD/svg11.dtd"><svg t="1590042655081" class="icon" viewBox="0 0 1024 1024" version="1.1" xmlns="http://www.w3.org/2000/svg" p-id="3483" xmlns:xlink="http://www.w3.org/1999/xlink" width="64" height="64"><defs><style type="text/css"></style></defs><path d="M512 1024C229.2 1024 0 794.8 0 512S229.2 0 512 0s512 229.2 512 512c-0.4 282.6-229.4 511.6-512 512z m0-991.2C247.4 32.8 32.9 247.3 32.9 512s214.5 479.1 479.2 479.1c264.6 0 479.1-214.5 479.1-479.1C990.8 247.6 776.4 33.2 512 32.8z" fill="#101D37" p-id="3484"></path><path d="M672.8 758.3c-2.7 0-5.4-0.6-7.7-1.9l-153.2-80.6-153.2 80.5c-5.5 2.8-12.3 2.3-17.4-1.3-5.1-3.7-7.6-10-6.5-16.1l29.1-170.6L240 447.5c-6.5-6.4-6.5-16.9-0.1-23.4 2.6-2.6 5.8-4.2 9.3-4.7l171.3-25 76.8-155.1c4-8.2 13.8-11.5 22-7.4 3.2 1.7 5.9 4.2 7.4 7.4l76.8 155.1 171.3 25c9.1 1.4 15.2 9.7 13.8 18.8-0.5 3.6-2.2 6.8-4.7 9.3L659.5 568.1l29.2 170.6c1.5 9-4.5 17.5-13.6 19.1-0.9 0.1-1.8 0.3-2.7 0.3l0.4 0.2zM512 640.9c2.7 0 5.4 0.6 7.7 1.9l131.5 69-25.1-146.3c-0.9-5.2 0.8-10.8 4.6-14.5l106.2-103.5-146.8-21.4c-5.4-0.8-10-4.1-12.3-9L512.1 284l-65.7 133.1c-2.4 4.9-7 8.2-12.3 9l-146.8 21.4 106.2 103.6c3.8 3.7 5.6 9.2 4.7 14.5L373 711.9l131.5-69c2.4-1.4 4.9-2.1 7.5-2z" fill="#101D37" p-id="3485"></path></svg>