<?xml version="1.0" standalone="no"?><!DOCTYPE svg PUBLIC "-//W3C//DTD SVG 1.1//EN" "http://www.w3.org/Graphics/SVG/1.1/DTD/svg11.dtd"><svg t="1590463242934" class="icon" viewBox="0 0 1024 1024" version="1.1" xmlns="http://www.w3.org/2000/svg" p-id="3009" xmlns:xlink="http://www.w3.org/1999/xlink" width="32" height="32"><defs><style type="text/css"></style></defs><path d="M939.9 128.031H84.2c-45-1.4-82.6 33.9-84.2 78.9v610.1c1.5 45 39.1 80.3 84.2 78.9h855.7c45 1.4 82.6-33.9 84.2-78.9v-610.1c-1.6-45-39.2-80.3-84.2-78.9z m-322.3 136.1c43.7 2.8 76.8 40.5 73.9 84.2-2.8 43.7-40.5 76.8-84.2 73.9-41.7-2.7-74.1-37.3-74.1-79.1 1.5-45.1 39.3-80.5 84.4-79z m-533.8 526.9s69-377.1 229.4-377.1c157.1 0 197.2 263.8 307.8 263.8 69.8 0 62.5-119 173.2-119 79.4 0 129.9 232.4 129.9 232.4H83.8v-0.1z" fill="#DDE3EF" p-id="3010"></path></svg>