<?xml version="1.0" standalone="no"?><!DOCTYPE svg PUBLIC "-//W3C//DTD SVG 1.1//EN" "http://www.w3.org/Graphics/SVG/1.1/DTD/svg11.dtd"><svg t="1591250177425" class="icon" viewBox="0 0 1024 1024" version="1.1" xmlns="http://www.w3.org/2000/svg" p-id="5558" xmlns:xlink="http://www.w3.org/1999/xlink" width="32" height="32"><defs><style type="text/css"></style></defs><path d="M758.20014 178.34H119.90014c-66.3 0.1-120 54-119.9 120.2v418.7c-0.1 66.1 53.4 119.7 119.5 119.9h100.2v127.5c0 15.3 12.4 27.6 27.7 27.6 5.9 0 11.7-1.9 16.5-5.5l248.4-149.6h245.8c66.1 0.1 119.7-53.3 119.8-119.4v-419.2c0.2-66.2-53.5-120-119.7-120.2z m-536.5 387.8c-30.4 0-55-24.6-55-55s24.6-55 55-55 55 24.6 55 55c0.1 30.4-24.6 55-55 55z m219.7 0c-30.4 0-55-24.6-55-55s24.6-55 55-55 55 24.6 55 55-24.7 55-55 55z m219.1 0c-30.4 0-55-24.6-55-55s24.6-55 55-55 55 24.6 55 55-24.7 55-55 55z" fill="#F04531" p-id="5559"></path><path d="M790.60014 141.84c68.4 0 123.9 55.5 123.9 123.9v424.3c62.1-5.1 109.7-57.1 109.5-119.4v-377.9c-0.1-88.9-72.1-160.8-161-161H266.50014c-62.2 0-114 47.6-119.4 109.6h643.4l0.1 0.5z" fill="#101D37" p-id="5560"></path></svg>