<?xml version="1.0" standalone="no"?><!DOCTYPE svg PUBLIC "-//W3C//DTD SVG 1.1//EN" "http://www.w3.org/Graphics/SVG/1.1/DTD/svg11.dtd"><svg t="1590048619290" class="icon" viewBox="0 0 1024 1024" version="1.1" xmlns="http://www.w3.org/2000/svg" p-id="4494" xmlns:xlink="http://www.w3.org/1999/xlink" width="48" height="48"><defs><style type="text/css"></style></defs><path d="M922.10289 10H408.90289c-52.6 0.5-96.2 41-100.7 93.3H143.70289C63.90289 104-0.49711 169.1 0.00289 249v468.9c-0.4 79.9 63.9 145 143.7 145.6h53.7c2 0 3.7 1.7 3.7 3.7v101.5c-0.1 18 10.6 34.4 27.3 41.6 16.5 7 35.6 3.6 48.5-9.1l142.8-137.8h137.1c11.4 0 20.7-9.3 20.7-20.7s-9.3-20.7-20.7-20.7H419.70289c-11.5 0-22.7 4.5-30.8 12.7L248.40289 971.8l14.2 15-20.5-17.7V867.5c0.1-24.8-19.8-44.9-44.7-45.2h-53.5c-57.1-0.4-103.2-47.1-102.8-104.2v-469c-0.3-57.1 45.7-103.8 102.8-104.2h163.3v446.5c-0.4 56.6 45.2 102.6 101.7 103h151.3c11.5 0 22.5 4.5 30.8 12.4L828.20289 934c7.7 7.6 18 11.8 28.8 11.8 23.5-0.1 42.5-19.2 42.4-42.7v-0.1l1.3-208.5c68.6-0.5 123.8-56.4 123.4-125V113.1c0-56.5-45.5-102.5-102-103.1z m60.8 559.6c0.3 45.8-36.6 83.2-82.4 83.6-23.4 0.1-42.2 19.3-42.1 42.6l-1.9 208.5L619.10289 677c-15.9-15.2-37-23.8-59-23.7H408.90289c-33.8-0.3-60.9-27.8-60.8-61.6V113.1c-0.3-33.8 27-61.3 60.8-61.6h513.2c33.8 0.3 60.9 27.8 60.8 61.6v456.5z" fill="#101D37" p-id="4495"></path><path d="M679.30289 127.8c-42.1-7.6-85.5 4.1-118.1 31.7A145.81 145.81 0 0 0 510.00289 270.8c-0.5 11.3 8.3 20.9 19.6 21.4s20.9-8.3 21.4-19.6v-1.8c-0.1-30.6 13.3-59.6 36.6-79.6 23.3-20 54.5-28.3 84.6-22.7 56.4 11.3 93.2 66.2 81.9 122.6-6 29.8-24.7 55.7-51.2 70.5-43.3 22.8-70.1 67.8-69.9 116.7 0.1 10.6 8.7 19.1 19.3 19.1h1.3c11.8-0.9 20.7-10.8 20.5-22.5 0.9-32.6 19.6-62.1 48.6-76.8 54.1-30.7 83.1-92.3 72.1-153.6-10.8-59-56.6-105.3-115.5-116.7zM613.40289 569.3c0.3 22.3 18.4 40.1 40.7 39.8s40.1-18.4 39.8-40.7c-0.3-22-18.2-39.8-40.2-39.8-22.5 0.2-40.4 18.3-40.3 40.7 0-0.1 0 0 0 0z" fill="#F04531" p-id="4496"></path><path d="M323.20289 348.8H135.00289c-13.6 0-24.6-11-24.6-24.6s11-24.6 24.6-24.6h188.3c13.6 0 24.6 11 24.6 24.6s-11 24.6-24.6 24.6h-0.1zM213.40289 501.6h-78.3c-13.6 0-24.6-11-24.6-24.6 0-13.6 11-24.6 24.6-24.6h78.5c13.6 0 24.6 11 24.6 24.6 0 13.6-11 24.6-24.6 24.6h-0.2z" fill="#101D37" p-id="4497"></path></svg>