<?xml version="1.0" standalone="no"?><!DOCTYPE svg PUBLIC "-//W3C//DTD SVG 1.1//EN" "http://www.w3.org/Graphics/SVG/1.1/DTD/svg11.dtd"><svg t="1590982654527" class="icon" viewBox="0 0 1024 1024" version="1.1" xmlns="http://www.w3.org/2000/svg" p-id="4091" xmlns:xlink="http://www.w3.org/1999/xlink" width="64" height="64"><defs><style type="text/css"></style></defs><path d="M85.3072 193.9c-0.7 78.5 62.4 142.7 141 143.4 78.5 0.7 142.7-62.4 143.4-141 0.7-78.5-62.4-142.7-141-143.4h-1.4c-78.2-0.3-141.9 62.8-142.2 141h0.2z" fill="#F04531" p-id="4092"></path><path d="M0.0072 504.1c-0.7 62.8 49.7 114.3 112.6 115 62.8 0.7 114.3-49.7 115-112.6 0.7-62.8-49.7-114.3-112.6-115h-1.2C51.4072 391.2 0.4072 441.6 0.0072 504.1z" fill="#F04531" opacity=".9" p-id="4093"></path><path d="M99.6072 779C99.1072 837.9 146.4072 886.1 205.4072 886.6c58.9 0.5 107.1-46.8 107.6-105.8 0.5-58.9-46.8-107.1-105.8-107.6h-0.9C147.6072 673 99.9072 720.3 99.6072 779z" fill="#F04531" opacity=".8" p-id="4094"></path><path d="M412.5072 898.8c-0.5 55 43.7 100 98.7 100.4 55 0.5 100-43.7 100.4-98.7 0.5-55-43.7-100-98.7-100.4h-0.9c-54.7-0.2-99.2 43.9-99.5 98.7z" fill="#F04531" opacity=".7" p-id="4095"></path><path d="M725.3072 793.1c-0.5 51.1 40.6 92.8 91.6 93.3 51.1 0.4 92.8-40.6 93.3-91.6 0.5-51.1-40.6-92.8-91.6-93.3h-0.8c-50.8-0.3-92.2 40.7-92.5 91.6z" fill="#F04531" opacity=".6" p-id="4096"></path><path d="M867.6072 482.9c-0.4 43.2 34.3 78.6 77.5 78.9 43.2 0.4 78.6-34.3 78.9-77.5 0.4-43.2-34.3-78.6-77.5-78.9h-0.7c-43-0.2-78 34.5-78.2 77.5z" fill="#F04531" opacity=".5" p-id="4097"></path><path d="M768.0072 201c-0.3 35.3 28.1 64.3 63.4 64.6 35.4 0.3 64.3-28.1 64.6-63.4 0.3-35.3-28.1-64.3-63.4-64.6h-0.6c-35.2-0.2-63.8 28.1-64 63.4 0-0.1 0-0.1 0 0z" fill="#F04531" opacity=".4" p-id="4098"></path><path d="M497.8072 74.1c-0.3 27.5 21.8 50 49.3 50.2 27.5 0.3 50-21.8 50.2-49.3 0.3-27.5-21.8-50-49.3-50.2h-0.5c-27.3-0.2-49.6 21.9-49.7 49.3z" fill="#F04531" opacity=".3" p-id="4099"></path></svg>