<?xml version="1.0" standalone="no"?><!DOCTYPE svg PUBLIC "-//W3C//DTD SVG 1.1//EN" "http://www.w3.org/Graphics/SVG/1.1/DTD/svg11.dtd"><svg t="1591250239013" class="icon" viewBox="0 0 1024 1024" version="1.1" xmlns="http://www.w3.org/2000/svg" p-id="6503" xmlns:xlink="http://www.w3.org/1999/xlink" width="32" height="32"><defs><style type="text/css"></style></defs><path d="M667 433.6c-8.1-8.8-21.9-9.3-30.6-1.2l-1.2 1.2-132 137.5-131.9-137.5c-8.1-8.8-21.8-9.3-30.6-1.2l-1.2 1.2c-9 9.2-9 23.9 0 33.1l120.5 125.6H355.6c-13.1 0-23.6 10.7-23.6 23.7s10.6 23.5 23.6 23.6h125.1v71.6H355.6c-13.1 0-23.6 10.7-23.6 23.7s10.6 23.5 23.6 23.6h125.1v71.2c-0.8 12.5 8.6 23.4 21.2 24.2 12.5 0.8 23.4-8.6 24.2-21.2 0.1-1 0.1-2 0-3v-71.3h125.2c13.1 0 23.6-10.7 23.6-23.7s-10.6-23.5-23.6-23.6H526.1v-71.2h125.2c12.8-0.3 23-10.9 22.8-23.7 0-12.9-10.3-23.4-23.3-23.7H546.1l120.5-125.4c9-9.3 9-24.1 0-33.4l0.4-0.1z" fill="#F04531" p-id="6504"></path><path d="M1023.5 511.8v-186c-0.1-51.4-41.8-93-93.1-93.1h-39.5l-380-219.8C496.8 4.8 480.8 0.4 464.5 0.1c-33.2-0.2-63.9 17.6-80.1 46.5l-38.4 66.5-62.7-17.7c-8.5-1.3-17-2.1-25.6-2.4-42.6 0.1-79.8 28.7-90.8 69.8l-18.6 69.9H93.1c-51.4 0.1-93 41.8-93.1 93.1v186c57.7-0.2 104.6 46.5 104.8 104.2v0.6c0.1 57.7-46.5 104.6-104.2 104.7h-0.6v209.6c0.1 51.4 41.7 93 93.1 93.1h837.3c51.6 0 93.4-41.8 93.4-93.4V720.8c-57.9 0-104.8-46.9-104.8-104.8s46.9-104.8 104.8-104.8l-0.3 0.6zM423.3 69.7c8.2-14.1 23.2-23 39.5-23.3 8.1 0.1 16.1 2.2 23.3 5.9l311.9 180.3h-7.2L391.6 125.2l31.7-55.7v0.2zM211.6 174.3c5.5-20.5 24.1-34.8 45.3-34.9 4.3-0.2 8.6 0.2 12.8 1.1l340.7 92h-414l15.3-58-0.1-0.2z m765.4 586.1v170.1c-0.1 25.6-20.8 46.3-46.4 46.5H93c-25.6-0.1-46.3-20.9-46.4-46.5v-170C109 740 151.1 681.8 151.2 616.1c-0.3-65.7-42.7-123.8-105.2-144.1V325.5c0.1-25.6 20.8-46.3 46.4-46.4h838c25.6 0.1 46.4 20.8 46.5 46.4V472c-79.6 25.8-123.2 111.3-97.4 190.9 15 46.3 51.4 82.6 97.7 97.5h-0.2z" fill="#101D37" p-id="6505"></path></svg>