<?xml version="1.0" standalone="no"?><!DOCTYPE svg PUBLIC "-//W3C//DTD SVG 1.1//EN" "http://www.w3.org/Graphics/SVG/1.1/DTD/svg11.dtd"><svg t="1589162455998" class="icon" viewBox="0 0 1024 1024" version="1.1" xmlns="http://www.w3.org/2000/svg" p-id="2686" xmlns:xlink="http://www.w3.org/1999/xlink" width="200" height="200"><defs><style type="text/css"></style></defs><path d="M493 647.7c-82.3 0.2-154.2-55.8-174.1-135.7-3.4-16.4-19.4-26.9-35.8-23.5-16.4 3.4-26.9 19.4-23.5 35.8l0.6 2.4C286.8 633.6 382.9 708.5 493 708.2c16.7 0 30.2-13.5 30.3-30.2 0-16.7-13.5-30.2-30.2-30.3h-0.1z m384.7 212.1L742 721.8c140.3-137.6 142.4-362.9 4.8-503.2-137.6-140.2-362.9-142.4-503.2-4.8S101.2 576.7 238.8 717c121.3 123.6 313.9 142 456.4 43.5l139.3 141.7c11.3 12.3 30.5 13.1 42.8 1.8 12.3-11.3 13.1-30.5 1.8-42.8-0.5-0.4-1-0.9-1.4-1.4zM198.3 468.5c-0.2-162.9 131.8-295.1 294.7-295.3C655.9 173 788.2 305 788.3 467.9c0.2 162.9-131.8 295.2-294.7 295.3h-0.3c-162.9 0.2-295.1-131.7-295.3-294.7h0.3z" fill="#999999" p-id="2687"></path></svg>