<?xml version="1.0" standalone="no"?><!DOCTYPE svg PUBLIC "-//W3C//DTD SVG 1.1//EN" "http://www.w3.org/Graphics/SVG/1.1/DTD/svg11.dtd"><svg t="1590723136812" class="icon" viewBox="0 0 1024 1024" version="1.1" xmlns="http://www.w3.org/2000/svg" p-id="4232" xmlns:xlink="http://www.w3.org/1999/xlink" width="32" height="32"><defs><style type="text/css"></style></defs><path d="M914.05829 743c-140.3-113.2-179-56.2-241 7-45.8 45.6-157.8-49.2-256-147.2s-193.2-210.5-147.6-256.2c63.2-63.2 119.3-101.8 7-242.1s-190.6-35.2-250.4 28c-70.1 69.7-3.6 336.5 258.5 600.9s527.6 328.8 601.4 258.8c63.2-63.5 168.6-137.2 28-249.2h0.1z m-189.2-256.8c0 21.5 17.4 38.8 38.8 38.8 21.5 0 38.8-17.4 38.8-38.8 0-143-115.8-258.8-258.7-258.8-21.5 0-38.8 17.4-38.8 38.8 0 21.5 17.4 38.8 38.8 38.8 100 0 181.1 81 181.1 181.2 0-0.1 0-0.1 0 0z" fill="#F04531" p-id="4233"></path><path d="M543.65829 5.5c-21.5 0-38.9 17.4-38.9 38.9s17.4 38.8 38.9 38.9c222.6 0.2 402.8 180.7 402.8 403.3 0 21.5 17.4 38.8 38.8 38.8 21.5 0 38.8-17.4 38.8-38.8 0.1-265.6-215-480.9-480.4-481.1z" fill="#F04531" p-id="4234"></path></svg>